  0
SECTION
  2
HEADER
  9
$ACADVER
  1
AC1015
  9
$ACADMAINTVER
 70
     6
  9
$DWGCODEPAGE
  3
ANSI_1252
  9
$INSBASE
 10
0.0
 20
0.0
 30
0.0
  9
$EXTMIN
 10
0.0
 20
0.0
 30
0.0
  9
$EXTMAX
 10
11.0
 20
8.5
 30
0.0
  9
$LIMMIN
 10
0.0
 20
0.0
  9
$LIMMAX
 10
11.0
 20
8.5
  9
$ORTHOMODE
 70
     0
  9
$REGENMODE
 70
     1
  9
$FILLMODE
 70
     1
  9
$QTEXTMODE
 70
     0
  9
$MIRRTEXT
 70
     1
  9
$LTSCALE
 40
1.0
  9
$ATTMODE
 70
     1
  9
$TEXTSIZE
 40
0.1377952756
  9
$TRACEWID
 40
0.05
  9
$TEXTSTYLE
  7
Standard
  9
$CLAYER
  8
0
  9
$CELTYPE
  6
ByLayer
  9
$CECOLOR
 62
   256
  9
$CELTSCALE
 40
1.0
  9
$DISPSILH
 70
     0
  9
$DIMSCALE
 40
1.0
  9
$DIMASZ
 40
0.2362204724
  9
$DIMEXO
 40
0.0393700787
  9
$DIMDLI
 40
0.38
  9
$DIMRND
 40
0.0
  9
$DIMDLE
 40
0.0
  9
$DIMEXE
 40
0.0393700787
  9
$DIMTP
 40
0.0
  9
$DIMTM
 40
0.0
  9
$DIMTXT
 40
0.1377952756
  9
$DIMCEN
 40
0.09
  9
$DIMTSZ
 40
0.0
  9
$DIMTOL
 70
     0
  9
$DIMLIM
 70
     0
  9
$DIMTIH
 70
     1
  9
$DIMTOH
 70
     1
  9
$DIMSE1
 70
     0
  9
$DIMSE2
 70
     0
  9
$DIMTAD
 70
     1
  9
$DIMZIN
 70
     0
  9
$DIMBLK
  1

  9
$DIMASO
 70
     1
  9
$DIMSHO
 70
     1
  9
$DIMPOST
  1

  9
$DIMAPOST
  1

  9
$DIMALT
 70
     0
  9
$DIMALTD
 70
     2
  9
$DIMALTF
 40
25.4
  9
$DIMLFAC
 40
5.0
  9
$DIMTOFL
 70
     0
  9
$DIMTVP
 40
0.0
  9
$DIMTIX
 70
     0
  9
$DIMSOXD
 70
     0
  9
$DIMSAH
 70
     0
  9
$DIMBLK1
  1

  9
$DIMBLK2
  1

  9
$DIMSTYLE
  2
Standard
  9
$DIMCLRD
 70
     0
  9
$DIMCLRE
 70
     0
  9
$DIMCLRT
 70
     0
  9
$DIMTFAC
 40
1.0
  9
$DIMGAP
 40
0.06
  9
$DIMJUST
 70
     0
  9
$DIMSD1
 70
     0
  9
$DIMSD2
 70
     0
  9
$DIMTOLJ
 70
     1
  9
$DIMTZIN
 70
     0
  9
$DIMALTZ
 70
     0
  9
$DIMALTTZ
 70
     0
  9
$DIMUPT
 70
     0
  9
$DIMDEC
 70
     2
  9
$DIMTDEC
 70
     2
  9
$DIMALTU
 70
     2
  9
$DIMALTTD
 70
     2
  9
$DIMTXSTY
  7
Standard
  9
$DIMAUNIT
 70
     0
  9
$DIMADEC
 70
     2
  9
$DIMALTRND
 40
0.0
  9
$DIMAZIN
 70
     0
  9
$DIMDSEP
 70
    46
  9
$DIMATFIT
 70
     3
  9
$DIMFRAC
 70
     0
  9
$DIMLDRBLK
  1

  9
$DIMLUNIT
 70
     2
  9
$DIMLWD
 70
    -2
  9
$DIMLWE
 70
    -2
  9
$DIMTMOVE
 70
     0
  9
$LUNITS
 70
     2
  9
$LUPREC
 70
     2
  9
$SKETCHINC
 40
0.1
  9
$FILLETRAD
 40
0.5
  9
$AUNITS
 70
     0
  9
$AUPREC
 70
     2
  9
$MENU
  1
.
  9
$ELEVATION
 40
0.0
  9
$PELEVATION
 40
0.0
  9
$THICKNESS
 40
0.0
  9
$LIMCHECK
 70
     0
  9
$CHAMFERA
 40
0.5
  9
$CHAMFERB
 40
0.5
  9
$CHAMFERC
 40
1.0
  9
$CHAMFERD
 40
0.0
  9
$SKPOLY
 70
     0
  9
$TDCREATE
 40
2455853.581261331
  9
$TDUCREATE
 40
2455853.747927998
  9
$TDUPDATE
 40
2455853.581261342
  9
$TDUUPDATE
 40
2455853.747928009
  9
$TDINDWG
 40
0.0000000116
  9
$TDUSRTIMER
 40
0.0000000116
  9
$USRTIMER
 70
     1
  9
$ANGBASE
 50
0.0
  9
$ANGDIR
 70
     0
  9
$PDMODE
 70
     0
  9
$PDSIZE
 40
-1.0
  9
$PLINEWID
 40
0.0
  9
$SPLFRAME
 70
     0
  9
$SPLINETYPE
 70
     6
  9
$SPLINESEGS
 70
     8
  9
$HANDSEED
  5
E8
  9
$SURFTAB1
 70
     6
  9
$SURFTAB2
 70
     6
  9
$SURFTYPE
 70
     6
  9
$SURFU
 70
     6
  9
$SURFV
 70
     6
  9
$UCSBASE
  2

  9
$UCSNAME
  2

  9
$UCSORG
 10
0.0
 20
0.0
 30
0.0
  9
$UCSXDIR
 10
1.0
 20
0.0
 30
0.0
  9
$UCSYDIR
 10
0.0
 20
1.0
 30
0.0
  9
$UCSORTHOREF
  2

  9
$UCSORTHOVIEW
 70
     0
  9
$UCSORGTOP
 10
0.0
 20
0.0
 30
0.0
  9
$UCSORGBOTTOM
 10
0.0
 20
0.0
 30
0.0
  9
$UCSORGLEFT
 10
0.0
 20
0.0
 30
0.0
  9
$UCSORGRIGHT
 10
0.0
 20
0.0
 30
0.0
  9
$UCSORGFRONT
 10
0.0
 20
0.0
 30
0.0
  9
$UCSORGBACK
 10
0.0
 20
0.0
 30
0.0
  9
$PUCSBASE
  2

  9
$PUCSNAME
  2

  9
$PUCSORG
 10
0.0
 20
0.0
 30
0.0
  9
$PUCSXDIR
 10
1.0
 20
0.0
 30
0.0
  9
$PUCSYDIR
 10
0.0
 20
1.0
 30
0.0
  9
$PUCSORTHOREF
  2

  9
$PUCSORTHOVIEW
 70
     0
  9
$PUCSORGTOP
 10
0.0
 20
0.0
 30
0.0
  9
$PUCSORGBOTTOM
 10
0.0
 20
0.0
 30
0.0
  9
$PUCSORGLEFT
 10
0.0
 20
0.0
 30
0.0
  9
$PUCSORGRIGHT
 10
0.0
 20
0.0
 30
0.0
  9
$PUCSORGFRONT
 10
0.0
 20
0.0
 30
0.0
  9
$PUCSORGBACK
 10
0.0
 20
0.0
 30
0.0
  9
$USERI1
 70
     0
  9
$USERI2
 70
     0
  9
$USERI3
 70
     0
  9
$USERI4
 70
     0
  9
$USERI5
 70
     0
  9
$USERR1
 40
0.0
  9
$USERR2
 40
0.0
  9
$USERR3
 40
0.0
  9
$USERR4
 40
0.0
  9
$USERR5
 40
0.0
  9
$WORLDVIEW
 70
     1
  9
$SHADEDGE
 70
     3
  9
$SHADEDIF
 70
    70
  9
$TILEMODE
 70
     1
  9
$MAXACTVP
 70
    64
  9
$PINSBASE
 10
0.0
 20
0.0
 30
0.0
  9
$PLIMCHECK
 70
     0
  9
$PEXTMIN
 10
1.0000000000E+20
 20
1.0000000000E+20
 30
1.0000000000E+20
  9
$PEXTMAX
 10
-1.0000000000E+20
 20
-1.0000000000E+20
 30
-1.0000000000E+20
  9
$PLIMMIN
 10
0.0
 20
0.0
  9
$PLIMMAX
 10
12.0
 20
9.0
  9
$UNITMODE
 70
     0
  9
$VISRETAIN
 70
     1
  9
$PLINEGEN
 70
     0
  9
$PSLTSCALE
 70
     1
  9
$TREEDEPTH
 70
  3020
  9
$CMLSTYLE
  2
Standard
  9
$CMLJUST
 70
     0
  9
$CMLSCALE
 40
1.0
  9
$PROXYGRAPHICS
 70
     1
  9
$MEASUREMENT
 70
     0
  9
$CELWEIGHT
370
    -1
  9
$ENDCAPS
280
     0
  9
$JOINSTYLE
280
     0
  9
$LWDISPLAY
290
     1
  9
$INSUNITS
 70
     1
  9
$HYPERLINKBASE
  1

  9
$STYLESHEET
  1

  9
$XEDIT
290
     1
  9
$CEPSNTYPE
380
     0
  9
$PSTYLEMODE
290
     1
  9
$FINGERPRINTGUID
  2
{1808FBCE-29A5-4F3A-978D-7FDFEFAC009A}
  9
$VERSIONGUID
  2
{FAEB1C32-E019-11D5-929B-00C0DF256EC4}
  9
$EXTNAMES
290
     1
  9
$PSVPSCALE
 40
0.0
  9
$OLESTARTUP
290
     0
  0
ENDSEC
  0
SECTION
  2
CLASSES
  0
CLASS
  1
ACDBDICTIONARYWDFLT
  2
AcDbDictionaryWithDefault
  3
ObjectDBX Classes
 90
        0
280
     0
281
     0
  0
CLASS
  1
VISUALSTYLE
  2
AcDbVisualStyle
  3
ObjectDBX Classes
 90
     4095
280
     0
281
     0
  0
CLASS
  1
MATERIAL
  2
AcDbMaterial
  3
ObjectDBX Classes
 90
     1153
280
     0
281
     0
  0
CLASS
  1
ACDBPLACEHOLDER
  2
AcDbPlaceHolder
  3
ObjectDBX Classes
 90
        0
280
     0
281
     0
  0
CLASS
  1
LAYOUT
  2
AcDbLayout
  3
ObjectDBX Classes
 90
        0
280
     0
281
     0
  0
ENDSEC
  0
SECTION
  2
TABLES
  0
TABLE
  2
VPORT
  5
8
330
0
100
AcDbSymbolTable
 70
     1
  0
VPORT
  5
29
330
8
100
AcDbSymbolTableRecord
100
AcDbViewportTableRecord
  2
*Active
 70
     0
 10
0.0
 20
0.0
 11
1.0
 21
1.0
 12
5.5
 22
4.25
 13
0.0
 23
0.0
 14
0.5
 24
0.5
 15
0.5
 25
0.5
 16
0.0
 26
0.0
 36
1.0
 17
0.0
 27
0.0
 37
0.0
 40
8.5
 41
1.2941176471
 42
50.0
 43
0.0
 44
0.0
 50
0.0
 51
0.0
 71
     0
 72
  2000
 73
     1
 74
     3
 75
     0
 76
     0
 77
     0
 78
     0
281
     0
 65
     1
110
0.0
120
0.0
130
0.0
111
1.0
121
0.0
131
0.0
112
0.0
122
1.0
132
0.0
 79
     0
146
0.0
  0
ENDTAB
  0
TABLE
  2
LTYPE
  5
5
330
0
100
AcDbSymbolTable
 70
     6
  0
LTYPE
  5
14
330
5
100
AcDbSymbolTableRecord
100
AcDbLinetypeTableRecord
  2
ByBlock
 70
     0
  3

 72
    65
 73
     0
 40
0.0
  0
LTYPE
  5
15
330
5
100
AcDbSymbolTableRecord
100
AcDbLinetypeTableRecord
  2
ByLayer
 70
     0
  3

 72
    65
 73
     0
 40
0.0
  0
LTYPE
  5
16
330
5
100
AcDbSymbolTableRecord
100
AcDbLinetypeTableRecord
  2
Continuous
 70
     0
  3
Solid line
 72
    65
 73
     0
 40
0.0
  0
LTYPE
  5
3F
330
5
100
AcDbSymbolTableRecord
100
AcDbLinetypeTableRecord
  2
HIDDEN
 70
     0
  3
Hidden __ __ __ __ __ __ __ __ __ __ __ __ __ __
 72
    65
 73
     2
 40
0.075
 49
0.05
 74
     0
 49
-0.025
 74
     0
  0
LTYPE
  5
40
330
5
100
AcDbSymbolTableRecord
100
AcDbLinetypeTableRecord
  2
PHANTOM
 70
     0
  3
Phantom ______  __  __  ______  __  __  ______
 72
    65
 73
     6
 40
0.5
 49
0.25
 74
     0
 49
-0.05
 74
     0
 49
0.05
 74
     0
 49
-0.05
 74
     0
 49
0.05
 74
     0
 49
-0.05
 74
     0
  0
LTYPE
  5
41
330
5
100
AcDbSymbolTableRecord
100
AcDbLinetypeTableRecord
  2
CENTER
 70
     0
  3
Center ____ _ ____ _ ____ _ ____ _ ____ _ ____
 72
    65
 73
     4
 40
0.4
 49
0.25
 74
     0
 49
-0.05
 74
     0
 49
0.05
 74
     0
 49
-0.05
 74
     0
  0
LTYPE
  5
42
330
5
100
AcDbSymbolTableRecord
100
AcDbLinetypeTableRecord
  2
CENTERX2
 70
     0
  3
Center (2x) ________  __  ________  __  _____
 72
    65
 73
     4
 40
0.8
 49
0.5
 74
     0
 49
-0.1
 74
     0
 49
0.1
 74
     0
 49
-0.1
 74
     0
  0
LTYPE
  5
43
330
5
100
AcDbSymbolTableRecord
100
AcDbLinetypeTableRecord
  2
DOT2
 70
     0
  3
Dot (.5x) ........................................
 72
    65
 73
     2
 40
0.025
 49
0.0
 74
     0
 49
-0.025
 74
     0
  0
ENDTAB
  0
TABLE
  2
LAYER
  5
2
330
0
100
AcDbSymbolTable
 70
     1
  0
LAYER
  5
10
330
2
100
AcDbSymbolTableRecord
100
AcDbLayerTableRecord
  2
0
 70
     0
 62
     7
  6
Continuous
370
    -3
390
F
  0
ENDTAB
  0
TABLE
  2
STYLE
  5
3
330
0
100
AcDbSymbolTable
 70
     1
  0
STYLE
  5
11
330
3
100
AcDbSymbolTableRecord
100
AcDbTextStyleTableRecord
  2
Standard
 70
     0
 40
0.0
 41
1.0
 50
0.0
 71
     0
 42
0.2
  3
txt
  4

  0
ENDTAB
  0
TABLE
  2
VIEW
  5
6
330
0
100
AcDbSymbolTable
 70
     0
  0
ENDTAB
  0
TABLE
  2
UCS
  5
7
330
0
100
AcDbSymbolTable
 70
     0
  0
ENDTAB
  0
TABLE
  2
APPID
  5
9
330
0
100
AcDbSymbolTable
 70
     1
  0
APPID
  5
12
330
9
100
AcDbSymbolTableRecord
100
AcDbRegAppTableRecord
  2
ACAD
 70
     0
  0
ENDTAB
  0
TABLE
  2
DIMSTYLE
  5
A
330
0
100
AcDbSymbolTable
 70
     1
100
AcDbDimStyleTable
  0
DIMSTYLE
105
27
330
A
100
AcDbSymbolTableRecord
100
AcDbDimStyleTableRecord
  2
Standard
 70
     0
178
     0
340
11
  0
ENDTAB
  0
TABLE
  2
BLOCK_RECORD
  5
1
330
0
100
AcDbSymbolTable
 70
     1
  0
BLOCK_RECORD
  5
1F
330
1
100
AcDbSymbolTableRecord
100
AcDbBlockTableRecord
  2
*Model_Space
340
22
  0
BLOCK_RECORD
  5
1B
330
1
100
AcDbSymbolTableRecord
100
AcDbBlockTableRecord
  2
*Paper_Space
340
1E
  0
BLOCK_RECORD
  5
23
330
1
100
AcDbSymbolTableRecord
100
AcDbBlockTableRecord
  2
*Paper_Space0
340
26
  0
ENDTAB
  0
ENDSEC
  0
SECTION
  2
BLOCKS
  0
BLOCK
  5
20
330
1F
100
AcDbEntity
  8
0
100
AcDbBlockBegin
  2
*Model_Space
 70
     0
 10
0.0
 20
0.0
 30
0.0
  3
*Model_Space
  1

  0
ENDBLK
  5
21
330
1F
100
AcDbEntity
  8
0
100
AcDbBlockEnd
  0
BLOCK
  5
1C
330
1B
100
AcDbEntity
 67
     1
  8
0
100
AcDbBlockBegin
  2
*Paper_Space
 70
     0
 10
0.0
 20
0.0
 30
0.0
  3
*Paper_Space
  1

  0
ENDBLK
  5
1D
330
1B
100
AcDbEntity
 67
     1
  8
0
100
AcDbBlockEnd
  0
BLOCK
  5
24
330
23
100
AcDbEntity
  8
0
100
AcDbBlockBegin
  2
*Paper_Space0
 70
     0
 10
0.0
 20
0.0
 30
0.0
  3
*Paper_Space0
  1

  0
ENDBLK
  5
25
330
23
100
AcDbEntity
  8
0
100
AcDbBlockEnd
  0
ENDSEC
  0
SECTION
  2
ENTITIES
  0
SPLINE
  5
44
330
1F
100
AcDbEntity
  8
0
  6
Continuous
 62
     7
370
    15
100
AcDbSpline
210
0.0
220
0.0
230
1.0
 70
     8
 71
     3
 72
    17
 73
    13
 74
     0
 42
0.00000001
 43
0.00000001
 40
0.0
 40
0.0
 40
0.0
 40
0.0
 40
0.1256755456414992
 40
0.2508246327842915
 40
0.3770986279393313
 40
0.5020717360845246
 40
0.6257605625593878
 40
0.7479755129247553
 40
0.8099182780956405
 40
0.8715047206281524
 40
0.9344076633915603
 40
0.9999999999999999
 40
0.9999999999999999
 40
0.9999999999999999
 40
0.9999999999999999
 10
3.196768671887623
 20
5.565945218572406
 30
0.0
 10
3.198024480320964
 20
5.568361740175394
 30
0.0
 10
3.200530836569766
 20
5.573184660502425
 30
0.0
 10
3.205791797255259
 20
5.579491963842688
 30
0.0
 10
3.211983554253513
 20
5.584821721755068
 30
0.0
 10
3.218979320823926
 20
5.588995593407328
 30
0.0
 10
3.226538820795125
 20
5.591827135037
 30
0.0
 10
3.233179919603349
 20
5.592758885994709
 30
0.0
 10
3.238505121938506
 20
5.592715163659688
 30
0.0
 10
3.242496306215078
 20
5.592102986868568
 30
0.0
 10
3.24650661179085
 20
5.591144897073402
 30
0.0
 10
3.249062073423062
 20
5.590043043115912
 30
0.0
 10
3.250366547022322
 20
5.589480585288462
 30
0.0
  0
LINE
  5
45
330
1F
100
AcDbEntity
  8
0
  6
Continuous
 62
     7
370
    15
100
AcDbLine
 10
3.2718935624
 20
5.5658196966
 30
0.0
 11
3.1928774913
 21
5.5482466228
 31
0.0
  0
SPLINE
  5
46
330
1F
100
AcDbEntity
  8
0
  6
Continuous
 62
     7
370
    15
100
AcDbSpline
210
0.0
220
0.0
230
1.0
 70
     8
 71
     3
 72
    13
 73
     9
 74
     0
 42
0.00000001
 43
0.00000001
 40
0.0
 40
0.0
 40
0.0
 40
0.0
 40
0.2602898259049045
 40
0.4965398451211844
 40
0.6116603098749309
 40
0.7321690555897994
 40
0.8614306412616646
 40
1.0
 40
1.0
 40
1.0
 40
1.0
 10
3.250366547022322
 20
5.589480585288462
 30
0.0
 10
3.25295572077041
 20
5.588196069980035
 30
0.0
 10
3.257894937765921
 20
5.585745674425446
 30
0.0
 10
3.263201778276403
 20
5.581433075546641
 30
0.0
 10
3.266689035731608
 20
5.577515484279468
 30
0.0
 10
3.268799563666102
 20
5.57405158092134
 30
0.0
 10
3.270670459007081
 20
5.57016119373583
 30
0.0
 10
3.271476523732979
 20
5.56730000671261
 30
0.0
 10
3.271893562445274
 20
5.565819696616587
 30
0.0
  0
SPLINE
  5
47
330
1F
100
AcDbEntity
  8
0
  6
Continuous
 62
     7
370
    15
100
AcDbSpline
210
0.0
220
0.0
230
1.0
 70
     8
 71
     3
 72
    13
 73
     9
 74
     0
 42
0.00000001
 43
0.00000001
 40
0.0
 40
0.0
 40
0.0
 40
0.0
 40
0.2017458324722278
 40
0.3937212694869493
 40
0.5016905331731254
 40
0.6379534902785741
 40
0.8024414969897484
 40
1.0
 40
1.0
 40
1.0
 40
1.0
 10
3.192877491257235
 20
5.548246622801931
 30
0.0
 10
3.192863877967893
 20
5.549480669464261
 30
0.0
 10
3.19283731067034
 20
5.551888998858455
 30
0.0
 10
3.193001656204668
 20
5.554961436004948
 30
0.0
 10
3.193497290395679
 20
5.557591064821272
 30
0.0
 10
3.194303862836101
 20
5.559962731281053
 30
0.0
 10
3.195368506986104
 20
5.562819481988797
 30
0.0
 10
3.196274368806668
 20
5.564841733388727
 30
0.0
 10
3.196768671887623
 20
5.565945218572406
 30
0.0
  0
SPLINE
  5
48
330
1F
100
AcDbEntity
  8
0
  6
Continuous
 62
     7
370
    15
100
AcDbSpline
210
0.0
220
0.0
230
1.0
 70
     8
 71
     3
 72
    17
 73
    13
 74
     0
 42
0.00000001
 43
0.00000001
 40
0.0
 40
0.0
 40
0.0
 40
0.0
 40
0.1116961993196179
 40
0.2270331524841509
 40
0.3454319311821751
 40
0.4635292176643276
 40
0.5850684309286593
 40
0.713317450337395
 40
0.7813695693721229
 40
0.850633279866875
 40
0.923911079436413
 40
1.0
 40
1.0
 40
1.0
 40
1.0
 10
3.408784510788746
 20
5.432996547034153
 30
0.0
 10
3.409145605334353
 20
5.435468688873369
 30
0.0
 10
3.409879564354746
 20
5.440493552374224
 30
0.0
 10
3.412866108969425
 20
5.447677566997272
 30
0.0
 10
3.417222402303363
 20
5.454255614043738
 30
0.0
 10
3.422980664525506
 20
5.459880404167458
 30
0.0
 10
3.429963735508494
 20
5.464274826748737
 30
0.0
 10
3.43652674043531
 20
5.467027663532577
 30
0.0
 10
3.442242049140916
 20
5.468623386318721
 30
0.0
 10
3.446900051031403
 20
5.469284067503748
 30
0.0
 10
3.451777373637195
 20
5.46956823446448
 30
0.0
 10
3.455102702616468
 20
5.469330656109173
 30
0.0
 10
3.4567966588895
 20
5.469209631287924
 30
0.0
  0
SPLINE
  5
49
330
1F
100
AcDbEntity
  8
0
  6
Continuous
 62
     7
370
    15
100
AcDbSpline
210
0.0
220
0.0
230
1.0
 70
     8
 71
     3
 72
    17
 73
    13
 74
     0
 42
0.00000001
 43
0.00000001
 40
0.0
 40
0.0
 40
0.0
 40
0.0
 40
0.1158973667525259
 40
0.2325029061116429
 40
0.3493127428650037
 40
0.4687089763293587
 40
0.5902746325496678
 40
0.718331800406376
 40
0.7848180126611033
 40
0.8537688610372697
 40
0.9250108867052143
 40
0.9999999999999999
 40
0.9999999999999999
 40
0.9999999999999999
 40
0.9999999999999999
 10
3.49796786039812
 20
5.426030078486201
 30
0.0
 10
3.497585766556716
 20
5.423495727405998
 30
0.0
 10
3.496819244149665
 20
5.418411539492457
 30
0.0
 10
3.493870507739104
 20
5.411206790031573
 30
0.0
 10
3.489469648321586
 20
5.404735447572208
 30
0.0
 10
3.483798778557252
 20
5.399161006788585
 30
0.0
 10
3.476859256787497
 20
5.394812376471843
 30
0.0
 10
3.470374582991359
 20
5.392155374930784
 30
0.0
 10
3.464730229223279
 20
5.39072290179698
 30
0.0
 10
3.46020336654715
 20
5.390136730253865
 30
0.0
 10
3.455458303435627
 20
5.389845813585616
 30
0.0
 10
3.452235840440951
 20
5.390034194889519
 30
0.0
 10
3.450583322076461
 20
5.390130799121977
 30
0.0
  0
SPLINE
  5
4A
330
1F
100
AcDbEntity
  8
0
  6
Continuous
 62
     7
370
    15
100
AcDbSpline
210
0.0
220
0.0
230
1.0
 70
     8
 71
     3
 72
    17
 73
    13
 74
     0
 42
0.00000001
 43
0.00000001
 40
0.0
 40
0.0
 40
0.0
 40
0.0
 40
0.0747080612393625
 40
0.1466340459763203
 40
0.2157312639064397
 40
0.2837423422032986
 40
0.4139505392365861
 40
0.5369735377167206
 40
0.6564874068247036
 40
0.774266894103985
 40
0.8887827261197502
 40
1.0
 40
1.0
 40
1.0
 40
1.0
 10
3.4567966588895
 20
5.469209631287924
 30
0.0
 10
3.458432511268967
 20
5.469028222088966
 30
0.0
 10
3.461643298017305
 20
5.468672159244081
 30
0.0
 10
3.466297926968218
 20
5.467675719828619
 30
0.0
 10
3.470679094154113
 20
5.466226960353314
 30
0.0
 10
3.476012941029871
 20
5.463721067507195
 30
0.0
 10
3.482070304061539
 20
5.45998547976274
 30
0.0
 10
3.488101036285954
 20
5.454359554363674
 30
0.0
 10
3.492955157034123
 20
5.447999698114925
 30
0.0
 10
3.496043074641671
 20
5.440849325193654
 30
0.0
 10
3.498051671729424
 20
5.433483059882882
 30
0.0
 10
3.497995524019673
 20
5.428490085427785
 30
0.0
 10
3.49796786039812
 20
5.426030078486201
 30
0.0
  0
SPLINE
  5
4B
330
1F
100
AcDbEntity
  8
0
  6
Continuous
 62
     7
370
    15
100
AcDbSpline
210
0.0
220
0.0
230
1.0
 70
     8
 71
     3
 72
    17
 73
    13
 74
     0
 42
0.00000001
 43
0.00000001
 40
0.0
 40
0.0
 40
0.0
 40
0.0
 40
0.0771585413149109
 40
0.1504682408419727
 40
0.2206294256333589
 40
0.2883019430516384
 40
0.4166772282176732
 40
0.5389673692458323
 40
0.657152340041057
 40
0.77197235786486
 40
0.885751742394147
 40
1.0
 40
1.0
 40
1.0
 40
1.0
 10
3.450583322076461
 20
5.390130799121977
 30
0.0
 10
3.448885083345615
 20
5.390336316982097
 30
0.0
 10
3.445573317855941
 20
5.390737101008688
 30
0.0
 10
3.440779091308677
 20
5.391736386043128
 30
0.0
 10
3.436299068846612
 20
5.393113756548717
 30
0.0
 10
3.430856059098535
 20
5.395417553823286
 30
0.0
 10
3.424815775125518
 20
5.399142342871449
 30
0.0
 10
3.418664238748879
 20
5.404613203914953
 30
0.0
 10
3.414055614507716
 20
5.411057272828416
 30
0.0
 10
3.41054075925022
 20
5.417926540185377
 30
0.0
 10
3.408627221636937
 20
5.425385319770627
 30
0.0
 10
3.408732009249642
 20
5.430455995818721
 30
0.0
 10
3.408784510788746
 20
5.432996547034153
 30
0.0
  0
SPLINE
  5
4C
330
1F
100
AcDbEntity
  8
0
  6
Continuous
 62
     7
370
    15
100
AcDbSpline
210
0.0
220
0.0
230
1.0
 70
     8
 71
     3
 72
    15
 73
    11
 74
     0
 42
0.00000001
 43
0.00000001
 40
0.0
 40
0.0
 40
0.0
 40
0.0
 40
0.1133250439114681
 40
0.2239362674368666
 40
0.3364926110591044
 40
0.4564509701345985
 40
0.5826914009817983
 40
0.7118775654687267
 40
0.8497449476341611
 40
1.0
 40
1.0
 40
1.0
 40
1.0
 10
2.146500140913032
 20
5.499015216744908
 30
0.0
 10
2.146591784546243
 20
5.501666416052253
 30
0.0
 10
2.146772877201912
 20
5.506905325799174
 30
0.0
 10
2.149114311726505
 20
5.514509223388552
 30
0.0
 10
2.153294209492215
 20
5.521409494706905
 30
0.0
 10
2.158980098734868
 20
5.527612993547982
 30
0.0
 10
2.166032945045176
 20
5.532922652275199
 30
0.0
 10
2.174473248398558
 20
5.536666125262014
 30
0.0
 10
2.183956922946989
 20
5.539132388102572
 30
0.0
 10
2.190688161726326
 20
5.539453901240533
 30
0.0
 10
2.194198484124238
 20
5.539621569452343
 30
0.0
  0
SPLINE
  5
4D
330
1F
100
AcDbEntity
  8
0
  6
Continuous
 62
     7
370
    15
100
AcDbSpline
210
0.0
220
0.0
230
1.0
 70
     8
 71
     3
 72
    15
 73
    11
 74
     0
 42
0.00000001
 43
0.00000001
 40
0.0
 40
0.0
 40
0.0
 40
0.0
 40
0.1490990673628785
 40
0.2857061177322423
 40
0.4144178192514749
 40
0.5400313672292715
 40
0.6613819231790128
 40
0.7740849453165134
 40
0.8852064186582754
 40
1.0
 40
1.0
 40
1.0
 40
1.0
 10
2.194198484124238
 20
5.539621569452343
 30
0.0
 10
2.197619367517169
 20
5.539499785784749
 30
0.0
 10
2.204174521286375
 20
5.539266421891285
 30
0.0
 10
2.213509109173597
 20
5.537196843775464
 30
0.0
 10
2.221784888439702
 20
5.533591981461606
 30
0.0
 10
2.228799475420972
 20
5.528508930974946
 30
0.0
 10
2.234602897035089
 20
5.522576173528849
 30
0.0
 10
2.238793264881267
 20
5.515803041204649
 30
0.0
 10
2.241460233713278
 20
5.508411927372899
 30
0.0
 10
2.241791342789639
 20
5.503221591806159
 30
0.0
 10
2.241959588313355
 20
5.500584241192646
 30
0.0
  0
SPLINE
  5
4E
330
1F
100
AcDbEntity
  8
0
  6
Continuous
 62
     7
370
    15
100
AcDbSpline
210
0.0
220
0.0
230
1.0
 70
     8
 71
     3
 72
    19
 73
    15
 74
     0
 42
0.00000001
 43
0.00000001
 40
0.0
 40
0.0
 40
0.0
 40
0.0
 40
0.111966329288418
 40
0.2212990133330853
 40
0.3352006209370007
 40
0.4579414797430562
 40
0.5223023730585336
 40
0.5857162099452757
 40
0.6498721317423768
 40
0.715411731451158
 40
0.7819856733684091
 40
0.8515645378545753
 40
0.9246065549363925
 40
1.0
 40
1.0
 40
1.0
 40
1.0
 10
2.241959588313355
 20
5.500584241192644
 30
0.0
 10
2.24186993343007
 20
5.497994471787439
 30
0.0
 10
2.241692732504243
 20
5.492875848914162
 30
0.0
 10
2.239302185510642
 20
5.485416821000989
 30
0.0
 10
2.235140788424188
 20
5.4785491740738
 30
0.0
 10
2.23047040285249
 20
5.473366534955884
 30
0.0
 10
2.226094352937653
 20
5.469578143086573
 30
0.0
 10
2.222389358627336
 20
5.467144926090273
 30
0.0
 10
2.218505270080366
 20
5.464948345927174
 30
0.0
 10
2.21427240455556
 20
5.463318454122591
 30
0.0
 10
2.209843710000877
 20
5.461891277038557
 30
0.0
 10
2.205115566164285
 20
5.460884639063922
 30
0.0
 10
2.200109835065441
 20
5.460354257464336
 30
0.0
 10
2.196689085434484
 20
5.460229525411538
 30
0.0
 10
2.194951615859152
 20
5.460166171418938
 30
0.0
  0
SPLINE
  5
4F
330
1F
100
AcDbEntity
  8
0
  6
Continuous
 62
     7
370
    15
100
AcDbSpline
210
0.0
220
0.0
230
1.0
 70
     8
 71
     3
 72
    17
 73
    13
 74
     0
 42
0.00000001
 43
0.00000001
 40
0.0
 40
0.0
 40
0.0
 40
0.0
 40
0.078050703237951
 40
0.1519012817715161
 40
0.2230782862441203
 40
0.2919988572839407
 40
0.4215298533114518
 40
0.5438298578094362
 40
0.6599704893854369
 40
0.7729820452696323
 40
0.8857712054254712
 40
0.9999999999999999
 40
0.9999999999999999
 40
0.9999999999999999
 40
0.9999999999999999
 10
2.194951615859152
 20
5.460166171418938
 30
0.0
 10
2.193151551024964
 20
5.460181065420235
 30
0.0
 10
2.189648287835247
 20
5.46021005193533
 30
0.0
 10
2.184518785233189
 20
5.460702287911637
 30
0.0
 10
2.179674456339829
 20
5.461661338560186
 30
0.0
 10
2.17367803532915
 20
5.46334526069275
 30
0.0
 10
2.166952058188554
 20
5.466506927749821
 30
0.0
 10
2.159771803067574
 20
5.471116424390645
 30
0.0
 10
2.154127507789172
 20
5.477029269998621
 30
0.0
 10
2.149828252500076
 20
5.483683927759674
 30
0.0
 10
2.147068342330398
 20
5.491135825613837
 30
0.0
 10
2.146690340418561
 20
5.496377672643121
 30
0.0
 10
2.146500140913032
 20
5.499015216744908
 30
0.0
  0
SPLINE
  5
50
330
1F
100
AcDbEntity
  8
0
  6
Continuous
 62
     7
370
    15
100
AcDbSpline
210
0.0
220
0.0
230
1.0
 70
     8
 71
     3
 72
    15
 73
    11
 74
     0
 42
0.00000001
 43
0.00000001
 40
0.0
 40
0.0
 40
0.0
 40
0.0
 40
0.1682768530583746
 40
0.3199511480612688
 40
0.4563193210878724
 40
0.581753015695441
 40
0.696076914326068
 40
0.8002168972870279
 40
0.8987334557004375
 40
1.0
 40
1.0
 40
1.0
 40
1.0
 10
2.498850287073034
 20
5.290878893671096
 30
0.0
 10
2.496275670372857
 20
5.291698059411001
 30
0.0
 10
2.49138045422121
 20
5.293255570228276
 30
0.0
 10
2.484744320931779
 20
5.296397056720203
 30
0.0
 10
2.479154816482823
 20
5.300022603092476
 30
0.0
 10
2.4747921665477
 20
5.304244962531794
 30
0.0
 10
2.471586928246421
 20
5.308778126453465
 30
0.0
 10
2.469600955141639
 20
5.313509876067071
 30
0.0
 10
2.468981610513575
 20
5.318428971286282
 30
0.0
 10
2.469561021852308
 20
5.321595658957184
 30
0.0
 10
2.469854715278852
 20
5.323200797294479
 30
0.0
  0
SPLINE
  5
51
330
1F
100
AcDbEntity
  8
0
  6
Continuous
 62
     7
370
    15
100
AcDbSpline
210
0.0
220
0.0
230
1.0
 70
     8
 71
     3
 72
    15
 73
    11
 74
     0
 42
0.00000001
 43
0.00000001
 40
0.0
 40
0.0
 40
0.0
 40
0.0
 40
0.1028597139971374
 40
0.2046403444576986
 40
0.3141305027246483
 40
0.4360924083892532
 40
0.5687728191604182
 40
0.704507082296997
 40
0.8474737633952364
 40
1.0
 40
1.0
 40
1.0
 40
1.0
 10
2.469854715278852
 20
5.323200797294479
 30
0.0
 10
2.470464764378377
 20
5.324710183261359
 30
0.0
 10
2.471678462657435
 20
5.327713120487011
 30
0.0
 10
2.475005613934388
 20
5.33150316524347
 30
0.0
 10
2.479485984768967
 20
5.334327944240458
 30
0.0
 10
2.484916696997085
 20
5.336263272072572
 30
0.0
 10
2.490972638559275
 20
5.337405774516027
 30
0.0
 10
2.497461938232469
 20
5.33774678370165
 30
0.0
 10
2.50423932649644
 20
5.337010113112524
 30
0.0
 10
2.508756844935936
 20
5.335891214304236
 30
0.0
 10
2.511088677765383
 20
5.335313666031009
 30
0.0
  0
SPLINE
  5
52
330
1F
100
AcDbEntity
  8
0
  6
Continuous
 62
     7
370
    15
100
AcDbSpline
210
0.0
220
0.0
230
1.0
 70
     8
 71
     3
 72
    15
 73
    11
 74
     0
 42
0.00000001
 43
0.00000001
 40
0.0
 40
0.0
 40
0.0
 40
0.0
 40
0.1837689595671164
 40
0.3435330818292881
 40
0.4837612600151378
 40
0.6083951564381291
 40
0.7206476709027935
 40
0.8214255453466215
 40
0.9125382604624318
 40
1.0
 40
1.0
 40
1.0
 40
1.0
 10
2.511088677765383
 20
5.335313666031009
 30
0.0
 10
2.513855033111376
 20
5.334486928822057
 30
0.0
 10
2.519026388380962
 20
5.332941447028376
 30
0.0
 10
2.525927881842631
 20
5.329689813999526
 30
0.0
 10
2.531396655394582
 20
5.325801951117132
 30
0.0
 10
2.535368368616987
 20
5.321338390958747
 30
0.0
 10
2.537975302127373
 20
5.316698511237617
 30
0.0
 10
2.539739744539021
 20
5.312234054817692
 30
0.0
 10
2.540232685815278
 20
5.307801830249359
 30
0.0
 10
2.539711771742389
 20
5.305036519828047
 30
0.0
 10
2.539456639780469
 20
5.303682133164631
 30
0.0
  0
SPLINE
  5
53
330
1F
100
AcDbEntity
  8
0
  6
Continuous
 62
     7
370
    15
100
AcDbSpline
210
0.0
220
0.0
230
1.0
 70
     8
 71
     3
 72
    15
 73
    11
 74
     0
 42
0.00000001
 43
0.00000001
 40
0.0
 40
0.0
 40
0.0
 40
0.0
 40
0.0980501080880542
 40
0.1962429903443326
 40
0.2989595417841376
 40
0.4149664468486815
 40
0.5407854151689302
 40
0.6773175048767885
 40
0.8301928550360451
 40
1.0
 40
1.0
 40
1.0
 40
1.0
 10
2.539456639780469
 20
5.303682133164631
 30
0.0
 10
2.538975391238012
 20
5.30219729200471
 30
0.0
 10
2.538012193390378
 20
5.299225447556078
 30
0.0
 10
2.535014322203239
 20
5.295454906990406
 30
0.0
 10
2.531031830274961
 20
5.292361058326996
 30
0.0
 10
2.526063541346429
 20
5.290036033263605
 30
0.0
 10
2.520242407695765
 20
5.288496104007713
 30
0.0
 10
2.513648088724909
 20
5.288218960316746
 30
0.0
 10
2.506392835940939
 20
5.288900497534404
 30
0.0
 10
2.501450907644024
 20
5.290196755871161
 30
0.0
 10
2.498850287073034
 20
5.290878893671096
 30
0.0
  0
SPLINE
  5
54
330
1F
100
AcDbEntity
  8
0
  6
Continuous
 62
     7
370
    15
100
AcDbSpline
210
0.0
220
0.0
230
1.0
 70
     8
 71
     3
 72
    13
 73
     9
 74
     0
 42
0.00000001
 43
0.00000001
 40
0.0
 40
0.0
 40
0.0
 40
0.0
 40
0.2017458324722242
 40
0.3937212694869495
 40
0.5016905331731183
 40
0.6379534902785705
 40
0.8024414969897415
 40
1.0
 40
1.0
 40
1.0
 40
1.0
 10
2.98268683731929
 20
5.136298605080044
 30
0.0
 10
2.982673224029948
 20
5.137532651742373
 30
0.0
 10
2.982646656732395
 20
5.139940981136567
 30
0.0
 10
2.982811002266721
 20
5.143013418283059
 30
0.0
 10
2.983306636457734
 20
5.145643047099384
 30
0.0
 10
2.984113208898157
 20
5.148014713559165
 30
0.0
 10
2.985177853048158
 20
5.150871464266909
 30
0.0
 10
2.986083714868722
 20
5.152893715666838
 30
0.0
 10
2.986578017949678
 20
5.153997200850517
 30
0.0
  0
SPLINE
  5
55
330
1F
100
AcDbEntity
  8
0
  6
Continuous
 62
     7
370
    15
100
AcDbSpline
210
0.0
220
0.0
230
1.0
 70
     8
 71
     3
 72
    17
 73
    13
 74
     0
 42
0.00000001
 43
0.00000001
 40
0.0
 40
0.0
 40
0.0
 40
0.0
 40
0.1256755456414975
 40
0.2508246327842899
 40
0.3770986279393299
 40
0.5020717360845244
 40
0.625760562559387
 40
0.7479755129247545
 40
0.8099182780956399
 40
0.8715047206281521
 40
0.9344076633915595
 40
0.9999999999999999
 40
0.9999999999999999
 40
0.9999999999999999
 40
0.9999999999999999
 10
2.986578017949678
 20
5.153997200850517
 30
0.0
 10
2.987833826383019
 20
5.156413722453506
 30
0.0
 10
2.99034018263182
 20
5.161236642780536
 30
0.0
 10
2.995601143317313
 20
5.1675439461208
 30
0.0
 10
3.001792900315568
 20
5.172873704033179
 30
0.0
 10
3.008788666885981
 20
5.17704757568544
 30
0.0
 10
3.016348166857179
 20
5.179879117315111
 30
0.0
 10
3.022989265665402
 20
5.18081086827282
 30
0.0
 10
3.028314468000561
 20
5.180767145937799
 30
0.0
 10
3.032305652277132
 20
5.180154969146679
 30
0.0
 10
3.036315957852904
 20
5.179196879351514
 30
0.0
 10
3.038871419485117
 20
5.178095025394024
 30
0.0
 10
3.040175893084376
 20
5.177532567566574
 30
0.0
  0
SPLINE
  5
56
330
1F
100
AcDbEntity
  8
0
  6
Continuous
 62
     7
370
    15
100
AcDbSpline
210
0.0
220
0.0
230
1.0
 70
     8
 71
     3
 72
    13
 73
     9
 74
     0
 42
0.00000001
 43
0.00000001
 40
0.0
 40
0.0
 40
0.0
 40
0.0
 40
0.2602898259049052
 40
0.4965398451211768
 40
0.611660309874932
 40
0.7321690555897974
 40
0.8614306412616667
 40
1.0
 40
1.0
 40
1.0
 40
1.0
 10
3.040175893084376
 20
5.177532567566574
 30
0.0
 10
3.042765066832465
 20
5.176248052258146
 30
0.0
 10
3.047704283827976
 20
5.173797656703559
 30
0.0
 10
3.053011124338457
 20
5.169485057824752
 30
0.0
 10
3.056498381793664
 20
5.16556746655758
 30
0.0
 10
3.058608909728156
 20
5.162103563199453
 30
0.0
 10
3.060479805069134
 20
5.158213176013941
 30
0.0
 10
3.061285869795034
 20
5.155351988990721
 30
0.0
 10
3.061702908507328
 20
5.153871678894698
 30
0.0
  0
LINE
  5
57
330
1F
100
AcDbEntity
  8
0
  6
Continuous
 62
     7
370
    15
100
AcDbLine
 10
3.0617029085
 20
5.1538716789
 30
0.0
 11
2.9826868373
 21
5.1362986051
 31
0.0
  0
LINE
  5
58
330
1F
100
AcDbEntity
  8
0
  6
Continuous
 62
     7
370
    15
100
AcDbLine
 10
2.7299165552
 20
5.3877609232
 30
0.0
 11
2.6305031662
 21
5.1623862516
 31
0.0
  0
LINE
  5
59
330
1F
100
AcDbEntity
  8
0
  6
Continuous
 62
     7
370
    15
100
AcDbLine
 10
2.6305031662
 20
5.1623862516
 30
0.0
 11
2.7116531106
 21
5.1180770012
 31
0.0
  0
LINE
  5
5A
330
1F
100
AcDbEntity
  8
0
  6
Continuous
 62
     7
370
    15
100
AcDbLine
 10
2.7116531106
 20
5.1180770012
 30
0.0
 11
2.7751672202
 21
5.2608582259
 31
0.0
  0
SPLINE
  5
5B
330
1F
100
AcDbEntity
  8
0
  6
Continuous
 62
     7
370
    15
100
AcDbSpline
210
0.0
220
0.0
230
1.0
 70
     8
 71
     3
 72
    15
 73
    11
 74
     0
 42
0.00000001
 43
0.00000001
 40
0.0
 40
0.0
 40
0.0
 40
0.0
 40
0.1302451988013928
 40
0.2505319544026479
 40
0.3712729912480178
 40
0.4963412043032888
 40
0.6241465992585096
 40
0.7487449238157214
 40
0.8736253936382224
 40
1.0
 40
1.0
 40
1.0
 40
1.0
 10
2.775167220237977
 20
5.260858225904395
 30
0.0
 10
2.775799232452021
 20
5.262089246685808
 30
0.0
 10
2.77701493373428
 20
5.264457165389267
 30
0.0
 10
2.779776500843522
 20
5.267331944432198
 30
0.0
 10
2.783116561702317
 20
5.269365640839918
 30
0.0
 10
2.786908117295736
 20
5.270583307529609
 30
0.0
 10
2.790880291157547
 20
5.27111952316208
 30
0.0
 10
2.794886554839564
 20
5.271080785453007
 30
0.0
 10
2.798820901815142
 20
5.270329060505064
 30
0.0
 10
2.80128941185313
 20
5.269330912127928
 30
0.0
 10
2.802531006606511
 20
5.2688288700989
 30
0.0
  0
SPLINE
  5
5C
330
1F
100
AcDbEntity
  8
0
  6
Continuous
 62
     7
370
    15
100
AcDbSpline
210
0.0
220
0.0
230
1.0
 70
     8
 71
     3
 72
    15
 73
    11
 74
     0
 42
0.00000001
 43
0.00000001
 40
0.0
 40
0.0
 40
0.0
 40
0.0
 40
0.1371067794286335
 40
0.2669719702253877
 40
0.3934676316441325
 40
0.5235543545467366
 40
0.6486603607247948
 40
0.7631208367889989
 40
0.879858648350389
 40
0.9999999999999999
 40
0.9999999999999999
 40
0.9999999999999999
 40
0.9999999999999999
 10
2.802531006606511
 20
5.2688288700989
 30
0.0
 10
2.803791021907011
 20
5.268180377576075
 30
0.0
 10
2.806244502097345
 20
5.266917644053953
 30
0.0
 10
2.809429376517592
 20
5.264354559453881
 30
0.0
 10
2.812059888389388
 20
5.261336176619557
 30
0.0
 10
2.814105381395914
 20
5.257946901019935
 30
0.0
 10
2.815440819893805
 20
5.254346894675497
 30
0.0
 10
2.815937069150451
 20
5.250671522254546
 30
0.0
 10
2.815432371933762
 20
5.247022151297849
 30
0.0
 10
2.814409518589042
 20
5.244792540940385
 30
0.0
 10
2.813890743608128
 20
5.243661717957197
 30
0.0
  0
LINE
  5
5D
330
1F
100
AcDbEntity
  8
0
  6
Continuous
 62
     7
370
    15
100
AcDbLine
 10
2.8138907436
 20
5.243661718
 30
0.0
 11
2.7471130631
 21
5.1009432542
 31
0.0
  0
LINE
  5
5E
330
1F
100
AcDbEntity
  8
0
  6
Continuous
 62
     7
370
    15
100
AcDbLine
 10
2.7471130631
 20
5.1009432542
 30
0.0
 11
2.8353549981
 21
5.0690606774
 31
0.0
  0
LINE
  5
5F
330
1F
100
AcDbEntity
  8
0
  6
Continuous
 62
     7
370
    15
100
AcDbLine
 10
2.8353549981
 20
5.0690606774
 30
0.0
 11
2.9051452055
 21
5.2213815708
 31
0.0
  0
SPLINE
  5
60
330
1F
100
AcDbEntity
  8
0
  6
Continuous
 62
     7
370
    15
100
AcDbSpline
210
0.0
220
0.0
230
1.0
 70
     8
 71
     3
 72
    23
 73
    19
 74
     0
 42
0.00000001
 43
0.00000001
 40
0.0
 40
0.0
 40
0.0
 40
0.0
 40
0.0694010602018728
 40
0.1370871256488653
 40
0.2026615011256001
 40
0.267160617452685
 40
0.3300457525727967
 40
0.3912724177558549
 40
0.4508790005527338
 40
0.509958018482791
 40
0.5685129125001455
 40
0.6259530428759237
 40
0.6841648288255293
 40
0.7428465936339117
 40
0.803125542663199
 40
0.8657775355066945
 40
0.9309923956144482
 40
0.9999999999999999
 40
0.9999999999999999
 40
0.9999999999999999
 40
0.9999999999999999
 10
2.905145205488516
 20
5.221381570799331
 30
0.0
 10
2.906311650233636
 20
5.224107519903269
 30
0.0
 10
2.908615715284971
 20
5.229492056194748
 30
0.0
 10
2.911386020947143
 20
5.237705116075738
 30
0.0
 10
2.913404189741994
 20
5.245916550343736
 30
0.0
 10
2.914725287757952
 20
5.254061000365386
 30
0.0
 10
2.915356935887027
 20
5.262100933075428
 30
0.0
 10
2.91532199157082
 20
5.26995870570061
 30
0.0
 10
2.914506498198332
 20
5.277615012259607
 30
0.0
 10
2.912915440171576
 20
5.285027031605876
 30
0.0
 10
2.910702503832393
 20
5.29218472811636
 30
0.0
 10
2.907641461862487
 20
5.298986653381879
 30
0.0
 10
2.903814953414315
 20
5.305395436525044
 30
0.0
 10
2.899170930401135
 20
5.311388096531581
 30
0.0
 10
2.893829274322043
 20
5.317036661884301
 30
0.0
 10
2.887572340590664
 20
5.322112884488972
 30
0.0
 10
2.880477187500689
 20
5.326660918094571
 30
0.0
 10
2.875339309700554
 20
5.329211555704512
 30
0.0
 10
2.872697779909313
 20
5.330522911383921
 30
0.0
  0
SPLINE
  5
61
330
1F
100
AcDbEntity
  8
0
  6
Continuous
 62
     7
370
    15
100
AcDbSpline
210
0.0
220
0.0
230
1.0
 70
     8
 71
     3
 72
    15
 73
    11
 74
     0
 42
0.00000001
 43
0.00000001
 40
0.0
 40
0.0
 40
0.0
 40
0.0
 40
0.1188750434867251
 40
0.2333422873068126
 40
0.346873990496121
 40
0.4589551634845176
 40
0.5756439909214769
 40
0.7023019185265605
 40
0.8440509307233791
 40
0.9999999999999999
 40
0.9999999999999999
 40
0.9999999999999999
 40
0.9999999999999999
 10
2.872697779909313
 20
5.330522911383921
 30
0.0
 10
2.870023197769562
 20
5.331677469171781
 30
0.0
 10
2.864773205039598
 20
5.333943774589175
 30
0.0
 10
2.856554048665545
 20
5.336166604804515
 30
0.0
 10
2.848339447654017
 20
5.33759599535941
 30
0.0
 10
2.839947454725686
 20
5.337983368765578
 30
0.0
 10
2.83124435867025
 20
5.337253071599268
 30
0.0
 10
2.822077121037014
 20
5.334923600490096
 30
0.0
 10
2.812348977954787
 20
5.33121021139578
 30
0.0
 10
2.805906104392128
 20
5.327793804772597
 30
0.0
 10
2.802531006606511
 20
5.326004120974438
 30
0.0
  0
LINE
  5
62
330
1F
100
AcDbEntity
  8
0
  6
Continuous
 62
     7
370
    15
100
AcDbLine
 10
2.8025310066
 20
5.326004121
 30
0.0
 11
2.8009619822
 21
5.3266944917
 31
0.0
  0
LINE
  5
63
330
1F
100
AcDbEntity
  8
0
  6
Continuous
 62
     7
370
    15
100
AcDbLine
 10
2.8009619822
 20
5.3266944917
 30
0.0
 11
2.8148321583
 21
5.3570080441
 31
0.0
  0
LINE
  5
64
330
1F
100
AcDbEntity
  8
0
  6
Continuous
 62
     7
370
    15
100
AcDbLine
 10
2.8148321583
 20
5.3570080441
 30
0.0
 11
2.7299165552
 21
5.3877609232
 31
0.0
  0
LINE
  5
65
330
1F
100
AcDbEntity
  8
0
  6
Continuous
 62
     7
370
    15
100
AcDbLine
 10
2.5976988273
 20
5.1832438166
 30
0.0
 11
2.6701249958
 21
5.3300417439
 31
0.0
  0
SPLINE
  5
66
330
1F
100
AcDbEntity
  8
0
  6
Continuous
 62
     7
370
    15
100
AcDbSpline
210
0.0
220
0.0
230
1.0
 70
     8
 71
     3
 72
    23
 73
    19
 74
     0
 42
0.00000001
 43
0.00000001
 40
0.0
 40
0.0
 40
0.0
 40
0.0
 40
0.0756531292801963
 40
0.1461675900830794
 40
0.2114425570964235
 40
0.2732017162325364
 40
0.332919354896144
 40
0.3909901089514243
 40
0.4482297989508499
 40
0.5058323492450127
 40
0.5638743420908401
 40
0.6224938318897483
 40
0.6828583665311625
 40
0.7452676892330188
 40
0.8084458493284102
 40
0.8722801918985449
 40
0.9357552741871884
 40
1.0
 40
1.0
 40
1.0
 40
1.0
 10
2.670124995788012
 20
5.330041743886613
 30
0.0
 10
2.671814611540169
 20
5.333838595903766
 30
0.0
 10
2.675079077465226
 20
5.341174402294456
 30
0.0
 10
2.678525627548268
 20
5.352297596137156
 30
0.0
 10
2.680319570500655
 20
5.363026899287298
 30
0.0
 10
2.680637375488854
 20
5.373305941444284
 30
0.0
 10
2.679667424752257
 20
5.383138536384971
 30
0.0
 10
2.677668895479737
 20
5.39255925977047
 30
0.0
 10
2.674562980381881
 20
5.401556831832591
 30
0.0
 10
2.670386466113586
 20
5.410103183632454
 30
0.0
 10
2.665286438747747
 20
5.418218305413002
 30
0.0
 10
2.659269033627469
 20
5.425873438655277
 30
0.0
 10
2.652325813332484
 20
5.433035922339746
 30
0.0
 10
2.644561494751576
 20
5.43968323292031
 30
0.0
 10
2.636193728623122
 20
5.445867639195362
 30
0.0
 10
2.627467267591669
 20
5.45164296807197
 30
0.0
 10
2.618296717724847
 20
5.456811087927949
 30
0.0
 10
2.611983267836849
 20
5.459864543005096
 30
0.0
 10
2.608807520370447
 20
5.461400470651161
 30
0.0
  0
SPLINE
  5
67
330
1F
100
AcDbEntity
  8
0
  6
Continuous
 62
     7
370
    15
100
AcDbSpline
210
0.0
220
0.0
230
1.0
 70
     8
 71
     3
 72
    13
 73
     9
 74
     0
 42
0.00000001
 43
0.00000001
 40
0.0
 40
0.0
 40
0.0
 40
0.0
 40
0.2568180967197648
 40
0.5097913941089977
 40
0.6346964934367916
 40
0.757859013921488
 40
0.8791919818743831
 40
1.0
 40
1.0
 40
1.0
 40
1.0
 10
2.608807520370447
 20
5.461400470651161
 30
0.0
 10
2.60174841195635
 20
5.464514394388403
 30
0.0
 10
2.587735876369672
 20
5.470695623606412
 30
0.0
 10
2.569806162836449
 20
5.477206931609509
 30
0.0
 10
2.555479716160683
 20
5.481829807410302
 30
0.0
 10
2.544729577617477
 20
5.484586958619652
 30
0.0
 10
2.534036647535574
 20
5.487070104562989
 30
0.0
 10
2.52684989398822
 20
5.488200356310982
 30
0.0
 10
2.523264307479822
 20
5.488764257019695
 30
0.0
  0
LINE
  5
68
330
1F
100
AcDbEntity
  8
0
  6
Continuous
 62
     7
370
    15
100
AcDbLine
 10
2.5232643075
 20
5.488764257
 30
0.0
 11
2.479268862
 21
5.4331580306
 31
0.0
  0
SPLINE
  5
69
330
1F
100
AcDbEntity
  8
0
  6
Continuous
 62
     7
370
    15
100
AcDbSpline
210
0.0
220
0.0
230
1.0
 70
     8
 71
     3
 72
    13
 73
     9
 74
     0
 42
0.00000001
 43
0.00000001
 40
0.0
 40
0.0
 40
0.0
 40
0.0
 40
0.2480162018537551
 40
0.4911672785630802
 40
0.613049542335889
 40
0.7378571642427899
 40
0.866873013423818
 40
1.0
 40
1.0
 40
1.0
 40
1.0
 10
2.479268861965275
 20
5.433158030591894
 30
0.0
 10
2.485027792538508
 20
5.432359749511734
 30
0.0
 10
2.496432685589633
 20
5.43077884655967
 30
0.0
 10
2.510581905548233
 20
5.428239787719545
 30
0.0
 10
2.521788494570209
 20
5.425711312843996
 30
0.0
 10
2.530219901869162
 20
5.423149952841633
 30
0.0
 10
2.53877623561119
 20
5.420118683211468
 30
0.0
 10
2.544388739280421
 20
5.417611393862949
 30
0.0
 10
2.547239001041245
 20
5.416338088512153
 30
0.0
  0
SPLINE
  5
6A
330
1F
100
AcDbEntity
  8
0
  6
Continuous
 62
     7
370
    15
100
AcDbSpline
210
0.0
220
0.0
230
1.0
 70
     8
 71
     3
 72
    19
 73
    15
 74
     0
 42
0.00000001
 43
0.00000001
 40
0.0
 40
0.0
 40
0.0
 40
0.0
 40
0.1510831120272311
 40
0.2879502586490255
 40
0.4128424812839046
 40
0.5276277928717116
 40
0.5818884338463797
 40
0.6344092787634794
 40
0.6869734541432904
 40
0.7416687221062179
 40
0.7989978728673455
 40
0.8609682113001542
 40
0.9276937495943044
 40
1.0
 40
1.0
 40
1.0
 40
1.0
 10
2.547239001041245
 20
5.416338088512153
 30
0.0
 10
2.550220632401995
 20
5.414890641052074
 30
0.0
 10
2.555903342468024
 20
5.412131941784383
 30
0.0
 10
2.563552941741646
 20
5.407257776837241
 30
0.0
 10
2.570043542794658
 20
5.40212975564159
 30
0.0
 10
2.57450608587726
 20
5.397441051540452
 30
0.0
 10
2.577316785004412
 20
5.393456857836502
 30
0.0
 10
2.578759638640356
 20
5.390256312516584
 30
0.0
 10
2.57973776019421
 20
5.386878665215798
 30
0.0
 10
2.580099682643815
 20
5.383268231229482
 30
0.0
 10
2.579872049038666
 20
5.379450196959375
 30
0.0
 10
2.57918185297632
 20
5.37542297445639
 30
0.0
 10
2.577911237862041
 20
5.371189622824026
 30
0.0
 10
2.576684354846299
 20
5.368397367094682
 30
0.0
 10
2.576046289901698
 20
5.36694519889739
 30
0.0
  0
LINE
  5
6B
330
1F
100
AcDbEntity
  8
0
  6
Continuous
 62
     7
370
    15
100
AcDbLine
 10
2.5760462899
 20
5.3669451989
 30
0.0
 11
2.5706488458
 21
5.3551461351
 31
0.0
  0
SPLINE
  5
6C
330
1F
100
AcDbEntity
  8
0
  6
Continuous
 62
     7
370
    15
100
AcDbSpline
210
0.0
220
0.0
230
1.0
 70
     8
 71
     3
 72
    15
 73
    11
 74
     0
 42
0.00000001
 43
0.00000001
 40
0.0
 40
0.0
 40
0.0
 40
0.0
 40
0.1009985761321688
 40
0.2072085141522146
 40
0.3194341088720214
 40
0.4376785035561908
 40
0.5636257614993793
 40
0.6978811461167174
 40
0.8430110195616544
 40
1.0
 40
1.0
 40
1.0
 40
1.0
 10
2.570648845801482
 20
5.355146135050406
 30
0.0
 10
2.569644412323884
 20
5.356936420616133
 30
0.0
 10
2.567583718238597
 20
5.360609367564387
 30
0.0
 10
2.564004718854295
 20
5.366036888674409
 30
0.0
 10
2.55973742584817
 20
5.371389646267689
 30
0.0
 10
2.555073122133727
 20
5.376937177869893
 30
0.0
 10
2.549526958209882
 20
5.382289750483358
 30
0.0
 10
2.543004633210087
 20
5.387346725578624
 30
0.0
 10
2.535422473761917
 20
5.391982140452255
 30
0.0
 10
2.529899730323354
 20
5.394669742989254
 30
0.0
 10
2.527029966154391
 20
5.39606629264739
 30
0.0
  0
SPLINE
  5
6D
330
1F
100
AcDbEntity
  8
0
  6
Continuous
 62
     7
370
    15
100
AcDbSpline
210
0.0
220
0.0
230
1.0
 70
     8
 71
     3
 72
    23
 73
    19
 74
     0
 42
0.00000001
 43
0.00000001
 40
0.0
 40
0.0
 40
0.0
 40
0.0
 40
0.0691425627194127
 40
0.1362491423206628
 40
0.202171314105042
 40
0.2666170652233699
 40
0.3302279654054611
 40
0.3916530493917307
 40
0.4524875362334018
 40
0.5126289482138884
 40
0.572293603869739
 40
0.631466736197822
 40
0.691358549243108
 40
0.7515411619514838
 40
0.81195968768876
 40
0.8733057683188806
 40
0.9356278705966721
 40
0.9999999999999999
 40
0.9999999999999999
 40
0.9999999999999999
 40
0.9999999999999999
 10
2.527029966154391
 20
5.39606629264739
 30
0.0
 10
2.524162080513027
 20
5.397287655665872
 30
0.0
 10
2.518510757456125
 20
5.399694417249265
 30
0.0
 10
2.509794635018348
 20
5.402404406242458
 30
0.0
 10
2.501073123393586
 20
5.40423094287434
 30
0.0
 10
2.492367755455776
 20
5.405181939733708
 30
0.0
 10
2.483822472128053
 20
5.405264227881196
 30
0.0
 10
2.475445768720508
 20
5.404778960330131
 30
0.0
 10
2.467351260785575
 20
5.403264687020286
 30
0.0
 10
2.459475250223229
 20
5.401170697638455
 30
0.0
 10
2.451936616547139
 20
5.39826148467956
 30
0.0
 10
2.444718292975806
 20
5.394663680589054
 30
0.0
 10
2.437879913091985
 20
5.390335494902132
 30
0.0
 10
2.431484210441867
 20
5.385294529491974
 30
0.0
 10
2.425509218001212
 20
5.379652702754694
 30
0.0
 10
2.420270266794658
 20
5.373199637812538
 30
0.0
 10
2.415543033633099
 20
5.366142585188983
 30
0.0
 10
2.413019986096975
 20
5.361014988711903
 30
0.0
 10
2.411738049734671
 20
5.3584097059017
 30
0.0
  0
SPLINE
  5
6E
330
1F
100
AcDbEntity
  8
0
  6
Continuous
 62
     7
370
    15
100
AcDbSpline
210
0.0
220
0.0
230
1.0
 70
     8
 71
     3
 72
    23
 73
    19
 74
     0
 42
0.00000001
 43
0.00000001
 40
0.0
 40
0.0
 40
0.0
 40
0.0
 40
0.0720981899766284
 40
0.140906668044445
 40
0.2076091637502994
 40
0.2727729578147914
 40
0.3363527200809261
 40
0.3980327730523826
 40
0.4583248703954546
 40
0.5182189278005322
 40
0.5776064761093523
 40
0.6367522181437891
 40
0.6960876614371878
 40
0.7563250130929317
 40
0.8170329229312161
 40
0.8771726353865648
 40
0.938261470632828
 40
0.9999999999999999
 40
0.9999999999999999
 40
0.9999999999999999
 40
0.9999999999999999
 10
2.411738049734671
 20
5.3584097059017
 30
0.0
 10
2.410419945507618
 20
5.35535790840306
 30
0.0
 10
2.407843879800149
 20
5.34939356148646
 30
0.0
 10
2.405110038579262
 20
5.340209218279627
 30
0.0
 10
2.403206144906721
 20
5.331144676907704
 30
0.0
 10
2.40250629180293
 20
5.322146861838971
 30
0.0
 10
2.402615891776094
 20
5.313363884276137
 30
0.0
 10
2.403563539890674
 20
5.304853324717574
 30
0.0
 10
2.405273776771747
 20
5.296641060129523
 30
0.0
 10
2.407684832213038
 20
5.288709343401136
 30
0.0
 10
2.411001497879958
 20
5.281172662304762
 30
0.0
 10
2.414932156110203
 20
5.273965971683071
 30
0.0
 10
2.419707332106785
 20
5.267241134635184
 30
0.0
 10
2.42506441029214
 20
5.26087665695083
 30
0.0
 10
2.431160465194482
 20
5.255156175659503
 30
0.0
 10
2.437745270511775
 20
5.249960224628024
 30
0.0
 10
2.444814678428972
 20
5.245329270485284
 30
0.0
 10
2.449909193279766
 20
5.242855136472263
 30
0.0
 10
2.452469924397926
 20
5.241611526012152
 30
0.0
  0
SPLINE
  5
6F
330
1F
100
AcDbEntity
  8
0
  6
Continuous
 62
     7
370
    15
100
AcDbSpline
210
0.0
220
0.0
230
1.0
 70
     8
 71
     3
 72
    15
 73
    11
 74
     0
 42
0.00000001
 43
0.00000001
 40
0.0
 40
0.0
 40
0.0
 40
0.0
 40
0.1321565432800377
 40
0.2601941813902734
 40
0.3855074403915932
 40
0.5088276233450099
 40
0.6302732046946069
 40
0.7515351375773759
 40
0.8729078329451836
 40
1.0
 40
1.0
 40
1.0
 40
1.0
 10
2.452469924397926
 20
5.241611526012152
 30
0.0
 10
2.455605584408841
 20
5.240252836992394
 30
0.0
 10
2.461779175737796
 20
5.237577805030405
 30
0.0
 10
2.471327664926284
 20
5.234676276660361
 30
0.0
 10
2.480823749579624
 20
5.232509569961546
 30
0.0
 10
2.490309807767869
 20
5.231192913192303
 30
0.0
 10
2.499808054418496
 20
5.231040864879534
 30
0.0
 10
2.509129240027592
 20
5.232554813628433
 30
0.0
 10
2.518313879394348
 20
5.235360440779573
 30
0.0
 10
2.523997313159878
 20
5.238375002362542
 30
0.0
 10
2.526904444198572
 20
5.239916979608596
 30
0.0
  0
LINE
  5
70
330
1F
100
AcDbEntity
  8
0
  6
Continuous
 62
     7
370
    15
100
AcDbLine
 10
2.5269044442
 20
5.2399169796
 30
0.0
 11
2.5277203369
 21
5.2395404137
 31
0.0
  0
LINE
  5
71
330
1F
100
AcDbEntity
  8
0
  6
Continuous
 62
     7
370
    15
100
AcDbLine
 10
2.5277203369
 20
5.2395404137
 30
0.0
 11
2.5154819462
 21
5.2128042372
 31
0.0
  0
LINE
  5
72
330
1F
100
AcDbEntity
  8
0
  6
Continuous
 62
     7
370
    15
100
AcDbLine
 10
2.5154819462
 20
5.2128042372
 30
0.0
 11
2.5976988273
 21
5.1832438166
 31
0.0
  0
LINE
  5
73
330
1F
100
AcDbEntity
  8
0
  6
Continuous
 62
     7
370
    15
100
AcDbLine
 10
3.5784274341
 20
5.6162586025
 30
0.0
 11
3.5391390619
 21
5.5209874381
 31
0.0
  0
SPLINE
  5
74
330
1F
100
AcDbEntity
  8
0
  6
Continuous
 62
     7
370
    15
100
AcDbSpline
210
0.0
220
0.0
230
1.0
 70
     8
 71
     3
 72
    15
 73
    11
 74
     0
 42
0.00000001
 43
0.00000001
 40
0.0
 40
0.0
 40
0.0
 40
0.0
 40
0.1206518893974036
 40
0.2413037787948063
 40
0.363312874995775
 40
0.4883929355320356
 40
0.6151313516103964
 40
0.7415158653761529
 40
0.8706483579239062
 40
1.0
 40
1.0
 40
1.0
 40
1.0
 10
3.539139061906741
 20
5.520987438063247
 30
0.0
 10
3.538157381790798
 20
5.52295735252339
 30
0.0
 10
3.536194021558911
 20
5.526897181443674
 30
0.0
 10
3.532453522628092
 20
5.532389607953714
 30
0.0
 10
3.528013835719713
 20
5.537429897275151
 30
0.0
 10
3.522983772012945
 20
5.54204161067489
 30
0.0
 10
3.517533503846799
 20
5.54627175706232
 30
0.0
 10
3.51177256517177
 20
5.550195656476008
 30
0.0
 10
3.505733954579297
 20
5.553783653692946
 30
0.0
 10
3.5014782554984
 20
5.555809949548696
 30
0.0
 10
3.499348601912129
 20
5.556823956449563
 30
0.0
  0
SPLINE
  5
75
330
1F
100
AcDbEntity
  8
0
  6
Continuous
 62
     7
370
    15
100
AcDbSpline
210
0.0
220
0.0
230
1.0
 70
     8
 71
     3
 72
    23
 73
    19
 74
     0
 42
0.00000001
 43
0.00000001
 40
0.0
 40
0.0
 40
0.0
 40
0.0
 40
0.0689905885033866
 40
0.1345737329229018
 40
0.1978481306477016
 40
0.259418205469392
 40
0.3195074284220199
 40
0.3784945385363221
 40
0.4370811304704752
 40
0.4956965391961362
 40
0.554775188415732
 40
0.6144025486428902
 40
0.675295761900426
 40
0.7378978527084865
 40
0.8015788950917135
 40
0.8661455413766672
 40
0.9322058789812553
 40
1.0
 40
1.0
 40
1.0
 40
1.0
 10
3.499348601912129
 20
5.556823956449563
 30
0.0
 10
3.495074702626014
 20
5.558656143864873
 30
0.0
 10
3.486737991872477
 20
5.562230026987797
 30
0.0
 10
3.473882594183543
 20
5.565876607335785
 30
0.0
 10
3.461205738829373
 20
5.567983526049324
 30
0.0
 10
3.448733863879301
 20
5.568541749772122
 30
0.0
 10
3.436572782154362
 20
5.56771301704952
 30
0.0
 10
3.424766494526839
 20
5.56564038932429
 30
0.0
 10
3.413347973109585
 20
5.562313836908372
 30
0.0
 10
3.402398935360937
 20
5.557670333185296
 30
0.0
 10
3.391875476531613
 20
5.551977675100797
 30
0.0
 10
3.381945482517402
 20
5.54503781137637
 30
0.0
 10
3.372414257881893
 20
5.537188393800324
 30
0.0
 10
3.363488603270769
 20
5.528263575201734
 30
0.0
 10
3.355121530812403
 20
5.51848669321932
 30
0.0
 10
3.347535657315555
 20
5.507808631875987
 30
0.0
 10
3.340560825832068
 20
5.496387978492613
 30
0.0
 10
3.336646373503985
 20
5.488262239076389
 30
0.0
 10
3.334663795877646
 20
5.484146744030381
 30
0.0
  0
SPLINE
  5
76
330
1F
100
AcDbEntity
  8
0
  6
Continuous
 62
     7
370
    15
100
AcDbSpline
210
0.0
220
0.0
230
1.0
 70
     8
 71
     3
 72
    23
 73
    19
 74
     0
 42
0.00000001
 43
0.00000001
 40
0.0
 40
0.0
 40
0.0
 40
0.0
 40
0.0775709265742833
 40
0.1510682096099078
 40
0.2220434060796656
 40
0.29028631551746
 40
0.3561755392775264
 40
0.4196520427815211
 40
0.4813401158456496
 40
0.5414366399157032
 40
0.6002602592651836
 40
0.6581861135471693
 40
0.7156188640644998
 40
0.7733032589616013
 40
0.8306782046526394
 40
0.8869463845961908
 40
0.9433874691868221
 40
1.0
 40
1.0
 40
1.0
 40
1.0
 10
3.334663795877646
 20
5.484146744030381
 30
0.0
 10
3.332677263113223
 20
5.479555588889826
 30
0.0
 10
3.328808520514595
 20
5.470614383495548
 30
0.0
 10
3.324506602588875
 20
5.456933278866054
 30
0.0
 10
3.321677175705024
 20
5.443498741943356
 30
0.0
 10
3.320194440495591
 20
5.430335937838601
 30
0.0
 10
3.320129749049012
 20
5.417582727965646
 30
0.0
 10
3.32099274064428
 20
5.405279924505487
 30
0.0
 10
3.323165443569644
 20
5.393515157181975
 30
0.0
 10
3.326339646736816
 20
5.382294653797687
 30
0.0
 10
3.330645019161175
 20
5.371716102234335
 30
0.0
 10
3.335875818755898
 20
5.361763717813718
 30
0.0
 10
3.341988051834853
 20
5.352412182772112
 30
0.0
 10
3.349003009674888
 20
5.343759781306326
 30
0.0
 10
3.356835469779524
 20
5.335946014466433
 30
0.0
 10
3.365319432550079
 20
5.328983379487971
 30
0.0
 10
3.374403493594996
 20
5.322875757626305
 30
0.0
 10
3.380961161906406
 20
5.319680998484682
 30
0.0
 10
3.384244968426138
 20
5.31808119648189
 30
0.0
  0
SPLINE
  5
77
330
1F
100
AcDbEntity
  8
0
  6
Continuous
 62
     7
370
    15
100
AcDbSpline
210
0.0
220
0.0
230
1.0
 70
     8
 71
     3
 72
    15
 73
    11
 74
     0
 42
0.00000001
 43
0.00000001
 40
0.0
 40
0.0
 40
0.0
 40
0.0
 40
0.1258831496211759
 40
0.2523320152466195
 40
0.3803450970951959
 40
0.5101364880825978
 40
0.6379369921311722
 40
0.7612622106505684
 40
0.8801692130438274
 40
1.0
 40
1.0
 40
1.0
 40
1.0
 10
3.384244968426138
 20
5.31808119648189
 30
0.0
 10
3.387027987227509
 20
5.31687755408139
 30
0.0
 10
3.392606531653294
 20
5.314464860138886
 30
0.0
 10
3.401384107085244
 20
5.311791571454493
 30
0.0
 10
3.410439657107941
 20
5.309873894978847
 30
0.0
 10
3.419639577505754
 20
5.308569816037993
 30
0.0
 10
3.428831588548424
 20
5.308252724030111
 30
0.0
 10
3.437710889424963
 20
5.309251935359723
 30
0.0
 10
3.446186590192701
 20
5.311492930371786
 30
0.0
 10
3.451370453748488
 20
5.313999046009338
 30
0.0
 10
3.453972414883573
 20
5.315256952475963
 30
0.0
  0
LINE
  5
78
330
1F
100
AcDbEntity
  8
0
  6
Continuous
 62
     7
370
    15
100
AcDbLine
 10
3.4539724149
 20
5.3152569525
 30
0.0
 11
3.4547255466
 21
5.3148803866
 31
0.0
  0
LINE
  5
79
330
1F
100
AcDbEntity
  8
0
  6
Continuous
 62
     7
370
    15
100
AcDbLine
 10
3.4547255466
 20
5.3148803866
 30
0.0
 11
3.4444327462
 21
5.2924119565
 31
0.0
  0
LINE
  5
7A
330
1F
100
AcDbEntity
  8
0
  6
Continuous
 62
     7
370
    15
100
AcDbLine
 10
3.4444327462
 20
5.2924119565
 30
0.0
 11
3.5239509053
 21
5.2622239261
 31
0.0
  0
LINE
  5
7B
330
1F
100
AcDbEntity
  8
0
  6
Continuous
 62
     7
370
    15
100
AcDbLine
 10
3.5239509053
 20
5.2622239261
 30
0.0
 11
3.6722550961
 21
5.5819283476
 31
0.0
  0
LINE
  5
7C
330
1F
100
AcDbEntity
  8
0
  6
Continuous
 62
     7
370
    15
100
AcDbLine
 10
3.6722550961
 20
5.5819283476
 30
0.0
 11
3.5784274341
 21
5.6162586025
 31
0.0
  0
LINE
  5
7D
330
1F
100
AcDbEntity
  8
0
  6
Continuous
 62
     7
370
    15
100
AcDbLine
 10
2.9401072091
 20
5.799708941
 30
0.0
 11
2.8406938201
 21
5.5743342693
 31
0.0
  0
LINE
  5
7E
330
1F
100
AcDbEntity
  8
0
  6
Continuous
 62
     7
370
    15
100
AcDbLine
 10
2.8406938201
 20
5.5743342693
 30
0.0
 11
2.9218437645
 21
5.5300250189
 31
0.0
  0
LINE
  5
7F
330
1F
100
AcDbEntity
  8
0
  6
Continuous
 62
     7
370
    15
100
AcDbLine
 10
2.9218437645
 20
5.5300250189
 30
0.0
 11
2.9853578742
 21
5.6728062436
 31
0.0
  0
SPLINE
  5
80
330
1F
100
AcDbEntity
  8
0
  6
Continuous
 62
     7
370
    15
100
AcDbSpline
210
0.0
220
0.0
230
1.0
 70
     8
 71
     3
 72
    15
 73
    11
 74
     0
 42
0.00000001
 43
0.00000001
 40
0.0
 40
0.0
 40
0.0
 40
0.0
 40
0.1302451988013928
 40
0.2505319544026479
 40
0.3712729912480178
 40
0.4963412043032888
 40
0.6241465992585096
 40
0.7487449238157214
 40
0.8736253936382224
 40
1.0
 40
1.0
 40
1.0
 40
1.0
 10
2.985357874175922
 20
5.672806243626284
 30
0.0
 10
2.985989886389966
 20
5.674037264407695
 30
0.0
 10
2.987205587672226
 20
5.676405183111155
 30
0.0
 10
2.989967154781469
 20
5.679279962154085
 30
0.0
 10
2.993307215640263
 20
5.681313658561805
 30
0.0
 10
2.997098771233682
 20
5.682531325251499
 30
0.0
 10
3.001070945095493
 20
5.683067540883968
 30
0.0
 10
3.00507720877751
 20
5.683028803174896
 30
0.0
 10
3.009011555753087
 20
5.682277078226953
 30
0.0
 10
3.011480065791075
 20
5.681278929849816
 30
0.0
 10
3.012721660544456
 20
5.680776887820788
 30
0.0
  0
SPLINE
  5
81
330
1F
100
AcDbEntity
  8
0
  6
Continuous
 62
     7
370
    15
100
AcDbSpline
210
0.0
220
0.0
230
1.0
 70
     8
 71
     3
 72
    15
 73
    11
 74
     0
 42
0.00000001
 43
0.00000001
 40
0.0
 40
0.0
 40
0.0
 40
0.0
 40
0.1371067794286335
 40
0.2669719702253877
 40
0.3934676316441325
 40
0.5235543545467366
 40
0.6486603607247948
 40
0.7631208367889989
 40
0.879858648350389
 40
0.9999999999999999
 40
0.9999999999999999
 40
0.9999999999999999
 40
0.9999999999999999
 10
3.012721660544456
 20
5.680776887820788
 30
0.0
 10
3.013981675844957
 20
5.680128395297964
 30
0.0
 10
3.016435156035291
 20
5.678865661775841
 30
0.0
 10
3.019620030455537
 20
5.676302577175769
 30
0.0
 10
3.022250542327334
 20
5.673284194341446
 30
0.0
 10
3.024296035333861
 20
5.669894918741821
 30
0.0
 10
3.025631473831751
 20
5.666294912397386
 30
0.0
 10
3.026127723088397
 20
5.662619539976435
 30
0.0
 10
3.025623025871707
 20
5.658970169019738
 30
0.0
 10
3.024600172526987
 20
5.656740558662274
 30
0.0
 10
3.024081397546074
 20
5.655609735679086
 30
0.0
  0
LINE
  5
82
330
1F
100
AcDbEntity
  8
0
  6
Continuous
 62
     7
370
    15
100
AcDbLine
 10
3.0240813975
 20
5.6556097357
 30
0.0
 11
2.9573037171
 21
5.5128912719
 31
0.0
  0
LINE
  5
83
330
1F
100
AcDbEntity
  8
0
  6
Continuous
 62
     7
370
    15
100
AcDbLine
 10
2.9573037171
 20
5.5128912719
 30
0.0
 11
3.045545652
 21
5.4810086951
 31
0.0
  0
LINE
  5
84
330
1F
100
AcDbEntity
  8
0
  6
Continuous
 62
     7
370
    15
100
AcDbLine
 10
3.045545652
 20
5.4810086951
 30
0.0
 11
3.1153358594
 21
5.6333295885
 31
0.0
  0
SPLINE
  5
85
330
1F
100
AcDbEntity
  8
0
  6
Continuous
 62
     7
370
    15
100
AcDbSpline
210
0.0
220
0.0
230
1.0
 70
     8
 71
     3
 72
    23
 73
    19
 74
     0
 42
0.00000001
 43
0.00000001
 40
0.0
 40
0.0
 40
0.0
 40
0.0
 40
0.0694010602018728
 40
0.1370871256488653
 40
0.2026615011256001
 40
0.267160617452685
 40
0.3300457525727967
 40
0.3912724177558549
 40
0.4508790005527338
 40
0.509958018482791
 40
0.5685129125001455
 40
0.6259530428759237
 40
0.6841648288255293
 40
0.7428465936339117
 40
0.803125542663199
 40
0.8657775355066945
 40
0.9309923956144482
 40
0.9999999999999999
 40
0.9999999999999999
 40
0.9999999999999999
 40
0.9999999999999999
 10
3.115335859426461
 20
5.633329588521219
 30
0.0
 10
3.116502304171581
 20
5.636055537625158
 30
0.0
 10
3.118806369222918
 20
5.641440073916637
 30
0.0
 10
3.121576674885088
 20
5.649653133797626
 30
0.0
 10
3.12359484367994
 20
5.657864568065625
 30
0.0
 10
3.124915941695898
 20
5.666009018087275
 30
0.0
 10
3.125547589824972
 20
5.674048950797316
 30
0.0
 10
3.125512645508766
 20
5.681906723422498
 30
0.0
 10
3.124697152136277
 20
5.689563029981495
 30
0.0
 10
3.123106094109523
 20
5.696975049327764
 30
0.0
 10
3.120893157770339
 20
5.704132745838248
 30
0.0
 10
3.117832115800433
 20
5.710934671103767
 30
0.0
 10
3.11400560735226
 20
5.717343454246933
 30
0.0
 10
3.109361584339081
 20
5.723336114253469
 30
0.0
 10
3.104019928259989
 20
5.72898467960619
 30
0.0
 10
3.097762994528609
 20
5.73406090221086
 30
0.0
 10
3.090667841438634
 20
5.73860893581646
 30
0.0
 10
3.0855299636385
 20
5.741159573426399
 30
0.0
 10
3.082888433847259
 20
5.742470929105809
 30
0.0
  0
SPLINE
  5
86
330
1F
100
AcDbEntity
  8
0
  6
Continuous
 62
     7
370
    15
100
AcDbSpline
210
0.0
220
0.0
230
1.0
 70
     8
 71
     3
 72
    15
 73
    11
 74
     0
 42
0.00000001
 43
0.00000001
 40
0.0
 40
0.0
 40
0.0
 40
0.0
 40
0.1188750434867251
 40
0.2333422873068126
 40
0.346873990496121
 40
0.4589551634845176
 40
0.5756439909214769
 40
0.7023019185265605
 40
0.8440509307233791
 40
0.9999999999999999
 40
0.9999999999999999
 40
0.9999999999999999
 40
0.9999999999999999
 10
3.082888433847259
 20
5.742470929105809
 30
0.0
 10
3.080213851707507
 20
5.743625486893669
 30
0.0
 10
3.074963858977543
 20
5.745891792311063
 30
0.0
 10
3.06674470260349
 20
5.748114622526404
 30
0.0
 10
3.058530101591962
 20
5.749544013081299
 30
0.0
 10
3.050138108663633
 20
5.749931386487467
 30
0.0
 10
3.041435012608195
 20
5.749201089321157
 30
0.0
 10
3.032267774974959
 20
5.746871618211984
 30
0.0
 10
3.022539631892732
 20
5.743158229117667
 30
0.0
 10
3.016096758330074
 20
5.739741822494485
 30
0.0
 10
3.012721660544456
 20
5.737952138696326
 30
0.0
  0
LINE
  5
87
330
1F
100
AcDbEntity
  8
0
  6
Continuous
 62
     7
370
    15
100
AcDbLine
 10
3.0127216605
 20
5.7379521387
 30
0.0
 11
3.0111526361
 21
5.7386425095
 31
0.0
  0
LINE
  5
88
330
1F
100
AcDbEntity
  8
0
  6
Continuous
 62
     7
370
    15
100
AcDbLine
 10
3.0111526361
 20
5.7386425095
 30
0.0
 11
3.0250228122
 21
5.7689560618
 31
0.0
  0
LINE
  5
89
330
1F
100
AcDbEntity
  8
0
  6
Continuous
 62
     7
370
    15
100
AcDbLine
 10
3.0250228122
 20
5.7689560618
 30
0.0
 11
2.9401072091
 21
5.799708941
 31
0.0
  0
LINE
  5
8A
330
1F
100
AcDbEntity
  8
0
  6
Continuous
 62
     7
370
    15
100
AcDbLine
 10
2.923793539
 20
5.8453989329
 30
0.0
 11
2.9602576671
 21
5.9124904183
 31
0.0
  0
LINE
  5
8B
330
1F
100
AcDbEntity
  8
0
  6
Continuous
 62
     7
370
    15
100
AcDbLine
 10
2.9602576671
 20
5.9124904183
 30
0.0
 11
2.8683128345
 21
5.9498332001
 31
0.0
  0
LINE
  5
8C
330
1F
100
AcDbEntity
  8
0
  6
Continuous
 62
     7
370
    15
100
AcDbLine
 10
2.8683128345
 20
5.9498332001
 30
0.0
 11
2.8350495162
 21
5.8784112073
 31
0.0
  0
LINE
  5
8D
330
1F
100
AcDbEntity
  8
0
  6
Continuous
 62
     7
370
    15
100
AcDbLine
 10
2.8350495162
 20
5.8784112073
 30
0.0
 11
2.923793539
 21
5.8453989329
 31
0.0
  0
LINE
  5
8E
330
1F
100
AcDbEntity
  8
0
  6
Continuous
 62
     7
370
    15
100
AcDbLine
 10
2.8058029005
 20
5.5917818211
 30
0.0
 11
2.9141283484
 21
5.8169682099
 31
0.0
  0
LINE
  5
8F
330
1F
100
AcDbEntity
  8
0
  6
Continuous
 62
     7
370
    15
100
AcDbLine
 10
2.9141283484
 20
5.8169682099
 30
0.0
 11
2.8230621694
 21
5.8500432452
 31
0.0
  0
LINE
  5
90
330
1F
100
AcDbEntity
  8
0
  6
Continuous
 62
     7
370
    15
100
AcDbLine
 10
2.8230621694
 20
5.8500432452
 30
0.0
 11
2.719067229
 21
5.6229112662
 31
0.0
  0
LINE
  5
91
330
1F
100
AcDbEntity
  8
0
  6
Continuous
 62
     7
370
    15
100
AcDbLine
 10
2.719067229
 20
5.6229112662
 30
0.0
 11
2.8058029005
 21
5.5917818211
 31
0.0
  0
LINE
  5
92
330
1F
100
AcDbEntity
  8
0
  6
Continuous
 62
     7
370
    15
100
AcDbLine
 10
2.6889574281
 20
5.6453378556
 30
0.0
 11
2.8375754238
 21
5.9605862477
 31
0.0
  0
LINE
  5
93
330
1F
100
AcDbEntity
  8
0
  6
Continuous
 62
     7
370
    15
100
AcDbLine
 10
2.8375754238
 20
5.9605862477
 30
0.0
 11
2.7453795472
 21
5.9942261318
 31
0.0
  0
LINE
  5
94
330
1F
100
AcDbEntity
  8
0
  6
Continuous
 62
     7
370
    15
100
AcDbLine
 10
2.7453795472
 20
5.9942261318
 30
0.0
 11
2.6029748883
 21
5.6761534958
 31
0.0
  0
LINE
  5
95
330
1F
100
AcDbEntity
  8
0
  6
Continuous
 62
     7
370
    15
100
AcDbLine
 10
2.6029748883
 20
5.6761534958
 30
0.0
 11
2.6889574281
 21
5.6453378556
 31
0.0
  0
LINE
  5
96
330
1F
100
AcDbEntity
  8
0
  6
Continuous
 62
     7
370
    15
100
AcDbLine
 10
2.5851979366
 20
5.8086419201
 30
0.0
 11
2.5604701113
 21
5.8075749835
 31
0.0
  0
SPLINE
  5
97
330
1F
100
AcDbEntity
  8
0
  6
Continuous
 62
     7
370
    15
100
AcDbSpline
210
0.0
220
0.0
230
1.0
 70
     8
 71
     3
 72
    17
 73
    13
 74
     0
 42
0.00000001
 43
0.00000001
 40
0.0
 40
0.0
 40
0.0
 40
0.0
 40
0.0690613710907202
 40
0.1346306775893139
 40
0.198407511736855
 40
0.2593818541129543
 40
0.3783556861691471
 40
0.493729420521305
 40
0.6121490447011277
 40
0.7340109372541486
 40
0.8636572255637006
 40
1.0
 40
1.0
 40
1.0
 40
1.0
 10
2.514152509575421
 20
5.846926116673155
 30
0.0
 10
2.51411935178821
 20
5.848433393843067
 30
0.0
 10
2.514054712825949
 20
5.851371733228679
 30
0.0
 10
2.514516560200698
 20
5.855684981914088
 30
0.0
 10
2.51536671024127
 20
5.859757747885356
 30
0.0
 10
2.517137605334204
 20
5.864781961205209
 30
0.0
 10
2.520316660334806
 20
5.870461457748778
 30
0.0
 10
2.525641232401581
 20
5.876108396232366
 30
0.0
 10
2.53205903344055
 20
5.880547790011951
 30
0.0
 10
2.539401398458417
 20
5.883961864731533
 30
0.0
 10
2.547577501939987
 20
5.886319749800809
 30
0.0
 10
2.553362544121635
 20
5.886872546576253
 30
0.0
 10
2.556327886730593
 20
5.887155903513134
 30
0.0
  0
SPLINE
  5
98
330
1F
100
AcDbEntity
  8
0
  6
Continuous
 62
     7
370
    15
100
AcDbSpline
210
0.0
220
0.0
230
1.0
 70
     8
 71
     3
 72
    15
 73
    11
 74
     0
 42
0.00000001
 43
0.00000001
 40
0.0
 40
0.0
 40
0.0
 40
0.0
 40
0.0949880204284797
 40
0.2077608222134608
 40
0.3331020008225655
 40
0.4646299654967467
 40
0.6000937023624373
 40
0.7384892221207943
 40
0.8728225688737259
 40
0.9999999999999999
 40
0.9999999999999999
 40
0.9999999999999999
 40
0.9999999999999999
 10
2.556327886730593
 20
5.887155903513134
 30
0.0
 10
2.558288083544713
 20
5.887099215283904
 30
0.0
 10
2.562575488419187
 20
5.886975224984269
 30
0.0
 10
2.569113363934811
 20
5.884711153767782
 30
0.0
 10
2.57602680675634
 20
5.881587235773333
 30
0.0
 10
2.582950607307237
 20
5.877424126188981
 30
0.0
 10
2.589678530513633
 20
5.872492475251735
 30
0.0
 10
2.595835121709378
 20
5.86678917553497
 30
0.0
 10
2.601343718945261
 20
5.860635890311428
 30
0.0
 10
2.604035263551865
 20
5.85597229379857
 30
0.0
 10
2.605344210477899
 20
5.85370430228738
 30
0.0
  0
LINE
  5
99
330
1F
100
AcDbEntity
  8
0
  6
Continuous
 62
     7
370
    15
100
AcDbLine
 10
2.6053442105
 20
5.8537043023
 30
0.0
 11
2.6885025062
 21
5.8980135527
 31
0.0
  0
SPLINE
  5
9A
330
1F
100
AcDbEntity
  8
0
  6
Continuous
 62
     7
370
    15
100
AcDbSpline
210
0.0
220
0.0
230
1.0
 70
     8
 71
     3
 72
    15
 73
    11
 74
     0
 42
0.00000001
 43
0.00000001
 40
0.0
 40
0.0
 40
0.0
 40
0.0
 40
0.0992564596149156
 40
0.2053440843627553
 40
0.3199151833519816
 40
0.4422533896735561
 40
0.571036127849817
 40
0.7057741944220858
 40
0.8479578420831299
 40
1.0
 40
1.0
 40
1.0
 40
1.0
 10
2.688502506207964
 20
5.898013552691475
 30
0.0
 10
2.686754068676857
 20
5.900753383349821
 30
0.0
 10
2.683136860232352
 20
5.906421609075684
 30
0.0
 10
2.676905513450337
 20
5.914848553853405
 30
0.0
 10
2.669864742631623
 20
5.923596763905779
 30
0.0
 10
2.662119433464219
 20
5.932727965009245
 30
0.0
 10
2.653215194683472
 20
5.941730082003272
 30
0.0
 10
2.642663354787684
 20
5.949843052072064
 30
0.0
 10
2.630804790326883
 20
5.957414488941506
 30
0.0
 10
2.62212873989631
 20
5.961615942514354
 30
0.0
 10
2.617645362148158
 20
5.963787057540613
 30
0.0
  0
SPLINE
  5
9B
330
1F
100
AcDbEntity
  8
0
  6
Continuous
 62
     7
370
    15
100
AcDbSpline
210
0.0
220
0.0
230
1.0
 70
     8
 71
     3
 72
    23
 73
    19
 74
     0
 42
0.00000001
 43
0.00000001
 40
0.0
 40
0.0
 40
0.0
 40
0.0
 40
0.0677742348085178
 40
0.1337778189787776
 40
0.1980195241015137
 40
0.2611994025930574
 40
0.3230284492993861
 40
0.383181009646709
 40
0.4422547969700291
 40
0.5008805294921972
 40
0.5591763185133477
 40
0.6174495898908409
 40
0.6768985250860484
 40
0.7378184288289523
 40
0.8002415437569301
 40
0.8642848375801896
 40
0.9306267913904335
 40
1.0
 40
1.0
 40
1.0
 40
1.0
 10
2.617645362148158
 20
5.963787057540613
 30
0.0
 10
2.613034085457157
 20
5.965797903804311
 30
0.0
 10
2.603932004995862
 20
5.969767061526549
 30
0.0
 10
2.58988742966365
 20
5.97415127605177
 30
0.0
 10
2.575904197541944
 20
5.977432256296404
 30
0.0
 10
2.561967728428923
 20
5.979284709678735
 30
0.0
 10
2.548231486812675
 20
5.979953647723314
 30
0.0
 10
2.534794554526019
 20
5.979271137147737
 30
0.0
 10
2.52173375463111
 20
5.977258124442147
 30
0.0
 10
2.509080797740469
 20
5.973939875029986
 30
0.0
 10
2.496929730201048
 20
5.96926378288959
 30
0.0
 10
2.485268540870613
 20
5.96333282293941
 30
0.0
 10
2.474203385326756
 20
5.955994392468346
 30
0.0
 10
2.463692466426964
 20
5.947391997097196
 30
0.0
 10
2.453943845741072
 20
5.937441051837136
 30
0.0
 10
2.445087338817741
 20
5.926185910786097
 30
0.0
 10
2.437013670143407
 20
5.913719458047784
 30
0.0
 10
2.432615041163387
 20
5.904655239705654
 30
0.0
 10
2.430366604066261
 20
5.900021903984578
 30
0.0
  0
SPLINE
  5
9C
330
1F
100
AcDbEntity
  8
0
  6
Continuous
 62
     7
370
    15
100
AcDbSpline
210
0.0
220
0.0
230
1.0
 70
     8
 71
     3
 72
    23
 73
    19
 74
     0
 42
0.00000001
 43
0.00000001
 40
0.0
 40
0.0
 40
0.0
 40
0.0
 40
0.0638473632947715
 40
0.1263119142726092
 40
0.1876573910745537
 40
0.2490909614258733
 40
0.3098198851243605
 40
0.3698224832602073
 40
0.4297236928418169
 40
0.4897620342942742
 40
0.5503605520978954
 40
0.610920705198565
 40
0.6725786706068907
 40
0.7355243420508902
 40
0.799609967371641
 40
0.8646151646176877
 40
0.9311372768805786
 40
1.0
 40
1.0
 40
1.0
 40
1.0
 10
2.430366604066261
 20
5.900021903984578
 30
0.0
 10
2.428594200048853
 20
5.895915644154914
 30
0.0
 10
2.425087778910211
 20
5.887792058264749
 30
0.0
 10
2.421601485514194
 20
5.875095750772939
 30
0.0
 10
2.419263075441351
 20
5.862329019257698
 30
0.0
 10
2.418412013722167
 20
5.849487119847819
 30
0.0
 10
2.418873573256781
 20
5.836731807842409
 30
0.0
 10
2.420479688106015
 20
5.8241732435093
 30
0.0
 10
2.423403003528207
 20
5.811905088166058
 30
0.0
 10
2.42746837920028
 20
5.799921060957746
 30
0.0
 10
2.432834912994196
 20
5.788411303568262
 30
0.0
 10
2.439253804275454
 20
5.777322103025132
 30
0.0
 10
2.446920867475614
 20
5.766854319294061
 30
0.0
 10
2.455542311353977
 20
5.756832113885946
 30
0.0
 10
2.465357536515542
 20
5.74761558796359
 30
0.0
 10
2.476213000038193
 20
5.739253059112946
 30
0.0
 10
2.488057463342801
 20
5.731693097503436
 30
0.0
 10
2.496576688186563
 20
5.727535567384923
 30
0.0
 10
2.50090994323652
 20
5.725420863440397
 30
0.0
  0
SPLINE
  5
9D
330
1F
100
AcDbEntity
  8
0
  6
Continuous
 62
     7
370
    15
100
AcDbSpline
210
0.0
220
0.0
230
1.0
 70
     8
 71
     3
 72
    15
 73
    11
 74
     0
 42
0.00000001
 43
0.00000001
 40
0.0
 40
0.0
 40
0.0
 40
0.0
 40
0.1182698928885986
 40
0.240031191789834
 40
0.364470977290094
 40
0.4886803197931766
 40
0.6142499676098618
 40
0.741022689494573
 40
0.8697039661760884
 40
1.0
 40
1.0
 40
1.0
 40
1.0
 10
2.50090994323652
 20
5.725420863440397
 30
0.0
 10
2.504824149396057
 20
5.723701012637813
 30
0.0
 10
2.512768111688048
 20
5.720210539891432
 30
0.0
 10
2.525183505203088
 20
5.715777812243579
 30
0.0
 10
2.538068277508788
 20
5.712094439293908
 30
0.0
 10
2.551391433953128
 20
5.709645104811481
 30
0.0
 10
2.564960824121032
 20
5.708412778158269
 30
0.0
 10
2.578744235342899
 20
5.708289066305515
 30
0.0
 10
2.592671648975954
 20
5.709687341773284
 30
0.0
 10
2.601728808900475
 20
5.712096104078475
 30
0.0
 10
2.606285625146541
 20
5.713307994703867
 30
0.0
  0
LINE
  5
9E
330
1F
100
AcDbEntity
  8
0
  6
Continuous
 62
     7
370
    15
100
AcDbLine
 10
2.6062856251
 20
5.7133079947
 30
0.0
 11
2.5851979366
 21
5.8086419201
 31
0.0
  0
LINE
  5
9F
330
1F
100
AcDbEntity
  8
0
  6
Continuous
 62
     7
370
    15
100
AcDbLine
 10
2.2609429006
 20
6.1110033914
 30
0.0
 11
2.1615295116
 21
5.8856287197
 31
0.0
  0
LINE
  5
A0
330
1F
100
AcDbEntity
  8
0
  6
Continuous
 62
     7
370
    15
100
AcDbLine
 10
2.1615295116
 20
5.8856287197
 30
0.0
 11
2.242679456
 21
5.8413194693
 31
0.0
  0
LINE
  5
A1
330
1F
100
AcDbEntity
  8
0
  6
Continuous
 62
     7
370
    15
100
AcDbLine
 10
2.242679456
 20
5.8413194693
 30
0.0
 11
2.3061935656
 21
5.9841006941
 31
0.0
  0
SPLINE
  5
A2
330
1F
100
AcDbEntity
  8
0
  6
Continuous
 62
     7
370
    15
100
AcDbSpline
210
0.0
220
0.0
230
1.0
 70
     8
 71
     3
 72
    15
 73
    11
 74
     0
 42
0.00000001
 43
0.00000001
 40
0.0
 40
0.0
 40
0.0
 40
0.0
 40
0.1302451988013906
 40
0.2505319544026485
 40
0.3712729912480183
 40
0.4963412043032933
 40
0.6241465992585097
 40
0.7487449238157213
 40
0.8736253936382241
 40
1.0
 40
1.0
 40
1.0
 40
1.0
 10
2.306193565648742
 20
5.984100694057314
 30
0.0
 10
2.306825577862786
 20
5.985331714838726
 30
0.0
 10
2.308041279145045
 20
5.987699633542185
 30
0.0
 10
2.310802846254288
 20
5.990574412585117
 30
0.0
 10
2.314142907113082
 20
5.992608108992836
 30
0.0
 10
2.317934462706501
 20
5.993825775682527
 30
0.0
 10
2.321906636568313
 20
5.994361991314999
 30
0.0
 10
2.325912900250329
 20
5.994323253605926
 30
0.0
 10
2.329847247225907
 20
5.993571528657982
 30
0.0
 10
2.332315757263895
 20
5.992573380280847
 30
0.0
 10
2.333557352017276
 20
5.992071338251818
 30
0.0
  0
SPLINE
  5
A3
330
1F
100
AcDbEntity
  8
0
  6
Continuous
 62
     7
370
    15
100
AcDbSpline
210
0.0
220
0.0
230
1.0
 70
     8
 71
     3
 72
    15
 73
    11
 74
     0
 42
0.00000001
 43
0.00000001
 40
0.0
 40
0.0
 40
0.0
 40
0.0
 40
0.1371067794286312
 40
0.266971970225388
 40
0.3934676316441294
 40
0.5235543545467372
 40
0.6486603607247953
 40
0.7631208367889948
 40
0.8798586483503891
 40
1.0
 40
1.0
 40
1.0
 40
1.0
 10
2.333557352017276
 20
5.992071338251818
 30
0.0
 10
2.334817367317776
 20
5.991422845728994
 30
0.0
 10
2.337270847508111
 20
5.990160112206873
 30
0.0
 10
2.340455721928357
 20
5.9875970276068
 30
0.0
 10
2.343086233800153
 20
5.984578644772476
 30
0.0
 10
2.345131726806679
 20
5.981189369172853
 30
0.0
 10
2.34646716530457
 20
5.977589362828416
 30
0.0
 10
2.346963414561216
 20
5.973913990407465
 30
0.0
 10
2.346458717344527
 20
5.970264619450767
 30
0.0
 10
2.345435863999808
 20
5.968035009093305
 30
0.0
 10
2.344917089018893
 20
5.966904186110116
 30
0.0
  0
LINE
  5
A4
330
1F
100
AcDbEntity
  8
0
  6
Continuous
 62
     7
370
    15
100
AcDbLine
 10
2.344917089
 20
5.9669041861
 30
0.0
 11
2.2781394085
 21
5.8241857223
 31
0.0
  0
LINE
  5
A5
330
1F
100
AcDbEntity
  8
0
  6
Continuous
 62
     7
370
    15
100
AcDbLine
 10
2.2781394085
 20
5.8241857223
 30
0.0
 11
2.3663813435
 21
5.7923031456
 31
0.0
  0
LINE
  5
A6
330
1F
100
AcDbEntity
  8
0
  6
Continuous
 62
     7
370
    15
100
AcDbLine
 10
2.3663813435
 20
5.7923031456
 30
0.0
 11
2.4361715509
 21
5.944624039
 31
0.0
  0
SPLINE
  5
A7
330
1F
100
AcDbEntity
  8
0
  6
Continuous
 62
     7
370
    15
100
AcDbSpline
210
0.0
220
0.0
230
1.0
 70
     8
 71
     3
 72
    23
 73
    19
 74
     0
 42
0.00000001
 43
0.00000001
 40
0.0
 40
0.0
 40
0.0
 40
0.0
 40
0.0694010602018729
 40
0.1370871256488654
 40
0.2026615011256003
 40
0.2671606174526863
 40
0.3300457525727959
 40
0.3912724177558541
 40
0.4508790005527342
 40
0.5099580184827902
 40
0.5685129125001468
 40
0.625953042875923
 40
0.6841648288255288
 40
0.7428465936339119
 40
0.8031255426632001
 40
0.8657775355066942
 40
0.9309923956144488
 40
1.0
 40
1.0
 40
1.0
 40
1.0
 10
2.436171550899281
 20
5.94462403895225
 30
0.0
 10
2.437337995644401
 20
5.947349988056188
 30
0.0
 10
2.439642060695737
 20
5.952734524347667
 30
0.0
 10
2.442412366357908
 20
5.960947584228657
 30
0.0
 10
2.44443053515276
 20
5.969159018496655
 30
0.0
 10
2.445751633168717
 20
5.977303468518305
 30
0.0
 10
2.446383281297792
 20
5.985343401228346
 30
0.0
 10
2.446348336981585
 20
5.993201173853529
 30
0.0
 10
2.445532843609097
 20
6.000857480412525
 30
0.0
 10
2.443941785582341
 20
6.008269499758795
 30
0.0
 10
2.441728849243159
 20
6.015427196269278
 30
0.0
 10
2.438667807273251
 20
6.022229121534798
 30
0.0
 10
2.43484129882508
 20
6.028637904677963
 30
0.0
 10
2.4301972758119
 20
6.0346305646845
 30
0.0
 10
2.424855619732809
 20
6.040279130037221
 30
0.0
 10
2.418598686001428
 20
6.045355352641891
 30
0.0
 10
2.411503532911454
 20
6.04990338624749
 30
0.0
 10
2.40636565511132
 20
6.05245402385743
 30
0.0
 10
2.403724125320078
 20
6.05376537953684
 30
0.0
  0
SPLINE
  5
A8
330
1F
100
AcDbEntity
  8
0
  6
Continuous
 62
     7
370
    15
100
AcDbSpline
210
0.0
220
0.0
230
1.0
 70
     8
 71
     3
 72
    15
 73
    11
 74
     0
 42
0.00000001
 43
0.00000001
 40
0.0
 40
0.0
 40
0.0
 40
0.0
 40
0.1188750434867251
 40
0.233342287306813
 40
0.3468739904961215
 40
0.4589551634845179
 40
0.575643990921477
 40
0.7023019185265607
 40
0.8440509307233792
 40
0.9999999999999999
 40
0.9999999999999999
 40
0.9999999999999999
 40
0.9999999999999999
 10
2.403724125320078
 20
6.05376537953684
 30
0.0
 10
2.401049543180327
 20
6.054919937324699
 30
0.0
 10
2.395799550450364
 20
6.057186242742094
 30
0.0
 10
2.387580394076309
 20
6.059409072957433
 30
0.0
 10
2.379365793064782
 20
6.060838463512329
 30
0.0
 10
2.370973800136451
 20
6.061225836918497
 30
0.0
 10
2.362270704081016
 20
6.060495539752188
 30
0.0
 10
2.353103466447779
 20
6.058166068643015
 30
0.0
 10
2.343375323365552
 20
6.054452679548698
 30
0.0
 10
2.336932449802894
 20
6.051036272925516
 30
0.0
 10
2.333557352017276
 20
6.049246589127358
 30
0.0
  0
LINE
  5
A9
330
1F
100
AcDbEntity
  8
0
  6
Continuous
 62
     7
370
    15
100
AcDbLine
 10
2.333557352
 20
6.0492465891
 30
0.0
 11
2.3319883276
 21
6.0499369599
 31
0.0
  0
LINE
  5
AA
330
1F
100
AcDbEntity
  8
0
  6
Continuous
 62
     7
370
    15
100
AcDbLine
 10
2.3319883276
 20
6.0499369599
 30
0.0
 11
2.3458585037
 21
6.0802505122
 31
0.0
  0
LINE
  5
AB
330
1F
100
AcDbEntity
  8
0
  6
Continuous
 62
     7
370
    15
100
AcDbLine
 10
2.3458585037
 20
6.0802505122
 30
0.0
 11
2.2609429006
 21
6.1110033914
 31
0.0
  0
LINE
  5
AC
330
1F
100
AcDbEntity
  8
0
  6
Continuous
 62
     7
370
    15
100
AcDbLine
 10
2.2446292305
 20
6.1566933833
 30
0.0
 11
2.2810933586
 21
6.2237848687
 31
0.0
  0
LINE
  5
AD
330
1F
100
AcDbEntity
  8
0
  6
Continuous
 62
     7
370
    15
100
AcDbLine
 10
2.2810933586
 20
6.2237848687
 30
0.0
 11
2.189148526
 21
6.2611276505
 31
0.0
  0
LINE
  5
AE
330
1F
100
AcDbEntity
  8
0
  6
Continuous
 62
     7
370
    15
100
AcDbLine
 10
2.189148526
 20
6.2611276505
 30
0.0
 11
2.1558852077
 21
6.1897056577
 31
0.0
  0
LINE
  5
AF
330
1F
100
AcDbEntity
  8
0
  6
Continuous
 62
     7
370
    15
100
AcDbLine
 10
2.1558852077
 20
6.1897056577
 30
0.0
 11
2.2446292305
 21
6.1566933833
 31
0.0
  0
LINE
  5
B0
330
1F
100
AcDbEntity
  8
0
  6
Continuous
 62
     7
370
    15
100
AcDbLine
 10
2.126638592
 20
5.9030762716
 30
0.0
 11
2.2349640399
 21
6.1282626603
 31
0.0
  0
LINE
  5
B1
330
1F
100
AcDbEntity
  8
0
  6
Continuous
 62
     7
370
    15
100
AcDbLine
 10
2.2349640399
 20
6.1282626603
 30
0.0
 11
2.1438978609
 21
6.1613376957
 31
0.0
  0
LINE
  5
B2
330
1F
100
AcDbEntity
  8
0
  6
Continuous
 62
     7
370
    15
100
AcDbLine
 10
2.1438978609
 20
6.1613376957
 30
0.0
 11
2.0399029205
 21
5.9342057166
 31
0.0
  0
LINE
  5
B3
330
1F
100
AcDbEntity
  8
0
  6
Continuous
 62
     7
370
    15
100
AcDbLine
 10
2.0399029205
 20
5.9342057166
 30
0.0
 11
2.126638592
 21
5.9030762716
 31
0.0
  0
LINE
  5
B4
330
1F
100
AcDbEntity
  8
0
  6
Continuous
 62
     7
370
    15
100
AcDbLine
 10
5.6885862517
 20
5.172177175
 30
0.0
 11
5.2340565803
 21
5.3805105083
 31
0.0
  0
LINE
  5
B5
330
1F
100
AcDbEntity
  8
0
  6
Continuous
 62
     7
370
    15
100
AcDbLine
 10
5.2340565803
 20
5.3805105083
 30
0.0
 11
5.1819732469
 21
5.2668780905
 31
0.0
  0
LINE
  5
B6
330
1F
100
AcDbEntity
  8
0
  6
Continuous
 62
     7
370
    15
100
AcDbLine
 10
5.1819732469
 20
5.2668780905
 30
0.0
 11
5.6365029184
 21
5.0585447572
 31
0.0
  0
LINE
  5
B7
330
1F
100
AcDbEntity
  8
0
  6
Continuous
 62
     7
370
    15
100
AcDbLine
 10
5.6365029184
 20
5.0585447572
 30
0.0
 11
5.6885862517
 21
5.172177175
 31
0.0
  0
LINE
  5
B8
330
1F
100
AcDbEntity
  8
0
  6
Continuous
 62
     7
370
    15
100
AcDbLine
 10
4.5522620731
 20
5.6930105083
 30
0.0
 11
4.0977324017
 21
5.9013438417
 31
0.0
  0
LINE
  5
B9
330
1F
100
AcDbEntity
  8
0
  6
Continuous
 62
     7
370
    15
100
AcDbLine
 10
4.0977324017
 20
5.9013438417
 30
0.0
 11
4.0456490683
 21
5.7877114238
 31
0.0
  0
LINE
  5
BA
330
1F
100
AcDbEntity
  8
0
  6
Continuous
 62
     7
370
    15
100
AcDbLine
 10
4.0456490683
 20
5.7877114238
 30
0.0
 11
4.5001787398
 21
5.5793780905
 31
0.0
  0
LINE
  5
BB
330
1F
100
AcDbEntity
  8
0
  6
Continuous
 62
     7
370
    15
100
AcDbLine
 10
4.5001787398
 20
5.5793780905
 30
0.0
 11
4.5522620731
 21
5.6930105083
 31
0.0
  0
LINE
  5
BC
330
1F
100
AcDbEntity
  8
0
  6
Continuous
 62
     7
370
    15
100
AcDbLine
 10
3.4159378945
 20
6.2138438417
 30
0.0
 11
2.961408223
 21
6.422177175
 31
0.0
  0
LINE
  5
BD
330
1F
100
AcDbEntity
  8
0
  6
Continuous
 62
     7
370
    15
100
AcDbLine
 10
2.961408223
 20
6.422177175
 30
0.0
 11
2.9093248897
 21
6.3085447572
 31
0.0
  0
LINE
  5
BE
330
1F
100
AcDbEntity
  8
0
  6
Continuous
 62
     7
370
    15
100
AcDbLine
 10
2.9093248897
 20
6.3085447572
 30
0.0
 11
3.3638545612
 21
6.1002114238
 31
0.0
  0
LINE
  5
BF
330
1F
100
AcDbEntity
  8
0
  6
Continuous
 62
     7
370
    15
100
AcDbLine
 10
3.3638545612
 20
6.1002114238
 30
0.0
 11
3.4159378945
 21
6.2138438417
 31
0.0
  0
LINE
  5
C0
330
1F
100
AcDbEntity
  8
0
  6
Continuous
 62
     7
370
    15
100
AcDbLine
 10
2.2796137159
 20
6.734677175
 30
0.0
 11
1.8250840444
 21
6.9430105083
 31
0.0
  0
LINE
  5
C1
330
1F
100
AcDbEntity
  8
0
  6
Continuous
 62
     7
370
    15
100
AcDbLine
 10
1.8250840444
 20
6.9430105083
 30
0.0
 11
1.7730007111
 21
6.8293780905
 31
0.0
  0
LINE
  5
C2
330
1F
100
AcDbEntity
  8
0
  6
Continuous
 62
     7
370
    15
100
AcDbLine
 10
1.7730007111
 20
6.8293780905
 30
0.0
 11
2.2275303826
 21
6.6210447572
 31
0.0
  0
LINE
  5
C3
330
1F
100
AcDbEntity
  8
0
  6
Continuous
 62
     7
370
    15
100
AcDbLine
 10
2.2275303826
 20
6.6210447572
 30
0.0
 11
2.2796137159
 21
6.734677175
 31
0.0
  0
LINE
  5
C4
330
1F
100
AcDbEntity
  8
0
  6
Continuous
 62
     7
370
    15
100
AcDbLine
 10
7.1417585994
 20
4.7261243608
 30
0.0
 11
1.2328728706
 21
7.4344576941
 31
0.0
  0
ARC
  5
C5
330
1F
100
AcDbEntity
  8
0
  6
Continuous
 62
     7
370
    15
100
AcDbCircle
 10
7.1000919327
 20
4.6352184265
 30
0.0
 40
0.1000000000000003
100
AcDbArc
 50
270.0
 51
65.3756816478
  0
LINE
  5
C6
330
1F
100
AcDbEntity
  8
0
  6
Continuous
 62
     7
370
    15
100
AcDbLine
 10
1.1912062039
 20
4.5352184265
 30
0.0
 11
7.1000919327
 21
4.5352184265
 31
0.0
  0
ARC
  5
C7
330
1F
100
AcDbEntity
  8
0
  6
Continuous
 62
     7
370
    15
100
AcDbCircle
 10
1.1912062039
 20
4.6352184265
 30
0.0
 40
0.1000000000000001
100
AcDbArc
 50
180.0
 51
270.0
  0
LINE
  5
C8
330
1F
100
AcDbEntity
  8
0
  6
Continuous
 62
     7
370
    15
100
AcDbLine
 10
1.0912062039
 20
7.3435517598
 30
0.0
 11
1.0912062039
 21
4.6352184265
 31
0.0
  0
ARC
  5
C9
330
1F
100
AcDbEntity
  8
0
  6
Continuous
 62
     7
370
    15
100
AcDbCircle
 10
1.1912062039
 20
7.3435517598
 30
0.0
 40
0.100000000000001
100
AcDbArc
 50
65.3756816478
 51
180.0
  0
SPLINE
  5
CA
330
1F
100
AcDbEntity
  8
0
  6
Continuous
 62
     7
370
    15
100
AcDbSpline
210
0.0
220
0.0
230
1.0
 70
     8
 71
     3
 72
    13
 73
     9
 74
     0
 42
0.00000001
 43
0.00000001
 40
0.0
 40
0.0
 40
0.0
 40
0.0
 40
0.2317619699769919
 40
0.466529161033951
 40
0.5875741646803778
 40
0.7149053745346838
 40
0.8518709128121063
 40
1.0
 40
1.0
 40
1.0
 40
1.0
 10
3.287395523988916
 20
5.480088200792234
 30
0.0
 10
3.282545480724331
 20
5.478827375424392
 30
0.0
 10
3.272782504445565
 20
5.476289375764105
 30
0.0
 10
3.260112985212469
 20
5.474780158606351
 30
0.0
 10
3.249651455680114
 20
5.474954426476728
 30
0.0
 10
3.241399911391959
 20
5.476255663563114
 30
0.0
 10
3.232814157308765
 20
5.478738661204833
 30
0.0
 10
3.227142231117869
 20
5.481154920287178
 30
0.0
 10
3.224195219234067
 20
5.482410356974884
 30
0.0
  0
SPLINE
  5
CB
330
1F
100
AcDbEntity
  8
0
  6
Continuous
 62
     7
370
    15
100
AcDbSpline
210
0.0
220
0.0
230
1.0
 70
     8
 71
     3
 72
    11
 73
     7
 74
     0
 42
0.00000001
 43
0.00000001
 40
0.0
 40
0.0
 40
0.0
 40
0.0
 40
0.2482801244714779
 40
0.5225829880183778
 40
0.7841982409735571
 40
1.0
 40
1.0
 40
1.0
 40
1.0
 10
3.224195219234067
 20
5.482410356974884
 30
0.0
 10
3.222153802055471
 20
5.483392884052433
 30
0.0
 10
3.217857002659008
 20
5.485460918846147
 30
0.0
 10
3.211651376046513
 20
5.488996017494479
 30
0.0
 10
3.205859575235974
 20
5.492773257093368
 30
0.0
 10
3.202970118645599
 20
5.496053168852577
 30
0.0
 10
3.201664028164563
 20
5.49753575265107
 30
0.0
  0
LINE
  5
CC
330
1F
100
AcDbEntity
  8
0
  6
Continuous
 62
     7
370
    15
100
AcDbLine
 10
3.2016640282
 20
5.4975357527
 30
0.0
 11
3.3598844535
 21
5.5321798125
 31
0.0
  0
SPLINE
  5
CD
330
1F
100
AcDbEntity
  8
0
  6
Continuous
 62
     7
370
    15
100
AcDbSpline
210
0.0
220
0.0
230
1.0
 70
     8
 71
     3
 72
    23
 73
    19
 74
     0
 42
0.00000001
 43
0.00000001
 40
0.0
 40
0.0
 40
0.0
 40
0.0
 40
0.0635038387058686
 40
0.1255564399076718
 40
0.1868296934812299
 40
0.2476876379834528
 40
0.3080886535436173
 40
0.3684896691037818
 40
0.4294603172828971
 40
0.4909835110979429
 40
0.5526352253564625
 40
0.6142174669647726
 40
0.6759673580160813
 40
0.7379457234656143
 40
0.8011538025324516
 40
0.8655919427307445
 40
0.9316980995539473
 40
1.0
 40
1.0
 40
1.0
 40
1.0
 10
3.359884453474369
 20
5.532179812457104
 30
0.0
 10
3.359909300889826
 20
5.535486372917786
 30
0.0
 10
3.359958427888907
 20
5.542023929831559
 30
0.0
 10
3.35923286265638
 20
5.551731853799207
 30
0.0
 10
3.357936427637001
 20
5.561236741609863
 30
0.0
 10
3.355938115210182
 20
5.57053747318527
 30
0.0
 10
3.353187333295145
 20
5.579591629883971
 30
0.0
 10
3.349946923126217
 20
5.588487214711322
 30
0.0
 10
3.345990549553073
 20
5.597159716112718
 30
0.0
 10
3.341316923953761
 20
5.605534419329985
 30
0.0
 10
3.336172382426691
 20
5.613672755081661
 30
0.0
 10
3.330210863087928
 20
5.621251222570611
 30
0.0
 10
3.323753586744528
 20
5.62842438040333
 30
0.0
 10
3.316692647207928
 20
5.635139382543491
 30
0.0
 10
3.308931001677643
 20
5.641253160433266
 30
0.0
 10
3.300636344656473
 20
5.647000894488279
 30
0.0
 10
3.291688113981804
 20
5.652228988256884
 30
0.0
 10
3.285387920698843
 20
5.655275151364095
 30
0.0
 10
3.282186362822429
 20
5.656823114585337
 30
0.0
  0
SPLINE
  5
CE
330
1F
100
AcDbEntity
  8
0
  6
Continuous
 62
     7
370
    15
100
AcDbSpline
210
0.0
220
0.0
230
1.0
 70
     8
 71
     3
 72
    23
 73
    19
 74
     0
 42
0.00000001
 43
0.00000001
 40
0.0
 40
0.0
 40
0.0
 40
0.0
 40
0.0621336122059218
 40
0.1232325472275971
 40
0.1831764950012247
 40
0.2428287500983237
 40
0.301893298391978
 40
0.3603411091167401
 40
0.4185489358753631
 40
0.4770206162466249
 40
0.536273128996412
 40
0.5959078371618619
 40
0.657771363109699
 40
0.721226487049692
 40
0.7868179051321873
 40
0.8548086629992042
 40
0.9257743898895031
 40
1.0
 40
1.0
 40
1.0
 40
1.0
 10
3.282186362822429
 20
5.656823114585337
 30
0.0
 10
3.278136444586993
 20
5.658554363316342
 30
0.0
 10
3.270104049197485
 20
5.661988031236682
 30
0.0
 10
3.257646194444031
 20
5.665714186022461
 30
0.0
 10
3.245085564161578
 20
5.66827203901012
 30
0.0
 10
3.23246759730811
 20
5.669499787662112
 30
0.0
 10
3.219901018002977
 20
5.669586682014998
 30
0.0
 10
3.207480931896795
 20
5.668419958595614
 30
0.0
 10
3.195323002036497
 20
5.665848729149696
 30
0.0
 10
3.183391605679012
 20
5.662173971171617
 30
0.0
 10
3.171861436940239
 20
5.657121192926125
 30
0.0
 10
3.16067265640852
 20
5.650848972445523
 30
0.0
 10
3.149991646297338
 20
5.643223934909804
 30
0.0
 10
3.139694707207654
 20
5.634426055365611
 30
0.0
 10
3.13007801743692
 20
5.624273427620634
 30
0.0
 10
3.121189925219102
 20
5.612800891258103
 30
0.0
 10
3.113202284725564
 20
5.599946438060019
 30
0.0
 10
3.108696393288215
 20
5.590695362425469
 30
0.0
 10
3.106392863697968
 20
5.585965970525531
 30
0.0
  0
SPLINE
  5
CF
330
1F
100
AcDbEntity
  8
0
  6
Continuous
 62
     7
370
    15
100
AcDbSpline
210
0.0
220
0.0
230
1.0
 70
     8
 71
     3
 72
    15
 73
    11
 74
     0
 42
0.00000001
 43
0.00000001
 40
0.0
 40
0.0
 40
0.0
 40
0.0
 40
0.1395727329951026
 40
0.2709933059392885
 40
0.3958375796490514
 40
0.513881675392951
 40
0.6305125813011815
 40
0.7496726383106722
 40
0.8727454364870102
 40
1.0
 40
1.0
 40
1.0
 40
1.0
 10
3.174990612553033
 20
5.414502978876824
 30
0.0
 10
3.180338107384154
 20
5.412171466798304
 30
0.0
 10
3.190720760726838
 20
5.407644621529625
 30
0.0
 10
3.20636615499716
 20
5.402223629114667
 30
0.0
 10
3.221487336362347
 20
5.398173705644227
 30
0.0
 10
3.236281404734637
 20
5.395463250800868
 30
0.0
 10
3.2510280417064
 20
5.394119095179281
 30
0.0
 10
3.2660387530274
 20
5.394174136472622
 30
0.0
 10
3.281452355547559
 20
5.395385382765505
 30
0.0
 10
3.291758697797747
 20
5.397199932552422
 30
0.0
 10
3.296997953609067
 20
5.398122363642448
 30
0.0
  0
LINE
  5
D0
330
1F
100
AcDbEntity
  8
0
  6
Continuous
 62
     7
370
    15
100
AcDbLine
 10
3.2969979536
 20
5.3981223636
 30
0.0
 11
3.287395524
 21
5.4800882008
 31
0.0
  0
LINE
  5
D1
330
1F
100
AcDbEntity
  8
0
  6
Continuous
 62
     7
370
    15
100
AcDbLine
 10
1.9925474621
 20
5.3633259825
 30
0.0
 11
2.0788438067
 21
5.3324475814
 31
0.0
  0
LINE
  5
D2
330
1F
100
AcDbEntity
  8
0
  6
Continuous
 62
     7
370
    15
100
AcDbLine
 10
2.0788438067
 20
5.3324475814
 30
0.0
 11
2.112295408
 21
5.4118402184
 31
0.0
  0
SPLINE
  5
D3
330
1F
100
AcDbEntity
  8
0
  6
Continuous
 62
     7
370
    15
100
AcDbSpline
210
0.0
220
0.0
230
1.0
 70
     8
 71
     3
 72
    15
 73
    11
 74
     0
 42
0.00000001
 43
0.00000001
 40
0.0
 40
0.0
 40
0.0
 40
0.0
 40
0.1350556670702073
 40
0.2655687402736166
 40
0.3938940495978582
 40
0.522518949894816
 40
0.6492441871444818
 40
0.7714278205345564
 40
0.8874854981218986
 40
1.0
 40
1.0
 40
1.0
 40
1.0
 10
2.112295407952363
 20
5.411840218428637
 30
0.0
 10
2.113409484071125
 20
5.4093219394524
 30
0.0
 10
2.115600164387225
 20
5.404370083748121
 30
0.0
 10
2.119838031961985
 20
5.397520260814748
 30
0.0
 10
2.124910121928163
 20
5.391437347976805
 30
0.0
 10
2.130709021919783
 20
5.386170449618205
 30
0.0
 10
2.136835586042573
 20
5.381508601091399
 30
0.0
 10
2.143047756092859
 20
5.377421357289938
 30
0.0
 10
2.149139966709737
 20
5.37367063634832
 30
0.0
 10
2.153343173872398
 20
5.371659163217939
 30
0.0
 10
2.155412199776178
 20
5.370669016920016
 30
0.0
  0
SPLINE
  5
D4
330
1F
100
AcDbEntity
  8
0
  6
Continuous
 62
     7
370
    15
100
AcDbSpline
210
0.0
220
0.0
230
1.0
 70
     8
 71
     3
 72
    23
 73
    19
 74
     0
 42
0.00000001
 43
0.00000001
 40
0.0
 40
0.0
 40
0.0
 40
0.0
 40
0.065071628674379
 40
0.1279783776875399
 40
0.190058034150857
 40
0.2518354263668972
 40
0.3135460734880625
 40
0.3741755318249395
 40
0.4346935117351165
 40
0.4956113702252279
 40
0.5567846233431906
 40
0.6184920520098253
 40
0.6804572300836832
 40
0.7439946212484968
 40
0.8078228314549127
 40
0.8714788937247836
 40
0.9353125489954823
 40
1.0
 40
1.0
 40
1.0
 40
1.0
 10
2.155412199776178
 20
5.370669016920016
 30
0.0
 10
2.159391793250902
 20
5.368974358845639
 30
0.0
 10
2.167218582392751
 20
5.365641422579679
 30
0.0
 10
2.17948148569468
 20
5.362496271736243
 30
0.0
 10
2.191769706300394
 20
5.360678517677212
 30
0.0
 10
2.204122199593586
 20
5.36045573707744
 30
0.0
 10
2.216307122871205
 20
5.361630913509071
 30
0.0
 10
2.228258508811327
 20
5.363866629884624
 30
0.0
 10
2.239852898484321
 20
5.367359447847081
 30
0.0
 10
2.251091509838171
 20
5.371947669165395
 30
0.0
 10
2.26192789833775
 20
5.377601422231339
 30
0.0
 10
2.272192674761006
 20
5.384355767637899
 30
0.0
 10
2.282020200636876
 20
5.391987446264425
 30
0.0
 10
2.291186381450673
 20
5.400616239074983
 30
0.0
 10
2.299629089801639
 20
5.410096762436917
 30
0.0
 10
2.3073348000059
 20
5.420209377745446
 30
0.0
 10
2.31411130397013
 20
5.431050411771956
 30
0.0
 10
2.317842465625997
 20
5.438728533142172
 30
0.0
 10
2.319720439943204
 20
5.442593097604283
 30
0.0
  0
SPLINE
  5
D5
330
1F
100
AcDbEntity
  8
0
  6
Continuous
 62
     7
370
    15
100
AcDbSpline
210
0.0
220
0.0
230
1.0
 70
     8
 71
     3
 72
    23
 73
    19
 74
     0
 42
0.00000001
 43
0.00000001
 40
0.0
 40
0.0
 40
0.0
 40
0.0
 40
0.062277434104136
 40
0.124632218977063
 40
0.1876215234633756
 40
0.251303225259604
 40
0.3151730565699683
 40
0.3776789030542764
 40
0.43927282284913
 40
0.5007262288697745
 40
0.5619626986425379
 40
0.6227457368105122
 40
0.6837421702196171
 40
0.7458781066303257
 40
0.8083059502566403
 40
0.8706481301394029
 40
0.9344013701115513
 40
1.0
 40
1.0
 40
1.0
 40
1.0
 10
2.319720439943204
 20
5.442593097604283
 30
0.0
 10
2.321319849058111
 20
5.446289688094923
 30
0.0
 10
2.324520653810434
 20
5.453687460371918
 30
0.0
 10
2.328032791697173
 20
5.465316548994265
 30
0.0
 10
2.330708663706398
 20
5.477248098007665
 30
0.0
 10
2.332289510567639
 20
5.489474590908684
 30
0.0
 10
2.333024456521961
 20
5.501747946069454
 30
0.0
 10
2.332631843710994
 20
5.513906466300903
 30
0.0
 10
2.331248098903679
 20
5.525831336843353
 30
0.0
 10
2.328876413021733
 20
5.537517954386472
 30
0.0
 10
2.325452025442678
 20
5.548890790653791
 30
0.0
 10
2.320844190842832
 20
5.559809716472446
 30
0.0
 10
2.315075788589603
 20
5.570225176547692
 30
0.0
 10
2.30826755008474
 20
5.580119667676627
 30
0.0
 10
2.300393242842913
 20
5.589318733625127
 30
0.0
 10
2.291316967991426
 20
5.597493077968269
 30
0.0
 10
2.281105718375613
 20
5.604587488390646
 30
0.0
 10
2.273621140540589
 20
5.608329812656487
 30
0.0
 10
2.269825462505165
 20
5.610227669600512
 30
0.0
  0
SPLINE
  5
D6
330
1F
100
AcDbEntity
  8
0
  6
Continuous
 62
     7
370
    15
100
AcDbSpline
210
0.0
220
0.0
230
1.0
 70
     8
 71
     3
 72
    15
 73
    11
 74
     0
 42
0.00000001
 43
0.00000001
 40
0.0
 40
0.0
 40
0.0
 40
0.0
 40
0.1374556876454639
 40
0.2649961695835649
 40
0.3858533207197059
 40
0.5006380638385551
 40
0.6156267782299982
 40
0.736483929366141
 40
0.8637859075638762
 40
1.0
 40
1.0
 40
1.0
 40
1.0
 10
2.269825462505165
 20
5.610227669600512
 30
0.0
 10
2.266732748010284
 20
5.611549077193549
 30
0.0
 10
2.260770408373434
 20
5.614096574184121
 30
0.0
 10
2.251692449263593
 20
5.616731335438683
 30
0.0
 10
2.242948470758343
 20
5.618392250018625
 30
0.0
 10
2.234355145022146
 20
5.618741650147952
 30
0.0
 10
2.225794631204011
 20
5.618072527102292
 30
0.0
 10
2.217042723988894
 20
5.616495634303727
 30
0.0
 10
2.20799947347017
 20
5.613877225739726
 30
0.0
 10
2.202004446741872
 20
5.611512685221151
 30
0.0
 10
2.198905557467449
 20
5.610290430578422
 30
0.0
  0
LINE
  5
D7
330
1F
100
AcDbEntity
  8
0
  6
Continuous
 62
     7
370
    15
100
AcDbLine
 10
2.1989055575
 20
5.6102904306
 30
0.0
 11
2.2111439482
 21
5.6370893681
 31
0.0
  0
LINE
  5
D8
330
1F
100
AcDbEntity
  8
0
  6
Continuous
 62
     7
370
    15
100
AcDbLine
 10
2.2111439482
 20
5.6370893681
 30
0.0
 11
2.126479389
 21
5.6672773985
 31
0.0
  0
LINE
  5
D9
330
1F
100
AcDbEntity
  8
0
  6
Continuous
 62
     7
370
    15
100
AcDbLine
 10
2.126479389
 20
5.6672773985
 30
0.0
 11
1.9925474621
 21
5.3633259825
 31
0.0
  0
LINE
  5
DA
330
1F
100
AcDbEntity
  8
0
  6
Continuous
 62
     7
370
    15
100
AcDbLine
 10
2.3619213017
 20
5.2869458724
 30
0.0
 11
2.5105392974
 21
5.6021942644
 31
0.0
  0
LINE
  5
DB
330
1F
100
AcDbEntity
  8
0
  6
Continuous
 62
     7
370
    15
100
AcDbLine
 10
2.5105392974
 20
5.6021942644
 30
0.0
 11
2.4183434208
 21
5.6358341486
 31
0.0
  0
LINE
  5
DC
330
1F
100
AcDbEntity
  8
0
  6
Continuous
 62
     7
370
    15
100
AcDbLine
 10
2.4183434208
 20
5.6358341486
 30
0.0
 11
2.275938762
 21
5.3177615125
 31
0.0
  0
LINE
  5
DD
330
1F
100
AcDbEntity
  8
0
  6
Continuous
 62
     7
370
    15
100
AcDbLine
 10
2.275938762
 20
5.3177615125
 30
0.0
 11
2.3619213017
 21
5.2869458724
 31
0.0
  0
SPLINE
  5
DE
330
1F
100
AcDbEntity
  8
0
  6
Continuous
 62
     7
370
    15
100
AcDbSpline
210
0.0
220
0.0
230
1.0
 70
     8
 71
     3
 72
    13
 73
     9
 74
     0
 42
0.00000001
 43
0.00000001
 40
0.0
 40
0.0
 40
0.0
 40
0.0
 40
0.2317619699769923
 40
0.466529161033947
 40
0.5875741646803738
 40
0.7149053745346838
 40
0.8518709128121059
 40
1.0
 40
1.0
 40
1.0
 40
1.0
 10
3.077204870050971
 20
5.068140183070345
 30
0.0
 10
3.072354826786385
 20
5.066879357702504
 30
0.0
 10
3.062591850507619
 20
5.064341358042216
 30
0.0
 10
3.049922331274524
 20
5.062832140884463
 30
0.0
 10
3.03946080174217
 20
5.063006408754839
 30
0.0
 10
3.031209257454013
 20
5.064307645841225
 30
0.0
 10
3.02262350337082
 20
5.066790643482944
 30
0.0
 10
3.016951577179924
 20
5.069206902565289
 30
0.0
 10
3.014004565296121
 20
5.070462339252995
 30
0.0
  0
SPLINE
  5
DF
330
1F
100
AcDbEntity
  8
0
  6
Continuous
 62
     7
370
    15
100
AcDbSpline
210
0.0
220
0.0
230
1.0
 70
     8
 71
     3
 72
    11
 73
     7
 74
     0
 42
0.00000001
 43
0.00000001
 40
0.0
 40
0.0
 40
0.0
 40
0.0
 40
0.2482801244714774
 40
0.522582988018378
 40
0.7841982409735538
 40
1.0
 40
1.0
 40
1.0
 40
1.0
 10
3.014004565296121
 20
5.070462339252995
 30
0.0
 10
3.011963148117526
 20
5.071444866330545
 30
0.0
 10
3.007666348721064
 20
5.073512901124258
 30
0.0
 10
3.001460722108569
 20
5.07704799977259
 30
0.0
 10
2.995668921298029
 20
5.080825239371479
 30
0.0
 10
2.992779464707653
 20
5.084105151130689
 30
0.0
 10
2.991473374226617
 20
5.085587734929181
 30
0.0
  0
LINE
  5
E0
330
1F
100
AcDbEntity
  8
0
  6
Continuous
 62
     7
370
    15
100
AcDbLine
 10
2.9914733742
 20
5.0855877349
 30
0.0
 11
3.1496937995
 21
5.1202317947
 31
0.0
  0
SPLINE
  5
E1
330
1F
100
AcDbEntity
  8
0
  6
Continuous
 62
     7
370
    15
100
AcDbSpline
210
0.0
220
0.0
230
1.0
 70
     8
 71
     3
 72
    23
 73
    19
 74
     0
 42
0.00000001
 43
0.00000001
 40
0.0
 40
0.0
 40
0.0
 40
0.0
 40
0.0635038387058691
 40
0.1255564399076722
 40
0.1868296934812299
 40
0.2476876379834536
 40
0.3080886535436181
 40
0.3684896691037826
 40
0.4294603172828986
 40
0.4909835110979434
 40
0.5526352253564614
 40
0.6142174669647725
 40
0.6759673580160818
 40
0.737945723465614
 40
0.8011538025324518
 40
0.8655919427307442
 40
0.9316980995539471
 40
1.0
 40
1.0
 40
1.0
 40
1.0
 10
3.149693799536423
 20
5.120231794735216
 30
0.0
 10
3.149718646951881
 20
5.123538355195898
 30
0.0
 10
3.149767773950961
 20
5.13007591210967
 30
0.0
 10
3.149042208718435
 20
5.139783836077319
 30
0.0
 10
3.147745773699057
 20
5.149288723887976
 30
0.0
 10
3.145747461272236
 20
5.158589455463382
 30
0.0
 10
3.142996679357199
 20
5.167643612162084
 30
0.0
 10
3.13975626918827
 20
5.176539196989434
 30
0.0
 10
3.135799895615129
 20
5.185211698390829
 30
0.0
 10
3.131126270015815
 20
5.193586401608095
 30
0.0
 10
3.125981728488747
 20
5.201724737359774
 30
0.0
 10
3.120020209149983
 20
5.209303204848722
 30
0.0
 10
3.113562932806582
 20
5.216476362681441
 30
0.0
 10
3.106501993269982
 20
5.223191364821603
 30
0.0
 10
3.098740347739698
 20
5.229305142711377
 30
0.0
 10
3.090445690718528
 20
5.235052876766391
 30
0.0
 10
3.081497460043858
 20
5.240280970534995
 30
0.0
 10
3.075197266760897
 20
5.243327133642208
 30
0.0
 10
3.071995708884484
 20
5.244875096863448
 30
0.0
  0
SPLINE
  5
E2
330
1F
100
AcDbEntity
  8
0
  6
Continuous
 62
     7
370
    15
100
AcDbSpline
210
0.0
220
0.0
230
1.0
 70
     8
 71
     3
 72
    23
 73
    19
 74
     0
 42
0.00000001
 43
0.00000001
 40
0.0
 40
0.0
 40
0.0
 40
0.0
 40
0.0621336122059218
 40
0.1232325472275969
 40
0.1831764950012245
 40
0.2428287500983236
 40
0.3018932983919779
 40
0.3603411091167399
 40
0.4185489358753631
 40
0.4770206162466248
 40
0.5362731289964119
 40
0.5959078371618618
 40
0.6577713631096989
 40
0.721226487049692
 40
0.7868179051321877
 40
0.8548086629992041
 40
0.9257743898895031
 40
1.0
 40
1.0
 40
1.0
 40
1.0
 10
3.071995708884484
 20
5.244875096863448
 30
0.0
 10
3.067945790649047
 20
5.246606345594453
 30
0.0
 10
3.059913395259538
 20
5.250040013514793
 30
0.0
 10
3.047455540506085
 20
5.253766168300572
 30
0.0
 10
3.034894910223633
 20
5.256324021288234
 30
0.0
 10
3.022276943370164
 20
5.257551769940224
 30
0.0
 10
3.009710364065031
 20
5.257638664293109
 30
0.0
 10
2.997290277958849
 20
5.256471940873725
 30
0.0
 10
2.985132348098551
 20
5.253900711427807
 30
0.0
 10
2.973200951741067
 20
5.250225953449729
 30
0.0
 10
2.961670783002294
 20
5.245173175204237
 30
0.0
 10
2.950482002470575
 20
5.238900954723634
 30
0.0
 10
2.939800992359393
 20
5.231275917187915
 30
0.0
 10
2.929504053269709
 20
5.222478037643723
 30
0.0
 10
2.919887363498973
 20
5.212325409898745
 30
0.0
 10
2.910999271281157
 20
5.200852873536215
 30
0.0
 10
2.903011630787619
 20
5.187998420338133
 30
0.0
 10
2.89850573935027
 20
5.178747344703581
 30
0.0
 10
2.896202209760023
 20
5.174017952803642
 30
0.0
  0
SPLINE
  5
E3
330
1F
100
AcDbEntity
  8
0
  6
Continuous
 62
     7
370
    15
100
AcDbSpline
210
0.0
220
0.0
230
1.0
 70
     8
 71
     3
 72
    23
 73
    19
 74
     0
 42
0.00000001
 43
0.00000001
 40
0.0
 40
0.0
 40
0.0
 40
0.0
 40
0.0624348744468953
 40
0.1237481743666881
 40
0.1847944452641075
 40
0.2456819241319509
 40
0.3064163268352715
 40
0.366360079133325
 40
0.4257288274734394
 40
0.4858369624918588
 40
0.5459350303781686
 40
0.6065981210968507
 40
0.6685608164466501
 40
0.7320021675521807
 40
0.796517293874647
 40
0.8623719280397405
 40
0.9299986021389163
 40
1.0
 40
1.0
 40
1.0
 40
1.0
 10
2.896202209760023
 20
5.174017952803642
 30
0.0
 10
2.894530671845707
 20
5.170073462995914
 30
0.0
 10
2.891217623375382
 20
5.162255341844253
 30
0.0
 10
2.887706192528958
 20
5.150045932575512
 30
0.0
 10
2.8855163020698
 20
5.137653712371591
 30
0.0
 10
2.884568865210257
 20
5.125142922877672
 30
0.0
 10
2.884887778400714
 20
5.112676147271277
 30
0.0
 10
2.886407724423969
 20
5.100407057435757
 30
0.0
 10
2.889037653381617
 20
5.088368017586362
 30
0.0
 10
2.892941605822834
 20
5.076666259217892
 30
0.0
 10
2.897987542759799
 20
5.065318443596264
 30
0.0
 10
2.904160605383213
 20
5.054389261520037
 30
0.0
 10
2.911573033799241
 20
5.043984396342157
 30
0.0
 10
2.919928482077905
 20
5.033974568229254
 30
0.0
 10
2.929503494749086
 20
5.024716710111316
 30
0.0
 10
2.940238679552419
 20
5.016374835696736
 30
0.0
 10
2.952009188665992
 20
5.008828467945429
 30
0.0
 10
2.960487604608083
 20
5.004670047444002
 30
0.0
 10
2.964799958615087
 20
5.002554961154935
 30
0.0
  0
SPLINE
  5
E4
330
1F
100
AcDbEntity
  8
0
  6
Continuous
 62
     7
370
    15
100
AcDbSpline
210
0.0
220
0.0
230
1.0
 70
     8
 71
     3
 72
    15
 73
    11
 74
     0
 42
0.00000001
 43
0.00000001
 40
0.0
 40
0.0
 40
0.0
 40
0.0
 40
0.1395727329951026
 40
0.2709933059392886
 40
0.3958375796490515
 40
0.5138816753929512
 40
0.6305125813011815
 40
0.7496726383106743
 40
0.8727454364870102
 40
1.0
 40
1.0
 40
1.0
 40
1.0
 10
2.964799958615087
 20
5.002554961154935
 30
0.0
 10
2.970147453446209
 20
5.000223449076416
 30
0.0
 10
2.980530106788891
 20
4.995696603807739
 30
0.0
 10
2.996175501059215
 20
4.990275611392779
 30
0.0
 10
3.011296682424402
 20
4.986225687922339
 30
0.0
 10
3.026090750796691
 20
4.98351523307898
 30
0.0
 10
3.040837387768455
 20
4.982171077457393
 30
0.0
 10
3.055848099089455
 20
4.982226118750734
 30
0.0
 10
3.071261701609614
 20
4.983437365043616
 30
0.0
 10
3.081568043859801
 20
4.985251914830533
 30
0.0
 10
3.086807299671122
 20
4.98617434592056
 30
0.0
  0
LINE
  5
E5
330
1F
100
AcDbEntity
  8
0
  6
Continuous
 62
     7
370
    15
100
AcDbLine
 10
3.0868072997
 20
4.9861743459
 30
0.0
 11
3.0772048701
 21
5.0681401831
 31
0.0
  0
SPLINE
  5
E6
330
1F
100
AcDbEntity
  8
0
  6
Continuous
 62
     7
370
    15
100
AcDbSpline
210
0.0
220
0.0
230
1.0
 70
     8
 71
     3
 72
    23
 73
    19
 74
     0
 42
0.00000001
 43
0.00000001
 40
0.0
 40
0.0
 40
0.0
 40
0.0
 40
0.0624348744468947
 40
0.1237481743666882
 40
0.1847944452641073
 40
0.2456819241319508
 40
0.3064163268352718
 40
0.3663600791333252
 40
0.4257288274734397
 40
0.4858369624918583
 40
0.5459350303781685
 40
0.6065981210968507
 40
0.6685608164466501
 40
0.7320021675521805
 40
0.7965172938746466
 40
0.8623719280397405
 40
0.9299986021389159
 40
1.0
 40
1.0
 40
1.0
 40
1.0
 10
3.106392863697968
 20
5.585965970525531
 30
0.0
 10
3.104721325783653
 20
5.582021480717802
 30
0.0
 10
3.101408277313326
 20
5.574203359566141
 30
0.0
 10
3.097896846466904
 20
5.561993950297401
 30
0.0
 10
3.095706956007745
 20
5.549601730093479
 30
0.0
 10
3.094759519148203
 20
5.537090940599561
 30
0.0
 10
3.095078432338658
 20
5.524624164993165
 30
0.0
 10
3.096598378361914
 20
5.512355075157644
 30
0.0
 10
3.099228307319564
 20
5.50031603530825
 30
0.0
 10
3.103132259760778
 20
5.488614276939779
 30
0.0
 10
3.108178196697745
 20
5.477266461318153
 30
0.0
 10
3.114351259321158
 20
5.466337279241925
 30
0.0
 10
3.121763687737187
 20
5.455932414064046
 30
0.0
 10
3.130119136015851
 20
5.445922585951142
 30
0.0
 10
3.139694148687032
 20
5.436664727833205
 30
0.0
 10
3.150429333490364
 20
5.428322853418624
 30
0.0
 10
3.162199842603938
 20
5.420776485667318
 30
0.0
 10
3.170678258546028
 20
5.416618065165891
 30
0.0
 10
3.174990612553033
 20
5.414502978876824
 30
0.0
  0
SPLINE
  5
E7
330
1F
100
AcDbEntity
  8
0
  6
Continuous
 62
     7
370
    15
100
AcDbSpline
210
0.0
220
0.0
230
1.0
 70
     8
 71
     3
 72
    19
 73
    15
 74
     0
 42
0.00000001
 43
0.00000001
 40
0.0
 40
0.0
 40
0.0
 40
0.0
 40
0.1386290176987124
 40
0.2670540964012628
 40
0.3884773880014967
 40
0.5085458979777919
 40
0.5676465142161256
 40
0.6267471304544536
 40
0.6847488727479271
 40
0.7430110382420093
 40
0.8031275427617942
 40
0.8658660195334034
 40
0.9309986446881426
 40
1.0
 40
1.0
 40
1.0
 40
1.0
 10
2.560470111272619
 20
5.807574983523909
 30
0.0
 10
2.557300924882632
 20
5.807610620807703
 30
0.0
 10
2.551195823499423
 20
5.807679272254417
 30
0.0
 10
2.542480340294306
 20
5.809573612463836
 30
0.0
 10
2.534583020794083
 20
5.81264739259445
 30
0.0
 10
2.528762688434821
 20
5.816381016910635
 30
0.0
 10
2.52471015909822
 20
5.820013936146228
 30
0.0
 10
2.522005185097875
 20
5.823001532681503
 30
0.0
 10
2.519736842769074
 20
5.826308740844595
 30
0.0
 10
2.517825885732583
 20
5.829858731680717
 30
0.0
 10
2.516319593152191
 20
5.833717049399858
 30
0.0
 10
2.515206726504943
 20
5.837864596893836
 30
0.0
 10
2.514433368518161
 20
5.842297708459271
 30
0.0
 10
2.51424791221734
 20
5.845353931122715
 30
0.0
 10
2.514152509575421
 20
5.846926116673155
 30
0.0
  0
ENDSEC
  0
SECTION
  2
OBJECTS
  0
DICTIONARY
  5
C
330
0
100
AcDbDictionary
281
     1
  3
ACAD_GROUP
350
D
  3
ACAD_LAYOUT
350
1A
  3
ACAD_MLINESTYLE
350
17
  3
ACAD_PLOTSETTINGS
350
19
  3
ACAD_PLOTSTYLENAME
350
E
  0
DICTIONARY
  5
D
102
{ACAD_REACTORS
330
C
102
}
330
C
100
AcDbDictionary
281
     1
  0
DICTIONARY
  5
1A
102
{ACAD_REACTORS
330
C
102
}
330
C
100
AcDbDictionary
281
     1
  3
Layout1
350
1E
  3
Layout2
350
26
  3
Model
350
22
  0
DICTIONARY
  5
17
102
{ACAD_REACTORS
330
C
102
}
330
C
100
AcDbDictionary
281
     1
  3
Standard
350
18
  0
DICTIONARY
  5
19
102
{ACAD_REACTORS
330
C
102
}
330
C
100
AcDbDictionary
281
     1
  0
ACDBDICTIONARYWDFLT
  5
E
102
{ACAD_REACTORS
330
C
102
}
330
C
100
AcDbDictionary
281
     1
  3
Normal
350
F
100
AcDbDictionaryWithDefault
340
F
  0
LAYOUT
  5
1E
102
{ACAD_REACTORS
330
1A
102
}
330
1A
100
AcDbPlotSettings
  1

  2
none_device
  4

  6

 40
0.0
 41
0.0
 42
0.0
 43
0.0
 44
0.0
 45
0.0
 46
0.0
 47
0.0
 48
0.0
 49
0.0
140
0.0
141
0.0
142
1.0
143
1.0
 70
   688
 72
     0
 73
     0
 74
     5
  7

 75
    16
147
1.0
148
0.0
149
0.0
100
AcDbLayout
  1
Layout1
 70
     1
 71
     1
 10
0.0
 20
0.0
 11
12.0
 21
9.0
 12
0.0
 22
0.0
 32
0.0
 14
1.0000000000E+20
 24
1.0000000000E+20
 34
1.0000000000E+20
 15
-1.0000000000E+20
 25
-1.0000000000E+20
 35
-1.0000000000E+20
146
0.0
 13
0.0
 23
0.0
 33
0.0
 16
1.0
 26
0.0
 36
0.0
 17
0.0
 27
1.0
 37
0.0
 76
     0
330
1B
  0
LAYOUT
  5
26
102
{ACAD_REACTORS
330
1A
102
}
330
1A
100
AcDbPlotSettings
  1

  2
none_device
  4

  6

 40
0.0
 41
0.0
 42
0.0
 43
0.0
 44
0.0
 45
0.0
 46
0.0
 47
0.0
 48
0.0
 49
0.0
140
0.0
141
0.0
142
1.0
143
1.0
 70
   688
 72
     0
 73
     0
 74
     5
  7

 75
    16
147
1.0
148
0.0
149
0.0
100
AcDbLayout
  1
Layout2
 70
     1
 71
     2
 10
0.0
 20
0.0
 11
0.0
 21
0.0
 12
0.0
 22
0.0
 32
0.0
 14
0.0
 24
0.0
 34
0.0
 15
0.0
 25
0.0
 35
0.0
146
0.0
 13
0.0
 23
0.0
 33
0.0
 16
1.0
 26
0.0
 36
0.0
 17
0.0
 27
1.0
 37
0.0
 76
     0
330
23
  0
LAYOUT
  5
22
102
{ACAD_REACTORS
330
1A
102
}
330
1A
100
AcDbPlotSettings
  1

  2
none_device
  4

  6

 40
0.0
 41
0.0
 42
0.0
 43
0.0
 44
0.0
 45
0.0
 46
0.0
 47
0.0
 48
0.0
 49
0.0
140
0.0
141
0.0
142
1.0
143
1.0
 70
  1712
 72
     0
 73
     0
 74
     0
  7

 75
     0
147
1.0
148
0.0
149
0.0
100
AcDbLayout
  1
Model
 70
     1
 71
     0
 10
0.0
 20
0.0
 11
11.0
 21
8.5
 12
0.0
 22
0.0
 32
0.0
 14
0.0
 24
0.0
 34
0.0
 15
11.0
 25
8.5
 35
0.0
146
0.0
 13
0.0
 23
0.0
 33
0.0
 16
1.0
 26
0.0
 36
0.0
 17
0.0
 27
1.0
 37
0.0
 76
     0
330
1F
331
29
  0
MLINESTYLE
  5
18
102
{ACAD_REACTORS
330
17
102
}
330
17
100
AcDbMlineStyle
  2
Standard
 70
     0
  3

 62
   256
 51
90.0
 52
90.0
 71
     2
 49
0.5
 62
   256
  6
BYLAYER
 49
-0.5
 62
   256
  6
BYLAYER
  0
ACDBPLACEHOLDER
  5
F
102
{ACAD_REACTORS
330
E
102
}
330
E
  0
ENDSEC
  0
EOF
