  0
SECTION
  2
HEADER
  9
$ACADVER
  1
AC1015
  9
$ACADMAINTVER
 70
     6
  9
$DWGCODEPAGE
  3
ANSI_1252
  9
$INSBASE
 10
0.0
 20
0.0
 30
0.0
  9
$EXTMIN
 10
0.0
 20
0.0
 30
0.0
  9
$EXTMAX
 10
11.0
 20
8.5
 30
0.0
  9
$LIMMIN
 10
0.0
 20
0.0
  9
$LIMMAX
 10
11.0
 20
8.5
  9
$ORTHOMODE
 70
     0
  9
$REGENMODE
 70
     1
  9
$FILLMODE
 70
     1
  9
$QTEXTMODE
 70
     0
  9
$MIRRTEXT
 70
     1
  9
$LTSCALE
 40
1.0
  9
$ATTMODE
 70
     1
  9
$TEXTSIZE
 40
0.1377952756
  9
$TRACEWID
 40
0.05
  9
$TEXTSTYLE
  7
Standard
  9
$CLAYER
  8
0
  9
$CELTYPE
  6
ByLayer
  9
$CECOLOR
 62
   256
  9
$CELTSCALE
 40
1.0
  9
$DISPSILH
 70
     0
  9
$DIMSCALE
 40
1.0
  9
$DIMASZ
 40
0.2362204724
  9
$DIMEXO
 40
0.0393700787
  9
$DIMDLI
 40
0.38
  9
$DIMRND
 40
0.0
  9
$DIMDLE
 40
0.0
  9
$DIMEXE
 40
0.0393700787
  9
$DIMTP
 40
0.0
  9
$DIMTM
 40
0.0
  9
$DIMTXT
 40
0.1377952756
  9
$DIMCEN
 40
0.09
  9
$DIMTSZ
 40
0.0
  9
$DIMTOL
 70
     0
  9
$DIMLIM
 70
     0
  9
$DIMTIH
 70
     1
  9
$DIMTOH
 70
     1
  9
$DIMSE1
 70
     0
  9
$DIMSE2
 70
     0
  9
$DIMTAD
 70
     1
  9
$DIMZIN
 70
     0
  9
$DIMBLK
  1

  9
$DIMASO
 70
     1
  9
$DIMSHO
 70
     1
  9
$DIMPOST
  1

  9
$DIMAPOST
  1

  9
$DIMALT
 70
     0
  9
$DIMALTD
 70
     2
  9
$DIMALTF
 40
25.4
  9
$DIMLFAC
 40
2.0
  9
$DIMTOFL
 70
     0
  9
$DIMTVP
 40
0.0
  9
$DIMTIX
 70
     0
  9
$DIMSOXD
 70
     0
  9
$DIMSAH
 70
     0
  9
$DIMBLK1
  1

  9
$DIMBLK2
  1

  9
$DIMSTYLE
  2
Standard
  9
$DIMCLRD
 70
     0
  9
$DIMCLRE
 70
     0
  9
$DIMCLRT
 70
     0
  9
$DIMTFAC
 40
1.0
  9
$DIMGAP
 40
0.06
  9
$DIMJUST
 70
     0
  9
$DIMSD1
 70
     0
  9
$DIMSD2
 70
     0
  9
$DIMTOLJ
 70
     1
  9
$DIMTZIN
 70
     0
  9
$DIMALTZ
 70
     0
  9
$DIMALTTZ
 70
     0
  9
$DIMUPT
 70
     0
  9
$DIMDEC
 70
     2
  9
$DIMTDEC
 70
     2
  9
$DIMALTU
 70
     2
  9
$DIMALTTD
 70
     2
  9
$DIMTXSTY
  7
Standard
  9
$DIMAUNIT
 70
     0
  9
$DIMADEC
 70
     2
  9
$DIMALTRND
 40
0.0
  9
$DIMAZIN
 70
     0
  9
$DIMDSEP
 70
    46
  9
$DIMATFIT
 70
     3
  9
$DIMFRAC
 70
     0
  9
$DIMLDRBLK
  1

  9
$DIMLUNIT
 70
     2
  9
$DIMLWD
 70
    -2
  9
$DIMLWE
 70
    -2
  9
$DIMTMOVE
 70
     0
  9
$LUNITS
 70
     2
  9
$LUPREC
 70
     2
  9
$SKETCHINC
 40
0.1
  9
$FILLETRAD
 40
0.5
  9
$AUNITS
 70
     0
  9
$AUPREC
 70
     2
  9
$MENU
  1
.
  9
$ELEVATION
 40
0.0
  9
$PELEVATION
 40
0.0
  9
$THICKNESS
 40
0.0
  9
$LIMCHECK
 70
     0
  9
$CHAMFERA
 40
0.5
  9
$CHAMFERB
 40
0.5
  9
$CHAMFERC
 40
1.0
  9
$CHAMFERD
 40
0.0
  9
$SKPOLY
 70
     0
  9
$TDCREATE
 40
2455853.613167697
  9
$TDUCREATE
 40
2455853.779834364
  9
$TDUPDATE
 40
2455853.613167708
  9
$TDUUPDATE
 40
2455853.779834375
  9
$TDINDWG
 40
0.0000000116
  9
$TDUSRTIMER
 40
0.0000000116
  9
$USRTIMER
 70
     1
  9
$ANGBASE
 50
0.0
  9
$ANGDIR
 70
     0
  9
$PDMODE
 70
     0
  9
$PDSIZE
 40
-1.0
  9
$PLINEWID
 40
0.0
  9
$SPLFRAME
 70
     0
  9
$SPLINETYPE
 70
     6
  9
$SPLINESEGS
 70
     8
  9
$HANDSEED
  5
97
  9
$SURFTAB1
 70
     6
  9
$SURFTAB2
 70
     6
  9
$SURFTYPE
 70
     6
  9
$SURFU
 70
     6
  9
$SURFV
 70
     6
  9
$UCSBASE
  2

  9
$UCSNAME
  2

  9
$UCSORG
 10
0.0
 20
0.0
 30
0.0
  9
$UCSXDIR
 10
1.0
 20
0.0
 30
0.0
  9
$UCSYDIR
 10
0.0
 20
1.0
 30
0.0
  9
$UCSORTHOREF
  2

  9
$UCSORTHOVIEW
 70
     0
  9
$UCSORGTOP
 10
0.0
 20
0.0
 30
0.0
  9
$UCSORGBOTTOM
 10
0.0
 20
0.0
 30
0.0
  9
$UCSORGLEFT
 10
0.0
 20
0.0
 30
0.0
  9
$UCSORGRIGHT
 10
0.0
 20
0.0
 30
0.0
  9
$UCSORGFRONT
 10
0.0
 20
0.0
 30
0.0
  9
$UCSORGBACK
 10
0.0
 20
0.0
 30
0.0
  9
$PUCSBASE
  2

  9
$PUCSNAME
  2

  9
$PUCSORG
 10
0.0
 20
0.0
 30
0.0
  9
$PUCSXDIR
 10
1.0
 20
0.0
 30
0.0
  9
$PUCSYDIR
 10
0.0
 20
1.0
 30
0.0
  9
$PUCSORTHOREF
  2

  9
$PUCSORTHOVIEW
 70
     0
  9
$PUCSORGTOP
 10
0.0
 20
0.0
 30
0.0
  9
$PUCSORGBOTTOM
 10
0.0
 20
0.0
 30
0.0
  9
$PUCSORGLEFT
 10
0.0
 20
0.0
 30
0.0
  9
$PUCSORGRIGHT
 10
0.0
 20
0.0
 30
0.0
  9
$PUCSORGFRONT
 10
0.0
 20
0.0
 30
0.0
  9
$PUCSORGBACK
 10
0.0
 20
0.0
 30
0.0
  9
$USERI1
 70
     0
  9
$USERI2
 70
     0
  9
$USERI3
 70
     0
  9
$USERI4
 70
     0
  9
$USERI5
 70
     0
  9
$USERR1
 40
0.0
  9
$USERR2
 40
0.0
  9
$USERR3
 40
0.0
  9
$USERR4
 40
0.0
  9
$USERR5
 40
0.0
  9
$WORLDVIEW
 70
     1
  9
$SHADEDGE
 70
     3
  9
$SHADEDIF
 70
    70
  9
$TILEMODE
 70
     1
  9
$MAXACTVP
 70
    64
  9
$PINSBASE
 10
0.0
 20
0.0
 30
0.0
  9
$PLIMCHECK
 70
     0
  9
$PEXTMIN
 10
1.0000000000E+20
 20
1.0000000000E+20
 30
1.0000000000E+20
  9
$PEXTMAX
 10
-1.0000000000E+20
 20
-1.0000000000E+20
 30
-1.0000000000E+20
  9
$PLIMMIN
 10
0.0
 20
0.0
  9
$PLIMMAX
 10
12.0
 20
9.0
  9
$UNITMODE
 70
     0
  9
$VISRETAIN
 70
     1
  9
$PLINEGEN
 70
     0
  9
$PSLTSCALE
 70
     1
  9
$TREEDEPTH
 70
  3020
  9
$CMLSTYLE
  2
Standard
  9
$CMLJUST
 70
     0
  9
$CMLSCALE
 40
1.0
  9
$PROXYGRAPHICS
 70
     1
  9
$MEASUREMENT
 70
     0
  9
$CELWEIGHT
370
    -1
  9
$ENDCAPS
280
     0
  9
$JOINSTYLE
280
     0
  9
$LWDISPLAY
290
     1
  9
$INSUNITS
 70
     1
  9
$HYPERLINKBASE
  1

  9
$STYLESHEET
  1

  9
$XEDIT
290
     1
  9
$CEPSNTYPE
380
     0
  9
$PSTYLEMODE
290
     1
  9
$FINGERPRINTGUID
  2
{92C82290-9643-47C0-9640-EAA0C7EBFE66}
  9
$VERSIONGUID
  2
{FAEB1C32-E019-11D5-929B-00C0DF256EC4}
  9
$EXTNAMES
290
     1
  9
$PSVPSCALE
 40
0.0
  9
$OLESTARTUP
290
     0
  0
ENDSEC
  0
SECTION
  2
CLASSES
  0
CLASS
  1
ACDBDICTIONARYWDFLT
  2
AcDbDictionaryWithDefault
  3
ObjectDBX Classes
 90
        0
280
     0
281
     0
  0
CLASS
  1
VISUALSTYLE
  2
AcDbVisualStyle
  3
ObjectDBX Classes
 90
     4095
280
     0
281
     0
  0
CLASS
  1
MATERIAL
  2
AcDbMaterial
  3
ObjectDBX Classes
 90
     1153
280
     0
281
     0
  0
CLASS
  1
ACDBPLACEHOLDER
  2
AcDbPlaceHolder
  3
ObjectDBX Classes
 90
        0
280
     0
281
     0
  0
CLASS
  1
LAYOUT
  2
AcDbLayout
  3
ObjectDBX Classes
 90
        0
280
     0
281
     0
  0
ENDSEC
  0
SECTION
  2
TABLES
  0
TABLE
  2
VPORT
  5
8
330
0
100
AcDbSymbolTable
 70
     1
  0
VPORT
  5
29
330
8
100
AcDbSymbolTableRecord
100
AcDbViewportTableRecord
  2
*Active
 70
     0
 10
0.0
 20
0.0
 11
1.0
 21
1.0
 12
5.5
 22
4.25
 13
0.0
 23
0.0
 14
0.5
 24
0.5
 15
0.5
 25
0.5
 16
0.0
 26
0.0
 36
1.0
 17
0.0
 27
0.0
 37
0.0
 40
8.5
 41
1.2941176471
 42
50.0
 43
0.0
 44
0.0
 50
0.0
 51
0.0
 71
     0
 72
  2000
 73
     1
 74
     3
 75
     0
 76
     0
 77
     0
 78
     0
281
     0
 65
     1
110
0.0
120
0.0
130
0.0
111
1.0
121
0.0
131
0.0
112
0.0
122
1.0
132
0.0
 79
     0
146
0.0
  0
ENDTAB
  0
TABLE
  2
LTYPE
  5
5
330
0
100
AcDbSymbolTable
 70
     6
  0
LTYPE
  5
14
330
5
100
AcDbSymbolTableRecord
100
AcDbLinetypeTableRecord
  2
ByBlock
 70
     0
  3

 72
    65
 73
     0
 40
0.0
  0
LTYPE
  5
15
330
5
100
AcDbSymbolTableRecord
100
AcDbLinetypeTableRecord
  2
ByLayer
 70
     0
  3

 72
    65
 73
     0
 40
0.0
  0
LTYPE
  5
16
330
5
100
AcDbSymbolTableRecord
100
AcDbLinetypeTableRecord
  2
Continuous
 70
     0
  3
Solid line
 72
    65
 73
     0
 40
0.0
  0
LTYPE
  5
3F
330
5
100
AcDbSymbolTableRecord
100
AcDbLinetypeTableRecord
  2
HIDDEN
 70
     0
  3
Hidden __ __ __ __ __ __ __ __ __ __ __ __ __ __
 72
    65
 73
     2
 40
0.075
 49
0.05
 74
     0
 49
-0.025
 74
     0
  0
LTYPE
  5
40
330
5
100
AcDbSymbolTableRecord
100
AcDbLinetypeTableRecord
  2
PHANTOM
 70
     0
  3
Phantom ______  __  __  ______  __  __  ______
 72
    65
 73
     6
 40
0.5
 49
0.25
 74
     0
 49
-0.05
 74
     0
 49
0.05
 74
     0
 49
-0.05
 74
     0
 49
0.05
 74
     0
 49
-0.05
 74
     0
  0
LTYPE
  5
41
330
5
100
AcDbSymbolTableRecord
100
AcDbLinetypeTableRecord
  2
CENTER
 70
     0
  3
Center ____ _ ____ _ ____ _ ____ _ ____ _ ____
 72
    65
 73
     4
 40
0.4
 49
0.25
 74
     0
 49
-0.05
 74
     0
 49
0.05
 74
     0
 49
-0.05
 74
     0
  0
LTYPE
  5
42
330
5
100
AcDbSymbolTableRecord
100
AcDbLinetypeTableRecord
  2
CENTERX2
 70
     0
  3
Center (2x) ________  __  ________  __  _____
 72
    65
 73
     4
 40
0.8
 49
0.5
 74
     0
 49
-0.1
 74
     0
 49
0.1
 74
     0
 49
-0.1
 74
     0
  0
LTYPE
  5
43
330
5
100
AcDbSymbolTableRecord
100
AcDbLinetypeTableRecord
  2
DOT2
 70
     0
  3
Dot (.5x) ........................................
 72
    65
 73
     2
 40
0.025
 49
0.0
 74
     0
 49
-0.025
 74
     0
  0
ENDTAB
  0
TABLE
  2
LAYER
  5
2
330
0
100
AcDbSymbolTable
 70
     1
  0
LAYER
  5
10
330
2
100
AcDbSymbolTableRecord
100
AcDbLayerTableRecord
  2
0
 70
     0
 62
     7
  6
Continuous
370
    -3
390
F
  0
ENDTAB
  0
TABLE
  2
STYLE
  5
3
330
0
100
AcDbSymbolTable
 70
     1
  0
STYLE
  5
11
330
3
100
AcDbSymbolTableRecord
100
AcDbTextStyleTableRecord
  2
Standard
 70
     0
 40
0.0
 41
1.0
 50
0.0
 71
     0
 42
0.2
  3
txt
  4

  0
ENDTAB
  0
TABLE
  2
VIEW
  5
6
330
0
100
AcDbSymbolTable
 70
     0
  0
ENDTAB
  0
TABLE
  2
UCS
  5
7
330
0
100
AcDbSymbolTable
 70
     0
  0
ENDTAB
  0
TABLE
  2
APPID
  5
9
330
0
100
AcDbSymbolTable
 70
     1
  0
APPID
  5
12
330
9
100
AcDbSymbolTableRecord
100
AcDbRegAppTableRecord
  2
ACAD
 70
     0
  0
ENDTAB
  0
TABLE
  2
DIMSTYLE
  5
A
330
0
100
AcDbSymbolTable
 70
     1
100
AcDbDimStyleTable
  0
DIMSTYLE
105
27
330
A
100
AcDbSymbolTableRecord
100
AcDbDimStyleTableRecord
  2
Standard
 70
     0
178
     0
340
11
  0
ENDTAB
  0
TABLE
  2
BLOCK_RECORD
  5
1
330
0
100
AcDbSymbolTable
 70
     1
  0
BLOCK_RECORD
  5
1F
330
1
100
AcDbSymbolTableRecord
100
AcDbBlockTableRecord
  2
*Model_Space
340
22
  0
BLOCK_RECORD
  5
1B
330
1
100
AcDbSymbolTableRecord
100
AcDbBlockTableRecord
  2
*Paper_Space
340
1E
  0
BLOCK_RECORD
  5
23
330
1
100
AcDbSymbolTableRecord
100
AcDbBlockTableRecord
  2
*Paper_Space0
340
26
  0
ENDTAB
  0
ENDSEC
  0
SECTION
  2
BLOCKS
  0
BLOCK
  5
20
330
1F
100
AcDbEntity
  8
0
100
AcDbBlockBegin
  2
*Model_Space
 70
     0
 10
0.0
 20
0.0
 30
0.0
  3
*Model_Space
  1

  0
ENDBLK
  5
21
330
1F
100
AcDbEntity
  8
0
100
AcDbBlockEnd
  0
BLOCK
  5
1C
330
1B
100
AcDbEntity
 67
     1
  8
0
100
AcDbBlockBegin
  2
*Paper_Space
 70
     0
 10
0.0
 20
0.0
 30
0.0
  3
*Paper_Space
  1

  0
ENDBLK
  5
1D
330
1B
100
AcDbEntity
 67
     1
  8
0
100
AcDbBlockEnd
  0
BLOCK
  5
24
330
23
100
AcDbEntity
  8
0
100
AcDbBlockBegin
  2
*Paper_Space0
 70
     0
 10
0.0
 20
0.0
 30
0.0
  3
*Paper_Space0
  1

  0
ENDBLK
  5
25
330
23
100
AcDbEntity
  8
0
100
AcDbBlockEnd
  0
ENDSEC
  0
SECTION
  2
ENTITIES
  0
SPLINE
  5
44
330
1F
100
AcDbEntity
  8
0
  6
Continuous
 62
     7
370
    15
100
AcDbSpline
210
0.0
220
0.0
230
1.0
 70
     8
 71
     3
 72
    15
 73
    11
 74
     0
 42
0.00000001
 43
0.00000001
 40
0.0
 40
0.0
 40
0.0
 40
0.0
 40
0.1476386223699609
 40
0.2825420847453605
 40
0.4073492370121857
 40
0.5282653698018969
 40
0.6458157290856621
 40
0.7597923957561576
 40
0.876561476853703
 40
1.0
 40
1.0
 40
1.0
 40
1.0
 10
2.490710767960145
 20
7.291129905035268
 30
0.0
 10
2.494441080049433
 20
7.293317786442076
 30
0.0
 10
2.501579931235793
 20
7.29750482479242
 30
0.0
 10
2.51284637165877
 20
7.301608861662656
 30
0.0
 10
2.523920454254954
 20
7.303368629776765
 30
0.0
 10
2.534597834311601
 20
7.302695294340134
 30
0.0
 10
2.544650441309964
 20
7.300083974737921
 30
0.0
 10
2.553734981342983
 20
7.295306727916698
 30
0.0
 10
2.561775254171532
 20
7.288608158798641
 30
0.0
 10
2.565929089352502
 20
7.282915295304281
 30
0.0
 10
2.568063673233583
 20
7.279989831456334
 30
0.0
  0
SPLINE
  5
45
330
1F
100
AcDbEntity
  8
0
  6
Continuous
 62
     7
370
    15
100
AcDbSpline
210
0.0
220
0.0
230
1.0
 70
     8
 71
     3
 72
    15
 73
    11
 74
     0
 42
0.00000001
 43
0.00000001
 40
0.0
 40
0.0
 40
0.0
 40
0.0
 40
0.1247994159585113
 40
0.2410738094069911
 40
0.3538024681997236
 40
0.4706259763600337
 40
0.5915942065253325
 40
0.7168926174229933
 40
0.852236772702648
 40
1.0
 40
1.0
 40
1.0
 40
1.0
 10
2.568063673233583
 20
7.279989831456335
 30
0.0
 10
2.569837293270639
 20
7.276786228552874
 30
0.0
 10
2.573263377723756
 20
7.270597860203284
 30
0.0
 10
2.575789508168607
 20
7.260444617138296
 30
0.0
 10
2.576051860371128
 20
7.250260829447217
 30
0.0
 10
2.57394137860767
 20
7.240143382507961
 30
0.0
 10
2.56965093096525
 20
7.230352361046096
 30
0.0
 10
2.563184441529581
 20
7.221185059031085
 30
0.0
 10
2.554681236924957
 20
7.212701221202487
 30
0.0
 10
2.547855522089867
 20
7.207995628095166
 30
0.0
 10
2.544292952850366
 20
7.205539621411211
 30
0.0
  0
SPLINE
  5
46
330
1F
100
AcDbEntity
  8
0
  6
Continuous
 62
     7
370
    15
100
AcDbSpline
210
0.0
220
0.0
230
1.0
 70
     8
 71
     3
 72
    15
 73
    11
 74
     0
 42
0.00000001
 43
0.00000001
 40
0.0
 40
0.0
 40
0.0
 40
0.0
 40
0.1215538415280403
 40
0.2356775236626241
 40
0.348910487796888
 40
0.4653079106836276
 40
0.5866525034186724
 40
0.7139756225236551
 40
0.85009226275003
 40
1.0
 40
1.0
 40
1.0
 40
1.0
 10
2.466390889020221
 20
7.216679694990145
 30
0.0
 10
2.46464611117975
 20
7.219806230240132
 30
0.0
 10
2.461263207639932
 20
7.225868186621753
 30
0.0
 10
2.45875275605191
 20
7.235908108759513
 30
0.0
 10
2.458371127944052
 20
7.246069426161459
 30
0.0
 10
2.460536526831232
 20
7.256231202982391
 30
0.0
 10
2.464805784477785
 20
7.266133357445218
 30
0.0
 10
2.471393857081586
 20
7.27539398254911
 30
0.0
 10
2.480129555833219
 20
7.283908640566206
 30
0.0
 10
2.487072115257751
 20
7.288646666521583
 30
0.0
 10
2.490710767960145
 20
7.291129905035268
 30
0.0
  0
SPLINE
  5
47
330
1F
100
AcDbEntity
  8
0
  6
Continuous
 62
     7
370
    15
100
AcDbSpline
210
0.0
220
0.0
230
1.0
 70
     8
 71
     3
 72
    19
 73
    15
 74
     0
 42
0.00000001
 43
0.00000001
 40
0.0
 40
0.0
 40
0.0
 40
0.0
 40
0.1489265353657772
 40
0.2841558015924419
 40
0.4088735994592422
 40
0.5293797806962577
 40
0.5882381784916141
 40
0.6450644923491246
 40
0.7021384765447344
 40
0.7586259386584301
 40
0.8161648360122411
 40
0.8750165767473738
 40
0.9358907162755131
 40
1.0
 40
1.0
 40
1.0
 40
1.0
 10
2.544292952850366
 20
7.205539621411211
 30
0.0
 10
2.540486966842086
 20
7.20331633939772
 30
0.0
 10
2.53322504402641
 20
7.19907425801741
 30
0.0
 10
2.521765727009104
 20
7.195032923971707
 30
0.0
 10
2.510638211567761
 20
7.193076010462801
 30
0.0
 10
2.501578743511118
 20
7.193447666619277
 30
0.0
 10
2.494743325542027
 20
7.194920262512604
 30
0.0
 10
2.489900933634556
 20
7.196540958378607
 30
0.0
 10
2.485235459499216
 20
7.198485262071706
 30
0.0
 10
2.481017134013608
 20
7.201296402190263
 30
0.0
 10
2.47686748780737
 20
7.204285811249734
 30
0.0
 10
2.473128567290814
 20
7.207972662045004
 30
0.0
 10
2.469536524000036
 20
7.21205677682951
 30
0.0
 10
2.467457373331744
 20
7.21511235811749
 30
0.0
 10
2.466390889020221
 20
7.216679694990145
 30
0.0
  0
SPLINE
  5
48
330
1F
100
AcDbEntity
  8
0
  6
Continuous
 62
     7
370
    15
100
AcDbSpline
210
0.0
220
0.0
230
1.0
 70
     8
 71
     3
 72
    13
 73
     9
 74
     0
 42
0.00000001
 43
0.00000001
 40
0.0
 40
0.0
 40
0.0
 40
0.0
 40
0.2019823671580039
 40
0.3932858605979336
 40
0.5005375394227444
 40
0.6380547799130089
 40
0.8033142471544356
 40
0.9999999999999999
 40
0.9999999999999999
 40
0.9999999999999999
 40
0.9999999999999999
 10
3.350053893472638
 20
7.162084296371058
 30
0.0
 10
3.349930184811597
 20
7.163624935681195
 30
0.0
 10
3.34968930800683
 20
7.16662476019798
 30
0.0
 10
3.349659329983759
 20
7.170475006144788
 30
0.0
 10
3.350217500200718
 20
7.173774714003155
 30
0.0
 10
3.351021841422753
 20
7.176811709782777
 30
0.0
 10
3.352224633999735
 20
7.180443502695391
 30
0.0
 10
3.353207175214865
 20
7.18303476760556
 30
0.0
 10
3.353741100924819
 20
7.184442894751309
 30
0.0
  0
SPLINE
  5
49
330
1F
100
AcDbEntity
  8
0
  6
Continuous
 62
     7
370
    15
100
AcDbSpline
210
0.0
220
0.0
230
1.0
 70
     8
 71
     3
 72
    15
 73
    11
 74
     0
 42
0.00000001
 43
0.00000001
 40
0.0
 40
0.0
 40
0.0
 40
0.0
 40
0.1260921826128282
 40
0.251467629623339
 40
0.3782576899848876
 40
0.5026748392740922
 40
0.6259512355020569
 40
0.748321948083335
 40
0.8714307041844783
 40
1.0
 40
1.0
 40
1.0
 40
1.0
 10
3.353741100924819
 20
7.184442894751309
 30
0.0
 10
3.355180575746739
 20
7.18753498739644
 30
0.0
 10
3.358051343100191
 20
7.193701596554394
 30
0.0
 10
3.364225355999555
 20
7.201924847871204
 30
0.0
 10
3.371629805059106
 20
7.208952198027961
 30
0.0
 10
3.380086529702192
 20
7.214572768226913
 30
0.0
 10
3.389303987293539
 20
7.21860471631
 30
0.0
 10
3.399143696200005
 20
7.220481284110715
 30
0.0
 10
3.40937209411373
 20
7.220304097595246
 30
0.0
 10
3.41585674682014
 20
7.218169207938455
 30
0.0
 10
3.419169420395455
 20
7.217078603264241
 30
0.0
  0
SPLINE
  5
4A
330
1F
100
AcDbEntity
  8
0
  6
Continuous
 62
     7
370
    15
100
AcDbSpline
210
0.0
220
0.0
230
1.0
 70
     8
 71
     3
 72
    13
 73
     9
 74
     0
 42
0.00000001
 43
0.00000001
 40
0.0
 40
0.0
 40
0.0
 40
0.0
 40
0.2613670543082302
 40
0.4981768964908599
 40
0.6145362262815145
 40
0.7352412857216303
 40
0.8629728719061547
 40
1.0
 40
1.0
 40
1.0
 40
1.0
 10
3.419169420395455
 20
7.217078603264241
 30
0.0
 10
3.422475816529871
 20
7.215601102187791
 30
0.0
 10
3.428777950397401
 20
7.212784921308468
 30
0.0
 10
3.435695035944589
 20
7.207728877281613
 30
0.0
 10
3.440342897838613
 20
7.203083460673252
 30
0.0
 10
3.443244320648329
 20
7.198931037915004
 30
0.0
 10
3.44570943008225
 20
7.194184161148059
 30
0.0
 10
3.446882950579023
 20
7.190711767978691
 30
0.0
 10
3.447490311677109
 20
7.188914614427361
 30
0.0
  0
LINE
  5
4B
330
1F
100
AcDbEntity
  8
0
  6
Continuous
 62
     7
370
    15
100
AcDbLine
 10
3.4474903163
 20
7.1889146055
 30
0.0
 11
3.3500538819
 21
7.1620843021
 31
0.0
  0
LINE
  5
4C
330
1F
100
AcDbEntity
  8
0
  6
Continuous
 62
     7
370
    15
100
AcDbLine
 10
3.1767183243
 20
7.069526678
 30
0.0
 11
3.1953112628
 21
7.2745197232
 31
0.0
  0
SPLINE
  5
4D
330
1F
100
AcDbEntity
  8
0
  6
Continuous
 62
     7
370
    15
100
AcDbSpline
210
0.0
220
0.0
230
1.0
 70
     8
 71
     3
 72
    23
 73
    19
 74
     0
 42
0.00000001
 43
0.00000001
 40
0.0
 40
0.0
 40
0.0
 40
0.0
 40
0.0680849697789292
 40
0.1342433775760761
 40
0.1993172020458433
 40
0.2627276682518933
 40
0.3248679475143288
 40
0.3857168776530466
 40
0.4450950031277675
 40
0.5038098703317245
 40
0.5620349127309876
 40
0.620019104008204
 40
0.6788834412355405
 40
0.7384421669651521
 40
0.7998942790856012
 40
0.8635710765679141
 40
0.9297737435161987
 40
1.0
 40
1.0
 40
1.0
 40
1.0
 10
3.195311275958192
 20
7.274519678827222
 30
0.0
 10
3.195548315373733
 20
7.278335876204869
 30
0.0
 10
3.196015686834193
 20
7.285860286175758
 30
0.0
 10
3.195774763995631
 20
7.297062630638954
 30
0.0
 10
3.194673604886495
 20
7.307944141544116
 30
0.0
 10
3.192800298950561
 20
7.318492393069213
 30
0.0
 10
3.190131079925973
 20
7.328621399118701
 30
0.0
 10
3.186729669060122
 20
7.338295755385848
 30
0.0
 10
3.182360810426366
 20
7.347362742581123
 30
0.0
 10
3.177260550898841
 20
7.355860133062446
 30
0.0
 10
3.171394895398179
 20
7.363764664624394
 30
0.0
 10
3.164563617832829
 20
7.370864096627236
 30
0.0
 10
3.156956768134624
 20
7.377235754894473
 30
0.0
 10
3.148483979204225
 20
7.382778275601845
 30
0.0
 10
3.139171670313443
 20
7.387379595441666
 30
0.0
 10
3.129111065764234
 20
7.391204769281234
 30
0.0
 10
3.118159741042662
 20
7.393840232664371
 30
0.0
 10
3.110568801300763
 20
7.394878545196959
 30
0.0
 10
3.106661394661048
 20
7.395413012525363
 30
0.0
  0
SPLINE
  5
4E
330
1F
100
AcDbEntity
  8
0
  6
Continuous
 62
     7
370
    15
100
AcDbSpline
210
0.0
220
0.0
230
1.0
 70
     8
 71
     3
 72
    15
 73
    11
 74
     0
 42
0.00000001
 43
0.00000001
 40
0.0
 40
0.0
 40
0.0
 40
0.0
 40
0.1316378434743799
 40
0.2584135350967914
 40
0.3831381196533127
 40
0.5063519942408253
 40
0.6289757070992427
 40
0.7517964556195058
 40
0.8749602956767204
 40
1.0
 40
1.0
 40
1.0
 40
1.0
 10
3.106661394661048
 20
7.395413012525363
 30
0.0
 10
3.103133464831652
 20
7.395671441228354
 30
0.0
 10
3.096207912158305
 20
7.396178753357968
 30
0.0
 10
3.085898994482604
 20
7.395638922012159
 30
0.0
 10
3.07598100279949
 20
7.393803255718849
 30
0.0
 10
3.06644428936295
 20
7.390882185747528
 30
0.0
 10
3.057346201917257
 20
7.386951754618289
 30
0.0
 10
3.048507848081604
 20
7.382468149875609
 30
0.0
 10
3.040164642719539
 20
7.376983110937314
 30
0.0
 10
3.034927830997613
 20
7.372857649200943
 30
0.0
 10
3.03228963583831
 20
7.370779328695891
 30
0.0
  0
SPLINE
  5
4F
330
1F
100
AcDbEntity
  8
0
  6
Continuous
 62
     7
370
    15
100
AcDbSpline
210
0.0
220
0.0
230
1.0
 70
     8
 71
     3
 72
    15
 73
    11
 74
     0
 42
0.00000001
 43
0.00000001
 40
0.0
 40
0.0
 40
0.0
 40
0.0
 40
0.1278373686314531
 40
0.2497965460808206
 40
0.3658928572806014
 40
0.4797307644682436
 40
0.5959262609156718
 40
0.7197852227594244
 40
0.8544912347658823
 40
1.0
 40
1.0
 40
1.0
 40
1.0
 10
3.03228963583831
 20
7.370779328695891
 30
0.0
 10
3.030226755767548
 20
7.373672519559658
 30
0.0
 10
3.026195850546548
 20
7.379325867189217
 30
0.0
 10
3.019363642830757
 20
7.38688863591667
 30
0.0
 10
3.011979942273192
 20
7.393328579229386
 30
0.0
 10
3.004016350751901
 20
7.398756467942664
 30
0.0
 10
2.995234361618412
 20
7.403247998908342
 30
0.0
 10
2.985365323861798
 20
7.40662905341928
 30
0.0
 10
2.974453189749209
 20
7.409355100509687
 30
0.0
 10
2.966719381430807
 20
7.410299202667447
 30
0.0
 10
2.962703401581171
 20
7.410789452113185
 30
0.0
  0
SPLINE
  5
50
330
1F
100
AcDbEntity
  8
0
  6
Continuous
 62
     7
370
    15
100
AcDbSpline
210
0.0
220
0.0
230
1.0
 70
     8
 71
     3
 72
    15
 73
    11
 74
     0
 42
0.00000001
 43
0.00000001
 40
0.0
 40
0.0
 40
0.0
 40
0.0
 40
0.1364300092395071
 40
0.2650819157590632
 40
0.3866675294147716
 40
0.5052895686412843
 40
0.6236353190303938
 40
0.7445932212181519
 40
0.8700220815211642
 40
1.0
 40
1.0
 40
1.0
 40
1.0
 10
2.962703401581171
 20
7.410789452113185
 30
0.0
 10
2.957763238125195
 20
7.411184018012556
 30
0.0
 10
2.948164558183935
 20
7.41195065495029
 30
0.0
 10
2.934125839211295
 20
7.410870698768405
 30
0.0
 10
2.920970792757547
 20
7.408184942688222
 30
0.0
 10
2.908779032817062
 20
7.403505629545172
 30
0.0
 10
2.897309184335148
 20
7.397364418968831
 30
0.0
 10
2.886353729093688
 20
7.389910852295484
 30
0.0
 10
2.875794825265937
 20
7.381210274374158
 30
0.0
 10
2.869337608718082
 20
7.374557313362597
 30
0.0
 10
2.866051495600568
 20
7.371171584807825
 30
0.0
  0
LINE
  5
51
330
1F
100
AcDbEntity
  8
0
  6
Continuous
 62
     7
370
    15
100
AcDbLine
 10
2.8660514981
 20
7.3711715
 30
0.0
 11
2.8650316266
 21
7.3712501124
 31
0.0
  0
LINE
  5
52
330
1F
100
AcDbEntity
  8
0
  6
Continuous
 62
     7
370
    15
100
AcDbLine
 10
2.8650316266
 20
7.3712501124
 30
0.0
 11
2.8702878609
 21
7.4206744482
 31
0.0
  0
LINE
  5
53
330
1F
100
AcDbEntity
  8
0
  6
Continuous
 62
     7
370
    15
100
AcDbLine
 10
2.8702878609
 20
7.4206744482
 30
0.0
 11
2.7596716377
 21
7.4227139713
 31
0.0
  0
LINE
  5
54
330
1F
100
AcDbEntity
  8
0
  6
Continuous
 62
     7
370
    15
100
AcDbLine
 10
2.7596716377
 20
7.4227139713
 30
0.0
 11
2.7333904777
 21
7.1163620836
 31
0.0
  0
LINE
  5
55
330
1F
100
AcDbEntity
  8
0
  6
Continuous
 62
     7
370
    15
100
AcDbLine
 10
2.7333904777
 20
7.1163620836
 30
0.0
 11
2.8451834696
 21
7.094631028
 31
0.0
  0
LINE
  5
56
330
1F
100
AcDbEntity
  8
0
  6
Continuous
 62
     7
370
    15
100
AcDbLine
 10
2.8451834696
 20
7.094631028
 30
0.0
 11
2.8605599124
 21
7.289111568
 31
0.0
  0
SPLINE
  5
57
330
1F
100
AcDbEntity
  8
0
  6
Continuous
 62
     7
370
    15
100
AcDbSpline
210
0.0
220
0.0
230
1.0
 70
     8
 71
     3
 72
    15
 73
    11
 74
     0
 42
0.00000001
 43
0.00000001
 40
0.0
 40
0.0
 40
0.0
 40
0.0
 40
0.135466696769366
 40
0.2594899221951787
 40
0.3799519276552181
 40
0.5063775579041049
 40
0.6359553276954935
 40
0.7579500831440499
 40
0.8795379945399605
 40
1.0
 40
1.0
 40
1.0
 40
1.0
 10
2.860559910033488
 20
7.289111606191176
 30
0.0
 10
2.860791128026039
 20
7.290985262564004
 30
0.0
 10
2.861234032004123
 20
7.294574299264541
 30
0.0
 10
2.863213661321397
 20
7.299555821873453
 30
0.0
 10
2.866504430431577
 20
7.303620888194006
 30
0.0
 10
2.870799693233617
 20
7.306684868601018
 30
0.0
 10
2.87555617146943
 20
7.308965566283653
 30
0.0
 10
2.880528002906058
 20
7.310490202657212
 30
0.0
 10
2.88556635194382
 20
7.311262738673258
 30
0.0
 10
2.888931820995952
 20
7.311034589819394
 30
0.0
 10
2.890606728207653
 20
7.310921046014722
 30
0.0
  0
SPLINE
  5
58
330
1F
100
AcDbEntity
  8
0
  6
Continuous
 62
     7
370
    15
100
AcDbSpline
210
0.0
220
0.0
230
1.0
 70
     8
 71
     3
 72
    15
 73
    11
 74
     0
 42
0.00000001
 43
0.00000001
 40
0.0
 40
0.0
 40
0.0
 40
0.0
 40
0.1465859888027144
 40
0.2817189334441707
 40
0.4083828041413324
 40
0.5329767754288501
 40
0.651418457754653
 40
0.7648579583102647
 40
0.8776926051790044
 40
1.0
 40
1.0
 40
1.0
 40
1.0
 10
2.890606728207653
 20
7.310921046014722
 30
0.0
 10
2.892662659773838
 20
7.310624407812772
 30
0.0
 10
2.896613889033814
 20
7.310054308319944
 30
0.0
 10
2.902081420549741
 20
7.308112047038533
 30
0.0
 10
2.906945698640495
 20
7.305543895912908
 30
0.0
 10
2.910872505304787
 20
7.302049563272293
 30
0.0
 10
2.914152608932719
 20
7.298165343865629
 30
0.0
 10
2.916108318909588
 20
7.293644337650839
 30
0.0
 10
2.917072925944752
 20
7.28874729481793
 30
0.0
 10
2.916693162660446
 20
7.28542601236404
 30
0.0
 10
2.916495631595315
 20
7.283698471846483
 30
0.0
  0
LINE
  5
59
330
1F
100
AcDbEntity
  8
0
  6
Continuous
 62
     7
370
    15
100
AcDbLine
 10
2.9164956321
 20
7.2836984572
 30
0.0
 11
2.8935878742
 21
7.0900024281
 31
0.0
  0
LINE
  5
5A
330
1F
100
AcDbEntity
  8
0
  6
Continuous
 62
     7
370
    15
100
AcDbLine
 10
2.8935878742
 20
7.0900024281
 30
0.0
 11
3.0111862599
 21
7.0871781007
 31
0.0
  0
LINE
  5
5B
330
1F
100
AcDbEntity
  8
0
  6
Continuous
 62
     7
370
    15
100
AcDbLine
 10
3.0111862599
 20
7.0871781007
 30
0.0
 11
3.0275825605
 21
7.2713032137
 31
0.0
  0
SPLINE
  5
5C
330
1F
100
AcDbEntity
  8
0
  6
Continuous
 62
     7
370
    15
100
AcDbSpline
210
0.0
220
0.0
230
1.0
 70
     8
 71
     3
 72
    15
 73
    11
 74
     0
 42
0.00000001
 43
0.00000001
 40
0.0
 40
0.0
 40
0.0
 40
0.0
 40
0.104540386860859
 40
0.2127735401649001
 40
0.3265722372045977
 40
0.4535290632571359
 40
0.5840507204307712
 40
0.7145997377676141
 40
0.8525445898252635
 40
1.0
 40
1.0
 40
1.0
 40
1.0
 10
3.027582562495099
 20
7.27130317870936
 30
0.0
 10
3.027832754424423
 20
7.272734154489262
 30
0.0
 10
3.028341976019269
 20
7.275646653588629
 30
0.0
 10
3.030336923429355
 20
7.27975723491443
 30
0.0
 10
3.033155946076645
 20
7.283699034464342
 30
0.0
 10
3.036865544615888
 20
7.287290027483494
 30
0.0
 10
3.041290030016258
 20
7.290390798951585
 30
0.0
 10
3.046452874461375
 20
7.292474694296748
 30
0.0
 10
3.052186551207424
 20
7.293425493744383
 30
0.0
 10
3.056137325243206
 20
7.293167475485728
 30
0.0
 10
3.058178539225972
 20
7.293034167310519
 30
0.0
  0
LINE
  5
5D
330
1F
100
AcDbEntity
  8
0
  6
Continuous
 62
     7
370
    15
100
AcDbLine
 10
3.0832044812
 20
7.2669883302
 30
0.0
 11
3.0591199478
 21
7.0723508587
 31
0.0
  0
LINE
  5
5E
330
1F
100
AcDbEntity
  8
0
  6
Continuous
 62
     7
370
    15
100
AcDbLine
 10
3.0591199478
 20
7.0723508587
 30
0.0
 11
3.1767183243
 21
7.069526678
 31
0.0
  0
SPLINE
  5
5F
330
1F
100
AcDbEntity
  8
0
  6
Continuous
 62
     7
370
    15
100
AcDbSpline
210
0.0
220
0.0
230
1.0
 70
     8
 71
     3
 72
    23
 73
    19
 74
     0
 42
0.00000001
 43
0.00000001
 40
0.0
 40
0.0
 40
0.0
 40
0.0
 40
0.0670594221066564
 40
0.132153940439495
 40
0.1958358345354162
 40
0.2586986670563496
 40
0.3201904994846637
 40
0.3802554129450011
 40
0.4397236156738761
 40
0.4987999725702583
 40
0.5578591402833383
 40
0.617030663393927
 40
0.6768591624134457
 40
0.7384060087936519
 40
0.8010423127070874
 40
0.8651473029711013
 40
0.9311402889759287
 40
0.9999999999999999
 40
0.9999999999999999
 40
0.9999999999999999
 40
0.9999999999999999
 10
2.469764291582855
 20
7.406845458055877
 30
0.0
 10
2.464020185031503
 20
7.40499855334528
 30
0.0
 10
2.452700279621966
 20
7.401358859959114
 30
0.0
 10
2.436673469611821
 20
7.393990551022697
 30
0.0
 10
2.421572586689431
 20
7.385654348039106
 30
0.0
 10
2.407727523054378
 20
7.375897106835422
 30
0.0
 10
2.395084566535285
 20
7.365143116094178
 30
0.0
 10
2.383666172906534
 20
7.353505501785743
 30
0.0
 10
2.3737710772692
 20
7.340816749647303
 30
0.0
 10
2.365277048897982
 20
7.32726901766986
 30
0.0
 10
2.358155950694195
 20
7.312971547130956
 30
0.0
 10
2.352703928743824
 20
7.297890884421729
 30
0.0
 10
2.348564867001851
 20
7.282171108073624
 30
0.0
 10
2.346010471469828
 20
7.265801467968441
 30
0.0
 10
2.344979834881476
 20
7.248867603658874
 30
0.0
 10
2.346121341903503
 20
7.231545747155052
 30
0.0
 10
2.348876631743334
 20
7.213834001708856
 30
0.0
 10
2.352196575984668
 20
7.202163317100051
 30
0.0
 10
2.353891836117473
 20
7.196203925947176
 30
0.0
  0
SPLINE
  5
60
330
1F
100
AcDbEntity
  8
0
  6
Continuous
 62
     7
370
    15
100
AcDbSpline
210
0.0
220
0.0
230
1.0
 70
     8
 71
     3
 72
    23
 73
    19
 74
     0
 42
0.00000001
 43
0.00000001
 40
0.0
 40
0.0
 40
0.0
 40
0.0
 40
0.0684944525003382
 40
0.1343867694520485
 40
0.1980867544697746
 40
0.2606140265381511
 40
0.3217739229294251
 40
0.3814159465139916
 40
0.4403656269022787
 40
0.4991180567170515
 40
0.5580971959605543
 40
0.6176795206505
 40
0.6779068383789003
 40
0.7399197539374969
 40
0.8033778507914066
 40
0.8673658352930198
 40
0.9329274816003966
 40
1.0
 40
1.0
 40
1.0
 40
1.0
 10
2.353891836117473
 20
7.196203925947176
 30
0.0
 10
2.355806700737734
 20
7.19035018724234
 30
0.0
 10
2.359563683396347
 20
7.178865096040897
 30
0.0
 10
2.367227040869139
 20
7.162759021804363
 30
0.0
 10
2.375981268091586
 20
7.147851973720391
 30
0.0
 10
2.386234717000653
 20
7.134451423861233
 30
0.0
 10
2.397530535244521
 20
7.122429273170788
 30
0.0
 10
2.40976963007734
 20
7.111852057665779
 30
0.0
 10
2.422836254237109
 20
7.102684407380363
 30
0.0
 10
2.436791028726386
 20
7.095054345982358
 30
0.0
 10
2.451522130821822
 20
7.088918043738391
 30
0.0
 10
2.466933891066805
 20
7.084300095462282
 30
0.0
 10
2.48298611433621
 20
7.081144491835166
 30
0.0
 10
2.499613139413235
 20
7.079513067926793
 30
0.0
 10
2.51666073143893
 20
7.079434455826597
 30
0.0
 10
2.533945905605066
 20
7.080998659566503
 30
0.0
 10
2.551402455419558
 20
7.083889442333183
 30
0.0
 10
2.562884741194404
 20
7.087101452001935
 30
0.0
 10
2.568691283012678
 20
7.088725751277186
 30
0.0
  0
SPLINE
  5
61
330
1F
100
AcDbEntity
  8
0
  6
Continuous
 62
     7
370
    15
100
AcDbSpline
210
0.0
220
0.0
230
1.0
 70
     8
 71
     3
 72
    23
 73
    19
 74
     0
 42
0.00000001
 43
0.00000001
 40
0.0
 40
0.0
 40
0.0
 40
0.0
 40
0.0669729550839114
 40
0.1321579301588074
 40
0.1959283179837781
 40
0.2587118289433598
 40
0.3205112380979955
 40
0.3806596190533341
 40
0.4399813447816008
 40
0.4986472438497492
 40
0.5575275201374252
 40
0.6167117810273253
 40
0.6766234190152566
 40
0.7379680903422742
 40
0.800691435010164
 40
0.8648855069467586
 40
0.9309701982236366
 40
1.0
 40
1.0
 40
1.0
 40
1.0
 10
2.568691283012678
 20
7.088725751277186
 30
0.0
 10
2.574405874719037
 20
7.090608137489569
 30
0.0
 10
2.585682495418673
 20
7.094322655764537
 30
0.0
 10
2.601708507851757
 20
7.101648774813481
 30
0.0
 10
2.616781033076782
 20
7.110004683033127
 30
0.0
 10
2.630677828587246
 20
7.119691013755208
 30
0.0
 10
2.643366568876417
 20
7.130403841288738
 30
0.0
 10
2.654766547801186
 20
7.142059445698349
 30
0.0
 10
2.664656693621405
 20
7.154662636739539
 30
0.0
 10
2.673214048010065
 20
7.168072109032604
 30
0.0
 10
2.680251418819256
 20
7.18232213589743
 30
0.0
 10
2.685970152627752
 20
7.197271950594951
 30
0.0
 10
2.690021268924413
 20
7.21298946323429
 30
0.0
 10
2.692613117237237
 20
7.229322276760439
 30
0.0
 10
2.693631130429415
 20
7.246233917288484
 30
0.0
 10
2.692487169249123
 20
7.263553311483434
 30
0.0
 10
2.689753153720726
 20
7.281278071056521
 30
0.0
 10
2.686370422338545
 20
7.292939015942335
 30
0.0
 10
2.684642189700447
 20
7.298896576051566
 30
0.0
  0
SPLINE
  5
62
330
1F
100
AcDbEntity
  8
0
  6
Continuous
 62
     7
370
    15
100
AcDbSpline
210
0.0
220
0.0
230
1.0
 70
     8
 71
     3
 72
    23
 73
    19
 74
     0
 42
0.00000001
 43
0.00000001
 40
0.0
 40
0.0
 40
0.0
 40
0.0
 40
0.0687602126803795
 40
0.1350121379158072
 40
0.1989853838213694
 40
0.2618943641268584
 40
0.3234538457267955
 40
0.3832617273803259
 40
0.4425920706610378
 40
0.5015753599232503
 40
0.5605299349762979
 40
0.6198938024589669
 40
0.6797547444940587
 40
0.7414522882027682
 40
0.8040110610714111
 40
0.8676579175050804
 40
0.9329554165980485
 40
0.9999999999999999
 40
0.9999999999999999
 40
0.9999999999999999
 40
0.9999999999999999
 10
2.684642189700447
 20
7.298896576051566
 30
0.0
 10
2.682630775152932
 20
7.30474349419913
 30
0.0
 10
2.6786813199708
 20
7.316224042157739
 30
0.0
 10
2.671040429461461
 20
7.332436545048342
 30
0.0
 10
2.662048132315078
 20
7.347321386120771
 30
0.0
 10
2.651731095645133
 20
7.360787832449167
 30
0.0
 10
2.640483618757771
 20
7.372982180011956
 30
0.0
 10
2.628202450341852
 20
7.383654897206847
 30
0.0
 10
2.615090267665551
 20
7.392893351259923
 30
0.0
 10
2.601053831654552
 20
7.400505271205649
 30
0.0
 10
2.586312582710664
 20
7.406610310917523
 30
0.0
 10
2.570999434559771
 20
7.411402237187412
 30
0.0
 10
2.554986672679245
 20
7.414388544796696
 30
0.0
 10
2.538503753824732
 20
7.416073433287834
 30
0.0
 10
2.521590876142353
 20
7.416096073090418
 30
0.0
 10
2.504416888348818
 20
7.414707448735579
 30
0.0
 10
2.487038476349054
 20
7.41163814076481
 30
0.0
 10
2.475572806992091
 20
7.408457017254948
 30
0.0
 10
2.469764291582855
 20
7.406845458055877
 30
0.0
  0
LINE
  5
63
330
1F
100
AcDbEntity
  8
0
  6
Continuous
 62
     7
370
    15
100
AcDbLine
 10
4.1075907841
 20
7.0878886925
 30
0.0
 11
4.211220587
 21
7.0179896333
 31
0.0
  0
LINE
  5
64
330
1F
100
AcDbEntity
  8
0
  6
Continuous
 62
     7
370
    15
100
AcDbLine
 10
3.9204402661
 20
6.5868900934
 30
0.0
 11
4.211220587
 21
7.0179896333
 31
0.0
  0
LINE
  5
65
330
1F
100
AcDbEntity
  8
0
  6
Continuous
 62
     7
370
    15
100
AcDbLine
 10
3.9204402661
 20
6.5868900934
 30
0.0
 11
3.8168105366
 21
6.6567891526
 31
0.0
  0
LINE
  5
66
330
1F
100
AcDbEntity
  8
0
  6
Continuous
 62
     7
370
    15
100
AcDbLine
 10
3.8168105366
 20
6.6567891526
 30
0.0
 11
3.5372140798
 21
6.2422703812
 31
0.0
  0
LINE
  5
67
330
1F
100
AcDbEntity
  8
0
  6
Continuous
 62
     7
370
    15
100
AcDbLine
 10
3.5372140798
 20
6.2422703812
 30
0.0
 11
3.6408438093
 21
6.172371322
 31
0.0
  0
LINE
  5
68
330
1F
100
AcDbEntity
  8
0
  6
Continuous
 62
     7
370
    15
100
AcDbLine
 10
3.3500634885
 20
5.7412717821
 30
0.0
 11
3.6408438093
 21
6.172371322
 31
0.0
  0
LINE
  5
69
330
1F
100
AcDbEntity
  8
0
  6
Continuous
 62
     7
370
    15
100
AcDbLine
 10
3.3500634885
 20
5.7412717821
 30
0.0
 11
3.2464337956
 21
5.8111708413
 31
0.0
  0
LINE
  5
6A
330
1F
100
AcDbEntity
  8
0
  6
Continuous
 62
     7
370
    15
100
AcDbLine
 10
3.2464337956
 20
5.8111708413
 30
0.0
 11
2.9668373389
 21
5.3966521065
 31
0.0
  0
LINE
  5
6B
330
1F
100
AcDbEntity
  8
0
  6
Continuous
 62
     7
370
    15
100
AcDbLine
 10
2.9668373389
 20
5.3966521065
 30
0.0
 11
3.0704670317
 21
5.326752974
 31
0.0
  0
LINE
  5
6C
330
1F
100
AcDbEntity
  8
0
  6
Continuous
 62
     7
370
    15
100
AcDbLine
 10
2.8645010752
 20
5.0213958873
 30
0.0
 11
3.0704670317
 21
5.326752974
 31
0.0
  0
ARC
  5
6D
330
1F
100
AcDbEntity
  8
0
  6
Continuous
 62
     7
370
    15
100
AcDbCircle
 10
2.7815973154
 20
5.0773151764
 30
0.0
 40
0.0999999999999996
100
AcDbArc
 50
214.0
 51
326.0
  0
LINE
  5
6E
330
1F
100
AcDbEntity
  8
0
  6
Continuous
 62
     7
370
    15
100
AcDbLine
 10
2.4927275992
 20
5.326752974
 30
0.0
 11
2.6986935556
 21
5.0213958873
 31
0.0
  0
LINE
  5
6F
330
1F
100
AcDbEntity
  8
0
  6
Continuous
 62
     7
370
    15
100
AcDbLine
 10
2.4927275992
 20
5.326752974
 30
0.0
 11
2.596357292
 21
5.3966521065
 31
0.0
  0
LINE
  5
70
330
1F
100
AcDbEntity
  8
0
  6
Continuous
 62
     7
370
    15
100
AcDbLine
 10
2.596357292
 20
5.3966521065
 30
0.0
 11
2.3167608353
 21
5.8111708413
 31
0.0
  0
LINE
  5
71
330
1F
100
AcDbEntity
  8
0
  6
Continuous
 62
     7
370
    15
100
AcDbLine
 10
2.3167608353
 20
5.8111708413
 30
0.0
 11
2.2131311424
 21
5.7412717821
 31
0.0
  0
LINE
  5
72
330
1F
100
AcDbEntity
  8
0
  6
Continuous
 62
     7
370
    15
100
AcDbLine
 10
1.9223508215
 20
6.172371322
 30
0.0
 11
2.2131311424
 21
5.7412717821
 31
0.0
  0
LINE
  5
73
330
1F
100
AcDbEntity
  8
0
  6
Continuous
 62
     7
370
    15
100
AcDbLine
 10
1.9223508215
 20
6.172371322
 30
0.0
 11
2.0259805511
 21
6.2422703812
 31
0.0
  0
LINE
  5
74
330
1F
100
AcDbEntity
  8
0
  6
Continuous
 62
     7
370
    15
100
AcDbLine
 10
2.0259805511
 20
6.2422703812
 30
0.0
 11
1.7463840943
 21
6.6567891526
 31
0.0
  0
LINE
  5
75
330
1F
100
AcDbEntity
  8
0
  6
Continuous
 62
     7
370
    15
100
AcDbLine
 10
1.7463840943
 20
6.6567891526
 30
0.0
 11
1.6427543648
 21
6.5868900934
 31
0.0
  0
LINE
  5
76
330
1F
100
AcDbEntity
  8
0
  6
Continuous
 62
     7
370
    15
100
AcDbLine
 10
1.3519740439
 20
7.0179896333
 30
0.0
 11
1.6427543648
 21
6.5868900934
 31
0.0
  0
LINE
  5
77
330
1F
100
AcDbEntity
  8
0
  6
Continuous
 62
     7
370
    15
100
AcDbLine
 10
1.3519740439
 20
7.0179896333
 30
0.0
 11
1.4556038468
 21
7.0878886925
 31
0.0
  0
LINE
  5
78
330
1F
100
AcDbEntity
  8
0
  6
Continuous
 62
     7
370
    15
100
AcDbLine
 10
1.4556038468
 20
7.0878886925
 30
0.0
 11
1.1760073167
 21
7.5024076106
 31
0.0
  0
LINE
  5
79
330
1F
100
AcDbEntity
  8
0
  6
Continuous
 62
     7
370
    15
100
AcDbLine
 10
1.1760073167
 20
7.5024076106
 30
0.0
 11
1.0723776605
 21
7.4325085514
 31
0.0
  0
LINE
  5
7A
330
1F
100
AcDbEntity
  8
0
  6
Continuous
 62
     7
370
    15
100
AcDbLine
 10
0.8867662447
 20
7.7076887059
 30
0.0
 11
1.0723776605
 21
7.4325085514
 31
0.0
  0
ARC
  5
7B
330
1F
100
AcDbEntity
  8
0
  6
Continuous
 62
     7
370
    15
100
AcDbCircle
 10
0.969669962
 20
7.7636079484
 30
0.0
 40
0.1000000000000005
100
AcDbArc
 50
90.0
 51
214.0
  0
LINE
  5
7C
330
1F
100
AcDbEntity
  8
0
  6
Continuous
 62
     7
370
    15
100
AcDbLine
 10
4.5935246906
 20
7.8636079447
 30
0.0
 11
0.9696699403
 21
7.8636079447
 31
0.0
  0
ARC
  5
7D
330
1F
100
AcDbEntity
  8
0
  6
Continuous
 62
     7
370
    15
100
AcDbCircle
 10
4.5935246689
 20
7.7636079484
 30
0.0
 40
0.1000000000000007
100
AcDbArc
 50
326.0
 51
90.0
  0
LINE
  5
7E
330
1F
100
AcDbEntity
  8
0
  6
Continuous
 62
     7
370
    15
100
AcDbLine
 10
4.4908169704
 20
7.4325085514
 30
0.0
 11
4.6764283862
 21
7.7076887059
 31
0.0
  0
LINE
  5
7F
330
1F
100
AcDbEntity
  8
0
  6
Continuous
 62
     7
370
    15
100
AcDbLine
 10
4.4908169704
 20
7.4325085514
 30
0.0
 11
4.3871873142
 21
7.5024076106
 31
0.0
  0
LINE
  5
80
330
1F
100
AcDbEntity
  8
0
  6
Continuous
 62
     7
370
    15
100
AcDbLine
 10
4.3871873142
 20
7.5024076106
 30
0.0
 11
4.1075907841
 21
7.0878886925
 31
0.0
  0
LINE
  5
81
330
1F
100
AcDbEntity
  8
0
  6
Continuous
 62
     7
370
    15
100
AcDbLine
 10
1.9427549258
 20
7.3495215501
 30
0.0
 11
2.1037368928
 21
6.9553042908
 31
0.0
  0
LINE
  5
82
330
1F
100
AcDbEntity
  8
0
  6
Continuous
 62
     7
370
    15
100
AcDbLine
 10
2.1037368928
 20
6.9553042908
 30
0.0
 11
2.2127840597
 21
6.9880968187
 31
0.0
  0
LINE
  5
83
330
1F
100
AcDbEntity
  8
0
  6
Continuous
 62
     7
370
    15
100
AcDbLine
 10
2.2127840597
 20
6.9880968187
 30
0.0
 11
2.1400597932
 21
7.1708881604
 31
0.0
  0
SPLINE
  5
84
330
1F
100
AcDbEntity
  8
0
  6
Continuous
 62
     7
370
    15
100
AcDbSpline
210
0.0
220
0.0
230
1.0
 70
     8
 71
     3
 72
    15
 73
    11
 74
     0
 42
0.00000001
 43
0.00000001
 40
0.0
 40
0.0
 40
0.0
 40
0.0
 40
0.1350000256067528
 40
0.2585219099172113
 40
0.3786405230633598
 40
0.500169988275261
 40
0.6230769921306201
 40
0.7449695681708318
 40
0.8697121211245634
 40
1.0
 40
1.0
 40
1.0
 40
1.0
 10
2.140059778230812
 20
7.170888189809633
 30
0.0
 10
2.139485956676964
 20
7.172517592381754
 30
0.0
 10
2.138387101744265
 20
7.175637860419299
 30
0.0
 10
2.138017801588957
 20
7.180499130539073
 30
0.0
 10
2.138609012393005
 20
7.185157517564046
 30
0.0
 10
2.140407094455548
 20
7.189492655772757
 30
0.0
 10
2.143003216496124
 20
7.193402688235802
 30
0.0
 10
2.146274682861306
 20
7.19681836867303
 30
0.0
 10
2.150152224679367
 20
7.199717982360743
 30
0.0
 10
2.153130293795166
 20
7.201042739184498
 30
0.0
 10
2.154651705594766
 20
7.201719520207667
 30
0.0
  0
SPLINE
  5
85
330
1F
100
AcDbEntity
  8
0
  6
Continuous
 62
     7
370
    15
100
AcDbSpline
210
0.0
220
0.0
230
1.0
 70
     8
 71
     3
 72
    15
 73
    11
 74
     0
 42
0.00000001
 43
0.00000001
 40
0.0
 40
0.0
 40
0.0
 40
0.0
 40
0.1423749864469978
 40
0.2733436753957285
 40
0.3971460814463385
 40
0.5196369642048885
 40
0.6425856157942705
 40
0.7592229412559187
 40
0.8761408862254926
 40
1.0
 40
1.0
 40
1.0
 40
1.0
 10
2.154651705594766
 20
7.201719520207667
 30
0.0
 10
2.156284658111432
 20
7.202268813281598
 30
0.0
 10
2.15941974000883
 20
7.203323393102425
 30
0.0
 10
2.164208090371758
 20
7.204013175083963
 30
0.0
 10
2.168794313067195
 20
7.203615422272599
 30
0.0
 10
2.173061538077501
 20
7.202225794715218
 30
0.0
 10
2.176967839605187
 20
7.200177603856996
 30
0.0
 10
2.180225940470547
 20
7.197322936248957
 30
0.0
 10
2.183032019576827
 20
7.193986156307321
 30
0.0
 10
2.184236053954134
 20
7.191322208936588
 30
0.0
 10
2.184855426213705
 20
7.18995183684964
 30
0.0
  0
LINE
  5
86
330
1F
100
AcDbEntity
  8
0
  6
Continuous
 62
     7
370
    15
100
AcDbLine
 10
2.184855419
 20
7.1899518201
 30
0.0
 11
2.2577366171
 21
7.0066898305
 31
0.0
  0
LINE
  5
87
330
1F
100
AcDbEntity
  8
0
  6
Continuous
 62
     7
370
    15
100
AcDbLine
 10
2.2577366171
 20
7.0066898305
 30
0.0
 11
2.3601939069
 21
7.057839973
 31
0.0
  0
LINE
  5
88
330
1F
100
AcDbEntity
  8
0
  6
Continuous
 62
     7
370
    15
100
AcDbLine
 10
2.3601939069
 20
7.057839973
 30
0.0
 11
2.2858221527
 21
7.2533404212
 31
0.0
  0
SPLINE
  5
89
330
1F
100
AcDbEntity
  8
0
  6
Continuous
 62
     7
370
    15
100
AcDbSpline
210
0.0
220
0.0
230
1.0
 70
     8
 71
     3
 72
    23
 73
    19
 74
     0
 42
0.00000001
 43
0.00000001
 40
0.0
 40
0.0
 40
0.0
 40
0.0
 40
0.0697922109432893
 40
0.1370184665491759
 40
0.2032379849537597
 40
0.2677594711140702
 40
0.3310283556188928
 40
0.3918027736645022
 40
0.4512597064750926
 40
0.5097716645559345
 40
0.5678340898297881
 40
0.6252550356149885
 40
0.6832743688389148
 40
0.7426691721289832
 40
0.8031902600492475
 40
0.866089103741149
 40
0.9313155630455795
 40
1.0
 40
1.0
 40
1.0
 40
1.0
 10
2.285822149425585
 20
7.253340424538217
 30
0.0
 10
2.284432474706405
 20
7.256813113168668
 30
0.0
 10
2.281704217549184
 20
7.263630814807807
 30
0.0
 10
2.276823921097755
 20
7.273386096711407
 30
0.0
 10
2.271156012953532
 20
7.282368530334619
 30
0.0
 10
2.264950485765319
 20
7.290719065650837
 30
0.0
 10
2.258263897049236
 20
7.298315599373676
 30
0.0
 10
2.251045967412173
 20
7.305008024235092
 30
0.0
 10
2.243533447785516
 20
7.310975690642906
 30
0.0
 10
2.235467052876711
 20
7.315900773924555
 30
0.0
 10
2.227088480456656
 20
7.320023866688996
 30
0.0
 10
2.218294661782841
 20
7.323112981976363
 30
0.0
 10
2.209131265153603
 20
7.325150491404167
 30
0.0
 10
2.199631292438033
 20
7.326181019172367
 30
0.0
 10
2.189816628721018
 20
7.326070032100406
 30
0.0
 10
2.179755461596141
 20
7.324915128262349
 30
0.0
 10
2.169471784403692
 20
7.322446067729449
 30
0.0
 10
2.162735463889092
 20
7.319963586120498
 30
0.0
 10
2.159280327715591
 20
7.318690292786466
 30
0.0
  0
SPLINE
  5
8A
330
1F
100
AcDbEntity
  8
0
  6
Continuous
 62
     7
370
    15
100
AcDbSpline
210
0.0
220
0.0
230
1.0
 70
     8
 71
     3
 72
    15
 73
    11
 74
     0
 42
0.00000001
 43
0.00000001
 40
0.0
 40
0.0
 40
0.0
 40
0.0
 40
0.1323900811820529
 40
0.2593236566762504
 40
0.3820729049743248
 40
0.5020431917348014
 40
0.62083124948896
 40
0.7413921041517153
 40
0.867706867315968
 40
1.0
 40
1.0
 40
1.0
 40
1.0
 10
2.159280327715591
 20
7.318690292786466
 30
0.0
 10
2.155953445394735
 20
7.31726578898679
 30
0.0
 10
2.14943679942645
 20
7.314475492833306
 30
0.0
 10
2.140377055034861
 20
7.309243959753965
 30
0.0
 10
2.132160283885202
 20
7.303346869797406
 30
0.0
 10
2.124800937900459
 20
7.29673190378871
 30
0.0
 10
2.118331486174651
 20
7.289303283662795
 30
0.0
 10
2.112992886130332
 20
7.280829856898529
 30
0.0
 10
2.108439683413097
 20
7.271487132114873
 30
0.0
 10
2.106366461519671
 20
7.264723826291575
 30
0.0
 10
2.105305886713436
 20
7.261263997999289
 30
0.0
  0
LINE
  5
8B
330
1F
100
AcDbEntity
  8
0
  6
Continuous
 62
     7
370
    15
100
AcDbLine
 10
2.1053059147
 20
7.2612639963
 30
0.0
 11
2.1042860065
 21
7.2607933484
 31
0.0
  0
LINE
  5
8C
330
1F
100
AcDbEntity
  8
0
  6
Continuous
 62
     7
370
    15
100
AcDbLine
 10
2.1042860065
 20
7.2607933484
 30
0.0
 11
2.0517237003
 21
7.4032606226
 31
0.0
  0
LINE
  5
8D
330
1F
100
AcDbEntity
  8
0
  6
Continuous
 62
     7
370
    15
100
AcDbLine
 10
2.0517237003
 20
7.4032606226
 30
0.0
 11
1.9427549258
 21
7.3495215501
 31
0.0
  0
SPLINE
  5
8E
330
1F
100
AcDbEntity
  8
0
  6
Continuous
 62
     7
370
    15
100
AcDbSpline
210
0.0
220
0.0
230
1.0
 70
     8
 71
     3
 72
    13
 73
     9
 74
     0
 42
0.00000001
 43
0.00000001
 40
0.0
 40
0.0
 40
0.0
 40
0.0
 40
0.2315003511738965
 40
0.4659436768966611
 40
0.5869403446637919
 40
0.7154693668639753
 40
0.8525238348790604
 40
1.0
 40
1.0
 40
1.0
 40
1.0
 10
3.472123995506581
 20
7.082927012982722
 30
0.0
 10
3.466143915736472
 20
7.081072097121632
 30
0.0
 10
3.454107733751907
 20
7.077338684570563
 30
0.0
 10
3.438417613153488
 20
7.074610461471774
 30
0.0
 10
3.425309310111465
 20
7.074013517160627
 30
0.0
 10
3.414908925696099
 20
7.07534579403117
 30
0.0
 10
3.403996148384588
 20
7.077816787215811
 30
0.0
 10
3.39678355191483
 20
7.08051080196265
 30
0.0
 10
3.393045163340633
 20
7.081907147091692
 30
0.0
  0
SPLINE
  5
8F
330
1F
100
AcDbEntity
  8
0
  6
Continuous
 62
     7
370
    15
100
AcDbSpline
210
0.0
220
0.0
230
1.0
 70
     8
 71
     3
 72
    11
 73
     7
 74
     0
 42
0.00000001
 43
0.00000001
 40
0.0
 40
0.0
 40
0.0
 40
0.0
 40
0.2482414860778261
 40
0.5238954327944856
 40
0.7835514294098622
 40
1.0
 40
1.0
 40
1.0
 40
1.0
 10
3.393045163340633
 20
7.081907147091692
 30
0.0
 10
3.390442958140458
 20
7.083004275188511
 30
0.0
 10
3.384951195095104
 20
7.085319683495941
 30
0.0
 10
3.377003659162984
 20
7.089329021325881
 30
0.0
 10
3.369605371127784
 20
7.093737248146512
 30
0.0
 10
3.365764406034999
 20
7.097577464073043
 30
0.0
 10
3.364018211057497
 20
7.099323318461574
 30
0.0
  0
LINE
  5
90
330
1F
100
AcDbEntity
  8
0
  6
Continuous
 62
     7
370
    15
100
AcDbLine
 10
3.3640182206
 20
7.0993232804
 30
0.0
 11
3.5592832715
 21
7.152277842
 31
0.0
  0
SPLINE
  5
91
330
1F
100
AcDbEntity
  8
0
  6
Continuous
 62
     7
370
    15
100
AcDbSpline
210
0.0
220
0.0
230
1.0
 70
     8
 71
     3
 72
    23
 73
    19
 74
     0
 42
0.00000001
 43
0.00000001
 40
0.0
 40
0.0
 40
0.0
 40
0.0
 40
0.0632296672619263
 40
0.1252412409438942
 40
0.186690675522723
 40
0.2474730536210145
 40
0.3078923732901295
 40
0.3682581178481362
 40
0.429065775647716
 40
0.4908041260699294
 40
0.5525228206477667
 40
0.6138615829132548
 40
0.6758627204501344
 40
0.7377685468900678
 40
0.8010813127123123
 40
0.8657178863994714
 40
0.9319210426895381
 40
1.0
 40
1.0
 40
1.0
 40
1.0
 10
3.559283303578376
 20
7.1522778935727
 30
0.0
 10
3.559138936774579
 20
7.156388305317853
 30
0.0
 10
3.558852984334189
 20
7.164529943413476
 30
0.0
 10
3.557289184392932
 20
7.176582088343161
 30
0.0
 10
3.555039863630196
 20
7.188354355420818
 30
0.0
 10
3.551972271004966
 20
7.199838515838864
 30
0.0
 10
3.548114366664478
 20
7.21100431427279
 30
0.0
 10
3.54349345261145
 20
7.221882055369652
 30
0.0
 10
3.537944922205163
 20
7.232413611495696
 30
0.0
 10
3.531701696428621
 20
7.242645141693951
 30
0.0
 10
3.524776039024991
 20
7.252481298400787
 30
0.0
 10
3.516920239407185
 20
7.261614827015749
 30
0.0
 10
3.508405713991624
 20
7.270149468431549
 30
0.0
 10
3.499128660707418
 20
7.278046793991087
 30
0.0
 10
3.489180325070932
 20
7.285378215978016
 30
0.0
 10
3.478376047610616
 20
7.291928448106307
 30
0.0
 10
3.466913252626087
 20
7.297945327794264
 30
0.0
 10
3.458866071754453
 20
7.301340064121536
 30
0.0
 10
3.454786275359087
 20
7.303061143000233
 30
0.0
  0
SPLINE
  5
92
330
1F
100
AcDbEntity
  8
0
  6
Continuous
 62
     7
370
    15
100
AcDbSpline
210
0.0
220
0.0
230
1.0
 70
     8
 71
     3
 72
    23
 73
    19
 74
     0
 42
0.00000001
 43
0.00000001
 40
0.0
 40
0.0
 40
0.0
 40
0.0
 40
0.0622471648237812
 40
0.1231739806715883
 40
0.1829429367637073
 40
0.2427301568611697
 40
0.3016024283974548
 40
0.359866246325621
 40
0.4181420557780569
 40
0.4767727464230741
 40
0.535986738141282
 40
0.5959176838634368
 40
0.6576342963791797
 40
0.7211853754857971
 40
0.7867716141291416
 40
0.8547338960668619
 40
0.9255213743783391
 40
0.9999999999999999
 40
0.9999999999999999
 40
0.9999999999999999
 40
0.9999999999999999
 10
3.454786275359087
 20
7.303061143000233
 30
0.0
 10
3.449613513661479
 20
7.304962294111835
 30
0.0
 10
3.439377711739198
 20
7.308724270274721
 30
0.0
 10
3.423631280901835
 20
7.312623325377653
 30
0.0
 10
3.407818528088435
 20
7.314996047311165
 30
0.0
 10
3.392029714855466
 20
7.315876157054281
 30
0.0
 10
3.376362891612285
 20
7.315178765520509
 30
0.0
 10
3.360984283217026
 20
7.312892095323636
 30
0.0
 10
3.345937939780522
 20
7.309044674266119
 30
0.0
 10
3.331322035028145
 20
7.303573465489699
 30
0.0
 10
3.317120389688662
 20
7.296730557686522
 30
0.0
 10
3.303668262664953
 20
7.288005570987942
 30
0.0
 10
3.290668187508635
 20
7.277994645463846
 30
0.0
 10
3.278420818643204
 20
7.266325334958502
 30
0.0
 10
3.266972055393793
 20
7.253125571674924
 30
0.0
 10
3.256728490939414
 20
7.23819155261268
 30
0.0
 10
3.247442384011177
 20
7.221726251969635
 30
0.0
 10
3.242410035266782
 20
7.209889239523577
 30
0.0
 10
3.239829926019108
 20
7.203820346680863
 30
0.0
  0
SPLINE
  5
93
330
1F
100
AcDbEntity
  8
0
  6
Continuous
 62
     7
370
    15
100
AcDbSpline
210
0.0
220
0.0
230
1.0
 70
     8
 71
     3
 72
    23
 73
    19
 74
     0
 42
0.00000001
 43
0.00000001
 40
0.0
 40
0.0
 40
0.0
 40
0.0
 40
0.062377062015583
 40
0.1235491341325606
 40
0.1845220090640058
 40
0.2456056292952976
 40
0.306210455341287
 40
0.3660451367312235
 40
0.4255204004864198
 40
0.4854523772695549
 40
0.5456691049937481
 40
0.6063200592915355
 40
0.6681250974168157
 40
0.731635155309011
 40
0.7963181860305688
 40
0.8622290062510067
 40
0.9299046631798141
 40
1.0
 40
1.0
 40
1.0
 40
1.0
 10
3.239829926019108
 20
7.203820346680863
 30
0.0
 10
3.23796540194285
 20
7.198808408643376
 30
0.0
 10
3.234272372361985
 20
7.188881352369019
 30
0.0
 10
3.230733334728449
 20
7.173438374972591
 30
0.0
 10
3.228627136294071
 20
7.15786183418084
 30
0.0
 10
3.228307349135992
 20
7.142193675093917
 30
0.0
 10
3.229330105114236
 20
7.126653223436235
 30
0.0
 10
3.232094929915358
 20
7.111469066204192
 30
0.0
 10
3.236033045572121
 20
7.096607655382804
 30
0.0
 10
3.241656774451525
 20
7.082253645035695
 30
0.0
 10
3.248658711201579
 20
7.068419263209172
 30
0.0
 10
3.257011412473716
 20
7.055159762719442
 30
0.0
 10
3.266808578962352
 20
7.042571866130422
 30
0.0
 10
3.277920451408475
 20
7.030653243418628
 30
0.0
 10
3.290406431316645
 20
7.019630839256193
 30
0.0
 10
3.30428648217337
 20
7.009796030483546
 30
0.0
 10
3.319509330496683
 20
7.001200364368867
 30
0.0
 10
3.330342503764138
 20
6.996507746522584
 30
0.0
 10
3.335854222220616
 20
6.994120229240804
 30
0.0
  0
SPLINE
  5
94
330
1F
100
AcDbEntity
  8
0
  6
Continuous
 62
     7
370
    15
100
AcDbSpline
210
0.0
220
0.0
230
1.0
 70
     8
 71
     3
 72
    15
 73
    11
 74
     0
 42
0.00000001
 43
0.00000001
 40
0.0
 40
0.0
 40
0.0
 40
0.0
 40
0.1390920856841133
 40
0.2706167820786914
 40
0.3955507417982371
 40
0.5136920316511598
 40
0.6304604451083583
 40
0.7497729693687101
 40
0.8725127586520636
 40
1.0
 40
1.0
 40
1.0
 40
1.0
 10
3.335854222220616
 20
6.994120229240804
 30
0.0
 10
3.34264827375461
 20
6.991546268580959
 30
0.0
 10
3.35586674232788
 20
6.986538385152235
 30
0.0
 10
3.375705657203809
 20
6.980706978762932
 30
0.0
 10
3.394846334839221
 20
6.976584809795678
 30
0.0
 10
3.413504152420419
 20
6.974151799519478
 30
0.0
 10
3.432013866814916
 20
6.97346457088671
 30
0.0
 10
3.450748918834333
 20
6.974342774458871
 30
0.0
 10
3.469917571464094
 20
6.976827427509772
 30
0.0
 10
3.482657229608239
 20
6.979760081678695
 30
0.0
 10
3.489147910764529
 20
6.981254228769359
 30
0.0
  0
LINE
  5
95
330
1F
100
AcDbEntity
  8
0
  6
Continuous
 62
     7
370
    15
100
AcDbLine
 10
3.4891479351
 20
6.9812541644
 30
0.0
 11
3.4721240184
 21
7.0829270165
 31
0.0
  0
SPLINE
  5
96
330
1F
100
AcDbEntity
  8
0
  6
Continuous
 62
     7
370
    15
100
AcDbSpline
210
0.0
220
0.0
230
1.0
 70
     8
 71
     3
 72
    15
 73
    11
 74
     0
 42
0.00000001
 43
0.00000001
 40
0.0
 40
0.0
 40
0.0
 40
0.0
 40
0.1476160849702411
 40
0.2813292060869934
 40
0.4080975695854338
 40
0.5317876607480474
 40
0.6493193292853944
 40
0.7629628246294126
 40
0.8778242575326096
 40
1.0
 40
1.0
 40
1.0
 40
1.0
 10
3.058178539225972
 20
7.29303416731052
 30
0.0
 10
3.060156530927078
 20
7.292767027349379
 30
0.0
 10
3.063926220626075
 20
7.292257907539048
 30
0.0
 10
3.069130408740406
 20
7.290368428104806
 30
0.0
 10
3.073709001207614
 20
7.287882542044233
 30
0.0
 10
3.077450915523192
 20
7.284565724013626
 30
0.0
 10
3.08041901326443
 20
7.280775893378032
 30
0.0
 10
3.082446065727431
 20
7.276527338565567
 30
0.0
 10
3.083409129352391
 20
7.271841215996661
 30
0.0
 10
3.083274084927802
 20
7.268638917664822
 30
0.0
 10
3.083204479167378
 20
7.266988361478083
 30
0.0
  0
ENDSEC
  0
SECTION
  2
OBJECTS
  0
DICTIONARY
  5
C
330
0
100
AcDbDictionary
281
     1
  3
ACAD_GROUP
350
D
  3
ACAD_LAYOUT
350
1A
  3
ACAD_MLINESTYLE
350
17
  3
ACAD_PLOTSETTINGS
350
19
  3
ACAD_PLOTSTYLENAME
350
E
  0
DICTIONARY
  5
D
102
{ACAD_REACTORS
330
C
102
}
330
C
100
AcDbDictionary
281
     1
  0
DICTIONARY
  5
1A
102
{ACAD_REACTORS
330
C
102
}
330
C
100
AcDbDictionary
281
     1
  3
Layout1
350
1E
  3
Layout2
350
26
  3
Model
350
22
  0
DICTIONARY
  5
17
102
{ACAD_REACTORS
330
C
102
}
330
C
100
AcDbDictionary
281
     1
  3
Standard
350
18
  0
DICTIONARY
  5
19
102
{ACAD_REACTORS
330
C
102
}
330
C
100
AcDbDictionary
281
     1
  0
ACDBDICTIONARYWDFLT
  5
E
102
{ACAD_REACTORS
330
C
102
}
330
C
100
AcDbDictionary
281
     1
  3
Normal
350
F
100
AcDbDictionaryWithDefault
340
F
  0
LAYOUT
  5
1E
102
{ACAD_REACTORS
330
1A
102
}
330
1A
100
AcDbPlotSettings
  1

  2
none_device
  4

  6

 40
0.0
 41
0.0
 42
0.0
 43
0.0
 44
0.0
 45
0.0
 46
0.0
 47
0.0
 48
0.0
 49
0.0
140
0.0
141
0.0
142
1.0
143
1.0
 70
   688
 72
     0
 73
     0
 74
     5
  7

 75
    16
147
1.0
148
0.0
149
0.0
100
AcDbLayout
  1
Layout1
 70
     1
 71
     1
 10
0.0
 20
0.0
 11
12.0
 21
9.0
 12
0.0
 22
0.0
 32
0.0
 14
1.0000000000E+20
 24
1.0000000000E+20
 34
1.0000000000E+20
 15
-1.0000000000E+20
 25
-1.0000000000E+20
 35
-1.0000000000E+20
146
0.0
 13
0.0
 23
0.0
 33
0.0
 16
1.0
 26
0.0
 36
0.0
 17
0.0
 27
1.0
 37
0.0
 76
     0
330
1B
  0
LAYOUT
  5
26
102
{ACAD_REACTORS
330
1A
102
}
330
1A
100
AcDbPlotSettings
  1

  2
none_device
  4

  6

 40
0.0
 41
0.0
 42
0.0
 43
0.0
 44
0.0
 45
0.0
 46
0.0
 47
0.0
 48
0.0
 49
0.0
140
0.0
141
0.0
142
1.0
143
1.0
 70
   688
 72
     0
 73
     0
 74
     5
  7

 75
    16
147
1.0
148
0.0
149
0.0
100
AcDbLayout
  1
Layout2
 70
     1
 71
     2
 10
0.0
 20
0.0
 11
0.0
 21
0.0
 12
0.0
 22
0.0
 32
0.0
 14
0.0
 24
0.0
 34
0.0
 15
0.0
 25
0.0
 35
0.0
146
0.0
 13
0.0
 23
0.0
 33
0.0
 16
1.0
 26
0.0
 36
0.0
 17
0.0
 27
1.0
 37
0.0
 76
     0
330
23
  0
LAYOUT
  5
22
102
{ACAD_REACTORS
330
1A
102
}
330
1A
100
AcDbPlotSettings
  1

  2
none_device
  4

  6

 40
0.0
 41
0.0
 42
0.0
 43
0.0
 44
0.0
 45
0.0
 46
0.0
 47
0.0
 48
0.0
 49
0.0
140
0.0
141
0.0
142
1.0
143
1.0
 70
  1712
 72
     0
 73
     0
 74
     0
  7

 75
     0
147
1.0
148
0.0
149
0.0
100
AcDbLayout
  1
Model
 70
     1
 71
     0
 10
0.0
 20
0.0
 11
11.0
 21
8.5
 12
0.0
 22
0.0
 32
0.0
 14
0.0
 24
0.0
 34
0.0
 15
11.0
 25
8.5
 35
0.0
146
0.0
 13
0.0
 23
0.0
 33
0.0
 16
1.0
 26
0.0
 36
0.0
 17
0.0
 27
1.0
 37
0.0
 76
     0
330
1F
331
29
  0
MLINESTYLE
  5
18
102
{ACAD_REACTORS
330
17
102
}
330
17
100
AcDbMlineStyle
  2
Standard
 70
     0
  3

 62
   256
 51
90.0
 52
90.0
 71
     2
 49
0.5
 62
   256
  6
BYLAYER
 49
-0.5
 62
   256
  6
BYLAYER
  0
ACDBPLACEHOLDER
  5
F
102
{ACAD_REACTORS
330
E
102
}
330
E
  0
ENDSEC
  0
EOF
