  0
SECTION
  2
HEADER
  9
$ACADVER
  1
AC1015
  9
$ACADMAINTVER
 70
     6
  9
$DWGCODEPAGE
  3
ANSI_1252
  9
$INSBASE
 10
0.0
 20
0.0
 30
0.0
  9
$EXTMIN
 10
0.0
 20
0.0
 30
0.0
  9
$EXTMAX
 10
11.0
 20
8.5
 30
0.0
  9
$LIMMIN
 10
0.0
 20
0.0
  9
$LIMMAX
 10
11.0
 20
8.5
  9
$ORTHOMODE
 70
     0
  9
$REGENMODE
 70
     1
  9
$FILLMODE
 70
     1
  9
$QTEXTMODE
 70
     0
  9
$MIRRTEXT
 70
     1
  9
$LTSCALE
 40
1.0
  9
$ATTMODE
 70
     1
  9
$TEXTSIZE
 40
0.1377952756
  9
$TRACEWID
 40
0.05
  9
$TEXTSTYLE
  7
Standard
  9
$CLAYER
  8
0
  9
$CELTYPE
  6
ByLayer
  9
$CECOLOR
 62
   256
  9
$CELTSCALE
 40
1.0
  9
$DISPSILH
 70
     0
  9
$DIMSCALE
 40
1.0
  9
$DIMASZ
 40
0.2362204724
  9
$DIMEXO
 40
0.0393700787
  9
$DIMDLI
 40
0.38
  9
$DIMRND
 40
0.0
  9
$DIMDLE
 40
0.0
  9
$DIMEXE
 40
0.0393700787
  9
$DIMTP
 40
0.0
  9
$DIMTM
 40
0.0
  9
$DIMTXT
 40
0.1377952756
  9
$DIMCEN
 40
0.09
  9
$DIMTSZ
 40
0.0
  9
$DIMTOL
 70
     0
  9
$DIMLIM
 70
     0
  9
$DIMTIH
 70
     1
  9
$DIMTOH
 70
     1
  9
$DIMSE1
 70
     0
  9
$DIMSE2
 70
     0
  9
$DIMTAD
 70
     1
  9
$DIMZIN
 70
     0
  9
$DIMBLK
  1

  9
$DIMASO
 70
     1
  9
$DIMSHO
 70
     1
  9
$DIMPOST
  1

  9
$DIMAPOST
  1

  9
$DIMALT
 70
     0
  9
$DIMALTD
 70
     2
  9
$DIMALTF
 40
25.4
  9
$DIMLFAC
 40
2.0
  9
$DIMTOFL
 70
     0
  9
$DIMTVP
 40
0.0
  9
$DIMTIX
 70
     0
  9
$DIMSOXD
 70
     0
  9
$DIMSAH
 70
     0
  9
$DIMBLK1
  1

  9
$DIMBLK2
  1

  9
$DIMSTYLE
  2
Standard
  9
$DIMCLRD
 70
     0
  9
$DIMCLRE
 70
     0
  9
$DIMCLRT
 70
     0
  9
$DIMTFAC
 40
1.0
  9
$DIMGAP
 40
0.06
  9
$DIMJUST
 70
     0
  9
$DIMSD1
 70
     0
  9
$DIMSD2
 70
     0
  9
$DIMTOLJ
 70
     1
  9
$DIMTZIN
 70
     0
  9
$DIMALTZ
 70
     0
  9
$DIMALTTZ
 70
     0
  9
$DIMUPT
 70
     0
  9
$DIMDEC
 70
     2
  9
$DIMTDEC
 70
     2
  9
$DIMALTU
 70
     2
  9
$DIMALTTD
 70
     2
  9
$DIMTXSTY
  7
Standard
  9
$DIMAUNIT
 70
     0
  9
$DIMADEC
 70
     2
  9
$DIMALTRND
 40
0.0
  9
$DIMAZIN
 70
     0
  9
$DIMDSEP
 70
    46
  9
$DIMATFIT
 70
     3
  9
$DIMFRAC
 70
     0
  9
$DIMLDRBLK
  1

  9
$DIMLUNIT
 70
     2
  9
$DIMLWD
 70
    -2
  9
$DIMLWE
 70
    -2
  9
$DIMTMOVE
 70
     0
  9
$LUNITS
 70
     2
  9
$LUPREC
 70
     2
  9
$SKETCHINC
 40
0.1
  9
$FILLETRAD
 40
0.5
  9
$AUNITS
 70
     0
  9
$AUPREC
 70
     2
  9
$MENU
  1
.
  9
$ELEVATION
 40
0.0
  9
$PELEVATION
 40
0.0
  9
$THICKNESS
 40
0.0
  9
$LIMCHECK
 70
     0
  9
$CHAMFERA
 40
0.5
  9
$CHAMFERB
 40
0.5
  9
$CHAMFERC
 40
1.0
  9
$CHAMFERD
 40
0.0
  9
$SKPOLY
 70
     0
  9
$TDCREATE
 40
2455853.617919398
  9
$TDUCREATE
 40
2455853.784586065
  9
$TDUPDATE
 40
2455853.61791941
  9
$TDUUPDATE
 40
2455853.784586076
  9
$TDINDWG
 40
0.0000000116
  9
$TDUSRTIMER
 40
0.0000000116
  9
$USRTIMER
 70
     1
  9
$ANGBASE
 50
0.0
  9
$ANGDIR
 70
     0
  9
$PDMODE
 70
     0
  9
$PDSIZE
 40
-1.0
  9
$PLINEWID
 40
0.0
  9
$SPLFRAME
 70
     0
  9
$SPLINETYPE
 70
     6
  9
$SPLINESEGS
 70
     8
  9
$HANDSEED
  5
106
  9
$SURFTAB1
 70
     6
  9
$SURFTAB2
 70
     6
  9
$SURFTYPE
 70
     6
  9
$SURFU
 70
     6
  9
$SURFV
 70
     6
  9
$UCSBASE
  2

  9
$UCSNAME
  2

  9
$UCSORG
 10
0.0
 20
0.0
 30
0.0
  9
$UCSXDIR
 10
1.0
 20
0.0
 30
0.0
  9
$UCSYDIR
 10
0.0
 20
1.0
 30
0.0
  9
$UCSORTHOREF
  2

  9
$UCSORTHOVIEW
 70
     0
  9
$UCSORGTOP
 10
0.0
 20
0.0
 30
0.0
  9
$UCSORGBOTTOM
 10
0.0
 20
0.0
 30
0.0
  9
$UCSORGLEFT
 10
0.0
 20
0.0
 30
0.0
  9
$UCSORGRIGHT
 10
0.0
 20
0.0
 30
0.0
  9
$UCSORGFRONT
 10
0.0
 20
0.0
 30
0.0
  9
$UCSORGBACK
 10
0.0
 20
0.0
 30
0.0
  9
$PUCSBASE
  2

  9
$PUCSNAME
  2

  9
$PUCSORG
 10
0.0
 20
0.0
 30
0.0
  9
$PUCSXDIR
 10
1.0
 20
0.0
 30
0.0
  9
$PUCSYDIR
 10
0.0
 20
1.0
 30
0.0
  9
$PUCSORTHOREF
  2

  9
$PUCSORTHOVIEW
 70
     0
  9
$PUCSORGTOP
 10
0.0
 20
0.0
 30
0.0
  9
$PUCSORGBOTTOM
 10
0.0
 20
0.0
 30
0.0
  9
$PUCSORGLEFT
 10
0.0
 20
0.0
 30
0.0
  9
$PUCSORGRIGHT
 10
0.0
 20
0.0
 30
0.0
  9
$PUCSORGFRONT
 10
0.0
 20
0.0
 30
0.0
  9
$PUCSORGBACK
 10
0.0
 20
0.0
 30
0.0
  9
$USERI1
 70
     0
  9
$USERI2
 70
     0
  9
$USERI3
 70
     0
  9
$USERI4
 70
     0
  9
$USERI5
 70
     0
  9
$USERR1
 40
0.0
  9
$USERR2
 40
0.0
  9
$USERR3
 40
0.0
  9
$USERR4
 40
0.0
  9
$USERR5
 40
0.0
  9
$WORLDVIEW
 70
     1
  9
$SHADEDGE
 70
     3
  9
$SHADEDIF
 70
    70
  9
$TILEMODE
 70
     1
  9
$MAXACTVP
 70
    64
  9
$PINSBASE
 10
0.0
 20
0.0
 30
0.0
  9
$PLIMCHECK
 70
     0
  9
$PEXTMIN
 10
1.0000000000E+20
 20
1.0000000000E+20
 30
1.0000000000E+20
  9
$PEXTMAX
 10
-1.0000000000E+20
 20
-1.0000000000E+20
 30
-1.0000000000E+20
  9
$PLIMMIN
 10
0.0
 20
0.0
  9
$PLIMMAX
 10
12.0
 20
9.0
  9
$UNITMODE
 70
     0
  9
$VISRETAIN
 70
     1
  9
$PLINEGEN
 70
     0
  9
$PSLTSCALE
 70
     1
  9
$TREEDEPTH
 70
  3020
  9
$CMLSTYLE
  2
Standard
  9
$CMLJUST
 70
     0
  9
$CMLSCALE
 40
1.0
  9
$PROXYGRAPHICS
 70
     1
  9
$MEASUREMENT
 70
     0
  9
$CELWEIGHT
370
    -1
  9
$ENDCAPS
280
     0
  9
$JOINSTYLE
280
     0
  9
$LWDISPLAY
290
     1
  9
$INSUNITS
 70
     1
  9
$HYPERLINKBASE
  1

  9
$STYLESHEET
  1

  9
$XEDIT
290
     1
  9
$CEPSNTYPE
380
     0
  9
$PSTYLEMODE
290
     1
  9
$FINGERPRINTGUID
  2
{1922AD96-5E68-4E6A-ADAD-36FD5B6CA65F}
  9
$VERSIONGUID
  2
{FAEB1C32-E019-11D5-929B-00C0DF256EC4}
  9
$EXTNAMES
290
     1
  9
$PSVPSCALE
 40
0.0
  9
$OLESTARTUP
290
     0
  0
ENDSEC
  0
SECTION
  2
CLASSES
  0
CLASS
  1
ACDBDICTIONARYWDFLT
  2
AcDbDictionaryWithDefault
  3
ObjectDBX Classes
 90
        0
280
     0
281
     0
  0
CLASS
  1
VISUALSTYLE
  2
AcDbVisualStyle
  3
ObjectDBX Classes
 90
     4095
280
     0
281
     0
  0
CLASS
  1
MATERIAL
  2
AcDbMaterial
  3
ObjectDBX Classes
 90
     1153
280
     0
281
     0
  0
CLASS
  1
ACDBPLACEHOLDER
  2
AcDbPlaceHolder
  3
ObjectDBX Classes
 90
        0
280
     0
281
     0
  0
CLASS
  1
LAYOUT
  2
AcDbLayout
  3
ObjectDBX Classes
 90
        0
280
     0
281
     0
  0
ENDSEC
  0
SECTION
  2
TABLES
  0
TABLE
  2
VPORT
  5
8
330
0
100
AcDbSymbolTable
 70
     1
  0
VPORT
  5
29
330
8
100
AcDbSymbolTableRecord
100
AcDbViewportTableRecord
  2
*Active
 70
     0
 10
0.0
 20
0.0
 11
1.0
 21
1.0
 12
5.5
 22
4.25
 13
0.0
 23
0.0
 14
0.5
 24
0.5
 15
0.5
 25
0.5
 16
0.0
 26
0.0
 36
1.0
 17
0.0
 27
0.0
 37
0.0
 40
8.5
 41
1.2941176471
 42
50.0
 43
0.0
 44
0.0
 50
0.0
 51
0.0
 71
     0
 72
  2000
 73
     1
 74
     3
 75
     0
 76
     0
 77
     0
 78
     0
281
     0
 65
     1
110
0.0
120
0.0
130
0.0
111
1.0
121
0.0
131
0.0
112
0.0
122
1.0
132
0.0
 79
     0
146
0.0
  0
ENDTAB
  0
TABLE
  2
LTYPE
  5
5
330
0
100
AcDbSymbolTable
 70
     6
  0
LTYPE
  5
14
330
5
100
AcDbSymbolTableRecord
100
AcDbLinetypeTableRecord
  2
ByBlock
 70
     0
  3

 72
    65
 73
     0
 40
0.0
  0
LTYPE
  5
15
330
5
100
AcDbSymbolTableRecord
100
AcDbLinetypeTableRecord
  2
ByLayer
 70
     0
  3

 72
    65
 73
     0
 40
0.0
  0
LTYPE
  5
16
330
5
100
AcDbSymbolTableRecord
100
AcDbLinetypeTableRecord
  2
Continuous
 70
     0
  3
Solid line
 72
    65
 73
     0
 40
0.0
  0
LTYPE
  5
3F
330
5
100
AcDbSymbolTableRecord
100
AcDbLinetypeTableRecord
  2
HIDDEN
 70
     0
  3
Hidden __ __ __ __ __ __ __ __ __ __ __ __ __ __
 72
    65
 73
     2
 40
0.075
 49
0.05
 74
     0
 49
-0.025
 74
     0
  0
LTYPE
  5
40
330
5
100
AcDbSymbolTableRecord
100
AcDbLinetypeTableRecord
  2
PHANTOM
 70
     0
  3
Phantom ______  __  __  ______  __  __  ______
 72
    65
 73
     6
 40
0.5
 49
0.25
 74
     0
 49
-0.05
 74
     0
 49
0.05
 74
     0
 49
-0.05
 74
     0
 49
0.05
 74
     0
 49
-0.05
 74
     0
  0
LTYPE
  5
41
330
5
100
AcDbSymbolTableRecord
100
AcDbLinetypeTableRecord
  2
CENTER
 70
     0
  3
Center ____ _ ____ _ ____ _ ____ _ ____ _ ____
 72
    65
 73
     4
 40
0.4
 49
0.25
 74
     0
 49
-0.05
 74
     0
 49
0.05
 74
     0
 49
-0.05
 74
     0
  0
LTYPE
  5
42
330
5
100
AcDbSymbolTableRecord
100
AcDbLinetypeTableRecord
  2
CENTERX2
 70
     0
  3
Center (2x) ________  __  ________  __  _____
 72
    65
 73
     4
 40
0.8
 49
0.5
 74
     0
 49
-0.1
 74
     0
 49
0.1
 74
     0
 49
-0.1
 74
     0
  0
LTYPE
  5
43
330
5
100
AcDbSymbolTableRecord
100
AcDbLinetypeTableRecord
  2
DOT2
 70
     0
  3
Dot (.5x) ........................................
 72
    65
 73
     2
 40
0.025
 49
0.0
 74
     0
 49
-0.025
 74
     0
  0
ENDTAB
  0
TABLE
  2
LAYER
  5
2
330
0
100
AcDbSymbolTable
 70
     1
  0
LAYER
  5
10
330
2
100
AcDbSymbolTableRecord
100
AcDbLayerTableRecord
  2
0
 70
     0
 62
     7
  6
Continuous
370
    -3
390
F
  0
ENDTAB
  0
TABLE
  2
STYLE
  5
3
330
0
100
AcDbSymbolTable
 70
     1
  0
STYLE
  5
11
330
3
100
AcDbSymbolTableRecord
100
AcDbTextStyleTableRecord
  2
Standard
 70
     0
 40
0.0
 41
1.0
 50
0.0
 71
     0
 42
0.2
  3
txt
  4

  0
ENDTAB
  0
TABLE
  2
VIEW
  5
6
330
0
100
AcDbSymbolTable
 70
     0
  0
ENDTAB
  0
TABLE
  2
UCS
  5
7
330
0
100
AcDbSymbolTable
 70
     0
  0
ENDTAB
  0
TABLE
  2
APPID
  5
9
330
0
100
AcDbSymbolTable
 70
     1
  0
APPID
  5
12
330
9
100
AcDbSymbolTableRecord
100
AcDbRegAppTableRecord
  2
ACAD
 70
     0
  0
ENDTAB
  0
TABLE
  2
DIMSTYLE
  5
A
330
0
100
AcDbSymbolTable
 70
     1
100
AcDbDimStyleTable
  0
DIMSTYLE
105
27
330
A
100
AcDbSymbolTableRecord
100
AcDbDimStyleTableRecord
  2
Standard
 70
     0
178
     0
340
11
  0
ENDTAB
  0
TABLE
  2
BLOCK_RECORD
  5
1
330
0
100
AcDbSymbolTable
 70
     1
  0
BLOCK_RECORD
  5
1F
330
1
100
AcDbSymbolTableRecord
100
AcDbBlockTableRecord
  2
*Model_Space
340
22
  0
BLOCK_RECORD
  5
1B
330
1
100
AcDbSymbolTableRecord
100
AcDbBlockTableRecord
  2
*Paper_Space
340
1E
  0
BLOCK_RECORD
  5
23
330
1
100
AcDbSymbolTableRecord
100
AcDbBlockTableRecord
  2
*Paper_Space0
340
26
  0
ENDTAB
  0
ENDSEC
  0
SECTION
  2
BLOCKS
  0
BLOCK
  5
20
330
1F
100
AcDbEntity
  8
0
100
AcDbBlockBegin
  2
*Model_Space
 70
     0
 10
0.0
 20
0.0
 30
0.0
  3
*Model_Space
  1

  0
ENDBLK
  5
21
330
1F
100
AcDbEntity
  8
0
100
AcDbBlockEnd
  0
BLOCK
  5
1C
330
1B
100
AcDbEntity
 67
     1
  8
0
100
AcDbBlockBegin
  2
*Paper_Space
 70
     0
 10
0.0
 20
0.0
 30
0.0
  3
*Paper_Space
  1

  0
ENDBLK
  5
1D
330
1B
100
AcDbEntity
 67
     1
  8
0
100
AcDbBlockEnd
  0
BLOCK
  5
24
330
23
100
AcDbEntity
  8
0
100
AcDbBlockBegin
  2
*Paper_Space0
 70
     0
 10
0.0
 20
0.0
 30
0.0
  3
*Paper_Space0
  1

  0
ENDBLK
  5
25
330
23
100
AcDbEntity
  8
0
100
AcDbBlockEnd
  0
ENDSEC
  0
SECTION
  2
ENTITIES
  0
SPLINE
  5
44
330
1F
100
AcDbEntity
  8
0
  6
Continuous
 62
     7
370
    15
100
AcDbSpline
210
0.0
220
0.0
230
1.0
 70
     8
 71
     3
 72
    13
 73
     9
 74
     0
 42
0.00000001
 43
0.00000001
 40
0.0
 40
0.0
 40
0.0
 40
0.0
 40
0.2052130347836551
 40
0.3954719126129098
 40
0.5033232885246015
 40
0.6388810115634495
 40
0.8031595437078567
 40
1.0
 40
1.0
 40
1.0
 40
1.0
 10
2.082347864169587
 20
6.835946899589413
 30
0.0
 10
2.08280775470943
 20
6.836327576906182
 30
0.0
 10
2.083694022931019
 20
6.837061191058472
 30
0.0
 10
2.084884729063749
 20
6.837920092722442
 30
0.0
 10
2.085997929949469
 20
6.838520060421064
 30
0.0
 10
2.087105416827993
 20
6.838950366594386
 30
0.0
 10
2.088480041465444
 20
6.839398096121193
 30
0.0
 10
2.08949841673272
 20
6.839658036662109
 30
0.0
 10
2.090053517568473
 20
6.839799726288855
 30
0.0
  0
SPLINE
  5
45
330
1F
100
AcDbEntity
  8
0
  6
Continuous
 62
     7
370
    15
100
AcDbSpline
210
0.0
220
0.0
230
1.0
 70
     8
 71
     3
 72
    17
 73
    13
 74
     0
 42
0.00000001
 43
0.00000001
 40
0.0
 40
0.0
 40
0.0
 40
0.0
 40
0.1250865505110927
 40
0.2512695143071571
 40
0.3776434641863632
 40
0.5019787820014752
 40
0.6250355246607432
 40
0.747688324964467
 40
0.8093578705630491
 40
0.8711326159016026
 40
0.9345009971192967
 40
1.0
 40
1.0
 40
1.0
 40
1.0
 10
2.090053517568473
 20
6.839799726288855
 30
0.0
 10
2.091312403314847
 20
6.840068215887425
 30
0.0
 10
2.09384120923976
 20
6.840607548459579
 30
0.0
 10
2.097744319717772
 20
6.840487512601926
 30
0.0
 10
2.101563072648886
 20
6.839799156136483
 30
0.0
 10
2.105168226806608
 20
6.838446115136781
 30
0.0
 10
2.108490294514223
 20
6.836550019307877
 30
0.0
 10
2.110775862807766
 20
6.834342323034451
 30
0.0
 10
2.112382141769421
 20
6.832388856818033
 30
0.0
 10
2.113353969799814
 20
6.830730829511667
 30
0.0
 10
2.114176820713014
 20
6.828949985332435
 30
0.0
 10
2.114531391774031
 20
6.827674440774785
 30
0.0
 10
2.11471160844491
 20
6.827026123923778
 30
0.0
  0
SPLINE
  5
46
330
1F
100
AcDbEntity
  8
0
  6
Continuous
 62
     7
370
    15
100
AcDbSpline
210
0.0
220
0.0
230
1.0
 70
     8
 71
     3
 72
    13
 73
     9
 74
     0
 42
0.00000001
 43
0.00000001
 40
0.0
 40
0.0
 40
0.0
 40
0.0
 40
0.2592297578818487
 40
0.4957439905533068
 40
0.6117753161993057
 40
0.7328735399800792
 40
0.8604747284677315
 40
0.9999999999999999
 40
0.9999999999999999
 40
0.9999999999999999
 40
0.9999999999999999
 10
2.11471160844491
 20
6.827026123923778
 30
0.0
 10
2.114999301988677
 20
6.825689125183933
 30
0.0
 10
2.11554947935492
 20
6.823132284888777
 30
0.0
 10
2.115543379554043
 20
6.819888305459736
 30
0.0
 10
2.115182603282434
 20
6.81741188035843
 30
0.0
 10
2.114519765394578
 20
6.815600999409398
 30
0.0
 10
2.113633602774589
 20
6.813753663846146
 30
0.0
 10
2.112823200874852
 20
6.812601760827415
 30
0.0
 10
2.112399912425244
 20
6.81200009979595
 30
0.0
  0
LINE
  5
47
330
1F
100
AcDbEntity
  8
0
  6
Continuous
 62
     7
370
    15
100
AcDbLine
 10
2.1123999124
 20
6.8120000998
 30
0.0
 11
2.0823478642
 21
6.8359468996
 31
0.0
  0
SPLINE
  5
48
330
1F
100
AcDbEntity
  8
0
  6
Continuous
 62
     7
370
    15
100
AcDbSpline
210
0.0
220
0.0
230
1.0
 70
     8
 71
     3
 72
    15
 73
    11
 74
     0
 42
0.00000001
 43
0.00000001
 40
0.0
 40
0.0
 40
0.0
 40
0.0
 40
0.0982256569045205
 40
0.1960070525680792
 40
0.2989508893976968
 40
0.4149030137501126
 40
0.5414345233929774
 40
0.6778990719938083
 40
0.8295766790416247
 40
1.0
 40
1.0
 40
1.0
 40
1.0
 10
1.838853652878125
 20
7.031754443333653
 30
0.0
 10
1.838815457216997
 20
7.031015817822712
 30
0.0
 10
1.838739238648505
 20
7.029541907503212
 30
0.0
 10
1.837878954733227
 20
7.027431931693118
 30
0.0
 10
1.83645270602129
 20
7.025515733650068
 30
0.0
 10
1.834481379367104
 20
7.023816202509263
 30
0.0
 10
1.832012841372687
 20
7.022375398315907
 30
0.0
 10
1.829036157165916
 20
7.021442433372262
 30
0.0
 10
1.825654379801438
 20
7.020786575467076
 30
0.0
 10
1.823238650127579
 20
7.020749204495908
 30
0.0
 10
1.821960489657489
 20
7.020729431547554
 30
0.0
  0
SPLINE
  5
49
330
1F
100
AcDbEntity
  8
0
  6
Continuous
 62
     7
370
    15
100
AcDbSpline
210
0.0
220
0.0
230
1.0
 70
     8
 71
     3
 72
    15
 73
    11
 74
     0
 42
0.00000001
 43
0.00000001
 40
0.0
 40
0.0
 40
0.0
 40
0.0
 40
0.1688524805845382
 40
0.3190246975058886
 40
0.456490666421193
 40
0.5818910048898353
 40
0.6961874921800412
 40
0.8007698565567427
 40
0.8990794264588776
 40
1.0
 40
1.0
 40
1.0
 40
1.0
 10
1.821960489657489
 20
7.020729431547554
 30
0.0
 10
1.820672836119132
 20
7.020751759047792
 30
0.0
 10
1.818239983020707
 20
7.020793943941879
 30
0.0
 10
1.814810589944982
 20
7.021420465694251
 30
0.0
 10
1.811780839243069
 20
7.022314461319294
 30
0.0
 10
1.809241662522937
 20
7.023696427735715
 30
0.0
 10
1.807184244700206
 20
7.025349281405432
 30
0.0
 10
1.80568733856078
 20
7.027273068794006
 30
0.0
 10
1.804767793497094
 20
7.029437161680253
 30
0.0
 10
1.80463218706287
 20
7.030955624642563
 30
0.0
 10
1.80456349525308
 20
7.031724806205196
 30
0.0
  0
SPLINE
  5
4A
330
1F
100
AcDbEntity
  8
0
  6
Continuous
 62
     7
370
    15
100
AcDbSpline
210
0.0
220
0.0
230
1.0
 70
     8
 71
     3
 72
    15
 73
    11
 74
     0
 42
0.00000001
 43
0.00000001
 40
0.0
 40
0.0
 40
0.0
 40
0.0
 40
0.1030199114993712
 40
0.2053248711543158
 40
0.3131520626617793
 40
0.4361017944376022
 40
0.5691218263965616
 40
0.7054059622537909
 40
0.8477673983833101
 40
1.0
 40
1.0
 40
1.0
 40
1.0
 10
1.80456349525308
 20
7.031724806205196
 30
0.0
 10
1.804635931986014
 20
7.032496862283944
 30
0.0
 10
1.804780302745413
 20
7.034035616419777
 30
0.0
 10
1.805838574572944
 20
7.036175807138001
 30
0.0
 10
1.807480813419631
 20
7.038073690001784
 30
0.0
 10
1.809719887888656
 20
7.039651541937341
 30
0.0
 10
1.81235203653625
 20
7.040961885852995
 30
0.0
 10
1.815289417632052
 20
7.041909124921077
 30
0.0
 10
1.818470189420186
 20
7.04248638299204
 30
0.0
 10
1.820673654805689
 20
7.042542827370812
 30
0.0
 10
1.821812304015203
 20
7.042571995220552
 30
0.0
  0
SPLINE
  5
4B
330
1F
100
AcDbEntity
  8
0
  6
Continuous
 62
     7
370
    15
100
AcDbSpline
210
0.0
220
0.0
230
1.0
 70
     8
 71
     3
 72
    15
 73
    11
 74
     0
 42
0.00000001
 43
0.00000001
 40
0.0
 40
0.0
 40
0.0
 40
0.0
 40
0.1829723852750843
 40
0.3430396547549978
 40
0.4825797957681582
 40
0.6071377939163248
 40
0.7195524466004894
 40
0.8202595915115253
 40
0.9117649616343709
 40
1.0
 40
1.0
 40
1.0
 40
1.0
 10
1.821812304015203
 20
7.042571995220552
 30
0.0
 10
1.823178479285387
 20
7.042550027894048
 30
0.0
 10
1.825739807282037
 20
7.042508843186924
 30
0.0
 10
1.829300485900645
 20
7.041897487734651
 30
0.0
 10
1.832316585301548
 20
7.040865669759516
 30
0.0
 10
1.834687453603331
 20
7.039314649738212
 30
0.0
 10
1.836507092074369
 20
7.037556040918125
 30
0.0
 10
1.837851366459834
 20
7.03571116644873
 30
0.0
 10
1.838687015293381
 20
7.033756704657832
 30
0.0
 10
1.838798784889824
 20
7.032413718677088
 30
0.0
 10
1.838853652878125
 20
7.031754443333653
 30
0.0
  0
SPLINE
  5
4C
330
1F
100
AcDbEntity
  8
0
  6
Continuous
 62
     7
370
    15
100
AcDbSpline
210
0.0
220
0.0
230
1.0
 70
     8
 71
     3
 72
    17
 73
    13
 74
     0
 42
0.00000001
 43
0.00000001
 40
0.0
 40
0.0
 40
0.0
 40
0.0
 40
0.1111918161682828
 40
0.2271496586152253
 40
0.3453226618605849
 40
0.4626183368329038
 40
0.5850125448159683
 40
0.7130931208575029
 40
0.7808116651113886
 40
0.8506903969592705
 40
0.9233515440023072
 40
1.0
 40
1.0
 40
1.0
 40
1.0
 10
1.601793703204547
 20
6.974531112267242
 30
0.0
 10
1.600868221220738
 20
6.975264875810325
 30
0.0
 10
1.598977588223444
 20
6.976763854278878
 30
0.0
 10
1.596795570212248
 20
6.97974312320725
 30
0.0
 10
1.595150245012009
 20
6.983098586687174
 30
0.0
 10
1.594243516018691
 20
6.986808480285939
 30
0.0
 10
1.594131709763422
 20
6.990721172578376
 30
0.0
 10
1.594581882705537
 20
6.994069358195687
 30
0.0
 10
1.595282541092712
 20
6.99680103085138
 30
0.0
 10
1.596190118081219
 20
6.998837584536549
 30
0.0
 10
1.597226956414836
 20
7.000917676673274
 30
0.0
 10
1.598149130235621
 20
7.002203913961883
 30
0.0
 10
1.59862253045962
 20
7.002864207072378
 30
0.0
  0
SPLINE
  5
4D
330
1F
100
AcDbEntity
  8
0
  6
Continuous
 62
     7
370
    15
100
AcDbSpline
210
0.0
220
0.0
230
1.0
 70
     8
 71
     3
 72
    17
 73
    13
 74
     0
 42
0.00000001
 43
0.00000001
 40
0.0
 40
0.0
 40
0.0
 40
0.0
 40
0.0754477091439152
 40
0.1476885454495541
 40
0.2173217266072361
 40
0.2844656827965127
 40
0.4138322463290184
 40
0.5370644311829106
 40
0.6568063469391179
 40
0.7737276561692912
 40
0.8891721996866198
 40
0.9999999999999999
 40
0.9999999999999999
 40
0.9999999999999999
 40
0.9999999999999999
 10
1.59862253045962
 20
7.002864207072378
 30
0.0
 10
1.599095221427259
 20
7.003495938890651
 30
0.0
 10
1.600020511833686
 20
7.004732551034526
 30
0.0
 10
1.601574596220557
 20
7.006394015619386
 30
0.0
 10
1.603197927240429
 20
7.007861723531808
 30
0.0
 10
1.605480110022165
 20
7.009460607820497
 30
0.0
 10
1.608477300622063
 20
7.010985226504887
 30
0.0
 10
1.612224938417887
 20
7.012094082892456
 30
0.0
 10
1.61599229661266
 20
7.01252075742321
 30
0.0
 10
1.619664780797251
 20
7.012087484239052
 30
0.0
 10
1.62315508706267
 20
7.011121361566619
 30
0.0
 10
1.625188901266499
 20
7.009895760981668
 30
0.0
 10
1.626185059924868
 20
7.009295463947602
 30
0.0
  0
SPLINE
  5
4E
330
1F
100
AcDbEntity
  8
0
  6
Continuous
 62
     7
370
    15
100
AcDbSpline
210
0.0
220
0.0
230
1.0
 70
     8
 71
     3
 72
    17
 73
    13
 74
     0
 42
0.00000001
 43
0.00000001
 40
0.0
 40
0.0
 40
0.0
 40
0.0
 40
0.1168835868327768
 40
0.2333108033922004
 40
0.3491765166759523
 40
0.4682151504071685
 40
0.5907613406244094
 40
0.7183830331753647
 40
0.7848901401812289
 40
0.853291441035659
 40
0.9244956381145218
 40
1.0
 40
1.0
 40
1.0
 40
1.0
 10
1.626185059924868
 20
7.009295463947602
 30
0.0
 10
1.627154921538943
 20
7.008536560149823
 30
0.0
 10
1.629090857956456
 20
7.00702171568316
 30
0.0
 10
1.631250604511331
 20
7.004015770746773
 30
0.0
 10
1.632881941275788
 20
7.000689300725632
 30
0.0
 10
1.633713941381641
 20
6.997002906388858
 30
0.0
 10
1.633871872889771
 20
6.99311100680884
 30
0.0
 10
1.633336454215901
 20
6.989816941442318
 30
0.0
 10
1.632631802972943
 20
6.987149506686847
 30
0.0
 10
1.631762952517835
 20
6.985164770940841
 30
0.0
 10
1.630741105037583
 20
6.98314935014201
 30
0.0
 10
1.629865923757087
 20
6.981881572165023
 30
0.0
 10
1.629415506926709
 20
6.98122910329858
 30
0.0
  0
SPLINE
  5
4F
330
1F
100
AcDbEntity
  8
0
  6
Continuous
 62
     7
370
    15
100
AcDbSpline
210
0.0
220
0.0
230
1.0
 70
     8
 71
     3
 72
    17
 73
    13
 74
     0
 42
0.00000001
 43
0.00000001
 40
0.0
 40
0.0
 40
0.0
 40
0.0
 40
0.0775603956557119
 40
0.1506274346930945
 40
0.2211036163166495
 40
0.2888834870683692
 40
0.4169999719902152
 40
0.5396480969425561
 40
0.6575332062373577
 40
0.7724466278146896
 40
0.8852938303453128
 40
1.0
 40
1.0
 40
1.0
 40
1.0
 10
1.629415506926709
 20
6.98122910329858
 30
0.0
 10
1.628922776281723
 20
6.980577885392574
 30
0.0
 10
1.627965860675228
 20
6.979313177009143
 30
0.0
 10
1.626376851615173
 20
6.977607542630417
 30
0.0
 10
1.624716165093414
 20
6.976124046298372
 30
0.0
 10
1.622464126606278
 20
6.974449840088852
 30
0.0
 10
1.61950439878748
 20
6.972828759700763
 30
0.0
 10
1.615766921385062
 20
6.971683604953449
 30
0.0
 10
1.612020549184449
 20
6.971350662093137
 30
0.0
 10
1.608375436684611
 20
6.971611549768712
 30
0.0
 10
1.604879026124877
 20
6.972650408357213
 30
0.0
 10
1.60282773010833
 20
6.973900805978001
 30
0.0
 10
1.601793703204547
 20
6.974531112267242
 30
0.0
  0
SPLINE
  5
50
330
1F
100
AcDbEntity
  8
0
  6
Continuous
 62
     7
370
    15
100
AcDbSpline
210
0.0
220
0.0
230
1.0
 70
     8
 71
     3
 72
    15
 73
    11
 74
     0
 42
0.00000001
 43
0.00000001
 40
0.0
 40
0.0
 40
0.0
 40
0.0
 40
0.0992406800200738
 40
0.1959869638008697
 40
0.2998196051892555
 40
0.4153879582691394
 40
0.5415779422540431
 40
0.6780222229246585
 40
0.8291608654087618
 40
1.0
 40
1.0
 40
1.0
 40
1.0
 10
1.505785018244208
 20
6.740969579172256
 30
0.0
 10
1.506526058341809
 20
6.741072798194921
 30
0.0
 10
1.507989512630457
 20
6.741276641849102
 30
0.0
 10
1.510226293000517
 20
6.740801912778424
 30
0.0
 10
1.512369782255675
 20
6.739754923858372
 30
0.0
 10
1.514401333784144
 20
6.738125372480046
 30
0.0
 10
1.516295850160491
 20
6.735992626404586
 30
0.0
 10
1.517778439375529
 20
6.733250441499385
 30
0.0
 10
1.519022461827635
 20
6.730037975773153
 30
0.0
 10
1.519513304970789
 20
6.727672731177809
 30
0.0
 10
1.519773742876033
 20
6.726417749099743
 30
0.0
  0
SPLINE
  5
51
330
1F
100
AcDbEntity
  8
0
  6
Continuous
 62
     7
370
    15
100
AcDbSpline
210
0.0
220
0.0
230
1.0
 70
     8
 71
     3
 72
    15
 73
    11
 74
     0
 42
0.00000001
 43
0.00000001
 40
0.0
 40
0.0
 40
0.0
 40
0.0
 40
0.1679234260111173
 40
0.3201020718556801
 40
0.4565721727130658
 40
0.5820198428633283
 40
0.6960848093906742
 40
0.7992254284787593
 40
0.8984207683110669
 40
1.0
 40
1.0
 40
1.0
 40
1.0
 10
1.519773742876033
 20
6.726417749099743
 30
0.0
 10
1.519971199089419
 20
6.72515651203576
 30
0.0
 10
1.520347597692683
 20
6.72275229359601
 30
0.0
 10
1.520425584023174
 20
6.719272070800215
 30
0.0
 10
1.520024469980968
 20
6.716137917980261
 30
0.0
 10
1.519174532304282
 20
6.7133974483029
 30
0.0
 10
1.517949624295768
 20
6.711073538783183
 30
0.0
 10
1.516327964682902
 20
6.709277706547582
 30
0.0
 10
1.514418732552498
 20
6.70791004632111
 30
0.0
 10
1.512936535786899
 20
6.707506148161812
 30
0.0
 10
1.512186637990975
 20
6.707301801244813
 30
0.0
  0
SPLINE
  5
52
330
1F
100
AcDbEntity
  8
0
  6
Continuous
 62
     7
370
    15
100
AcDbSpline
210
0.0
220
0.0
230
1.0
 70
     8
 71
     3
 72
    15
 73
    11
 74
     0
 42
0.00000001
 43
0.00000001
 40
0.0
 40
0.0
 40
0.0
 40
0.0
 40
0.1020641670875939
 40
0.2049166184988237
 40
0.3135555225209523
 40
0.4363866752319923
 40
0.5686408501042091
 40
0.7055909673603272
 40
0.8473416131652381
 40
1.0
 40
1.0
 40
1.0
 40
1.0
 10
1.512186637990975
 20
6.707301801244813
 30
0.0
 10
1.511423017789156
 20
6.707235249653374
 30
0.0
 10
1.50988987962677
 20
6.707101632464675
 30
0.0
 10
1.507598219678432
 20
6.707763044968877
 30
0.0
 10
1.505430717564956
 20
6.7090325869925
 30
0.0
 10
1.503463710606627
 20
6.710925227132466
 30
0.0
 10
1.501658857743749
 20
6.713239170236886
 30
0.0
 10
1.500234265898712
 20
6.715964656316902
 30
0.0
 10
1.49906740123744
 20
6.718973046212574
 30
0.0
 10
1.498611916345558
 20
6.721123730718745
 30
0.0
 10
1.498375736129894
 20
6.72223891398727
 30
0.0
  0
SPLINE
  5
53
330
1F
100
AcDbEntity
  8
0
  6
Continuous
 62
     7
370
    15
100
AcDbSpline
210
0.0
220
0.0
230
1.0
 70
     8
 71
     3
 72
    15
 73
    11
 74
     0
 42
0.00000001
 43
0.00000001
 40
0.0
 40
0.0
 40
0.0
 40
0.0
 40
0.1838272955948759
 40
0.3433395560148851
 40
0.483398805387775
 40
0.6080354485626046
 40
0.7212028949861772
 40
0.8208399014243959
 40
0.9129982624547759
 40
1.0
 40
1.0
 40
1.0
 40
1.0
 10
1.498375736129894
 20
6.72223891398727
 30
0.0
 10
1.498155234835175
 20
6.723588480539624
 30
0.0
 10
1.497743398190436
 20
6.726109105017065
 30
0.0
 10
1.497646838821473
 20
6.729714881945463
 30
0.0
 10
1.498113511655055
 20
6.732857515813415
 30
0.0
 10
1.499175252506481
 20
6.73548421180089
 30
0.0
 10
1.500572865638003
 20
6.737584072032085
 30
0.0
 10
1.502132535252981
 20
6.739240175243211
 30
0.0
 10
1.503869599944967
 20
6.740432091388857
 30
0.0
 10
1.505158915258939
 20
6.740793887676635
 30
0.0
 10
1.505785018244208
 20
6.740969579172256
 30
0.0
  0
SPLINE
  5
54
330
1F
100
AcDbEntity
  8
0
  6
Continuous
 62
     7
370
    15
100
AcDbSpline
210
0.0
220
0.0
230
1.0
 70
     8
 71
     3
 72
    13
 73
     9
 74
     0
 42
0.00000001
 43
0.00000001
 40
0.0
 40
0.0
 40
0.0
 40
0.0
 40
0.2058900120516795
 40
0.400008288143148
 40
0.5032898999915407
 40
0.638706585536111
 40
0.8045749153718905
 40
0.9999999999999999
 40
0.9999999999999999
 40
0.9999999999999999
 40
0.9999999999999999
 10
1.643890168681853
 20
6.485192576737049
 30
0.0
 10
1.643817009980858
 20
6.484599031305239
 30
0.0
 10
1.643674875418544
 20
6.483445876328234
 30
0.0
 10
1.64341235733902
 20
6.482006417024415
 30
0.0
 10
1.64305708833136
 20
6.480796033037453
 30
0.0
 10
1.642515550858495
 20
6.479748784296425
 30
0.0
 10
1.641852188561036
 20
6.478468287703664
 30
0.0
 10
1.641289883304603
 20
6.477581375243221
 30
0.0
 10
1.640985730093042
 20
6.477101640668217
 30
0.0
  0
SPLINE
  5
55
330
1F
100
AcDbEntity
  8
0
  6
Continuous
 62
     7
370
    15
100
AcDbSpline
210
0.0
220
0.0
230
1.0
 70
     8
 71
     3
 72
    17
 73
    13
 74
     0
 42
0.00000001
 43
0.00000001
 40
0.0
 40
0.0
 40
0.0
 40
0.0
 40
0.1253441933407504
 40
0.2516346763070598
 40
0.3773088220288186
 40
0.502911801400523
 40
0.6260286208688144
 40
0.748282394122097
 40
0.8100220969380569
 40
0.8717236770564563
 40
0.9344164194924321
 40
1.0
 40
1.0
 40
1.0
 40
1.0
 10
1.640985730093042
 20
6.477101640668217
 30
0.0
 10
1.640249482071677
 20
6.476055852401766
 30
0.0
 10
1.638771427703142
 20
6.473956380659992
 30
0.0
 10
1.635933039379025
 20
6.471320462566892
 30
0.0
 10
1.63267579147114
 20
6.469250314804012
 30
0.0
 10
1.629165267018831
 20
6.467714521396061
 30
0.0
 10
1.625448694133829
 20
6.46689983631424
 30
0.0
 10
1.62230327490405
 20
6.466857150190724
 30
0.0
 10
1.619812484786559
 20
6.467176894503954
 30
0.0
 10
1.618002194077737
 20
6.467753866024426
 30
0.0
 10
1.616186311214068
 20
6.468436804673652
 30
0.0
 10
1.615063959685874
 20
6.469110713500602
 30
0.0
 10
1.614490137252256
 20
6.469455261526246
 30
0.0
  0
SPLINE
  5
56
330
1F
100
AcDbEntity
  8
0
  6
Continuous
 62
     7
370
    15
100
AcDbSpline
210
0.0
220
0.0
230
1.0
 70
     8
 71
     3
 72
    13
 73
     9
 74
     0
 42
0.00000001
 43
0.00000001
 40
0.0
 40
0.0
 40
0.0
 40
0.0
 40
0.2609917147831957
 40
0.4977840887054506
 40
0.6126654082768832
 40
0.7353746522121701
 40
0.861632257937527
 40
1.0
 40
1.0
 40
1.0
 40
1.0
 10
1.614490137252256
 20
6.469455261526246
 30
0.0
 10
1.613363907538241
 20
6.470227012338924
 30
0.0
 10
1.611215872945153
 20
6.471698956669864
 30
0.0
 10
1.608970434318964
 20
6.47402545218618
 30
0.0
 10
1.607612636149464
 20
6.476106807035236
 30
0.0
 10
1.606823763282128
 20
6.477844125284366
 30
0.0
 10
1.606252557104069
 20
6.479792127460955
 30
0.0
 10
1.606037471464912
 20
6.481158675459216
 30
0.0
 10
1.605925007128109
 20
6.481873218349835
 30
0.0
  0
LINE
  5
57
330
1F
100
AcDbEntity
  8
0
  6
Continuous
 62
     7
370
    15
100
AcDbLine
 10
1.6059250071
 20
6.4818732183
 30
0.0
 11
1.6438901687
 21
6.4851925767
 31
0.0
  0
SPLINE
  5
58
330
1F
100
AcDbEntity
  8
0
  6
Continuous
 62
     7
370
    15
100
AcDbSpline
210
0.0
220
0.0
230
1.0
 70
     8
 71
     3
 72
    13
 73
     9
 74
     0
 42
0.00000001
 43
0.00000001
 40
0.0
 40
0.0
 40
0.0
 40
0.0
 40
0.2049146282798605
 40
0.3974370842726402
 40
0.5039554484705737
 40
0.6398143856713824
 40
0.8027829850794329
 40
1.0
 40
1.0
 40
1.0
 40
1.0
 10
1.779248152753772
 20
6.446590582508599
 30
0.0
 10
1.779456124197469
 20
6.446030876524773
 30
0.0
 10
1.779859490052257
 20
6.444945312667624
 30
0.0
 10
1.780222275246369
 20
6.443520157618197
 30
0.0
 10
1.780435796384287
 20
6.44227022034316
 30
0.0
 10
1.780484223858818
 20
6.441087261008751
 30
0.0
 10
1.780401259879195
 20
6.439644508455259
 30
0.0
 10
1.780326426643833
 20
6.438598297556897
 30
0.0
 10
1.780285452249776
 20
6.438025452384452
 30
0.0
  0
SPLINE
  5
59
330
1F
100
AcDbEntity
  8
0
  6
Continuous
 62
     7
370
    15
100
AcDbSpline
210
0.0
220
0.0
230
1.0
 70
     8
 71
     3
 72
    17
 73
    13
 74
     0
 42
0.00000001
 43
0.00000001
 40
0.0
 40
0.0
 40
0.0
 40
0.0
 40
0.1250235447077536
 40
0.2518379493268522
 40
0.377160518781379
 40
0.5027114901804779
 40
0.6256816330830989
 40
0.7473788096930306
 40
0.8090926810417642
 40
0.8709337127959684
 40
0.9345646192691991
 40
1.0
 40
1.0
 40
1.0
 40
1.0
 10
1.780285452249776
 20
6.438025452384452
 30
0.0
 10
1.780102782899074
 20
6.436750718052997
 30
0.0
 10
1.779734827608787
 20
6.434182989864515
 30
0.0
 10
1.778371647518807
 20
6.430523730989068
 30
0.0
 10
1.776437338025858
 20
6.427141449762351
 30
0.0
 10
1.773956652915947
 20
6.424178193841593
 30
0.0
 10
1.771001950793209
 20
6.42174827671753
 30
0.0
 10
1.768201438389868
 20
6.420251211696332
 30
0.0
 10
1.765800554709785
 20
6.419468556116897
 30
0.0
 10
1.763914043956675
 20
6.419073327495921
 30
0.0
 10
1.761950407327206
 20
6.418919889420861
 30
0.0
 10
1.760625896517865
 20
6.419011330442872
 30
0.0
 10
1.759954382128099
 20
6.419057690171809
 30
0.0
  0
SPLINE
  5
5A
330
1F
100
AcDbEntity
  8
0
  6
Continuous
 62
     7
370
    15
100
AcDbSpline
210
0.0
220
0.0
230
1.0
 70
     8
 71
     3
 72
    13
 73
     9
 74
     0
 42
0.00000001
 43
0.00000001
 40
0.0
 40
0.0
 40
0.0
 40
0.0
 40
0.2589813129214585
 40
0.4976967565003051
 40
0.612982809479297
 40
0.7346805279226812
 40
0.8621647852260292
 40
1.0
 40
1.0
 40
1.0
 40
1.0
 10
1.759954382128099
 20
6.419057690171809
 30
0.0
 10
1.758603499614526
 20
6.419242179903502
 30
0.0
 10
1.756007444177809
 20
6.419596722631066
 30
0.0
 10
1.752910100748339
 20
6.420616450520257
 30
0.0
 10
1.750745370385306
 20
6.421887482635734
 30
0.0
 10
1.749229535241744
 20
6.423072542040076
 30
0.0
 10
1.747824471542907
 20
6.424556298666162
 30
0.0
 10
1.746991259312032
 20
6.425677197864324
 30
0.0
 10
1.746558400065419
 20
6.426259512386922
 30
0.0
  0
LINE
  5
5B
330
1F
100
AcDbEntity
  8
0
  6
Continuous
 62
     7
370
    15
100
AcDbLine
 10
1.7465584001
 20
6.4262595124
 30
0.0
 11
1.7792481528
 21
6.4465905825
 31
0.0
  0
SPLINE
  5
5C
330
1F
100
AcDbEntity
  8
0
  6
Continuous
 62
     7
370
    15
100
AcDbSpline
210
0.0
220
0.0
230
1.0
 70
     8
 71
     3
 72
    13
 73
     9
 74
     0
 42
0.00000001
 43
0.00000001
 40
0.0
 40
0.0
 40
0.0
 40
0.0
 40
0.2311204016317572
 40
0.4659660548088673
 40
0.5876786312500973
 40
0.7153661439591026
 40
0.852700752796671
 40
1.0
 40
1.0
 40
1.0
 40
1.0
 10
1.603998593778387
 20
6.52286136700622
 30
0.0
 10
1.606335701793302
 20
6.523153914266013
 30
0.0
 10
1.611047587865166
 20
6.523743724129306
 30
0.0
 10
1.617055221194667
 20
6.523634804899787
 30
0.0
 10
1.621952392039649
 20
6.522952225979582
 30
0.0
 10
1.625718989109605
 20
6.521760689963996
 30
0.0
 10
1.629594234613797
 20
6.520119976339975
 30
0.0
 10
1.632081709240041
 20
6.518625888956858
 30
0.0
 10
1.633368988079527
 20
6.517852692296945
 30
0.0
  0
SPLINE
  5
5D
330
1F
100
AcDbEntity
  8
0
  6
Continuous
 62
     7
370
    15
100
AcDbSpline
210
0.0
220
0.0
230
1.0
 70
     8
 71
     3
 72
    11
 73
     7
 74
     0
 42
0.00000001
 43
0.00000001
 40
0.0
 40
0.0
 40
0.0
 40
0.0
 40
0.2492072901688447
 40
0.52242911726786
 40
0.7836179539608933
 40
1.0
 40
1.0
 40
1.0
 40
1.0
 10
1.633368988079527
 20
6.517852692296945
 30
0.0
 10
1.634265058293385
 20
6.517259180553229
 30
0.0
 10
1.636143547363743
 20
6.51601496407727
 30
0.0
 10
1.638823621699125
 20
6.513968546743869
 30
0.0
 10
1.641321990851728
 20
6.511867201951696
 30
0.0
 10
1.642477504478274
 20
6.510153109672197
 30
0.0
 10
1.643001054828136
 20
6.509376473558169
 30
0.0
  0
LINE
  5
5E
330
1F
100
AcDbEntity
  8
0
  6
Continuous
 62
     7
370
    15
100
AcDbLine
 10
1.6430010548
 20
6.5093764736
 30
0.0
 11
1.5669225461
 21
6.5030341281
 31
0.0
  0
SPLINE
  5
5F
330
1F
100
AcDbEntity
  8
0
  6
Continuous
 62
     7
370
    15
100
AcDbSpline
210
0.0
220
0.0
230
1.0
 70
     8
 71
     3
 72
    23
 73
    19
 74
     0
 42
0.00000001
 43
0.00000001
 40
0.0
 40
0.0
 40
0.0
 40
0.0
 40
0.0633631956803159
 40
0.1255369005309013
 40
0.1867794858366918
 40
0.2474040890919243
 40
0.3076850248655151
 40
0.3684713884884071
 40
0.4291334622538426
 40
0.4908591427456685
 40
0.5528511463935397
 40
0.6142155233082814
 40
0.6759030637742157
 40
0.7380676309039763
 40
0.8010415517389922
 40
0.8655144399106691
 40
0.9318375669634571
 40
1.0
 40
1.0
 40
1.0
 40
1.0
 10
1.56692254607836
 20
6.503034128068316
 30
0.0
 10
1.566705978737044
 20
6.501495240840574
 30
0.0
 10
1.566276909582731
 20
6.49844635527281
 30
0.0
 10
1.565971174685306
 20
6.49387077874009
 30
0.0
 10
1.566044696297069
 20
6.489354353753635
 30
0.0
 10
1.566400144246087
 20
6.484899685623119
 30
0.0
 10
1.567038831833802
 20
6.480485609738771
 30
0.0
 10
1.568060996095856
 20
6.47614341116392
 30
0.0
 10
1.569370259797121
 20
6.471843823686629
 30
0.0
 10
1.570991117044841
 20
6.467618446678629
 30
0.0
 10
1.572938660571247
 20
6.463514281028586
 30
0.0
 10
1.575199969239521
 20
6.459574138748224
 30
0.0
 10
1.577793606202535
 20
6.455840434914082
 30
0.0
 10
1.580665672109181
 20
6.452265249534437
 30
0.0
 10
1.583891124210957
 20
6.448908541660802
 30
0.0
 10
1.587430148453985
 20
6.445733080287726
 30
0.0
 10
1.591283572210464
 20
6.442731968130577
 30
0.0
 10
1.594037611204472
 20
6.440916237613489
 30
0.0
 10
1.59543346365424
 20
6.439995955839733
 30
0.0
  0
SPLINE
  5
60
330
1F
100
AcDbEntity
  8
0
  6
Continuous
 62
     7
370
    15
100
AcDbSpline
210
0.0
220
0.0
230
1.0
 70
     8
 71
     3
 72
    23
 73
    19
 74
     0
 42
0.00000001
 43
0.00000001
 40
0.0
 40
0.0
 40
0.0
 40
0.0
 40
0.0622789344871085
 40
0.1231790909851605
 40
0.1829709034478806
 40
0.2426073132321397
 40
0.3017336227291839
 40
0.3600489028576257
 40
0.4181686954215891
 40
0.4767356391575825
 40
0.535829365645065
 40
0.595992652323881
 40
0.6575362892470229
 40
0.7210567216679657
 40
0.7867192983073666
 40
0.8547155890581675
 40
0.9255594115937652
 40
0.9999999999999999
 40
0.9999999999999999
 40
0.9999999999999999
 40
0.9999999999999999
 10
1.59543346365424
 20
6.439995955839733
 30
0.0
 10
1.597223933528652
 20
6.438936473251522
 30
0.0
 10
1.600765234505984
 20
6.43684096369913
 30
0.0
 10
1.606328739027574
 20
6.43428720314344
 30
0.0
 10
1.612027616614429
 20
6.432317052214786
 30
0.0
 10
1.617833661596458
 20
6.430923967623404
 30
0.0
 10
1.623701214851272
 20
6.43010958482097
 30
0.0
 10
1.629570607684414
 20
6.42995004076456
 30
0.0
 10
1.635411067920293
 20
6.430318394556909
 30
0.0
 10
1.641205661673649
 20
6.431330275924491
 30
0.0
 10
1.646916688741416
 20
6.432985752765934
 30
0.0
 10
1.652547608218113
 20
6.435194219287897
 30
0.0
 10
1.658009227866859
 20
6.438118770008585
 30
0.0
 10
1.663365919679318
 20
6.441576622685536
 30
0.0
 10
1.668509004399127
 20
6.445708349119986
 30
0.0
 10
1.673350542421584
 20
6.450539437033294
 30
0.0
 10
1.677875744531358
 20
6.456055715730856
 30
0.0
 10
1.680565876308973
 20
6.460094924668957
 30
0.0
 10
1.68194424162097
 20
6.46216452792576
 30
0.0
  0
SPLINE
  5
61
330
1F
100
AcDbEntity
  8
0
  6
Continuous
 62
     7
370
    15
100
AcDbSpline
210
0.0
220
0.0
230
1.0
 70
     8
 71
     3
 72
    23
 73
    19
 74
     0
 42
0.00000001
 43
0.00000001
 40
0.0
 40
0.0
 40
0.0
 40
0.0
 40
0.06258966219366
 40
0.1236697878946522
 40
0.1844067145020443
 40
0.245346569545425
 40
0.3059354849424429
 40
0.3658842561735779
 40
0.4254691883848156
 40
0.4852108820671957
 40
0.5457032413623871
 40
0.6063554140698002
 40
0.6684582758072708
 40
0.7317426775976204
 40
0.7964136926523276
 40
0.8621597213520217
 40
0.9300976851108084
 40
1.0
 40
1.0
 40
1.0
 40
1.0
 10
1.68194424162097
 20
6.46216452792576
 30
0.0
 10
1.682982338370606
 20
6.463901798126088
 30
0.0
 10
1.685033495068725
 20
6.467334439071257
 30
0.0
 10
1.687387965318669
 20
6.472823162245942
 30
0.0
 10
1.689221394030711
 20
6.478442719863891
 30
0.0
 10
1.690431087532569
 20
6.484218321394396
 30
0.0
 10
1.691030577309265
 20
6.49005652592724
 30
0.0
 10
1.691159760099709
 20
6.49588416355167
 30
0.0
 10
1.690589608079845
 20
6.501658422454126
 30
0.0
 10
1.689529793104702
 20
6.507376515615335
 30
0.0
 10
1.687904398608377
 20
6.512999766569197
 30
0.0
 10
1.68569092077434
 20
6.518500881297194
 30
0.0
 10
1.682889974109614
 20
6.523827972709748
 30
0.0
 10
1.679568758443357
 20
6.529000369861363
 30
0.0
 10
1.675695022829649
 20
6.533929728871734
 30
0.0
 10
1.671202548566446
 20
6.538511965739982
 30
0.0
 10
1.666174591637393
 20
6.54277363288571
 30
0.0
 10
1.662459758481144
 20
6.545234294321189
 30
0.0
 10
1.660575872003288
 20
6.546482158386653
 30
0.0
  0
SPLINE
  5
62
330
1F
100
AcDbEntity
  8
0
  6
Continuous
 62
     7
370
    15
100
AcDbSpline
210
0.0
220
0.0
230
1.0
 70
     8
 71
     3
 72
    15
 73
    11
 74
     0
 42
0.00000001
 43
0.00000001
 40
0.0
 40
0.0
 40
0.0
 40
0.0
 40
0.139241364988709
 40
0.2707433815115942
 40
0.3956111288547686
 40
0.5136745354192634
 40
0.6304189960102042
 40
0.7494265892525158
 40
0.8725111743835826
 40
1.0
 40
1.0
 40
1.0
 40
1.0
 10
1.660575872003288
 20
6.546482158386653
 30
0.0
 10
1.658233421065805
 20
6.54790784541491
 30
0.0
 10
1.653678717886252
 20
6.550679976577503
 30
0.0
 10
1.646714437769914
 20
6.554187978425908
 30
0.0
 10
1.639900158083867
 20
6.55701618807453
 30
0.0
 10
1.633156318545755
 20
6.559206822792296
 30
0.0
 10
1.626347515915578
 20
6.560722353465032
 30
0.0
 10
1.619340032667634
 20
6.561678475729775
 30
0.0
 10
1.612061141315588
 20
6.562030498324146
 30
0.0
 10
1.607129920863547
 20
6.561841460022665
 30
0.0
 10
1.604620973475989
 20
6.56174527954214
 30
0.0
  0
LINE
  5
63
330
1F
100
AcDbEntity
  8
0
  6
Continuous
 62
     7
370
    15
100
AcDbLine
 10
1.6046209735
 20
6.5617452795
 30
0.0
 11
1.6039985938
 21
6.522861367
 31
0.0
  0
LINE
  5
64
330
1F
100
AcDbEntity
  8
0
  6
Continuous
 62
     7
370
    15
100
AcDbLine
 10
1.4435093937
 20
6.8562105686
 30
0.0
 11
1.5488693853
 21
6.8072796695
 31
0.0
  0
LINE
  5
65
330
1F
100
AcDbEntity
  8
0
  6
Continuous
 62
     7
370
    15
100
AcDbLine
 10
1.5488693853
 20
6.8072796695
 30
0.0
 11
1.5705044891
 21
6.8451559197
 31
0.0
  0
LINE
  5
66
330
1F
100
AcDbEntity
  8
0
  6
Continuous
 62
     7
370
    15
100
AcDbLine
 10
1.5705044891
 20
6.8451559197
 30
0.0
 11
1.5037320387
 21
6.8763934531
 31
0.0
  0
LINE
  5
67
330
1F
100
AcDbEntity
  8
0
  6
Continuous
 62
     7
370
    15
100
AcDbLine
 10
1.5122378946
 20
6.8945017386
 30
0.0
 11
1.5789214336
 21
6.8617230745
 31
0.0
  0
LINE
  5
68
330
1F
100
AcDbEntity
  8
0
  6
Continuous
 62
     7
370
    15
100
AcDbLine
 10
1.5789214336
 20
6.8617230745
 30
0.0
 11
1.5947476602
 21
6.9030668687
 31
0.0
  0
LINE
  5
69
330
1F
100
AcDbEntity
  8
0
  6
Continuous
 62
     7
370
    15
100
AcDbLine
 10
1.5947476602
 20
6.9030668687
 30
0.0
 11
1.5235296405
 21
6.9373273892
 31
0.0
  0
SPLINE
  5
6A
330
1F
100
AcDbEntity
  8
0
  6
Continuous
 62
     7
370
    15
100
AcDbSpline
210
0.0
220
0.0
230
1.0
 70
     8
 71
     3
 72
    23
 73
    19
 74
     0
 42
0.00000001
 43
0.00000001
 40
0.0
 40
0.0
 40
0.0
 40
0.0
 40
0.069639197683801
 40
0.1368298256004971
 40
0.2027529501767333
 40
0.2671262467821604
 40
0.3297579420833465
 40
0.3910848291366659
 40
0.4506921511985255
 40
0.5100627868228292
 40
0.5684255600982949
 40
0.6260161622344131
 40
0.684250951344843
 40
0.7432249986835927
 40
0.8036225468482583
 40
0.865562542287889
 40
0.9312845530553878
 40
1.0
 40
1.0
 40
1.0
 40
1.0
 10
1.523529640507722
 20
6.937327389184913
 30
0.0
 10
1.52225305110755
 20
6.937908531893347
 30
0.0
 10
1.519744758209316
 20
6.9390503838688
 30
0.0
 10
1.515896088920784
 20
6.940432816564137
 30
0.0
 10
1.512040206479314
 20
6.941421550435501
 30
0.0
 10
1.508220415464175
 20
6.942146635310304
 30
0.0
 10
1.504443570174995
 20
6.942541518348894
 30
0.0
 10
1.500740778416536
 20
6.942578339462629
 30
0.0
 10
1.49712092413761
 20
6.942238829573695
 30
0.0
 10
1.493600881041836
 20
6.941604973936378
 30
0.0
 10
1.490210258014042
 20
6.940594701829965
 30
0.0
 10
1.486973140678352
 20
6.939223019640807
 30
0.0
 10
1.483917475811305
 20
6.937460720089269
 30
0.0
 10
1.481019454338476
 20
6.935351707525326
 30
0.0
 10
1.478350912519956
 20
6.932846803241014
 30
0.0
 10
1.475887783619312
 20
6.929961284454462
 30
0.0
 10
1.473670973591262
 20
6.926674128349132
 30
0.0
 10
1.472421739321678
 20
6.924270743195014
 30
0.0
 10
1.471783214221354
 20
6.923042293268515
 30
0.0
  0
SPLINE
  5
6B
330
1F
100
AcDbEntity
  8
0
  6
Continuous
 62
     7
370
    15
100
AcDbSpline
210
0.0
220
0.0
230
1.0
 70
     8
 71
     3
 72
    15
 73
    11
 74
     0
 42
0.00000001
 43
0.00000001
 40
0.0
 40
0.0
 40
0.0
 40
0.0
 40
0.1188816195639138
 40
0.2339604170369845
 40
0.3464032882637145
 40
0.4587679836724944
 40
0.5754612583357877
 40
0.7027147510233137
 40
0.8434554466392188
 40
1.0
 40
1.0
 40
1.0
 40
1.0
 10
1.471783214221354
 20
6.923042293268515
 30
0.0
 10
1.471216920370226
 20
6.92179005615209
 30
0.0
 10
1.470102447451188
 20
6.919325638868217
 30
0.0
 10
1.469017065117628
 20
6.915465541930183
 30
0.0
 10
1.468231179692507
 20
6.911616065370403
 30
0.0
 10
1.46795569353686
 20
6.907670469710522
 30
0.0
 10
1.468248426904071
 20
6.903549988521295
 30
0.0
 10
1.469291910610779
 20
6.899219470214525
 30
0.0
 10
1.470921302257738
 20
6.894584830923237
 30
0.0
 10
1.472476022652468
 20
6.891521220517073
 30
0.0
 10
1.473294707772674
 20
6.889907983653304
 30
0.0
  0
LINE
  5
6C
330
1F
100
AcDbEntity
  8
0
  6
Continuous
 62
     7
370
    15
100
AcDbLine
 10
1.4729390622
 20
6.8891670554
 30
0.0
 11
1.4587725148
 21
6.895983595
 31
0.0
  0
LINE
  5
6D
330
1F
100
AcDbEntity
  8
0
  6
Continuous
 62
     7
370
    15
100
AcDbLine
 10
1.4587725148
 20
6.895983595
 30
0.0
 11
1.4435093937
 21
6.8562105686
 31
0.0
  0
LINE
  5
6E
330
1F
100
AcDbEntity
  8
0
  6
Continuous
 62
     7
370
    15
100
AcDbLine
 10
1.5678888282
 20
7.0881894999
 30
0.0
 11
1.5973184968
 21
7.0490388532
 31
0.0
  0
SPLINE
  5
6F
330
1F
100
AcDbEntity
  8
0
  6
Continuous
 62
     7
370
    15
100
AcDbSpline
210
0.0
220
0.0
230
1.0
 70
     8
 71
     3
 72
    15
 73
    11
 74
     0
 42
0.00000001
 43
0.00000001
 40
0.0
 40
0.0
 40
0.0
 40
0.0
 40
0.1200736853175972
 40
0.2402071209516423
 40
0.3620926904845015
 40
0.4871484902328822
 40
0.6148422240682891
 40
0.7410559966347432
 40
0.8704196640116659
 40
1.0
 40
1.0
 40
1.0
 40
1.0
 10
1.597318496807501
 20
7.049038853208782
 30
0.0
 10
1.596281754269288
 20
7.049110076002389
 30
0.0
 10
1.594207753295523
 20
7.049252557031044
 30
0.0
 10
1.591071285741146
 20
7.049072299485312
 30
0.0
 10
1.587942367228701
 20
7.048495870991531
 30
0.0
 10
1.584832521128799
 20
7.047566697895832
 30
0.0
 10
1.58178770645239
 20
7.046345786642706
 30
0.0
 10
1.578784827364462
 20
7.044939224807277
 30
0.0
 10
1.575862467709106
 20
7.043331135764516
 30
0.0
 10
1.574004891158416
 20
7.042078560163712
 30
0.0
 10
1.573075325729466
 20
7.041451748323724
 30
0.0
  0
SPLINE
  5
70
330
1F
100
AcDbEntity
  8
0
  6
Continuous
 62
     7
370
    15
100
AcDbSpline
210
0.0
220
0.0
230
1.0
 70
     8
 71
     3
 72
    23
 73
    19
 74
     0
 42
0.00000001
 43
0.00000001
 40
0.0
 40
0.0
 40
0.0
 40
0.0
 40
0.0689492585731723
 40
0.1344983331379069
 40
0.1976211239414054
 40
0.2593909272946414
 40
0.319620808009132
 40
0.3783695012529254
 40
0.4370304273521777
 40
0.4956547450274575
 40
0.5546821230653439
 40
0.6144332680801206
 40
0.6751184588793321
 40
0.7378994673577772
 40
0.8019823557129032
 40
0.8665591493255942
 40
0.9324805307939197
 40
1.0
 40
1.0
 40
1.0
 40
1.0
 10
1.573075325729466
 20
7.041451748323724
 30
0.0
 10
1.571295847060756
 20
7.040146047587271
 30
0.0
 10
1.567824643457575
 20
7.037599035824361
 30
0.0
 10
1.563242421531763
 20
7.033221814838262
 30
0.0
 10
1.559278770514325
 20
7.028581609782632
 30
0.0
 10
1.556021897202551
 20
7.023618652362618
 30
0.0
 10
1.553410933183072
 20
7.018448836405667
 30
0.0
 10
1.551402133973142
 20
7.013122974753801
 30
0.0
 10
1.550000468752891
 20
7.007657654485627
 30
0.0
 10
1.549235824736405
 20
7.002059088722402
 30
0.0
 10
1.549064115057211
 20
6.996378032635921
 30
0.0
 10
1.549461507965928
 20
6.990643845687376
 30
0.0
 10
1.55038642173794
 20
6.984849410672148
 30
0.0
 10
1.55187618472819
 20
6.979031482634957
 30
0.0
 10
1.553878781299534
 20
6.973236788659822
 30
0.0
 10
1.556437057197837
 20
6.967558054410367
 30
0.0
 10
1.559407075621353
 20
6.96195479858518
 30
0.0
 10
1.561772293208222
 20
6.958399558415198
 30
0.0
 10
1.562969064925542
 20
6.956600649550601
 30
0.0
  0
SPLINE
  5
71
330
1F
100
AcDbEntity
  8
0
  6
Continuous
 62
     7
370
    15
100
AcDbSpline
210
0.0
220
0.0
230
1.0
 70
     8
 71
     3
 72
    15
 73
    11
 74
     0
 42
0.00000001
 43
0.00000001
 40
0.0
 40
0.0
 40
0.0
 40
0.0
 40
0.1260345940078404
 40
0.2534938873435408
 40
0.3809002625065069
 40
0.5109520953209433
 40
0.6389510751180727
 40
0.7621719887743529
 40
0.880605541826906
 40
1.0
 40
1.0
 40
1.0
 40
1.0
 10
1.642841126117846
 20
6.936714136355783
 30
0.0
 10
1.644003707244274
 20
6.937562669945297
 30
0.0
 10
1.646342011353639
 20
6.939269328976818
 30
0.0
 10
1.649552617320506
 20
6.942213462469351
 30
0.0
 10
1.65253390234024
 20
6.945444730909515
 30
0.0
 10
1.655273478055041
 20
6.948891855351452
 30
0.0
 10
1.657642292649663
 20
6.952557830660929
 30
0.0
 10
1.659365317202613
 20
6.956424627452765
 30
0.0
 10
1.660485669237317
 20
6.960414214880445
 30
0.0
 10
1.660715488957062
 20
6.963123839508822
 30
0.0
 10
1.6608308630914
 20
6.964484125720231
 30
0.0
  0
LINE
  5
72
330
1F
100
AcDbEntity
  8
0
  6
Continuous
 62
     7
370
    15
100
AcDbLine
 10
1.6608308631
 20
6.9644841257
 30
0.0
 11
1.6611865086
 21
6.9647508599
 31
0.0
  0
LINE
  5
73
330
1F
100
AcDbEntity
  8
0
  6
Continuous
 62
     7
370
    15
100
AcDbLine
 10
1.6611865086
 20
6.9647508599
 30
0.0
 11
1.6678844997
 21
6.9551484303
 31
0.0
  0
LINE
  5
74
330
1F
100
AcDbEntity
  8
0
  6
Continuous
 62
     7
370
    15
100
AcDbLine
 10
1.6678844997
 20
6.9551484303
 30
0.0
 11
1.6994184043
 21
6.9803103523
 31
0.0
  0
LINE
  5
75
330
1F
100
AcDbEntity
  8
0
  6
Continuous
 62
     7
370
    15
100
AcDbLine
 10
1.6994184043
 20
6.9803103523
 30
0.0
 11
1.6046092304
 21
7.1181822739
 31
0.0
  0
LINE
  5
76
330
1F
100
AcDbEntity
  8
0
  6
Continuous
 62
     7
370
    15
100
AcDbLine
 10
1.6046092304
 20
7.1181822739
 30
0.0
 11
1.5678888282
 21
7.0881894999
 31
0.0
  0
LINE
  5
77
330
1F
100
AcDbEntity
  8
0
  6
Continuous
 62
     7
370
    15
100
AcDbLine
 10
1.9575129017
 20
7.0761949606
 30
0.0
 11
1.944887485
 21
7.0158834042
 31
0.0
  0
LINE
  5
78
330
1F
100
AcDbEntity
  8
0
  6
Continuous
 62
     7
370
    15
100
AcDbLine
 10
1.944887485
 20
7.0158834042
 30
0.0
 11
1.8876878271
 21
6.983549297
 31
0.0
  0
LINE
  5
79
330
1F
100
AcDbEntity
  8
0
  6
Continuous
 62
     7
370
    15
100
AcDbLine
 10
1.8876878271
 20
6.983549297
 30
0.0
 11
1.924586052
 21
6.9523414008
 31
0.0
  0
LINE
  5
7A
330
1F
100
AcDbEntity
  8
0
  6
Continuous
 62
     7
370
    15
100
AcDbLine
 10
1.924586052
 20
6.9523414008
 30
0.0
 11
1.9559421339
 21
6.9752212639
 31
0.0
  0
LINE
  5
7B
330
1F
100
AcDbEntity
  8
0
  6
Continuous
 62
     7
370
    15
100
AcDbLine
 10
1.9559421339
 20
6.9752212639
 30
0.0
 11
1.9562681424
 21
6.9749841669
 31
0.0
  0
LINE
  5
7C
330
1F
100
AcDbEntity
  8
0
  6
Continuous
 62
     7
370
    15
100
AcDbLine
 10
1.9562681424
 20
6.9749841669
 30
0.0
 11
1.9439094598
 21
6.9382637647
 31
0.0
  0
LINE
  5
7D
330
1F
100
AcDbEntity
  8
0
  6
Continuous
 62
     7
370
    15
100
AcDbLine
 10
1.9439094598
 20
6.9382637647
 30
0.0
 11
1.9855496253
 21
6.9121830917
 31
0.0
  0
LINE
  5
7E
330
1F
100
AcDbEntity
  8
0
  6
Continuous
 62
     7
370
    15
100
AcDbLine
 10
1.9855496253
 20
6.9121830917
 30
0.0
 11
1.9978490336
 21
6.9772662258
 31
0.0
  0
LINE
  5
7F
330
1F
100
AcDbEntity
  8
0
  6
Continuous
 62
     7
370
    15
100
AcDbLine
 10
1.9978490336
 20
6.9772662258
 30
0.0
 11
2.0506031222
 21
7.0082962993
 31
0.0
  0
LINE
  5
80
330
1F
100
AcDbEntity
  8
0
  6
Continuous
 62
     7
370
    15
100
AcDbLine
 10
2.0506031222
 20
7.0082962993
 30
0.0
 11
2.0146236483
 21
7.0391189129
 31
0.0
  0
LINE
  5
81
330
1F
100
AcDbEntity
  8
0
  6
Continuous
 62
     7
370
    15
100
AcDbLine
 10
2.0146236483
 20
7.0391189129
 30
0.0
 11
1.9868240218
 21
7.0168910665
 31
0.0
  0
LINE
  5
82
330
1F
100
AcDbEntity
  8
0
  6
Continuous
 62
     7
370
    15
100
AcDbLine
 10
1.9868240218
 20
7.0168910665
 30
0.0
 11
1.9864980134
 21
7.0171281636
 31
0.0
  0
LINE
  5
83
330
1F
100
AcDbEntity
  8
0
  6
Continuous
 62
     7
370
    15
100
AcDbLine
 10
1.9864980134
 20
7.0171281636
 30
0.0
 11
1.9979675821
 21
7.0512701356
 31
0.0
  0
LINE
  5
84
330
1F
100
AcDbEntity
  8
0
  6
Continuous
 62
     7
370
    15
100
AcDbLine
 10
1.9979675821
 20
7.0512701356
 30
0.0
 11
1.9575129017
 21
7.0761949606
 31
0.0
  0
LINE
  5
85
330
1F
100
AcDbEntity
  8
0
  6
Continuous
 62
     7
370
    15
100
AcDbLine
 10
2.0108215251
 20
6.8706365842
 30
0.0
 11
2.1492565521
 21
6.9614743829
 31
0.0
  0
LINE
  5
86
330
1F
100
AcDbEntity
  8
0
  6
Continuous
 62
     7
370
    15
100
AcDbLine
 10
2.1492565521
 20
6.9614743829
 30
0.0
 11
2.1202714405
 21
6.997957688
 31
0.0
  0
LINE
  5
87
330
1F
100
AcDbEntity
  8
0
  6
Continuous
 62
     7
370
    15
100
AcDbLine
 10
2.1202714405
 20
6.997957688
 30
0.0
 11
1.9836442783
 21
6.9044229106
 31
0.0
  0
LINE
  5
88
330
1F
100
AcDbEntity
  8
0
  6
Continuous
 62
     7
370
    15
100
AcDbLine
 10
1.9836442783
 20
6.9044229106
 30
0.0
 11
2.0108215251
 21
6.8706365842
 31
0.0
  0
SPLINE
  5
89
330
1F
100
AcDbEntity
  8
0
  6
Continuous
 62
     7
370
    15
100
AcDbSpline
210
0.0
220
0.0
230
1.0
 70
     8
 71
     3
 72
    15
 73
    11
 74
     0
 42
0.00000001
 43
0.00000001
 40
0.0
 40
0.0
 40
0.0
 40
0.0
 40
0.1163939634890236
 40
0.2325213740482637
 40
0.348915337537288
 40
0.4672834563135455
 40
0.58791201270806
 40
0.7162756788812902
 40
0.8524174137898008
 40
0.9999999999999999
 40
0.9999999999999999
 40
0.9999999999999999
 40
0.9999999999999999
 10
2.085400488400684
 20
6.780732929273545
 30
0.0
 10
2.084421931857506
 20
6.781420646233465
 30
0.0
 10
2.082467059756041
 20
6.78279450521793
 30
0.0
 10
2.079720659909684
 20
6.785102122377034
 30
0.0
 10
2.077061808032025
 20
6.787536930263657
 30
0.0
 10
2.074524814144342
 20
6.790164552117244
 30
0.0
 10
2.072165472194184
 20
6.793127153593024
 30
0.0
 10
2.070256939142984
 20
6.796605276462131
 30
0.0
 10
2.068541251998469
 20
6.800486395159723
 30
0.0
 10
2.067778084806649
 20
6.803303361727791
 30
0.0
 10
2.067381114298672
 20
6.804768640452379
 30
0.0
  0
SPLINE
  5
8A
330
1F
100
AcDbEntity
  8
0
  6
Continuous
 62
     7
370
    15
100
AcDbSpline
210
0.0
220
0.0
230
1.0
 70
     8
 71
     3
 72
    11
 73
     7
 74
     0
 42
0.00000001
 43
0.00000001
 40
0.0
 40
0.0
 40
0.0
 40
0.0
 40
0.2496113628910807
 40
0.5220407574337238
 40
0.7842951165768602
 40
1.0
 40
1.0
 40
1.0
 40
1.0
 10
2.067381114298672
 20
6.804768640452379
 30
0.0
 10
2.06713376986834
 20
6.805823918395345
 30
0.0
 10
2.066616470205928
 20
6.808030941706577
 30
0.0
 10
2.066041316035754
 20
6.811381777488545
 30
0.0
 10
2.06572470811919
 20
6.814651243325394
 30
0.0
 10
2.066069610492921
 20
6.816704507855778
 30
0.0
 10
2.06622526628884
 20
6.817631154202829
 30
0.0
  0
LINE
  5
8B
330
1F
100
AcDbEntity
  8
0
  6
Continuous
 62
     7
370
    15
100
AcDbLine
 10
2.0662252663
 20
6.8176311542
 30
0.0
 11
2.1262404514
 21
6.7695004576
 31
0.0
  0
SPLINE
  5
8C
330
1F
100
AcDbEntity
  8
0
  6
Continuous
 62
     7
370
    15
100
AcDbSpline
210
0.0
220
0.0
230
1.0
 70
     8
 71
     3
 72
    23
 73
    19
 74
     0
 42
0.00000001
 43
0.00000001
 40
0.0
 40
0.0
 40
0.0
 40
0.0
 40
0.0633979968867027
 40
0.1253619031352756
 40
0.1867605091695381
 40
0.2473461653605001
 40
0.3076977281593193
 40
0.3681247759638782
 40
0.4287579337655628
 40
0.4902554523206785
 40
0.552100505166214
 40
0.6137940767316123
 40
0.6753370936420384
 40
0.7379110535764289
 40
0.8011005682793295
 40
0.8656994459311974
 40
0.9315914711577692
 40
1.0
 40
1.0
 40
1.0
 40
1.0
 10
2.126240451414783
 20
6.769500457588244
 30
0.0
 10
2.127471528856994
 20
6.770469688499932
 30
0.0
 10
2.129905836226962
 20
6.772386225892805
 30
0.0
 10
2.133253577372429
 20
6.775567747303811
 30
0.0
 10
2.136380120821902
 20
6.778868787438301
 30
0.0
 10
2.139200620504491
 20
6.782386857587986
 30
0.0
 10
2.14175510852212
 20
6.786070652600019
 30
0.0
 10
2.144051517746192
 20
6.78992463194271
 30
0.0
 10
2.146024595533852
 20
6.793983461546089
 30
0.0
 10
2.147790075870474
 20
6.798174549061465
 30
0.0
 10
2.149207445360819
 20
6.802525971717167
 30
0.0
 10
2.15027452960741
 20
6.806976035969045
 30
0.0
 10
2.150993806323362
 20
6.811514433144402
 30
0.0
 10
2.151340551857499
 20
6.81613243336525
 30
0.0
 10
2.151353075385596
 20
6.820840471868555
 30
0.0
 10
2.150937142696913
 20
6.825610188421696
 30
0.0
 10
2.150252649958763
 20
6.830480830904754
 30
0.0
 10
2.149482810004957
 20
6.833709548572816
 30
0.0
 10
2.149090677455327
 20
6.835354157020268
 30
0.0
  0
SPLINE
  5
8D
330
1F
100
AcDbEntity
  8
0
  6
Continuous
 62
     7
370
    15
100
AcDbSpline
210
0.0
220
0.0
230
1.0
 70
     8
 71
     3
 72
    23
 73
    19
 74
     0
 42
0.00000001
 43
0.00000001
 40
0.0
 40
0.0
 40
0.0
 40
0.0
 40
0.0623375423367896
 40
0.1232013741474823
 40
0.1831002709368211
 40
0.2427278367261295
 40
0.3016664890895769
 40
0.3598154462808666
 40
0.4180259285411137
 40
0.4765106292172246
 40
0.5358888699490856
 40
0.5959883084048263
 40
0.6576301440444553
 40
0.7212258708388357
 40
0.7869558257598855
 40
0.8548138967357359
 40
0.9255204227582385
 40
1.0
 40
1.0
 40
1.0
 40
1.0
 10
2.149090677455327
 20
6.835354157020268
 30
0.0
 10
2.14851599531931
 20
6.837372242751283
 30
0.0
 10
2.147380217003367
 20
6.841360705014766
 30
0.0
 10
2.145033624128056
 20
6.847068177690441
 30
0.0
 10
2.142252612255492
 20
6.852471044212395
 30
0.0
 10
2.138949311831292
 20
6.857495033632741
 30
0.0
 10
2.135261808452978
 20
6.862169376739183
 30
0.0
 10
2.131106941525607
 20
6.866370289585464
 30
0.0
 10
2.126561308587974
 20
6.87011810942764
 30
0.0
 10
2.121612295835665
 20
6.87339120265058
 30
0.0
 10
2.116303643658697
 20
6.876178714433873
 30
0.0
 10
2.110638242380685
 20
6.878451962821104
 30
0.0
 10
2.104621239213087
 20
6.880124660443276
 30
0.0
 10
2.0982952358229
 20
6.881283476762492
 30
0.0
 10
2.091674908311988
 20
6.881866085348357
 30
0.0
 10
2.084793575365625
 20
6.881689360437782
 30
0.0
 10
2.07766327513706
 20
6.88083995463846
 30
0.0
 10
2.072904564778582
 20
6.879728171028243
 30
0.0
 10
2.070463375658227
 20
6.87915783288009
 30
0.0
  0
SPLINE
  5
8E
330
1F
100
AcDbEntity
  8
0
  6
Continuous
 62
     7
370
    15
100
AcDbSpline
210
0.0
220
0.0
230
1.0
 70
     8
 71
     3
 72
    23
 73
    19
 74
     0
 42
0.00000001
 43
0.00000001
 40
0.0
 40
0.0
 40
0.0
 40
0.0
 40
0.0622169857548799
 40
0.1235548330160504
 40
0.184406351989127
 40
0.2452798203033929
 40
0.3057920095438934
 40
0.36567671603272
 40
0.4253108981136065
 40
0.4852571115710033
 40
0.5456664439201556
 40
0.606315504334053
 40
0.6682720659375071
 40
0.7316117290003263
 40
0.7962180010816375
 40
0.862090304086343
 40
0.9299345202987026
 40
1.0
 40
1.0
 40
1.0
 40
1.0
 10
2.070463375658227
 20
6.87915783288009
 30
0.0
 10
2.068512118051561
 20
6.878608673945676
 30
0.0
 10
2.064637174499767
 20
6.87751811580279
 30
0.0
 10
2.059118051480097
 20
6.875120855778025
 30
0.0
 10
2.053868013436675
 20
6.872287660667958
 30
0.0
 10
2.048984409681118
 20
6.868898775244936
 30
0.0
 10
2.044488952742291
 20
6.865067189918689
 30
0.0
 10
2.040364576543299
 20
6.860891002813576
 30
0.0
 10
2.036744382213274
 20
6.856292869673829
 30
0.0
 10
2.033564850896815
 20
6.851363359428093
 30
0.0
 10
2.030858615115873
 20
6.846118256118237
 30
0.0
 10
2.028698380990873
 20
6.840557446647112
 30
0.0
 10
2.02699789900084
 20
6.834740983127815
 30
0.0
 10
2.025842094284688
 20
6.828659204489397
 30
0.0
 10
2.025271952807233
 20
6.822365697983465
 30
0.0
 10
2.025368197765933
 20
6.815900656221074
 30
0.0
 10
2.026138865480064
 20
6.809298704368238
 30
0.0
 10
2.027132769032116
 20
6.804919109300977
 30
0.0
 10
2.027637725037493
 20
6.802694041460372
 30
0.0
  0
SPLINE
  5
8F
330
1F
100
AcDbEntity
  8
0
  6
Continuous
 62
     7
370
    15
100
AcDbSpline
210
0.0
220
0.0
230
1.0
 70
     8
 71
     3
 72
    15
 73
    11
 74
     0
 42
0.00000001
 43
0.00000001
 40
0.0
 40
0.0
 40
0.0
 40
0.0
 40
0.138950233426385
 40
0.2708860805744551
 40
0.3951495636650224
 40
0.5137821860140039
 40
0.6305668286526633
 40
0.7499506016206143
 40
0.8726222445787438
 40
1.0
 40
1.0
 40
1.0
 40
1.0
 10
2.027637725037493
 20
6.802694041460372
 30
0.0
 10
2.028360387002782
 20
6.800034704061315
 30
0.0
 10
2.029769230029023
 20
6.794850276031283
 30
0.0
 10
2.032456781180773
 20
6.787483091170873
 30
0.0
 10
2.035437350202325
 20
6.780669033380157
 30
0.0
 10
2.038853889731833
 20
6.7744003478754
 30
0.0
 10
2.042744361261947
 20
6.768525801887882
 30
0.0
 10
2.047276095309109
 20
6.76303266533175
 30
0.0
 10
2.052271430821075
 20
6.757662713285788
 30
0.0
 10
2.056018218062637
 20
6.754411620416639
 30
0.0
 10
2.057926870320808
 20
6.752755480009895
 30
0.0
  0
LINE
  5
90
330
1F
100
AcDbEntity
  8
0
  6
Continuous
 62
     7
370
    15
100
AcDbLine
 10
2.0579268703
 20
6.75275548
 30
0.0
 11
2.0854004884
 21
6.7807329293
 31
0.0
  0
LINE
  5
91
330
1F
100
AcDbEntity
  8
0
  6
Continuous
 62
     7
370
    15
100
AcDbLine
 10
1.5148737717
 20
6.2703804573
 30
0.0
 11
1.5148737717
 21
5.5203804573
 31
0.0
  0
LINE
  5
92
330
1F
100
AcDbEntity
  8
0
  6
Continuous
 62
     7
370
    15
100
AcDbLine
 10
1.5148737717
 20
6.2703804573
 30
0.0
 11
0.8653547188
 21
5.8953804573
 31
0.0
  0
ARC
  5
93
330
1F
100
AcDbEntity
  8
0
  6
Continuous
 62
     7
370
    15
100
AcDbCircle
 10
1.6514770143
 20
6.506984214
 30
0.0
 40
0.9960157722579603
100
AcDbArc
 50
217.8829437914
 51
262.1170562086
  0
LINE
  5
94
330
1F
100
AcDbEntity
  8
0
  6
Continuous
 62
     7
370
    15
100
AcDbLine
 10
1.5148737717
 20
7.2282032337
 30
0.0
 11
0.8653547188
 21
7.6032032337
 31
0.0
  0
LINE
  5
95
330
1F
100
AcDbEntity
  8
0
  6
Continuous
 62
     7
370
    15
100
AcDbLine
 10
1.5148737717
 20
7.2282032337
 30
0.0
 11
1.5148737717
 21
7.9782032337
 31
0.0
  0
ARC
  5
96
330
1F
100
AcDbEntity
  8
0
  6
Continuous
 62
     7
370
    15
100
AcDbCircle
 10
1.6514770143
 20
6.991599477
 30
0.0
 40
0.9960157722579608
100
AcDbArc
 50
97.8829437914
 51
142.1170562086
  0
LINE
  5
97
330
1F
100
AcDbEntity
  8
0
  6
Continuous
 62
     7
370
    15
100
AcDbLine
 10
2.0678730095
 20
7.2282032337
 30
0.0
 11
2.0678730095
 21
7.9782032337
 31
0.0
  0
LINE
  5
98
330
1F
100
AcDbEntity
  8
0
  6
Continuous
 62
     7
370
    15
100
AcDbLine
 10
2.0678730095
 20
7.2282032337
 30
0.0
 11
2.7173920623
 21
7.6032032337
 31
0.0
  0
ARC
  5
99
330
1F
100
AcDbEntity
  8
0
  6
Continuous
 62
     7
370
    15
100
AcDbCircle
 10
1.9312697668
 20
6.991599477
 30
0.0
 40
0.9960157722579601
100
AcDbArc
 50
37.8829437914
 51
82.1170562086
  0
LINE
  5
9A
330
1F
100
AcDbEntity
  8
0
  6
Continuous
 62
     7
370
    15
100
AcDbLine
 10
1.1731043377
 20
7.1784184332
 30
0.0
 11
1.3896106887
 21
7.0534184332
 31
0.0
  0
LINE
  5
9B
330
1F
100
AcDbEntity
  8
0
  6
Continuous
 62
     7
370
    15
100
AcDbLine
 10
1.1731043377
 20
7.1784184332
 30
0.0
 11
1.1106043377
 21
7.0701652578
 31
0.0
  0
LINE
  5
9C
330
1F
100
AcDbEntity
  8
0
  6
Continuous
 62
     7
370
    15
100
AcDbLine
 10
1.1106043377
 20
7.0701652578
 30
0.0
 11
1.3271106887
 21
6.9451652578
 31
0.0
  0
LINE
  5
9D
330
1F
100
AcDbEntity
  8
0
  6
Continuous
 62
     7
370
    15
100
AcDbLine
 10
1.3271106887
 20
6.9451652578
 30
0.0
 11
1.3896106887
 21
7.0534184332
 31
0.0
  0
LINE
  5
9E
330
1F
100
AcDbEntity
  8
0
  6
Continuous
 62
     7
370
    15
100
AcDbLine
 10
1.7288733906
 20
5.9992918455
 30
0.0
 11
1.7288733906
 21
6.2492918455
 31
0.0
  0
LINE
  5
9F
330
1F
100
AcDbEntity
  8
0
  6
Continuous
 62
     7
370
    15
100
AcDbLine
 10
1.7288733906
 20
5.9992918455
 30
0.0
 11
1.8538733906
 21
5.9992918455
 31
0.0
  0
LINE
  5
A0
330
1F
100
AcDbEntity
  8
0
  6
Continuous
 62
     7
370
    15
100
AcDbLine
 10
1.8538733906
 20
5.9992918455
 30
0.0
 11
1.8538733906
 21
6.2492918455
 31
0.0
  0
LINE
  5
A1
330
1F
100
AcDbEntity
  8
0
  6
Continuous
 62
     7
370
    15
100
AcDbLine
 10
1.8538733906
 20
6.2492918455
 30
0.0
 11
1.7288733906
 21
6.2492918455
 31
0.0
  0
LINE
  5
A2
330
1F
100
AcDbEntity
  8
0
  6
Continuous
 62
     7
370
    15
100
AcDbLine
 10
2.4096424434
 20
7.1784184332
 30
0.0
 11
2.1931360925
 21
7.0534184332
 31
0.0
  0
LINE
  5
A3
330
1F
100
AcDbEntity
  8
0
  6
Continuous
 62
     7
370
    15
100
AcDbLine
 10
2.1931360925
 20
7.0534184332
 30
0.0
 11
2.2556360925
 21
6.9451652578
 31
0.0
  0
LINE
  5
A4
330
1F
100
AcDbEntity
  8
0
  6
Continuous
 62
     7
370
    15
100
AcDbLine
 10
2.4721424434
 20
7.0701652578
 30
0.0
 11
2.2556360925
 21
6.9451652578
 31
0.0
  0
LINE
  5
A5
330
1F
100
AcDbEntity
  8
0
  6
Continuous
 62
     7
370
    15
100
AcDbLine
 10
2.4721424434
 20
7.0701652578
 30
0.0
 11
2.4096424434
 21
7.1784184332
 31
0.0
  0
CIRCLE
  5
A6
330
1F
100
AcDbEntity
  8
0
  6
Continuous
 62
     7
370
    15
100
AcDbCircle
 10
1.7913733906
 20
6.7492918455
 30
0.0
 40
1.5
  0
CIRCLE
  5
A7
330
1F
100
AcDbEntity
  8
0
  6
Continuous
 62
     7
370
    15
100
AcDbCircle
 10
1.7913733906
 20
6.7492918455
 30
0.0
 40
0.1300000000000001
  0
LINE
  5
A8
330
1F
100
AcDbEntity
  8
0
  6
Continuous
 62
     7
370
    15
100
AcDbLine
 10
1.8538733906
 20
7.4992918455
 30
0.0
 11
1.8538733906
 21
7.2492918455
 31
0.0
  0
LINE
  5
A9
330
1F
100
AcDbEntity
  8
0
  6
Continuous
 62
     7
370
    15
100
AcDbLine
 10
1.8538733906
 20
7.4992918455
 30
0.0
 11
1.7288733906
 21
7.4992918455
 31
0.0
  0
LINE
  5
AA
330
1F
100
AcDbEntity
  8
0
  6
Continuous
 62
     7
370
    15
100
AcDbLine
 10
1.7288733906
 20
7.4992918455
 30
0.0
 11
1.7288733906
 21
7.2492918455
 31
0.0
  0
LINE
  5
AB
330
1F
100
AcDbEntity
  8
0
  6
Continuous
 62
     7
370
    15
100
AcDbLine
 10
1.7288733906
 20
7.2492918455
 30
0.0
 11
1.8538733906
 21
7.2492918455
 31
0.0
  0
LINE
  5
AC
330
1F
100
AcDbEntity
  8
0
  6
Continuous
 62
     7
370
    15
100
AcDbLine
 10
2.4096424434
 20
6.3201652578
 30
0.0
 11
2.1931360925
 21
6.4451652578
 31
0.0
  0
LINE
  5
AD
330
1F
100
AcDbEntity
  8
0
  6
Continuous
 62
     7
370
    15
100
AcDbLine
 10
2.4096424434
 20
6.3201652578
 30
0.0
 11
2.4721424434
 21
6.4284184332
 31
0.0
  0
LINE
  5
AE
330
1F
100
AcDbEntity
  8
0
  6
Continuous
 62
     7
370
    15
100
AcDbLine
 10
2.4721424434
 20
6.4284184332
 30
0.0
 11
2.2556360925
 21
6.5534184332
 31
0.0
  0
LINE
  5
AF
330
1F
100
AcDbEntity
  8
0
  6
Continuous
 62
     7
370
    15
100
AcDbLine
 10
2.2556360925
 20
6.5534184332
 30
0.0
 11
2.1931360925
 21
6.4451652578
 31
0.0
  0
LINE
  5
B0
330
1F
100
AcDbEntity
  8
0
  6
Continuous
 62
     7
370
    15
100
AcDbLine
 10
1.1106043377
 20
6.4284184332
 30
0.0
 11
1.3271106887
 21
6.5534184332
 31
0.0
  0
LINE
  5
B1
330
1F
100
AcDbEntity
  8
0
  6
Continuous
 62
     7
370
    15
100
AcDbLine
 10
1.1106043377
 20
6.4284184332
 30
0.0
 11
1.1731043377
 21
6.3201652578
 31
0.0
  0
LINE
  5
B2
330
1F
100
AcDbEntity
  8
0
  6
Continuous
 62
     7
370
    15
100
AcDbLine
 10
1.1731043377
 20
6.3201652578
 30
0.0
 11
1.3896106887
 21
6.4451652578
 31
0.0
  0
LINE
  5
B3
330
1F
100
AcDbEntity
  8
0
  6
Continuous
 62
     7
370
    15
100
AcDbLine
 10
1.3896106887
 20
6.4451652578
 30
0.0
 11
1.3271106887
 21
6.5534184332
 31
0.0
  0
LINE
  5
B4
330
1F
100
AcDbEntity
  8
0
  6
Continuous
 62
     7
370
    15
100
AcDbLine
 10
2.0678730095
 20
6.2703804573
 30
0.0
 11
2.7173920623
 21
5.8953804573
 31
0.0
  0
LINE
  5
B5
330
1F
100
AcDbEntity
  8
0
  6
Continuous
 62
     7
370
    15
100
AcDbLine
 10
2.0678730095
 20
6.2703804573
 30
0.0
 11
2.0678730095
 21
5.5203804573
 31
0.0
  0
ARC
  5
B6
330
1F
100
AcDbEntity
  8
0
  6
Continuous
 62
     7
370
    15
100
AcDbCircle
 10
1.9312697668
 20
6.506984214
 30
0.0
 40
0.9960157722579603
100
AcDbArc
 50
277.8829437914
 51
322.1170562086
  0
LINE
  5
B7
330
1F
100
AcDbEntity
  8
0
  6
Continuous
 62
     7
370
    15
100
AcDbLine
 10
2.3443726284
 20
6.7492918455
 30
0.0
 11
2.9938916812
 21
7.1242918455
 31
0.0
  0
LINE
  5
B8
330
1F
100
AcDbEntity
  8
0
  6
Continuous
 62
     7
370
    15
100
AcDbLine
 10
2.3443726284
 20
6.7492918455
 30
0.0
 11
2.9938916812
 21
6.3742918455
 31
0.0
  0
ARC
  5
B9
330
1F
100
AcDbEntity
  8
0
  6
Continuous
 62
     7
370
    15
100
AcDbCircle
 10
2.0711661431
 20
6.7492918455
 30
0.0
 40
0.9960157722579607
100
AcDbArc
 50
337.8829437914
 51
22.1170562086
  0
LINE
  5
BA
330
1F
100
AcDbEntity
  8
0
  6
Continuous
 62
     7
370
    15
100
AcDbLine
 10
1.2383741528
 20
6.7492918455
 30
0.0
 11
0.5888550999
 21
6.3742918455
 31
0.0
  0
LINE
  5
BB
330
1F
100
AcDbEntity
  8
0
  6
Continuous
 62
     7
370
    15
100
AcDbLine
 10
1.2383741528
 20
6.7492918455
 30
0.0
 11
0.5888550999
 21
7.1242918455
 31
0.0
  0
ARC
  5
BC
330
1F
100
AcDbEntity
  8
0
  6
Continuous
 62
     7
370
    15
100
AcDbCircle
 10
1.511580638
 20
6.7492918455
 30
0.0
 40
0.9960157722579611
100
AcDbArc
 50
157.8829437914
 51
202.1170562086
  0
LINE
  5
BD
330
1F
100
AcDbEntity
  8
0
  6
Continuous
 62
     7
370
    15
100
AcDbLine
 10
1.880879101
 20
6.9842164893
 30
0.0
 11
1.8951641969
 21
7.0605913693
 31
0.0
  0
SPLINE
  5
BE
330
1F
100
AcDbEntity
  8
0
  6
Continuous
 62
     7
370
    15
100
AcDbSpline
210
0.0
220
0.0
230
1.0
 70
     8
 71
     3
 72
    23
 73
    19
 74
     0
 42
0.00000001
 43
0.00000001
 40
0.0
 40
0.0
 40
0.0
 40
0.0
 40
0.0756613011224884
 40
0.1458073037754187
 40
0.2113716583253672
 40
0.2730700854595866
 40
0.3324900636947548
 40
0.390495077564339
 40
0.4480173714468049
 40
0.5052239643205385
 40
0.5631905581136899
 40
0.6221150171080425
 40
0.6824531266379091
 40
0.7448649344182394
 40
0.8085849162747488
 40
0.8718896323923013
 40
0.9359784739543157
 40
1.0
 40
1.0
 40
1.0
 40
1.0
 10
1.895164196946911
 20
7.060591369322562
 30
0.0
 10
1.895457210732458
 20
7.062543030663542
 30
0.0
 10
1.896021879187875
 20
7.066304087819432
 30
0.0
 10
1.89609690336627
 20
7.071827247502331
 30
0.0
 10
1.895598038809644
 20
7.076960636574807
 30
0.0
 10
1.894420506994062
 20
7.081697995965761
 30
0.0
 10
1.892712671513881
 20
7.086054464885067
 30
0.0
 10
1.890557207133322
 20
7.090081194068628
 30
0.0
 10
1.888015446970895
 20
7.093810070367883
 30
0.0
 10
1.885006806214472
 20
7.097169439679677
 30
0.0
 10
1.88166112301448
 20
7.10024762317725
 30
0.0
 10
1.877888411352377
 20
7.102926466913448
 30
0.0
 10
1.873816684775093
 20
7.105353090800048
 30
0.0
 10
1.86940048026464
 20
7.107398202381194
 30
0.0
 10
1.864779496843317
 20
7.109140103079125
 30
0.0
 10
1.86004069127278
 20
7.110678755060532
 30
0.0
 10
1.855197449071664
 20
7.111893686076471
 30
0.0
 10
1.851907871744518
 20
7.112466472620495
 30
0.0
 10
1.850263947334168
 20
7.112752715407333
 30
0.0
  0
SPLINE
  5
BF
330
1F
100
AcDbEntity
  8
0
  6
Continuous
 62
     7
370
    15
100
AcDbSpline
210
0.0
220
0.0
230
1.0
 70
     8
 71
     3
 72
    13
 73
     9
 74
     0
 42
0.00000001
 43
0.00000001
 40
0.0
 40
0.0
 40
0.0
 40
0.0
 40
0.2567533209719685
 40
0.5100032740299678
 40
0.6342226306730657
 40
0.7577076562985988
 40
0.8793433938640615
 40
1.0
 40
1.0
 40
1.0
 40
1.0
 10
1.850263947334168
 20
7.112752715407333
 30
0.0
 10
1.846643036997478
 20
7.113265745944354
 30
0.0
 10
1.839450623206333
 20
7.114284806778963
 30
0.0
 10
1.830437223892704
 20
7.114980408232495
 30
0.0
 10
1.823305208488039
 20
7.115185507549447
 30
0.0
 10
1.818043447124664
 20
7.11514411582012
 30
0.0
 10
1.812842144560906
 20
7.114809952538012
 30
0.0
 10
1.809412782617037
 20
7.114425847995817
 30
0.0
 10
1.807705030869549
 20
7.114234571830195
 30
0.0
  0
LINE
  5
C0
330
1F
100
AcDbEntity
  8
0
  6
Continuous
 62
     7
370
    15
100
AcDbLine
 10
1.8077050309
 20
7.1142345718
 30
0.0
 11
1.7947239686
 21
7.0832044983
 31
0.0
  0
SPLINE
  5
C1
330
1F
100
AcDbEntity
  8
0
  6
Continuous
 62
     7
370
    15
100
AcDbSpline
210
0.0
220
0.0
230
1.0
 70
     8
 71
     3
 72
    13
 73
     9
 74
     0
 42
0.00000001
 43
0.00000001
 40
0.0
 40
0.0
 40
0.0
 40
0.0
 40
0.2479336418223172
 40
0.4904895551393191
 40
0.6122630936978121
 40
0.7374846378590237
 40
0.866615595334924
 40
1.0
 40
1.0
 40
1.0
 40
1.0
 10
1.794723968605271
 20
7.08320449833545
 30
0.0
 10
1.79745842091384
 20
7.083566543616804
 30
0.0
 10
1.802868014733063
 20
7.084282781347541
 30
0.0
 10
1.8096505808993
 20
7.084938255641138
 30
0.0
 10
1.815092436077923
 20
7.085205169476604
 30
0.0
 10
1.819279288900278
 20
7.085142474072809
 30
0.0
 10
1.823583454802821
 20
7.084814621034534
 30
0.0
 10
1.826476983716332
 20
7.0844151383741
 30
0.0
 10
1.827947189605855
 20
7.084212160702996
 30
0.0
  0
LINE
  5
C2
330
1F
100
AcDbEntity
  8
0
  6
Continuous
 62
     7
370
    15
100
AcDbLine
 10
1.8474484201
 20
7.065362947
 30
0.0
 11
1.8464703949
 21
7.0592576985
 31
0.0
  0
SPLINE
  5
C3
330
1F
100
AcDbEntity
  8
0
  6
Continuous
 62
     7
370
    15
100
AcDbSpline
210
0.0
220
0.0
230
1.0
 70
     8
 71
     3
 72
    15
 73
    11
 74
     0
 42
0.00000001
 43
0.00000001
 40
0.0
 40
0.0
 40
0.0
 40
0.0
 40
0.1013767334016944
 40
0.2074546829207687
 40
0.3201012446452927
 40
0.4382548313514738
 40
0.5637930172267887
 40
0.6974788961711846
 40
0.843348995534777
 40
1.0
 40
1.0
 40
1.0
 40
1.0
 10
1.84647039489164
 20
7.059257698541987
 30
0.0
 10
1.845790975704526
 20
7.059962060442006
 30
0.0
 10
1.844400630136037
 20
7.06140344812266
 30
0.0
 10
1.842020515327947
 20
7.063378817817381
 30
0.0
 10
1.839418130720304
 20
7.06532480885717
 30
0.0
 10
1.836572881654837
 20
7.067260316365466
 30
0.0
 10
1.833357967828405
 20
7.068984717844232
 30
0.0
 10
1.829727312626628
 20
7.070451156182163
 30
0.0
 10
1.825666435648196
 20
7.071586270341593
 30
0.0
 10
1.822795233983376
 20
7.07211378805295
 30
0.0
 10
1.82130847283143
 20
7.072386946448551
 30
0.0
  0
SPLINE
  5
C4
330
1F
100
AcDbEntity
  8
0
  6
Continuous
 62
     7
370
    15
100
AcDbSpline
210
0.0
220
0.0
230
1.0
 70
     8
 71
     3
 72
    23
 73
    19
 74
     0
 42
0.00000001
 43
0.00000001
 40
0.0
 40
0.0
 40
0.0
 40
0.0
 40
0.0693010368224141
 40
0.1363212707360582
 40
0.2021033494201573
 40
0.2667541195357413
 40
0.3298604284369263
 40
0.3916882081302238
 40
0.4522457292683273
 40
0.5125559027464953
 40
0.571983271050157
 40
0.6312000533325419
 40
0.6907602284111568
 40
0.7512048019265238
 40
0.8119120067422864
 40
0.8731428385185676
 40
0.9358349526234023
 40
1.0
 40
1.0
 40
1.0
 40
1.0
 10
1.82130847283143
 20
7.072386946448551
 30
0.0
 10
1.819839051091444
 20
7.072584520547172
 30
0.0
 10
1.816948568523983
 20
7.072973166279234
 30
0.0
 10
1.812619295934939
 20
7.07303941732254
 30
0.0
 10
1.808403553255046
 20
7.072753085803359
 30
0.0
 10
1.804313877437224
 20
7.072074997535711
 30
0.0
 10
1.800397693857771
 20
7.071017163558373
 30
0.0
 10
1.796643902191645
 20
7.069716434861291
 30
0.0
 10
1.793134955158617
 20
7.067985903791621
 30
0.0
 10
1.789808763847239
 20
7.066027439933332
 30
0.0
 10
1.78675099030493
 20
7.063717348385096
 30
0.0
 10
1.783908540729711
 20
7.061171485726556
 30
0.0
 10
1.781363552891993
 20
7.058298127318285
 30
0.0
 10
1.779046738685883
 20
7.055201379061279
 30
0.0
 10
1.777041717323202
 20
7.051845551000427
 30
0.0
 10
1.775452074110514
 20
7.048225966119263
 30
0.0
 10
1.774171191974708
 20
7.0444022737736
 30
0.0
 10
1.773688605338058
 20
7.041730331006778
 30
0.0
 10
1.773444510372962
 20
7.040378847714714
 30
0.0
  0
SPLINE
  5
C5
330
1F
100
AcDbEntity
  8
0
  6
Continuous
 62
     7
370
    15
100
AcDbSpline
210
0.0
220
0.0
230
1.0
 70
     8
 71
     3
 72
    23
 73
    19
 74
     0
 42
0.00000001
 43
0.00000001
 40
0.0
 40
0.0
 40
0.0
 40
0.0
 40
0.0718549629431461
 40
0.140994753704147
 40
0.2076384548607421
 40
0.2729514996680965
 40
0.3365733251933181
 40
0.3984131737041253
 40
0.4588369096214717
 40
0.5186203062202778
 40
0.5780405869204098
 40
0.6368304371105162
 40
0.6959009252432019
 40
0.756180881508747
 40
0.8166231992097586
 40
0.8772072262346459
 40
0.938234483220445
 40
1.0
 40
1.0
 40
1.0
 40
1.0
 10
1.773444510372962
 20
7.040378847714714
 30
0.0
 10
1.773232115717961
 20
7.038820753394075
 30
0.0
 10
1.772815352131378
 20
7.035763440217806
 30
0.0
 10
1.772789684657381
 20
7.031213498037176
 30
0.0
 10
1.773121213225176
 20
7.026823467415845
 30
0.0
 10
1.77393178777548
 20
7.022615632095045
 30
0.0
 10
1.775119277174539
 20
7.018611049395222
 30
0.0
 10
1.776637768850265
 20
7.014835362814107
 30
0.0
 10
1.778446518436465
 20
7.011283405748562
 30
0.0
 10
1.780583581934654
 20
7.007979220305083
 30
0.0
 10
1.783048081738247
 20
7.004957763376783
 30
0.0
 10
1.785795938212817
 20
7.002215822961811
 30
0.0
 10
1.788807651154096
 20
6.999735995239702
 30
0.0
 10
1.792086996771338
 20
6.997557789464522
 30
0.0
 10
1.795585895617658
 20
6.995678779048123
 30
0.0
 10
1.799279676345585
 20
6.99418455576955
 30
0.0
 10
1.80310604073572
 20
6.992956801649973
 30
0.0
 10
1.80575181202135
 20
6.992485312851564
 30
0.0
 10
1.807082651171947
 20
6.992248151100132
 30
0.0
  0
SPLINE
  5
C6
330
1F
100
AcDbEntity
  8
0
  6
Continuous
 62
     7
370
    15
100
AcDbSpline
210
0.0
220
0.0
230
1.0
 70
     8
 71
     3
 72
    15
 73
    11
 74
     0
 42
0.00000001
 43
0.00000001
 40
0.0
 40
0.0
 40
0.0
 40
0.0
 40
0.1321654802394496
 40
0.2602839118484198
 40
0.3853277909212133
 40
0.5090208758979061
 40
0.6301627130537524
 40
0.7512724199366029
 40
0.8727884825470122
 40
1.0
 40
1.0
 40
1.0
 40
1.0
 10
1.807082651171947
 20
6.992248151100132
 30
0.0
 10
1.808690189069729
 20
6.992031985292639
 30
0.0
 10
1.811856040332261
 20
6.991606272906319
 30
0.0
 10
1.816590110614377
 20
6.991466338950637
 30
0.0
 10
1.82120801541178
 20
6.991745863494182
 30
0.0
 10
1.825710973271786
 20
6.99235400701126
 30
0.0
 10
1.830062809719693
 20
6.993526106801276
 30
0.0
 10
1.834140136714963
 20
6.995381109623443
 30
0.0
 10
1.837958156409542
 20
6.997876148660217
 30
0.0
 10
1.840178130570568
 20
6.999976271925208
 30
0.0
 10
1.841313534540077
 20
7.001050378251937
 30
0.0
  0
LINE
  5
C7
330
1F
100
AcDbEntity
  8
0
  6
Continuous
 62
     7
370
    15
100
AcDbLine
 10
1.8417284543
 20
7.000991104
 30
0.0
 11
1.839564944
 21
6.9871802021
 31
0.0
  0
LINE
  5
C8
330
1F
100
AcDbEntity
  8
0
  6
Continuous
 62
     7
370
    15
100
AcDbLine
 10
1.5446096565
 20
6.7909674149
 30
0.0
 11
1.4671085656
 21
6.7907895921
 31
0.0
  0
SPLINE
  5
C9
330
1F
100
AcDbEntity
  8
0
  6
Continuous
 62
     7
370
    15
100
AcDbSpline
210
0.0
220
0.0
230
1.0
 70
     8
 71
     3
 72
    23
 73
    19
 74
     0
 42
0.00000001
 43
0.00000001
 40
0.0
 40
0.0
 40
0.0
 40
0.0
 40
0.0757836423148619
 40
0.1459640477812857
 40
0.2115023452884987
 40
0.2734160053423697
 40
0.3330106855712691
 40
0.3908931668018812
 40
0.4484175492519247
 40
0.5058287812389987
 40
0.5636550652664163
 40
0.6226539238474487
 40
0.6828985212757388
 40
0.7453165826682181
 40
0.8086253659677629
 40
0.872183587990039
 40
0.9357577225844685
 40
1.0
 40
1.0
 40
1.0
 40
1.0
 10
1.467108565607489
 20
6.790789592108903
 30
0.0
 10
1.465138732438267
 20
6.790715804473656
 30
0.0
 10
1.461344710218554
 20
6.790573684860665
 30
0.0
 10
1.455910111501703
 20
6.789645931313208
 30
0.0
 10
1.450973432596003
 20
6.788177942229288
 30
0.0
 10
1.446544278835211
 20
6.786135440540236
 30
0.0
 10
1.442586594189645
 20
6.783652806286972
 30
0.0
 10
1.439014255439257
 20
6.78082004681326
 30
0.0
 10
1.435872808905006
 20
6.777596139253543
 30
0.0
 10
1.433089749246584
 20
6.774059849320707
 30
0.0
 10
1.430755763695772
 20
6.77016827784045
 30
0.0
 10
1.428762730425114
 20
6.76601350330458
 30
0.0
 10
1.427155381450667
 20
6.761565657440152
 30
0.0
 10
1.425962533219185
 20
6.756874937953954
 30
0.0
 10
1.425134839701385
 20
6.752023141168834
 30
0.0
 10
1.424519696344282
 20
6.747109721956116
 30
0.0
 10
1.42426012515871
 20
6.742138082855058
 30
0.0
 10
1.424295015667922
 20
6.738816075798454
 30
0.0
 10
1.424312552115212
 20
6.73714638960127
 30
0.0
  0
SPLINE
  5
CA
330
1F
100
AcDbEntity
  8
0
  6
Continuous
 62
     7
370
    15
100
AcDbSpline
210
0.0
220
0.0
230
1.0
 70
     8
 71
     3
 72
    13
 73
     9
 74
     0
 42
0.00000001
 43
0.00000001
 40
0.0
 40
0.0
 40
0.0
 40
0.0
 40
0.2567970268338367
 40
0.5097710341143376
 40
0.634390817693121
 40
0.7577080112703678
 40
0.8795443838980748
 40
1.0
 40
1.0
 40
1.0
 40
1.0
 10
1.424312552115212
 20
6.73714638960127
 30
0.0
 10
1.42448619034557
 20
6.733499054558528
 30
0.0
 10
1.42483088179836
 20
6.726258683517543
 30
0.0
 10
1.425757423529749
 20
6.717277271835012
 30
0.0
 10
1.426920201832735
 20
6.710249316725449
 30
0.0
 10
1.427938141709733
 20
6.705089817230069
 30
0.0
 10
1.429211837974182
 20
6.700046544251066
 30
0.0
 10
1.430235095741457
 20
6.696756559471737
 30
0.0
 10
1.430743808990436
 20
6.695120941448881
 30
0.0
  0
LINE
  5
CB
330
1F
100
AcDbEntity
  8
0
  6
Continuous
 62
     7
370
    15
100
AcDbLine
 10
1.430743809
 20
6.6951209414
 30
0.0
 11
1.4635817473
 21
6.6881562163
 31
0.0
  0
SPLINE
  5
CC
330
1F
100
AcDbEntity
  8
0
  6
Continuous
 62
     7
370
    15
100
AcDbSpline
210
0.0
220
0.0
230
1.0
 70
     8
 71
     3
 72
    13
 73
     9
 74
     0
 42
0.00000001
 43
0.00000001
 40
0.0
 40
0.0
 40
0.0
 40
0.0
 40
0.2488924252755444
 40
0.4915010917424301
 40
0.612952036054575
 40
0.7383975912109121
 40
0.8672487672265752
 40
1.0
 40
1.0
 40
1.0
 40
1.0
 10
1.463581747321076
 20
6.688156216261425
 30
0.0
 10
1.462708202671523
 20
6.69077934321283
 30
0.0
 10
1.460983167655028
 20
6.695959371327252
 30
0.0
 10
1.459037120872539
 20
6.702487944390963
 30
0.0
 10
1.457781038036925
 20
6.707781069709621
 30
0.0
 10
1.45707382026794
 20
6.711897464006216
 30
0.0
 10
1.456599412256048
 20
6.716173708395762
 30
0.0
 10
1.456453811046603
 20
6.719076542433113
 30
0.0
 10
1.456379925105962
 20
6.720549597665206
 30
0.0
  0
SPLINE
  5
CD
330
1F
100
AcDbEntity
  8
0
  6
Continuous
 62
     7
370
    15
100
AcDbSpline
210
0.0
220
0.0
230
1.0
 70
     8
 71
     3
 72
    19
 73
    15
 74
     0
 42
0.00000001
 43
0.00000001
 40
0.0
 40
0.0
 40
0.0
 40
0.0
 40
0.1504651705900561
 40
0.2873818506875589
 40
0.4112199929684413
 40
0.5260146674290072
 40
0.5805836276003632
 40
0.6333790216410543
 40
0.6859679140010599
 40
0.7411811191156588
 40
0.7983231490960329
 40
0.8607145228621929
 40
0.9274049670281104
 40
1.0
 40
1.0
 40
1.0
 40
1.0
 10
1.456379925105962
 20
6.720549597665206
 30
0.0
 10
1.456369897483581
 20
6.72211144646663
 30
0.0
 10
1.456350745166358
 20
6.725094508907508
 30
0.0
 10
1.456789774382335
 20
6.729347994142622
 30
0.0
 10
1.457608723932586
 20
6.733165133598997
 30
0.0
 10
1.458636588933932
 20
6.736041421417124
 30
0.0
 10
1.45973129221668
 20
6.738081030101013
 30
0.0
 10
1.460797237728502
 20
6.739363993758714
 30
0.0
 10
1.462030691469845
 20
6.740493570205997
 30
0.0
 10
1.463490934113965
 20
6.741402962759854
 30
0.0
 10
1.465160182050434
 20
6.742125097604315
 30
0.0
 10
1.467026597557151
 20
6.742640703687659
 30
0.0
 10
1.46909140388251
 20
6.743003954058559
 30
0.0
 10
1.470535002763498
 20
6.743088844823078
 30
0.0
 10
1.471287400719962
 20
6.743133089549636
 30
0.0
  0
LINE
  5
CE
330
1F
100
AcDbEntity
  8
0
  6
Continuous
 62
     7
370
    15
100
AcDbLine
 10
1.4712874007
 20
6.7431330895
 30
0.0
 11
1.4774222863
 21
6.7433405494
 31
0.0
  0
SPLINE
  5
CF
330
1F
100
AcDbEntity
  8
0
  6
Continuous
 62
     7
370
    15
100
AcDbSpline
210
0.0
220
0.0
230
1.0
 70
     8
 71
     3
 72
    15
 73
    11
 74
     0
 42
0.00000001
 43
0.00000001
 40
0.0
 40
0.0
 40
0.0
 40
0.0
 40
0.1013124325761732
 40
0.2074562957488276
 40
0.3208002130500178
 40
0.4389603118664606
 40
0.5638941432992796
 40
0.697714473926068
 40
0.8430058698735157
 40
1.0
 40
1.0
 40
1.0
 40
1.0
 10
1.477422286310614
 20
6.743340549448836
 30
0.0
 10
1.476865245421624
 20
6.74253912389899
 30
0.0
 10
1.47572459923959
 20
6.740898054075061
 30
0.0
 10
1.474227122271313
 20
6.738192011448812
 30
0.0
 10
1.472782683427033
 20
6.735279505086289
 30
0.0
 10
1.471420011293719
 20
6.732126806096095
 30
0.0
 10
1.470300316497109
 20
6.728665889635915
 30
0.0
 10
1.469579421682026
 20
6.724834995245107
 30
0.0
 10
1.469191959065354
 20
6.720646675765138
 30
0.0
 10
1.469225183507129
 20
6.71773485280142
 30
0.0
 10
1.469242438856411
 20
6.716222576910447
 30
0.0
  0
SPLINE
  5
D0
330
1F
100
AcDbEntity
  8
0
  6
Continuous
 62
     7
370
    15
100
AcDbSpline
210
0.0
220
0.0
230
1.0
 70
     8
 71
     3
 72
    23
 73
    19
 74
     0
 42
0.00000001
 43
0.00000001
 40
0.0
 40
0.0
 40
0.0
 40
0.0
 40
0.0691657867473125
 40
0.1362920963473463
 40
0.2022005209288467
 40
0.2667885412799595
 40
0.3303598379624771
 40
0.3918106634763427
 40
0.4524628795249435
 40
0.512475698570895
 40
0.5721105734371036
 40
0.6316447379481968
 40
0.6910311255857027
 40
0.7512809566725515
 40
0.81219232996873
 40
0.8731617300189859
 40
0.9356363452737932
 40
0.9999999999999999
 40
0.9999999999999999
 40
0.9999999999999999
 40
0.9999999999999999
 10
1.469242438856411
 20
6.716222576910447
 30
0.0
 10
1.469320604677697
 20
6.714747307832491
 30
0.0
 10
1.469474631460978
 20
6.711840270628597
 30
0.0
 10
1.470230303951103
 20
6.707584328934799
 30
0.0
 10
1.471230745037243
 20
6.703482157668877
 30
0.0
 10
1.472677308154002
 20
6.699592898250117
 30
0.0
 10
1.474409474899288
 20
6.695930594566957
 30
0.0
 10
1.476446676797557
 20
6.692525282378889
 30
0.0
 10
1.478728059449956
 20
6.689372939016851
 30
0.0
 10
1.4812795858069
 20
6.686483293067781
 30
0.0
 10
1.484109666105934
 20
6.683902879124825
 30
0.0
 10
1.487161150256038
 20
6.681608601285949
 30
0.0
 10
1.490456772782357
 20
6.67966100231148
 30
0.0
 10
1.493910828364739
 20
6.677938804411406
 30
0.0
 10
1.49758966408008
 20
6.676658672285707
 30
0.0
 10
1.501414446640191
 20
6.675709340327661
 30
0.0
 10
1.505407553883764
 20
6.67524393091591
 30
0.0
 10
1.508115514014612
 20
6.675237627102855
 30
0.0
 10
1.509489659301365
 20
6.675234428254062
 30
0.0
  0
SPLINE
  5
D1
330
1F
100
AcDbEntity
  8
0
  6
Continuous
 62
     7
370
    15
100
AcDbSpline
210
0.0
220
0.0
230
1.0
 70
     8
 71
     3
 72
    23
 73
    19
 74
     0
 42
0.00000001
 43
0.00000001
 40
0.0
 40
0.0
 40
0.0
 40
0.0
 40
0.0717962848917638
 40
0.1412214965051874
 40
0.2075076918058544
 40
0.2726346914218866
 40
0.3362644651350833
 40
0.3979828693328914
 40
0.4586274778888102
 40
0.5182340657845147
 40
0.577700997019289
 40
0.6370210214204802
 40
0.6962180559615949
 40
0.7563083239243384
 40
0.8170713031307395
 40
0.877325342284209
 40
0.9383714745971261
 40
0.9999999999999999
 40
0.9999999999999999
 40
0.9999999999999999
 40
0.9999999999999999
 10
1.509489659301365
 20
6.675234428254062
 30
0.0
 10
1.511053688799091
 20
6.675321867291664
 30
0.0
 10
1.514130095699256
 20
6.675493857691468
 30
0.0
 10
1.518596933566833
 20
6.676277149362583
 30
0.0
 10
1.522824229181395
 20
6.67744039082159
 30
0.0
 10
1.526799682670933
 20
6.678974801745793
 30
0.0
 10
1.530494360664705
 20
6.680884023382712
 30
0.0
 10
1.533934800722137
 20
6.683043210016582
 30
0.0
 10
1.537043559895961
 20
6.685519447924671
 30
0.0
 10
1.539886200587352
 20
6.688224851301209
 30
0.0
 10
1.542406978402767
 20
6.69119616275411
 30
0.0
 10
1.544612161608642
 20
6.694399007040656
 30
0.0
 10
1.546444262608632
 20
6.697842064845296
 30
0.0
 10
1.548001780039807
 20
6.701452137176162
 30
0.0
 10
1.5491626431889
 20
6.705232747245515
 30
0.0
 10
1.550022873270377
 20
6.709113681019576
 30
0.0
 10
1.550430083059035
 20
6.713091722175355
 30
0.0
 10
1.550422395652122
 20
6.715767466903774
 30
0.0
 10
1.550418533700835
 20
6.717111690764164
 30
0.0
  0
SPLINE
  5
D2
330
1F
100
AcDbEntity
  8
0
  6
Continuous
 62
     7
370
    15
100
AcDbSpline
210
0.0
220
0.0
230
1.0
 70
     8
 71
     3
 72
    15
 73
    11
 74
     0
 42
0.00000001
 43
0.00000001
 40
0.0
 40
0.0
 40
0.0
 40
0.0
 40
0.1319095761279028
 40
0.2602723307926948
 40
0.3858002596064404
 40
0.5096419450429823
 40
0.630973460840365
 40
0.7510302122650729
 40
0.8732317486408969
 40
1.0
 40
1.0
 40
1.0
 40
1.0
 10
1.550418533700835
 20
6.717111690764164
 30
0.0
 10
1.550341775895175
 20
6.718725058446559
 30
0.0
 10
1.550190324169137
 20
6.721908413131249
 30
0.0
 10
1.549413358238664
 20
6.726573695932972
 30
0.0
 10
1.54832639467144
 20
6.731069220817677
 30
0.0
 10
1.546869423574811
 20
6.735372467065993
 30
0.0
 10
1.54492955739906
 20
6.739416935654621
 30
0.0
 10
1.54236841309684
 20
6.743074335522803
 30
0.0
 10
1.539238287298914
 20
6.746365545253492
 30
0.0
 10
1.536748930039247
 20
6.748131635686557
 30
0.0
 10
1.535481420958378
 20
6.749030878112628
 30
0.0
  0
LINE
  5
D3
330
1F
100
AcDbEntity
  8
0
  6
Continuous
 62
     7
370
    15
100
AcDbLine
 10
1.535481421
 20
6.7490308781
 30
0.0
 11
1.5354517838
 21
6.7494457979
 31
0.0
  0
LINE
  5
D4
330
1F
100
AcDbEntity
  8
0
  6
Continuous
 62
     7
370
    15
100
AcDbLine
 10
1.5354517838
 20
6.7494457979
 30
0.0
 11
1.5493812342
 21
6.7498903548
 31
0.0
  0
LINE
  5
D5
330
1F
100
AcDbEntity
  8
0
  6
Continuous
 62
     7
370
    15
100
AcDbLine
 10
1.5493812342
 20
6.7498903548
 30
0.0
 11
1.5446096565
 21
6.7909674149
 31
0.0
  0
LINE
  5
D6
330
1F
100
AcDbEntity
  8
0
  6
Continuous
 62
     7
370
    15
100
AcDbLine
 10
1.5797903424
 20
6.6148171773
 30
0.0
 11
1.4473420153
 21
6.5162737251
 31
0.0
  0
LINE
  5
D7
330
1F
100
AcDbEntity
  8
0
  6
Continuous
 62
     7
370
    15
100
AcDbLine
 10
1.4473420153
 20
6.5162737251
 30
0.0
 11
1.4783720888
 21
6.4816575591
 31
0.0
  0
LINE
  5
D8
330
1F
100
AcDbEntity
  8
0
  6
Continuous
 62
     7
370
    15
100
AcDbLine
 10
1.4783720888
 20
6.4816575591
 30
0.0
 11
1.6088347283
 21
6.5828090785
 31
0.0
  0
LINE
  5
D9
330
1F
100
AcDbEntity
  8
0
  6
Continuous
 62
     7
370
    15
100
AcDbLine
 10
1.6088347283
 20
6.5828090785
 30
0.0
 11
1.5797903424
 21
6.6148171773
 31
0.0
  0
SPLINE
  5
DA
330
1F
100
AcDbEntity
  8
0
  6
Continuous
 62
     7
370
    15
100
AcDbSpline
210
0.0
220
0.0
230
1.0
 70
     8
 71
     3
 72
    15
 73
    11
 74
     0
 42
0.00000001
 43
0.00000001
 40
0.0
 40
0.0
 40
0.0
 40
0.0
 40
0.1161443498385545
 40
0.2316076587840301
 40
0.3484488176273552
 40
0.4662491892137931
 40
0.5874345525208645
 40
0.715344723957845
 40
0.8529007396559585
 40
0.9999999999999999
 40
0.9999999999999999
 40
0.9999999999999999
 40
0.9999999999999999
 10
1.72613841855837
 20
6.462268623462488
 30
0.0
 10
1.727119004861905
 20
6.462951381394684
 30
0.0
 10
1.729074427560581
 20
6.464312893740417
 30
0.0
 10
1.73214766295604
 20
6.466164136555751
 30
0.0
 10
1.73535290871449
 20
6.467808425265575
 30
0.0
 10
1.738680495741496
 20
6.469340203739558
 30
0.0
 10
1.74227640888221
 20
6.470523796264667
 30
0.0
 10
1.746202878463978
 20
6.471225027427288
 30
0.0
 10
1.750452208509665
 20
6.471455073759731
 30
0.0
 10
1.753375687792551
 20
6.471260375051331
 30
0.0
 10
1.754886433161908
 20
6.471159761999664
 30
0.0
  0
SPLINE
  5
DB
330
1F
100
AcDbEntity
  8
0
  6
Continuous
 62
     7
370
    15
100
AcDbSpline
210
0.0
220
0.0
230
1.0
 70
     8
 71
     3
 72
    11
 73
     7
 74
     0
 42
0.00000001
 43
0.00000001
 40
0.0
 40
0.0
 40
0.0
 40
0.0
 40
0.2484074184170819
 40
0.5225136942395818
 40
0.7834925627577185
 40
1.0
 40
1.0
 40
1.0
 40
1.0
 10
1.754886433161908
 20
6.471159761999664
 30
0.0
 10
1.755955869509216
 20
6.471045789211366
 30
0.0
 10
1.758205380172571
 20
6.470806052640549
 30
0.0
 10
1.76152869673457
 20
6.470158878000105
 30
0.0
 10
1.764716946776459
 20
6.469401175122523
 30
0.0
 10
1.766537959369082
 20
6.468408887025546
 30
0.0
 10
1.767363664242413
 20
6.467958952126281
 30
0.0
  0
LINE
  5
DC
330
1F
100
AcDbEntity
  8
0
  6
Continuous
 62
     7
370
    15
100
AcDbLine
 10
1.7673636642
 20
6.4679589521
 30
0.0
 11
1.7018359732
 21
6.427563546
 31
0.0
  0
SPLINE
  5
DD
330
1F
100
AcDbEntity
  8
0
  6
Continuous
 62
     7
370
    15
100
AcDbSpline
210
0.0
220
0.0
230
1.0
 70
     8
 71
     3
 72
    23
 73
    19
 74
     0
 42
0.00000001
 43
0.00000001
 40
0.0
 40
0.0
 40
0.0
 40
0.0
 40
0.0634970669129428
 40
0.1257065720722357
 40
0.1869404445436057
 40
0.2476570150272002
 40
0.3080209769797881
 40
0.3686811102632873
 40
0.429652961279417
 40
0.4909752243743655
 40
0.5526910975233309
 40
0.6141327455333226
 40
0.6757401094442927
 40
0.7377444121967661
 40
0.8012414791097094
 40
0.8657231711902614
 40
0.9316318816288703
 40
1.0
 40
1.0
 40
1.0
 40
1.0
 10
1.70183597322342
 20
6.427563546039042
 30
0.0
 10
1.70233820749843
 20
6.426073732678257
 30
0.0
 10
1.703332491993103
 20
6.423124315646629
 30
0.0
 10
1.705184510158257
 20
6.41887731604931
 30
0.0
 10
1.707303087504543
 20
6.414838673371595
 30
0.0
 10
1.709634298076476
 20
6.4109702954837
 30
0.0
 10
1.712262631303
 20
6.407314519916924
 30
0.0
 10
1.715133614259577
 20
6.40383825772102
 30
0.0
 10
1.718285713025328
 20
6.400581172500633
 30
0.0
 10
1.721665085106108
 20
6.397523121116964
 30
0.0
 10
1.725264303620927
 20
6.394705401074222
 30
0.0
 10
1.729101634974429
 20
6.392206130956587
 30
0.0
 10
1.733147477032841
 20
6.390048905982169
 30
0.0
 10
1.73738218820484
 20
6.388164381474935
 30
0.0
 10
1.741821411487729
 20
6.386596102587879
 30
0.0
 10
1.746462984237211
 20
6.385365334503845
 30
0.0
 10
1.75128991438344
 20
6.38438510631807
 30
0.0
 10
1.754596038656403
 20
6.38402972619085
 30
0.0
 10
1.756279378199399
 20
6.383848781564589
 30
0.0
  0
SPLINE
  5
DE
330
1F
100
AcDbEntity
  8
0
  6
Continuous
 62
     7
370
    15
100
AcDbSpline
210
0.0
220
0.0
230
1.0
 70
     8
 71
     3
 72
    23
 73
    19
 74
     0
 42
0.00000001
 43
0.00000001
 40
0.0
 40
0.0
 40
0.0
 40
0.0
 40
0.062275358029369
 40
0.1230597667485748
 40
0.1828984152040065
 40
0.2423255782842999
 40
0.3013442224779896
 40
0.3598949135900884
 40
0.4176647112930359
 40
0.4763497984336423
 40
0.5355265145810615
 40
0.5960326608532127
 40
0.6572602215816207
 40
0.7210254238187705
 40
0.7866898144333269
 40
0.8547044126557211
 40
0.925677590279427
 40
1.0
 40
1.0
 40
1.0
 40
1.0
 10
1.756279378199399
 20
6.383848781564589
 30
0.0
 10
1.758372695893931
 20
6.383713338075778
 30
0.0
 10
1.762509214661085
 20
6.383445693783266
 30
0.0
 10
1.768675240138046
 20
6.383686058998577
 30
0.0
 10
1.774687701553307
 20
6.38452345825098
 30
0.0
 10
1.780537827012932
 20
6.385910700863548
 30
0.0
 10
1.786175421967169
 20
6.387872125155386
 30
0.0
 10
1.791542889382427
 20
6.390353931863388
 30
0.0
 10
1.796609952781621
 20
6.393382521844767
 30
0.0
 10
1.80134671412614
 20
6.396939987207408
 30
0.0
 10
1.805761010515742
 20
6.401026798845744
 30
0.0
 10
1.809785173637891
 20
6.405614651788422
 30
0.0
 10
1.813395483222332
 20
6.41072196257221
 30
0.0
 10
1.816632486393963
 20
6.416275953279975
 30
0.0
 10
1.819367410240323
 20
6.422349273289256
 30
0.0
 10
1.821528248046481
 20
6.428903130514204
 30
0.0
 10
1.823108463059378
 20
6.435923694292551
 30
0.0
 10
1.823678824915822
 20
6.44078469692566
 30
0.0
 10
1.823970579595771
 20
6.443271224121387
 30
0.0
  0
SPLINE
  5
DF
330
1F
100
AcDbEntity
  8
0
  6
Continuous
 62
     7
370
    15
100
AcDbSpline
210
0.0
220
0.0
230
1.0
 70
     8
 71
     3
 72
    23
 73
    19
 74
     0
 42
0.00000001
 43
0.00000001
 40
0.0
 40
0.0
 40
0.0
 40
0.0
 40
0.0625341282135932
 40
0.123583504215418
 40
0.1844110107298965
 40
0.2453231342458564
 40
0.3059856013580187
 40
0.3657991307190339
 40
0.4252068679696331
 40
0.4853210313856867
 40
0.5456116521800902
 40
0.6064368905489762
 40
0.6681336735908722
 40
0.7317468856811352
 40
0.7963300991729397
 40
0.8623130253214323
 40
0.9299166981907472
 40
1.0
 40
1.0
 40
1.0
 40
1.0
 10
1.823970579595771
 20
6.443271224121387
 30
0.0
 10
1.824101314382419
 20
6.445305521074626
 30
0.0
 10
1.824359679910466
 20
6.449325814525227
 30
0.0
 10
1.824013982745554
 20
6.455338626744728
 30
0.0
 10
1.823060073106646
 20
6.461224878793141
 30
0.0
 10
1.821522448773121
 20
6.46697583768723
 30
0.0
 10
1.819407592124686
 20
6.472502141627108
 30
0.0
 10
1.81683829772869
 20
6.477779005170031
 30
0.0
 10
1.81371877353165
 20
6.482730790786176
 30
0.0
 10
1.810139092295236
 20
6.487377164360645
 30
0.0
 10
1.806097401646595
 20
6.491694194271569
 30
0.0
 10
1.801598854790245
 20
6.49560987286785
 30
0.0
 10
1.796677109027001
 20
6.499166929752893
 30
0.0
 10
1.791324686241393
 20
6.502283153050078
 30
0.0
 10
1.785595774547993
 20
6.504993587374546
 30
0.0
 10
1.779460225561898
 20
6.507034716639746
 30
0.0
 10
1.772997183370924
 20
6.508593518415831
 30
0.0
 10
1.768537228155895
 20
6.509102795969646
 30
0.0
 10
1.766267090489494
 20
6.509362020581067
 30
0.0
  0
SPLINE
  5
E0
330
1F
100
AcDbEntity
  8
0
  6
Continuous
 62
     7
370
    15
100
AcDbSpline
210
0.0
220
0.0
230
1.0
 70
     8
 71
     3
 72
    15
 73
    11
 74
     0
 42
0.00000001
 43
0.00000001
 40
0.0
 40
0.0
 40
0.0
 40
0.0
 40
0.1391117520506427
 40
0.2705016425587488
 40
0.3952818062483029
 40
0.5137570696008129
 40
0.6302388483804744
 40
0.7498594802128128
 40
0.8728552575095567
 40
1.0
 40
1.0
 40
1.0
 40
1.0
 10
1.766267090489494
 20
6.509362020581067
 30
0.0
 10
1.763512456171123
 20
6.509567864004019
 30
0.0
 10
1.758156092695111
 20
6.509968124824531
 30
0.0
 10
1.750302053382798
 20
6.50992481088225
 30
0.0
 10
1.742876997047199
 20
6.509395246354664
 30
0.0
 10
1.735819380265149
 20
6.508250399366843
 30
0.0
 10
1.728980815262037
 20
6.506545314712547
 30
0.0
 10
1.722249662797666
 20
6.504175946536917
 30
0.0
 10
1.715518868188346
 20
6.501222333540552
 30
0.0
 10
1.711182611346574
 20
6.498798474626095
 30
0.0
 10
1.708978521181619
 20
6.49756644345508
 30
0.0
  0
LINE
  5
E1
330
1F
100
AcDbEntity
  8
0
  6
Continuous
 62
     7
370
    15
100
AcDbLine
 10
1.7089785212
 20
6.4975664435
 30
0.0
 11
1.7261384186
 21
6.4622686235
 31
0.0
  0
LINE
  5
E2
330
1F
100
AcDbEntity
  8
0
  6
Continuous
 62
     7
370
    15
100
AcDbLine
 10
1.9918885202
 20
6.3925357609
 30
0.0
 11
1.93048039
 21
6.5414623314
 31
0.0
  0
LINE
  5
E3
330
1F
100
AcDbEntity
  8
0
  6
Continuous
 62
     7
370
    15
100
AcDbLine
 10
1.93048039
 20
6.5414623314
 30
0.0
 11
1.8892847814
 21
6.528896189
 31
0.0
  0
LINE
  5
E4
330
1F
100
AcDbEntity
  8
0
  6
Continuous
 62
     7
370
    15
100
AcDbLine
 10
1.8892847814
 20
6.528896189
 30
0.0
 11
1.9170251337
 21
6.4598416797
 31
0.0
  0
SPLINE
  5
E5
330
1F
100
AcDbEntity
  8
0
  6
Continuous
 62
     7
370
    15
100
AcDbSpline
210
0.0
220
0.0
230
1.0
 70
     8
 71
     3
 72
    15
 73
    11
 74
     0
 42
0.00000001
 43
0.00000001
 40
0.0
 40
0.0
 40
0.0
 40
0.0
 40
0.1351648360821527
 40
0.2590250173230115
 40
0.3792902734468073
 40
0.5009681040300974
 40
0.6240251549809597
 40
0.7446582224023969
 40
0.8695530633232071
 40
1.0
 40
1.0
 40
1.0
 40
1.0
 10
1.917025133670089
 20
6.459841679654334
 30
0.0
 10
1.917238081017158
 20
6.45922578483626
 30
0.0
 10
1.917646165633412
 20
6.458045506218353
 30
0.0
 10
1.917836445065616
 20
6.456212605851995
 30
0.0
 10
1.917599760294257
 20
6.45445116326994
 30
0.0
 10
1.916925768651073
 20
6.4528120005475
 30
0.0
 10
1.915940862534078
 20
6.451347074845078
 30
0.0
 10
1.914737277591832
 20
6.450035954245019
 30
0.0
 10
1.913270054805559
 20
6.448951969953054
 30
0.0
 10
1.912146099305333
 20
6.448450483502002
 30
0.0
 10
1.911571902033954
 20
6.448194288170632
 30
0.0
  0
SPLINE
  5
E6
330
1F
100
AcDbEntity
  8
0
  6
Continuous
 62
     7
370
    15
100
AcDbSpline
210
0.0
220
0.0
230
1.0
 70
     8
 71
     3
 72
    15
 73
    11
 74
     0
 42
0.00000001
 43
0.00000001
 40
0.0
 40
0.0
 40
0.0
 40
0.0
 40
0.142384669939329
 40
0.2725091904386421
 40
0.397745586279534
 40
0.5217532320049042
 40
0.6441602260290183
 40
0.7602836988463944
 40
0.8766865548858368
 40
0.9999999999999999
 40
0.9999999999999999
 40
0.9999999999999999
 40
0.9999999999999999
 10
1.911571902033954
 20
6.448194288170632
 30
0.0
 10
1.910956241463602
 20
6.447969300607593
 30
0.0
 10
1.909777932284088
 20
6.447538698221193
 30
0.0
 10
1.907950341297071
 20
6.44734978516888
 30
0.0
 10
1.906199490968259
 20
6.447436341717917
 30
0.0
 10
1.904565536008409
 20
6.447970070936859
 30
0.0
 10
1.903082260171772
 20
6.448746878242344
 30
0.0
 10
1.901851205303637
 20
6.449825654389223
 30
0.0
 10
1.900791187833481
 20
6.451086124899389
 30
0.0
 10
1.90033632247475
 20
6.452092517676774
 30
0.0
 10
1.900102333320996
 20
6.452610220310763
 30
0.0
  0
LINE
  5
E7
330
1F
100
AcDbEntity
  8
0
  6
Continuous
 62
     7
370
    15
100
AcDbLine
 10
1.9001023333
 20
6.4526102203
 30
0.0
 11
1.8723027068
 21
6.5218425524
 31
0.0
  0
LINE
  5
E8
330
1F
100
AcDbEntity
  8
0
  6
Continuous
 62
     7
370
    15
100
AcDbLine
 10
1.8723027068
 20
6.5218425524
 30
0.0
 11
1.8336262542
 21
6.5023413219
 31
0.0
  0
LINE
  5
E9
330
1F
100
AcDbEntity
  8
0
  6
Continuous
 62
     7
370
    15
100
AcDbLine
 10
1.8336262542
 20
6.5023413219
 30
0.0
 11
1.8619889861
 21
6.4284559606
 31
0.0
  0
SPLINE
  5
EA
330
1F
100
AcDbEntity
  8
0
  6
Continuous
 62
     7
370
    15
100
AcDbSpline
210
0.0
220
0.0
230
1.0
 70
     8
 71
     3
 72
    23
 73
    19
 74
     0
 42
0.00000001
 43
0.00000001
 40
0.0
 40
0.0
 40
0.0
 40
0.0
 40
0.0692216061993988
 40
0.1365518957866225
 40
0.2026564889491036
 40
0.2670659968347848
 40
0.3301874822852417
 40
0.3915450491543214
 40
0.4509867129995937
 40
0.5096546124501173
 40
0.5676162692731817
 40
0.6252390682177579
 40
0.683157707777973
 40
0.7424494302496943
 40
0.8033585233905299
 40
0.8662067747680577
 40
0.9314347662010203
 40
1.0
 40
1.0
 40
1.0
 40
1.0
 10
1.861988986124965
 20
6.4284559606181
 30
0.0
 10
1.862512429430399
 20
6.427153084844914
 30
0.0
 10
1.863545014191403
 20
6.424582931296464
 30
0.0
 10
1.865422327732115
 20
6.420919671932144
 30
0.0
 10
1.867560703918123
 20
6.417521672712089
 30
0.0
 10
1.869890796679259
 20
6.414353850093319
 30
0.0
 10
1.872483580573288
 20
6.411528155651629
 30
0.0
 10
1.87519211023163
 20
6.408957159998838
 30
0.0
 10
1.878100491941154
 20
6.406759320093042
 30
0.0
 10
1.881119755120391
 20
6.404846588256531
 30
0.0
 10
1.884298796065507
 20
6.403281479525131
 30
0.0
 10
1.887645651907029
 20
6.402170064699385
 30
0.0
 10
1.89110816907075
 20
6.401385602101564
 30
0.0
 10
1.894708403792434
 20
6.400989518058029
 30
0.0
 10
1.898427217618314
 20
6.401071525605798
 30
0.0
 10
1.902238629226166
 20
6.401533637723841
 30
0.0
 10
1.906117076709839
 20
6.402504817835307
 30
0.0
 10
1.908665501606444
 20
6.403438124868083
 30
0.0
 10
1.909971497097262
 20
6.403916418255492
 30
0.0
  0
SPLINE
  5
EB
330
1F
100
AcDbEntity
  8
0
  6
Continuous
 62
     7
370
    15
100
AcDbSpline
210
0.0
220
0.0
230
1.0
 70
     8
 71
     3
 72
    15
 73
    11
 74
     0
 42
0.00000001
 43
0.00000001
 40
0.0
 40
0.0
 40
0.0
 40
0.0
 40
0.1321661904621312
 40
0.2593635132191619
 40
0.3811313023994012
 40
0.500898702103445
 40
0.6202114879416879
 40
0.7413739591605063
 40
0.8679305940819979
 40
1.0
 40
1.0
 40
1.0
 40
1.0
 10
1.909971497097262
 20
6.403916418255492
 30
0.0
 10
1.911229447419629
 20
6.404452464123747
 30
0.0
 10
1.913698054662702
 20
6.405504402892288
 30
0.0
 10
1.91710169688428
 20
6.407509606801869
 30
0.0
 10
1.92018955533595
 20
6.409751719672566
 30
0.0
 10
1.922978390135772
 20
6.412241698914332
 30
0.0
 10
1.925408405340565
 20
6.415081091921378
 30
0.0
 10
1.927435336795495
 20
6.418300990790376
 30
0.0
 10
1.929105304776202
 20
6.421868361067122
 30
0.0
 10
1.929897848554177
 20
6.424424190537047
 30
0.0
 10
1.930302567218939
 20
6.425729344800032
 30
0.0
  0
LINE
  5
EC
330
1F
100
AcDbEntity
  8
0
  6
Continuous
 62
     7
370
    15
100
AcDbLine
 10
1.9303025672
 20
6.4257293448
 30
0.0
 11
1.9306878499
 21
6.4258775304
 31
0.0
  0
LINE
  5
ED
330
1F
100
AcDbEntity
  8
0
  6
Continuous
 62
     7
370
    15
100
AcDbLine
 10
1.9306878499
 20
6.4258775304
 30
0.0
 11
1.9507521859
 21
6.3720565052
 31
0.0
  0
LINE
  5
EE
330
1F
100
AcDbEntity
  8
0
  6
Continuous
 62
     7
370
    15
100
AcDbLine
 10
1.9507521859
 20
6.3720565052
 30
0.0
 11
1.9918885202
 21
6.3925357609
 31
0.0
  0
LINE
  5
EF
330
1F
100
AcDbEntity
  8
0
  6
Continuous
 62
     7
370
    15
100
AcDbLine
 10
2.1064183565
 20
6.569227749
 30
0.0
 11
2.1302169707
 21
6.6083487585
 31
0.0
  0
LINE
  5
F0
330
1F
100
AcDbEntity
  8
0
  6
Continuous
 62
     7
370
    15
100
AcDbLine
 10
2.1302169707
 20
6.6083487585
 30
0.0
 11
2.0135355959
 21
6.6535453794
 31
0.0
  0
LINE
  5
F1
330
1F
100
AcDbEntity
  8
0
  6
Continuous
 62
     7
370
    15
100
AcDbLine
 10
2.0135355959
 20
6.6535453794
 30
0.0
 11
1.991870855
 21
6.6177140911
 31
0.0
  0
LINE
  5
F2
330
1F
100
AcDbEntity
  8
0
  6
Continuous
 62
     7
370
    15
100
AcDbLine
 10
1.991870855
 20
6.6177140911
 30
0.0
 11
2.0284430715
 21
6.5768741281
 31
0.0
  0
LINE
  5
F3
330
1F
100
AcDbEntity
  8
0
  6
Continuous
 62
     7
370
    15
100
AcDbLine
 10
2.0284430715
 20
6.5768741281
 30
0.0
 11
2.0282059745
 21
6.5765481197
 31
0.0
  0
LINE
  5
F4
330
1F
100
AcDbEntity
  8
0
  6
Continuous
 62
     7
370
    15
100
AcDbLine
 10
2.0282059745
 20
6.5765481197
 30
0.0
 11
1.975481523
 21
6.600613468
 31
0.0
  0
LINE
  5
F5
330
1F
100
AcDbEntity
  8
0
  6
Continuous
 62
     7
370
    15
100
AcDbLine
 10
1.975481523
 20
6.600613468
 30
0.0
 11
1.9534018623
 21
6.5645747198
 31
0.0
  0
LINE
  5
F6
330
1F
100
AcDbEntity
  8
0
  6
Continuous
 62
     7
370
    15
100
AcDbLine
 10
1.9534018623
 20
6.5645747198
 30
0.0
 11
2.0302212993
 21
6.4702101028
 31
0.0
  0
LINE
  5
F7
330
1F
100
AcDbEntity
  8
0
  6
Continuous
 62
     7
370
    15
100
AcDbLine
 10
2.0302212993
 20
6.4702101028
 30
0.0
 11
2.059236048
 21
6.5040260664
 31
0.0
  0
LINE
  5
F8
330
1F
100
AcDbEntity
  8
0
  6
Continuous
 62
     7
370
    15
100
AcDbLine
 10
2.059236048
 20
6.5040260664
 30
0.0
 11
2.0195815701
 21
6.5475926452
 31
0.0
  0
LINE
  5
F9
330
1F
100
AcDbEntity
  8
0
  6
Continuous
 62
     7
370
    15
100
AcDbLine
 10
2.0195815701
 20
6.5475926452
 30
0.0
 11
2.0198186672
 21
6.5479186536
 31
0.0
  0
LINE
  5
FA
330
1F
100
AcDbEntity
  8
0
  6
Continuous
 62
     7
370
    15
100
AcDbLine
 10
2.0198186672
 20
6.5479186536
 30
0.0
 11
2.0720689246
 21
6.5249202419
 31
0.0
  0
LINE
  5
FB
330
1F
100
AcDbEntity
  8
0
  6
Continuous
 62
     7
370
    15
100
AcDbLine
 10
2.0720689246
 20
6.5249202419
 30
0.0
 11
2.0888731765
 21
6.5522753115
 31
0.0
  0
LINE
  5
FC
330
1F
100
AcDbEntity
  8
0
  6
Continuous
 62
     7
370
    15
100
AcDbLine
 10
2.0888731765
 20
6.5522753115
 30
0.0
 11
2.0529233397
 21
6.5926114433
 31
0.0
  0
LINE
  5
FD
330
1F
100
AcDbEntity
  8
0
  6
Continuous
 62
     7
370
    15
100
AcDbLine
 10
2.0529233397
 20
6.5926114433
 30
0.0
 11
2.0531604367
 21
6.5929374517
 31
0.0
  0
LINE
  5
FE
330
1F
100
AcDbEntity
  8
0
  6
Continuous
 62
     7
370
    15
100
AcDbLine
 10
2.0531604367
 20
6.5929374517
 30
0.0
 11
2.1064183565
 21
6.569227749
 31
0.0
  0
SPLINE
  5
FF
330
1F
100
AcDbEntity
  8
0
  6
Continuous
 62
     7
370
    15
100
AcDbSpline
210
0.0
220
0.0
230
1.0
 70
     8
 71
     3
 72
    15
 73
    11
 74
     0
 42
0.00000001
 43
0.00000001
 40
0.0
 40
0.0
 40
0.0
 40
0.0
 40
0.1296017617789179
 40
0.2499014500719798
 40
0.3690078379582032
 40
0.495399245059517
 40
0.6247289561930093
 40
0.7494998936194487
 40
0.8728830423725467
 40
1.0
 40
1.0
 40
1.0
 40
1.0
 10
1.503732038698276
 20
6.876393453076795
 30
0.0
 10
1.503158365063878
 20
6.876701104754646
 30
0.0
 10
1.502052192808686
 20
6.877294326631858
 30
0.0
 10
1.500755577902597
 20
6.878635340223011
 30
0.0
 10
1.499752100272462
 20
6.880181535476138
 30
0.0
 10
1.499226487434299
 20
6.882001120372939
 30
0.0
 10
1.499033175746936
 20
6.883897014721827
 30
0.0
 10
1.499117515609478
 20
6.885786830101968
 30
0.0
 10
1.499501026105065
 20
6.887633534213372
 30
0.0
 10
1.499987828397963
 20
6.888788450130217
 30
0.0
 10
1.500234857540319
 20
6.889374515341073
 30
0.0
  0
SPLINE
  5
100
330
1F
100
AcDbEntity
  8
0
  6
Continuous
 62
     7
370
    15
100
AcDbSpline
210
0.0
220
0.0
230
1.0
 70
     8
 71
     3
 72
    15
 73
    11
 74
     0
 42
0.00000001
 43
0.00000001
 40
0.0
 40
0.0
 40
0.0
 40
0.0
 40
0.1362665742364301
 40
0.2657626538191492
 40
0.3937108840922804
 40
0.521675167088673
 40
0.6460249203296681
 40
0.7642091636455719
 40
0.8791688713432069
 40
1.0
 40
1.0
 40
1.0
 40
1.0
 10
1.500234857540319
 20
6.889374515341073
 30
0.0
 10
1.500550547074272
 20
6.88996084435836
 30
0.0
 10
1.501166240899382
 20
6.891104370248834
 30
0.0
 10
1.502419798012469
 20
6.892572844204652
 30
0.0
 10
1.503841679752793
 20
6.893815513731276
 30
0.0
 10
1.505474050755931
 20
6.89471672028874
 30
0.0
 10
1.507182677422396
 20
6.895333747143292
 30
0.0
 10
1.508932872631801
 20
6.895527012078632
 30
0.0
 10
1.510662971205006
 20
6.895253797118942
 30
0.0
 10
1.511704276937128
 20
6.894756552044288
 30
0.0
 10
1.512237894565508
 20
6.894501738564178
 30
0.0
  0
LINE
  5
101
330
1F
100
AcDbEntity
  8
0
  6
Continuous
 62
     7
370
    15
100
AcDbLine
 10
1.4732947078
 20
6.8899079837
 30
0.0
 11
1.4729390622
 21
6.8891670554
 31
0.0
  0
SPLINE
  5
102
330
1F
100
AcDbEntity
  8
0
  6
Continuous
 62
     7
370
    15
100
AcDbSpline
210
0.0
220
0.0
230
1.0
 70
     8
 71
     3
 72
    23
 73
    19
 74
     0
 42
0.00000001
 43
0.00000001
 40
0.0
 40
0.0
 40
0.0
 40
0.0
 40
0.0776549147449846
 40
0.1514723806843031
 40
0.2222739294550266
 40
0.2905040440745084
 40
0.3565392783472604
 40
0.4197627211456671
 40
0.481337621522147
 40
0.5413003178844671
 40
0.6003650851838529
 40
0.6582109358928848
 40
0.7157190478211487
 40
0.7735072436468992
 40
0.8308084846652273
 40
0.8874744727750011
 40
0.9434812682394926
 40
1.0
 40
1.0
 40
1.0
 40
1.0
 10
1.562969064925542
 20
6.956600649550601
 30
0.0
 10
1.564367265643944
 20
6.95467665826423
 30
0.0
 10
1.567094572630068
 20
6.950923752971377
 30
0.0
 10
1.571670534060911
 20
6.945872498943085
 30
0.0
 10
1.576438335963509
 20
6.941419835989827
 30
0.0
 10
1.581467316614228
 20
6.93764204116477
 30
0.0
 10
1.58665242214217
 20
6.934519635117665
 30
0.0
 10
1.591897166735579
 20
6.931929231619302
 30
0.0
 10
1.597213484576977
 20
6.929969143333381
 30
0.0
 10
1.602577946654422
 20
6.92859587843254
 30
0.0
 10
1.607942454090572
 20
6.927797990320645
 30
0.0
 10
1.613281845121594
 20
6.92753594802763
 30
0.0
 10
1.618586483950222
 20
6.927753912685561
 30
0.0
 10
1.623816762951439
 20
6.928567341323284
 30
0.0
 10
1.628918352109618
 20
6.929869290603233
 30
0.0
 10
1.633816319241763
 20
6.931646030738488
 30
0.0
 10
1.6384927799961
 20
6.933902462899614
 30
0.0
 10
1.641387287877307
 20
6.935774073565002
 30
0.0
 10
1.642841126117846
 20
6.936714136355783
 30
0.0
  0
LINE
  5
103
330
1F
100
AcDbEntity
  8
0
  6
Continuous
 62
     7
370
    15
100
AcDbLine
 10
1.839564944
 20
6.9871802021
 30
0.0
 11
1.880879101
 21
6.9842164893
 31
0.0
  0
SPLINE
  5
104
330
1F
100
AcDbEntity
  8
0
  6
Continuous
 62
     7
370
    15
100
AcDbSpline
210
0.0
220
0.0
230
1.0
 70
     8
 71
     3
 72
    19
 73
    15
 74
     0
 42
0.00000001
 43
0.00000001
 40
0.0
 40
0.0
 40
0.0
 40
0.0
 40
0.1501991384187408
 40
0.2869929161307521
 40
0.4121358192525778
 40
0.526370527004283
 40
0.5809972068754882
 40
0.6335601636104309
 40
0.6868481608952652
 40
0.7410184001962661
 40
0.7986374230030708
 40
0.8607581218104101
 40
0.9272795285716838
 40
1.0
 40
1.0
 40
1.0
 40
1.0
 10
1.827947189605855
 20
7.084212160702996
 30
0.0
 10
1.829484517651657
 20
7.083934208081788
 30
0.0
 10
1.832421966318533
 20
7.08340311027293
 30
0.0
 10
1.836544710682836
 20
7.082195336588213
 30
0.0
 10
1.840147665675814
 20
7.080656406283506
 30
0.0
 10
1.842805517289762
 20
7.079118271965894
 30
0.0
 10
1.84459291518201
 20
7.077653938854191
 30
0.0
 10
1.845681071245248
 20
7.076378166697562
 30
0.0
 10
1.846547880242988
 20
7.074949021151174
 30
0.0
 10
1.847173025538305
 20
7.073342528633499
 30
0.0
 10
1.847582819544045
 20
7.071576407551808
 30
0.0
 10
1.847787396408761
 20
7.069646277555086
 30
0.0
 10
1.847755015305764
 20
7.067546823689687
 30
0.0
 10
1.84755360742322
 20
7.066112195832559
 30
0.0
 10
1.847448420130729
 20
7.065362947004181
 30
0.0
  0
LINE
  5
105
330
1F
100
AcDbEntity
  8
0
  6
Continuous
 62
     7
370
    15
100
AcDbLine
 10
1.8413135345
 20
7.0010503783
 30
0.0
 11
1.8417284543
 21
7.000991104
 31
0.0
  0
ENDSEC
  0
SECTION
  2
OBJECTS
  0
DICTIONARY
  5
C
330
0
100
AcDbDictionary
281
     1
  3
ACAD_GROUP
350
D
  3
ACAD_LAYOUT
350
1A
  3
ACAD_MLINESTYLE
350
17
  3
ACAD_PLOTSETTINGS
350
19
  3
ACAD_PLOTSTYLENAME
350
E
  0
DICTIONARY
  5
D
102
{ACAD_REACTORS
330
C
102
}
330
C
100
AcDbDictionary
281
     1
  0
DICTIONARY
  5
1A
102
{ACAD_REACTORS
330
C
102
}
330
C
100
AcDbDictionary
281
     1
  3
Layout1
350
1E
  3
Layout2
350
26
  3
Model
350
22
  0
DICTIONARY
  5
17
102
{ACAD_REACTORS
330
C
102
}
330
C
100
AcDbDictionary
281
     1
  3
Standard
350
18
  0
DICTIONARY
  5
19
102
{ACAD_REACTORS
330
C
102
}
330
C
100
AcDbDictionary
281
     1
  0
ACDBDICTIONARYWDFLT
  5
E
102
{ACAD_REACTORS
330
C
102
}
330
C
100
AcDbDictionary
281
     1
  3
Normal
350
F
100
AcDbDictionaryWithDefault
340
F
  0
LAYOUT
  5
1E
102
{ACAD_REACTORS
330
1A
102
}
330
1A
100
AcDbPlotSettings
  1

  2
none_device
  4

  6

 40
0.0
 41
0.0
 42
0.0
 43
0.0
 44
0.0
 45
0.0
 46
0.0
 47
0.0
 48
0.0
 49
0.0
140
0.0
141
0.0
142
1.0
143
1.0
 70
   688
 72
     0
 73
     0
 74
     5
  7

 75
    16
147
1.0
148
0.0
149
0.0
100
AcDbLayout
  1
Layout1
 70
     1
 71
     1
 10
0.0
 20
0.0
 11
12.0
 21
9.0
 12
0.0
 22
0.0
 32
0.0
 14
1.0000000000E+20
 24
1.0000000000E+20
 34
1.0000000000E+20
 15
-1.0000000000E+20
 25
-1.0000000000E+20
 35
-1.0000000000E+20
146
0.0
 13
0.0
 23
0.0
 33
0.0
 16
1.0
 26
0.0
 36
0.0
 17
0.0
 27
1.0
 37
0.0
 76
     0
330
1B
  0
LAYOUT
  5
26
102
{ACAD_REACTORS
330
1A
102
}
330
1A
100
AcDbPlotSettings
  1

  2
none_device
  4

  6

 40
0.0
 41
0.0
 42
0.0
 43
0.0
 44
0.0
 45
0.0
 46
0.0
 47
0.0
 48
0.0
 49
0.0
140
0.0
141
0.0
142
1.0
143
1.0
 70
   688
 72
     0
 73
     0
 74
     5
  7

 75
    16
147
1.0
148
0.0
149
0.0
100
AcDbLayout
  1
Layout2
 70
     1
 71
     2
 10
0.0
 20
0.0
 11
0.0
 21
0.0
 12
0.0
 22
0.0
 32
0.0
 14
0.0
 24
0.0
 34
0.0
 15
0.0
 25
0.0
 35
0.0
146
0.0
 13
0.0
 23
0.0
 33
0.0
 16
1.0
 26
0.0
 36
0.0
 17
0.0
 27
1.0
 37
0.0
 76
     0
330
23
  0
LAYOUT
  5
22
102
{ACAD_REACTORS
330
1A
102
}
330
1A
100
AcDbPlotSettings
  1

  2
none_device
  4

  6

 40
0.0
 41
0.0
 42
0.0
 43
0.0
 44
0.0
 45
0.0
 46
0.0
 47
0.0
 48
0.0
 49
0.0
140
0.0
141
0.0
142
1.0
143
1.0
 70
  1712
 72
     0
 73
     0
 74
     0
  7

 75
     0
147
1.0
148
0.0
149
0.0
100
AcDbLayout
  1
Model
 70
     1
 71
     0
 10
0.0
 20
0.0
 11
11.0
 21
8.5
 12
0.0
 22
0.0
 32
0.0
 14
0.0
 24
0.0
 34
0.0
 15
11.0
 25
8.5
 35
0.0
146
0.0
 13
0.0
 23
0.0
 33
0.0
 16
1.0
 26
0.0
 36
0.0
 17
0.0
 27
1.0
 37
0.0
 76
     0
330
1F
331
29
  0
MLINESTYLE
  5
18
102
{ACAD_REACTORS
330
17
102
}
330
17
100
AcDbMlineStyle
  2
Standard
 70
     0
  3

 62
   256
 51
90.0
 52
90.0
 71
     2
 49
0.5
 62
   256
  6
BYLAYER
 49
-0.5
 62
   256
  6
BYLAYER
  0
ACDBPLACEHOLDER
  5
F
102
{ACAD_REACTORS
330
E
102
}
330
E
  0
ENDSEC
  0
EOF
