  0
SECTION
  2
HEADER
  9
$ACADVER
  1
AC1015
  9
$ACADMAINTVER
 70
     6
  9
$DWGCODEPAGE
  3
ANSI_1252
  9
$INSBASE
 10
0.0
 20
0.0
 30
0.0
  9
$EXTMIN
 10
0.0
 20
0.0
 30
0.0
  9
$EXTMAX
 10
11.0
 20
8.5
 30
0.0
  9
$LIMMIN
 10
0.0
 20
0.0
  9
$LIMMAX
 10
11.0
 20
8.5
  9
$ORTHOMODE
 70
     0
  9
$REGENMODE
 70
     1
  9
$FILLMODE
 70
     1
  9
$QTEXTMODE
 70
     0
  9
$MIRRTEXT
 70
     1
  9
$LTSCALE
 40
1.0
  9
$ATTMODE
 70
     1
  9
$TEXTSIZE
 40
0.1377952756
  9
$TRACEWID
 40
0.05
  9
$TEXTSTYLE
  7
Standard
  9
$CLAYER
  8
0
  9
$CELTYPE
  6
ByLayer
  9
$CECOLOR
 62
   256
  9
$CELTSCALE
 40
1.0
  9
$DISPSILH
 70
     0
  9
$DIMSCALE
 40
1.0
  9
$DIMASZ
 40
0.2362204724
  9
$DIMEXO
 40
0.0393700787
  9
$DIMDLI
 40
0.38
  9
$DIMRND
 40
0.0
  9
$DIMDLE
 40
0.0
  9
$DIMEXE
 40
0.0393700787
  9
$DIMTP
 40
0.0
  9
$DIMTM
 40
0.0
  9
$DIMTXT
 40
0.1377952756
  9
$DIMCEN
 40
0.09
  9
$DIMTSZ
 40
0.0
  9
$DIMTOL
 70
     0
  9
$DIMLIM
 70
     0
  9
$DIMTIH
 70
     1
  9
$DIMTOH
 70
     1
  9
$DIMSE1
 70
     0
  9
$DIMSE2
 70
     0
  9
$DIMTAD
 70
     1
  9
$DIMZIN
 70
     0
  9
$DIMBLK
  1

  9
$DIMASO
 70
     1
  9
$DIMSHO
 70
     1
  9
$DIMPOST
  1

  9
$DIMAPOST
  1

  9
$DIMALT
 70
     0
  9
$DIMALTD
 70
     2
  9
$DIMALTF
 40
25.4
  9
$DIMLFAC
 40
0.5
  9
$DIMTOFL
 70
     0
  9
$DIMTVP
 40
0.0
  9
$DIMTIX
 70
     0
  9
$DIMSOXD
 70
     0
  9
$DIMSAH
 70
     0
  9
$DIMBLK1
  1

  9
$DIMBLK2
  1

  9
$DIMSTYLE
  2
Standard
  9
$DIMCLRD
 70
     0
  9
$DIMCLRE
 70
     0
  9
$DIMCLRT
 70
     0
  9
$DIMTFAC
 40
1.0
  9
$DIMGAP
 40
0.06
  9
$DIMJUST
 70
     0
  9
$DIMSD1
 70
     0
  9
$DIMSD2
 70
     0
  9
$DIMTOLJ
 70
     1
  9
$DIMTZIN
 70
     0
  9
$DIMALTZ
 70
     0
  9
$DIMALTTZ
 70
     0
  9
$DIMUPT
 70
     0
  9
$DIMDEC
 70
     2
  9
$DIMTDEC
 70
     2
  9
$DIMALTU
 70
     2
  9
$DIMALTTD
 70
     2
  9
$DIMTXSTY
  7
Standard
  9
$DIMAUNIT
 70
     0
  9
$DIMADEC
 70
     2
  9
$DIMALTRND
 40
0.0
  9
$DIMAZIN
 70
     0
  9
$DIMDSEP
 70
    46
  9
$DIMATFIT
 70
     3
  9
$DIMFRAC
 70
     0
  9
$DIMLDRBLK
  1

  9
$DIMLUNIT
 70
     2
  9
$DIMLWD
 70
    -2
  9
$DIMLWE
 70
    -2
  9
$DIMTMOVE
 70
     0
  9
$LUNITS
 70
     2
  9
$LUPREC
 70
     2
  9
$SKETCHINC
 40
0.1
  9
$FILLETRAD
 40
0.5
  9
$AUNITS
 70
     0
  9
$AUPREC
 70
     2
  9
$MENU
  1
.
  9
$ELEVATION
 40
0.0
  9
$PELEVATION
 40
0.0
  9
$THICKNESS
 40
0.0
  9
$LIMCHECK
 70
     0
  9
$CHAMFERA
 40
0.5
  9
$CHAMFERB
 40
0.5
  9
$CHAMFERC
 40
1.0
  9
$CHAMFERD
 40
0.0
  9
$SKPOLY
 70
     0
  9
$TDCREATE
 40
2455853.614258611
  9
$TDUCREATE
 40
2455853.780925278
  9
$TDUPDATE
 40
2455853.614258623
  9
$TDUUPDATE
 40
2455853.780925289
  9
$TDINDWG
 40
0.0000000116
  9
$TDUSRTIMER
 40
0.0000000116
  9
$USRTIMER
 70
     1
  9
$ANGBASE
 50
0.0
  9
$ANGDIR
 70
     0
  9
$PDMODE
 70
     0
  9
$PDSIZE
 40
-1.0
  9
$PLINEWID
 40
0.0
  9
$SPLFRAME
 70
     0
  9
$SPLINETYPE
 70
     6
  9
$SPLINESEGS
 70
     8
  9
$HANDSEED
  5
84
  9
$SURFTAB1
 70
     6
  9
$SURFTAB2
 70
     6
  9
$SURFTYPE
 70
     6
  9
$SURFU
 70
     6
  9
$SURFV
 70
     6
  9
$UCSBASE
  2

  9
$UCSNAME
  2

  9
$UCSORG
 10
0.0
 20
0.0
 30
0.0
  9
$UCSXDIR
 10
1.0
 20
0.0
 30
0.0
  9
$UCSYDIR
 10
0.0
 20
1.0
 30
0.0
  9
$UCSORTHOREF
  2

  9
$UCSORTHOVIEW
 70
     0
  9
$UCSORGTOP
 10
0.0
 20
0.0
 30
0.0
  9
$UCSORGBOTTOM
 10
0.0
 20
0.0
 30
0.0
  9
$UCSORGLEFT
 10
0.0
 20
0.0
 30
0.0
  9
$UCSORGRIGHT
 10
0.0
 20
0.0
 30
0.0
  9
$UCSORGFRONT
 10
0.0
 20
0.0
 30
0.0
  9
$UCSORGBACK
 10
0.0
 20
0.0
 30
0.0
  9
$PUCSBASE
  2

  9
$PUCSNAME
  2

  9
$PUCSORG
 10
0.0
 20
0.0
 30
0.0
  9
$PUCSXDIR
 10
1.0
 20
0.0
 30
0.0
  9
$PUCSYDIR
 10
0.0
 20
1.0
 30
0.0
  9
$PUCSORTHOREF
  2

  9
$PUCSORTHOVIEW
 70
     0
  9
$PUCSORGTOP
 10
0.0
 20
0.0
 30
0.0
  9
$PUCSORGBOTTOM
 10
0.0
 20
0.0
 30
0.0
  9
$PUCSORGLEFT
 10
0.0
 20
0.0
 30
0.0
  9
$PUCSORGRIGHT
 10
0.0
 20
0.0
 30
0.0
  9
$PUCSORGFRONT
 10
0.0
 20
0.0
 30
0.0
  9
$PUCSORGBACK
 10
0.0
 20
0.0
 30
0.0
  9
$USERI1
 70
     0
  9
$USERI2
 70
     0
  9
$USERI3
 70
     0
  9
$USERI4
 70
     0
  9
$USERI5
 70
     0
  9
$USERR1
 40
0.0
  9
$USERR2
 40
0.0
  9
$USERR3
 40
0.0
  9
$USERR4
 40
0.0
  9
$USERR5
 40
0.0
  9
$WORLDVIEW
 70
     1
  9
$SHADEDGE
 70
     3
  9
$SHADEDIF
 70
    70
  9
$TILEMODE
 70
     1
  9
$MAXACTVP
 70
    64
  9
$PINSBASE
 10
0.0
 20
0.0
 30
0.0
  9
$PLIMCHECK
 70
     0
  9
$PEXTMIN
 10
1.0000000000E+20
 20
1.0000000000E+20
 30
1.0000000000E+20
  9
$PEXTMAX
 10
-1.0000000000E+20
 20
-1.0000000000E+20
 30
-1.0000000000E+20
  9
$PLIMMIN
 10
0.0
 20
0.0
  9
$PLIMMAX
 10
12.0
 20
9.0
  9
$UNITMODE
 70
     0
  9
$VISRETAIN
 70
     1
  9
$PLINEGEN
 70
     0
  9
$PSLTSCALE
 70
     1
  9
$TREEDEPTH
 70
  3020
  9
$CMLSTYLE
  2
Standard
  9
$CMLJUST
 70
     0
  9
$CMLSCALE
 40
1.0
  9
$PROXYGRAPHICS
 70
     1
  9
$MEASUREMENT
 70
     0
  9
$CELWEIGHT
370
    -1
  9
$ENDCAPS
280
     0
  9
$JOINSTYLE
280
     0
  9
$LWDISPLAY
290
     1
  9
$INSUNITS
 70
     1
  9
$HYPERLINKBASE
  1

  9
$STYLESHEET
  1

  9
$XEDIT
290
     1
  9
$CEPSNTYPE
380
     0
  9
$PSTYLEMODE
290
     1
  9
$FINGERPRINTGUID
  2
{73E936E8-1931-4632-A582-6F95135B72BD}
  9
$VERSIONGUID
  2
{FAEB1C32-E019-11D5-929B-00C0DF256EC4}
  9
$EXTNAMES
290
     1
  9
$PSVPSCALE
 40
0.0
  9
$OLESTARTUP
290
     0
  0
ENDSEC
  0
SECTION
  2
CLASSES
  0
CLASS
  1
ACDBDICTIONARYWDFLT
  2
AcDbDictionaryWithDefault
  3
ObjectDBX Classes
 90
        0
280
     0
281
     0
  0
CLASS
  1
VISUALSTYLE
  2
AcDbVisualStyle
  3
ObjectDBX Classes
 90
     4095
280
     0
281
     0
  0
CLASS
  1
MATERIAL
  2
AcDbMaterial
  3
ObjectDBX Classes
 90
     1153
280
     0
281
     0
  0
CLASS
  1
ACDBPLACEHOLDER
  2
AcDbPlaceHolder
  3
ObjectDBX Classes
 90
        0
280
     0
281
     0
  0
CLASS
  1
LAYOUT
  2
AcDbLayout
  3
ObjectDBX Classes
 90
        0
280
     0
281
     0
  0
ENDSEC
  0
SECTION
  2
TABLES
  0
TABLE
  2
VPORT
  5
8
330
0
100
AcDbSymbolTable
 70
     1
  0
VPORT
  5
29
330
8
100
AcDbSymbolTableRecord
100
AcDbViewportTableRecord
  2
*Active
 70
     0
 10
0.0
 20
0.0
 11
1.0
 21
1.0
 12
5.5
 22
4.25
 13
0.0
 23
0.0
 14
0.5
 24
0.5
 15
0.5
 25
0.5
 16
0.0
 26
0.0
 36
1.0
 17
0.0
 27
0.0
 37
0.0
 40
8.5
 41
1.2941176471
 42
50.0
 43
0.0
 44
0.0
 50
0.0
 51
0.0
 71
     0
 72
  2000
 73
     1
 74
     3
 75
     0
 76
     0
 77
     0
 78
     0
281
     0
 65
     1
110
0.0
120
0.0
130
0.0
111
1.0
121
0.0
131
0.0
112
0.0
122
1.0
132
0.0
 79
     0
146
0.0
  0
ENDTAB
  0
TABLE
  2
LTYPE
  5
5
330
0
100
AcDbSymbolTable
 70
     6
  0
LTYPE
  5
14
330
5
100
AcDbSymbolTableRecord
100
AcDbLinetypeTableRecord
  2
ByBlock
 70
     0
  3

 72
    65
 73
     0
 40
0.0
  0
LTYPE
  5
15
330
5
100
AcDbSymbolTableRecord
100
AcDbLinetypeTableRecord
  2
ByLayer
 70
     0
  3

 72
    65
 73
     0
 40
0.0
  0
LTYPE
  5
16
330
5
100
AcDbSymbolTableRecord
100
AcDbLinetypeTableRecord
  2
Continuous
 70
     0
  3
Solid line
 72
    65
 73
     0
 40
0.0
  0
LTYPE
  5
3F
330
5
100
AcDbSymbolTableRecord
100
AcDbLinetypeTableRecord
  2
HIDDEN
 70
     0
  3
Hidden __ __ __ __ __ __ __ __ __ __ __ __ __ __
 72
    65
 73
     2
 40
0.075
 49
0.05
 74
     0
 49
-0.025
 74
     0
  0
LTYPE
  5
40
330
5
100
AcDbSymbolTableRecord
100
AcDbLinetypeTableRecord
  2
PHANTOM
 70
     0
  3
Phantom ______  __  __  ______  __  __  ______
 72
    65
 73
     6
 40
0.5
 49
0.25
 74
     0
 49
-0.05
 74
     0
 49
0.05
 74
     0
 49
-0.05
 74
     0
 49
0.05
 74
     0
 49
-0.05
 74
     0
  0
LTYPE
  5
41
330
5
100
AcDbSymbolTableRecord
100
AcDbLinetypeTableRecord
  2
CENTER
 70
     0
  3
Center ____ _ ____ _ ____ _ ____ _ ____ _ ____
 72
    65
 73
     4
 40
0.4
 49
0.25
 74
     0
 49
-0.05
 74
     0
 49
0.05
 74
     0
 49
-0.05
 74
     0
  0
LTYPE
  5
42
330
5
100
AcDbSymbolTableRecord
100
AcDbLinetypeTableRecord
  2
CENTERX2
 70
     0
  3
Center (2x) ________  __  ________  __  _____
 72
    65
 73
     4
 40
0.8
 49
0.5
 74
     0
 49
-0.1
 74
     0
 49
0.1
 74
     0
 49
-0.1
 74
     0
  0
LTYPE
  5
43
330
5
100
AcDbSymbolTableRecord
100
AcDbLinetypeTableRecord
  2
DOT2
 70
     0
  3
Dot (.5x) ........................................
 72
    65
 73
     2
 40
0.025
 49
0.0
 74
     0
 49
-0.025
 74
     0
  0
ENDTAB
  0
TABLE
  2
LAYER
  5
2
330
0
100
AcDbSymbolTable
 70
     1
  0
LAYER
  5
10
330
2
100
AcDbSymbolTableRecord
100
AcDbLayerTableRecord
  2
0
 70
     0
 62
     7
  6
Continuous
370
    -3
390
F
  0
ENDTAB
  0
TABLE
  2
STYLE
  5
3
330
0
100
AcDbSymbolTable
 70
     1
  0
STYLE
  5
11
330
3
100
AcDbSymbolTableRecord
100
AcDbTextStyleTableRecord
  2
Standard
 70
     0
 40
0.0
 41
1.0
 50
0.0
 71
     0
 42
0.2
  3
txt
  4

  0
ENDTAB
  0
TABLE
  2
VIEW
  5
6
330
0
100
AcDbSymbolTable
 70
     0
  0
ENDTAB
  0
TABLE
  2
UCS
  5
7
330
0
100
AcDbSymbolTable
 70
     0
  0
ENDTAB
  0
TABLE
  2
APPID
  5
9
330
0
100
AcDbSymbolTable
 70
     1
  0
APPID
  5
12
330
9
100
AcDbSymbolTableRecord
100
AcDbRegAppTableRecord
  2
ACAD
 70
     0
  0
ENDTAB
  0
TABLE
  2
DIMSTYLE
  5
A
330
0
100
AcDbSymbolTable
 70
     1
100
AcDbDimStyleTable
  0
DIMSTYLE
105
27
330
A
100
AcDbSymbolTableRecord
100
AcDbDimStyleTableRecord
  2
Standard
 70
     0
178
     0
340
11
  0
ENDTAB
  0
TABLE
  2
BLOCK_RECORD
  5
1
330
0
100
AcDbSymbolTable
 70
     1
  0
BLOCK_RECORD
  5
1F
330
1
100
AcDbSymbolTableRecord
100
AcDbBlockTableRecord
  2
*Model_Space
340
22
  0
BLOCK_RECORD
  5
1B
330
1
100
AcDbSymbolTableRecord
100
AcDbBlockTableRecord
  2
*Paper_Space
340
1E
  0
BLOCK_RECORD
  5
23
330
1
100
AcDbSymbolTableRecord
100
AcDbBlockTableRecord
  2
*Paper_Space0
340
26
  0
ENDTAB
  0
ENDSEC
  0
SECTION
  2
BLOCKS
  0
BLOCK
  5
20
330
1F
100
AcDbEntity
  8
0
100
AcDbBlockBegin
  2
*Model_Space
 70
     0
 10
0.0
 20
0.0
 30
0.0
  3
*Model_Space
  1

  0
ENDBLK
  5
21
330
1F
100
AcDbEntity
  8
0
100
AcDbBlockEnd
  0
BLOCK
  5
1C
330
1B
100
AcDbEntity
 67
     1
  8
0
100
AcDbBlockBegin
  2
*Paper_Space
 70
     0
 10
0.0
 20
0.0
 30
0.0
  3
*Paper_Space
  1

  0
ENDBLK
  5
1D
330
1B
100
AcDbEntity
 67
     1
  8
0
100
AcDbBlockEnd
  0
BLOCK
  5
24
330
23
100
AcDbEntity
  8
0
100
AcDbBlockBegin
  2
*Paper_Space0
 70
     0
 10
0.0
 20
0.0
 30
0.0
  3
*Paper_Space0
  1

  0
ENDBLK
  5
25
330
23
100
AcDbEntity
  8
0
100
AcDbBlockEnd
  0
ENDSEC
  0
SECTION
  2
ENTITIES
  0
SPLINE
  5
44
330
1F
100
AcDbEntity
  8
0
  6
Continuous
 62
     7
370
    15
100
AcDbSpline
210
0.0
220
0.0
230
1.0
 70
     8
 71
     3
 72
    13
 73
     9
 74
     0
 42
0.00000001
 43
0.00000001
 40
0.0
 40
0.0
 40
0.0
 40
0.0
 40
0.2036084190785696
 40
0.3997079367717946
 40
0.5042395276065658
 40
0.6412013717493191
 40
0.8038705913657124
 40
1.0
 40
1.0
 40
1.0
 40
1.0
 10
2.244704513619824
 20
6.747037228118014
 30
0.0
 10
2.243788451250313
 20
6.74672583679707
 30
0.0
 10
2.241990110094636
 20
6.746114537996235
 30
0.0
 10
2.239792437255765
 20
6.74513865630456
 30
0.0
 10
2.238019485997131
 20
6.744045338821692
 30
0.0
 10
2.236494034260912
 20
6.742874918303895
 30
0.0
 10
2.234704511833192
 20
6.74134009144051
 30
0.0
 10
2.233500716912461
 20
6.740131625168357
 30
0.0
 10
2.232842688794931
 20
6.739471043558926
 30
0.0
  0
SPLINE
  5
45
330
1F
100
AcDbEntity
  8
0
  6
Continuous
 62
     7
370
    15
100
AcDbSpline
210
0.0
220
0.0
230
1.0
 70
     8
 71
     3
 72
    17
 73
    13
 74
     0
 42
0.00000001
 43
0.00000001
 40
0.0
 40
0.0
 40
0.0
 40
0.0
 40
0.1258371711302734
 40
0.2521846586427728
 40
0.3773068932293951
 40
0.5023990936738212
 40
0.6254928392550886
 40
0.7482886013399168
 40
0.8100221591838097
 40
0.8715957359214985
 40
0.9348029275545395
 40
1.0
 40
1.0
 40
1.0
 40
1.0
 10
2.232842688794931
 20
6.739471043558926
 30
0.0
 10
2.231409533714042
 20
6.737910128252378
 30
0.0
 10
2.228537411577076
 20
6.734781967549012
 30
0.0
 10
2.225436538154156
 20
6.729201328747231
 30
0.0
 10
2.223189566581328
 20
6.723271345410438
 30
0.0
 10
2.222056048687377
 20
6.717064914552108
 30
0.0
 10
2.222106678957784
 20
6.71080814462098
 30
0.0
 10
2.223107776926442
 20
6.705690092811052
 30
0.0
 10
2.224696293878123
 20
6.701866774362599
 30
0.0
 10
2.226154987852033
 20
6.69908929565821
 30
0.0
 10
2.228026933267742
 20
6.696491457628875
 30
0.0
 10
2.229505036909902
 20
6.694920434788552
 30
0.0
 10
2.230255541816662
 20
6.694122750298329
 30
0.0
  0
LINE
  5
46
330
1F
100
AcDbEntity
  8
0
  6
Continuous
 62
     7
370
    15
100
AcDbLine
 10
2.2532957942
 20
6.6848480725
 30
0.0
 11
2.2447045136
 21
6.7470372281
 31
0.0
  0
SPLINE
  5
47
330
1F
100
AcDbEntity
  8
0
  6
Continuous
 62
     7
370
    15
100
AcDbSpline
210
0.0
220
0.0
230
1.0
 70
     8
 71
     3
 72
    13
 73
     9
 74
     0
 42
0.00000001
 43
0.00000001
 40
0.0
 40
0.0
 40
0.0
 40
0.0
 40
0.2592041681427072
 40
0.4952994540995906
 40
0.6103278691071277
 40
0.7325358180980575
 40
0.8616493393638429
 40
1.0
 40
1.0
 40
1.0
 40
1.0
 10
2.230255541816662
 20
6.694122750298329
 30
0.0
 10
2.231901175152491
 20
6.692619249829229
 30
0.0
 10
2.235045728338978
 20
6.689746290775677
 30
0.0
 10
2.239549424184548
 20
6.686953214464414
 30
0.0
 10
2.243377701964839
 20
6.685547464746676
 30
0.0
 10
2.246459507030134
 20
6.684855592098671
 30
0.0
 10
2.249813508936972
 20
6.684625031115651
 30
0.0
 10
2.252108611206297
 20
6.684772033054036
 30
0.0
 10
2.253295794151433
 20
6.684848072451706
 30
0.0
  0
SPLINE
  5
48
330
1F
100
AcDbEntity
  8
0
  6
Continuous
 62
     7
370
    15
100
AcDbSpline
210
0.0
220
0.0
230
1.0
 70
     8
 71
     3
 72
    13
 73
     9
 74
     0
 42
0.00000001
 43
0.00000001
 40
0.0
 40
0.0
 40
0.0
 40
0.0
 40
0.2036084190785662
 40
0.3997079367717958
 40
0.5042395276065641
 40
0.6412013717493175
 40
0.8038705913657107
 40
1.0
 40
1.0
 40
1.0
 40
1.0
 10
2.503166138561019
 20
6.488575603176818
 30
0.0
 10
2.502250076191509
 20
6.488264211855875
 30
0.0
 10
2.500451735035831
 20
6.487652913055038
 30
0.0
 10
2.498254062196962
 20
6.486677031363364
 30
0.0
 10
2.496481110938328
 20
6.485583713880496
 30
0.0
 10
2.494955659202108
 20
6.484413293362699
 30
0.0
 10
2.493166136774388
 20
6.482878466499314
 30
0.0
 10
2.491962341853657
 20
6.481670000227163
 30
0.0
 10
2.491304313736127
 20
6.48100941861773
 30
0.0
  0
LINE
  5
49
330
1F
100
AcDbEntity
  8
0
  6
Continuous
 62
     7
370
    15
100
AcDbLine
 10
2.5117574191
 20
6.4263864475
 30
0.0
 11
2.5031661386
 21
6.4885756032
 31
0.0
  0
SPLINE
  5
4A
330
1F
100
AcDbEntity
  8
0
  6
Continuous
 62
     7
370
    15
100
AcDbSpline
210
0.0
220
0.0
230
1.0
 70
     8
 71
     3
 72
    13
 73
     9
 74
     0
 42
0.00000001
 43
0.00000001
 40
0.0
 40
0.0
 40
0.0
 40
0.0
 40
0.2592041681427069
 40
0.495299454099592
 40
0.6103278691071281
 40
0.7325358180980591
 40
0.861649339363843
 40
1.0
 40
1.0
 40
1.0
 40
1.0
 10
2.488717166757858
 20
6.435661125357133
 30
0.0
 10
2.490362800093687
 20
6.434157624888033
 30
0.0
 10
2.493507353280174
 20
6.431284665834481
 30
0.0
 10
2.498011049125744
 20
6.428491589523218
 30
0.0
 10
2.501839326906035
 20
6.42708583980548
 30
0.0
 10
2.50492113197133
 20
6.426393967157475
 30
0.0
 10
2.508275133878168
 20
6.426163406174455
 30
0.0
 10
2.510570236147494
 20
6.426310408112839
 30
0.0
 10
2.511757419092629
 20
6.426386447510509
 30
0.0
  0
SPLINE
  5
4B
330
1F
100
AcDbEntity
  8
0
  6
Continuous
 62
     7
370
    15
100
AcDbSpline
210
0.0
220
0.0
230
1.0
 70
     8
 71
     3
 72
    17
 73
    13
 74
     0
 42
0.00000001
 43
0.00000001
 40
0.0
 40
0.0
 40
0.0
 40
0.0
 40
0.1258371711302729
 40
0.2521846586427726
 40
0.3773068932293955
 40
0.5023990936738213
 40
0.6254928392550894
 40
0.7482886013399168
 40
0.8100221591838099
 40
0.8715957359214985
 40
0.9348029275545394
 40
1.0
 40
1.0
 40
1.0
 40
1.0
 10
2.491304313736127
 20
6.48100941861773
 30
0.0
 10
2.489871158655238
 20
6.479448503311181
 30
0.0
 10
2.486999036518272
 20
6.476320342607816
 30
0.0
 10
2.483898163095352
 20
6.470739703806035
 30
0.0
 10
2.481651191522524
 20
6.464809720469241
 30
0.0
 10
2.480517673628573
 20
6.458603289610911
 30
0.0
 10
2.480568303898981
 20
6.452346519679784
 30
0.0
 10
2.481569401867638
 20
6.447228467869856
 30
0.0
 10
2.483157918819319
 20
6.443405149421403
 30
0.0
 10
2.484616612793229
 20
6.440627670717014
 30
0.0
 10
2.486488558208939
 20
6.438029832687679
 30
0.0
 10
2.487966661851099
 20
6.436458809847356
 30
0.0
 10
2.488717166757858
 20
6.435661125357133
 30
0.0
  0
LINE
  5
4C
330
1F
100
AcDbEntity
  8
0
  6
Continuous
 62
     7
370
    15
100
AcDbLine
 10
2.599027242
 20
6.2986985549
 30
0.0
 11
2.5985879151
 21
6.2991378817
 31
0.0
  0
SPLINE
  5
4D
330
1F
100
AcDbEntity
  8
0
  6
Continuous
 62
     7
370
    15
100
AcDbSpline
210
0.0
220
0.0
230
1.0
 70
     8
 71
     3
 72
    23
 73
    19
 74
     0
 42
0.00000001
 43
0.00000001
 40
0.0
 40
0.0
 40
0.0
 40
0.0
 40
0.0739158782374829
 40
0.1445292419473653
 40
0.2112022941529129
 40
0.2762921841259075
 40
0.3379592059753554
 40
0.3976111807100663
 40
0.4562899468936479
 40
0.5135749261154664
 40
0.5707142372676158
 40
0.6275699768869848
 40
0.6847092880391338
 40
0.7440854385425991
 40
0.8041256447148865
 40
0.8666831084097167
 40
0.9318583011880888
 40
1.0
 40
1.0
 40
1.0
 40
1.0
 10
2.608301919800581
 20
6.236704655584885
 30
0.0
 10
2.607134420788133
 20
6.2379300051976
 30
0.0
 10
2.604851585878138
 20
6.240325956580024
 30
0.0
 10
2.601720674874356
 20
6.244016154011731
 30
0.0
 10
2.598997834903797
 20
6.247771664322459
 30
0.0
 10
2.596686090957785
 20
6.251551655584314
 30
0.0
 10
2.594675667681703
 20
6.255323961375085
 30
0.0
 10
2.593180376040427
 20
6.2591716107333
 30
0.0
 10
2.591990555258563
 20
6.263016335136204
 30
0.0
 10
2.591200869739673
 20
6.266907591888234
 30
0.0
 10
2.590811260246466
 20
6.270815879070704
 30
0.0
 10
2.590808417252458
 20
6.274740904770693
 30
0.0
 10
2.59121434722856
 20
6.278695429942586
 30
0.0
 10
2.591984932240478
 20
6.282669373120036
 30
0.0
 10
2.593178533640831
 20
6.286668445008398
 30
0.0
 10
2.594769975565203
 20
6.290664260942044
 30
0.0
 10
2.596638669076553
 20
6.294748468207506
 30
0.0
 10
2.598219326971144
 20
6.297362470792526
 30
0.0
 10
2.599027241953958
 20
6.298698554875473
 30
0.0
  0
SPLINE
  5
4E
330
1F
100
AcDbEntity
  8
0
  6
Continuous
 62
     7
370
    15
100
AcDbSpline
210
0.0
220
0.0
230
1.0
 70
     8
 71
     3
 72
     9
 73
     5
 74
     0
 42
0.00000001
 43
0.00000001
 40
0.0
 40
0.0
 40
0.0
 40
0.0
 40
0.4869255120257112
 40
1.0
 40
1.0
 40
1.0
 40
1.0
 10
2.621140026504066
 20
6.225330971699289
 30
0.0
 10
2.618961796337395
 20
6.22707016365672
 30
0.0
 10
2.614488360230896
 20
6.230641946022763
 30
0.0
 10
2.610399704662724
 20
6.234648827118379
 30
0.0
 10
2.608301919800581
 20
6.236704655584885
 30
0.0
  0
LINE
  5
4F
330
1F
100
AcDbEntity
  8
0
  6
Continuous
 62
     7
370
    15
100
AcDbLine
 10
2.6593614621
 20
6.2882523388
 30
0.0
 11
2.6211400265
 21
6.2253309717
 31
0.0
  0
SPLINE
  5
50
330
1F
100
AcDbEntity
  8
0
  6
Continuous
 62
     7
370
    15
100
AcDbSpline
210
0.0
220
0.0
230
1.0
 70
     8
 71
     3
 72
     9
 73
     5
 74
     0
 42
0.00000001
 43
0.00000001
 40
0.0
 40
0.0
 40
0.0
 40
0.0
 40
0.5126900040744733
 40
1.0
 40
1.0
 40
1.0
 40
1.0
 10
2.655553962724432
 20
6.291571697161753
 30
0.0
 10
2.656180073673784
 20
6.290976195310162
 30
0.0
 10
2.657401300817627
 20
6.289814671100879
 30
0.0
 10
2.65871922461205
 20
6.288764229477668
 30
0.0
 10
2.659361462050941
 20
6.28825233877454
 30
0.0
  0
LINE
  5
51
330
1F
100
AcDbEntity
  8
0
  6
Continuous
 62
     7
370
    15
100
AcDbLine
 10
2.6508189956
 20
6.2963066643
 30
0.0
 11
2.6555539627
 21
6.2915716972
 31
0.0
  0
SPLINE
  5
52
330
1F
100
AcDbEntity
  8
0
  6
Continuous
 62
     7
370
    15
100
AcDbSpline
210
0.0
220
0.0
230
1.0
 70
     8
 71
     3
 72
    19
 73
    15
 74
     0
 42
0.00000001
 43
0.00000001
 40
0.0
 40
0.0
 40
0.0
 40
0.0
 40
0.0822349515820662
 40
0.1588906960962545
 40
0.231244066261458
 40
0.2989760756954386
 40
0.3631026968211027
 40
0.4247785562777177
 40
0.4848523207184824
 40
0.5442237177061424
 40
0.659042291415276
 40
0.7703612075387894
 40
0.8830936448564394
 40
1.0
 40
1.0
 40
1.0
 40
1.0
 10
2.653454956685459
 20
6.347854347462579
 30
0.0
 10
2.652351025699141
 20
6.346695683614623
 30
0.0
 10
2.650218059612535
 20
6.344456965140282
 30
0.0
 10
2.647337926473303
 20
6.34098896319034
 30
0.0
 10
2.645016865820132
 20
6.337460861618458
 30
0.0
 10
2.643063547195143
 20
6.333992891431516
 30
0.0
 10
2.64164239333674
 20
6.330494049693622
 30
0.0
 10
2.640654841037807
 20
6.327008402871707
 30
0.0
 10
2.640087615258524
 20
6.323516600227724
 30
0.0
 10
2.640068125509627
 20
6.318946420523678
 30
0.0
 10
2.640834046525018
 20
6.313407432022191
 30
0.0
 10
2.642979731371656
 20
6.307135828620898
 30
0.0
 10
2.646275412539483
 20
6.301312792853156
 30
0.0
 10
2.649286226390784
 20
6.297995472353891
 30
0.0
 10
2.650818995613261
 20
6.296306664272924
 30
0.0
  0
LINE
  5
53
330
1F
100
AcDbEntity
  8
0
  6
Continuous
 62
     7
370
    15
100
AcDbLine
 10
2.7144725741
 20
6.4088719649
 30
0.0
 11
2.6534549567
 21
6.3478543475
 31
0.0
  0
LINE
  5
54
330
1F
100
AcDbEntity
  8
0
  6
Continuous
 62
     7
370
    15
100
AcDbLine
 10
2.6688802104
 20
6.4629579809
 30
0.0
 11
2.7144725741
 21
6.4088719649
 31
0.0
  0
LINE
  5
55
330
1F
100
AcDbEntity
  8
0
  6
Continuous
 62
     7
370
    15
100
AcDbLine
 10
2.5282956198
 20
6.3253022361
 30
0.0
 11
2.6688802104
 21
6.4629579809
 31
0.0
  0
LINE
  5
56
330
1F
100
AcDbEntity
  8
0
  6
Continuous
 62
     7
370
    15
100
AcDbLine
 10
2.5722283044
 20
6.272778271
 30
0.0
 11
2.5282956198
 21
6.3253022361
 31
0.0
  0
LINE
  5
57
330
1F
100
AcDbEntity
  8
0
  6
Continuous
 62
     7
370
    15
100
AcDbLine
 10
2.5985879151
 20
6.2991378817
 30
0.0
 11
2.5722283044
 21
6.272778271
 31
0.0
  0
LINE
  5
58
330
1F
100
AcDbEntity
  8
0
  6
Continuous
 62
     7
370
    15
100
AcDbLine
 10
2.4115901237
 20
6.6186171241
 30
0.0
 11
2.4111019827
 21
6.619105265
 31
0.0
  0
LINE
  5
59
330
1F
100
AcDbEntity
  8
0
  6
Continuous
 62
     7
370
    15
100
AcDbLine
 10
2.3334875734
 20
6.5091759255
 30
0.0
 11
2.4115901237
 21
6.6186171241
 31
0.0
  0
LINE
  5
5A
330
1F
100
AcDbEntity
  8
0
  6
Continuous
 62
     7
370
    15
100
AcDbLine
 10
2.3890380123
 20
6.4617286262
 30
0.0
 11
2.3334875734
 21
6.5091759255
 31
0.0
  0
LINE
  5
5B
330
1F
100
AcDbEntity
  8
0
  6
Continuous
 62
     7
370
    15
100
AcDbLine
 10
2.4932561028
 20
6.6314552308
 30
0.0
 11
2.3890380123
 21
6.4617286262
 31
0.0
  0
LINE
  5
5C
330
1F
100
AcDbEntity
  8
0
  6
Continuous
 62
     7
370
    15
100
AcDbLine
 10
2.428919127
 20
6.7038953462
 30
0.0
 11
2.4932561028
 21
6.6314552308
 31
0.0
  0
LINE
  5
5D
330
1F
100
AcDbEntity
  8
0
  6
Continuous
 62
     7
370
    15
100
AcDbLine
 10
2.2568006318
 20
6.5939660066
 30
0.0
 11
2.428919127
 21
6.7038953462
 31
0.0
  0
LINE
  5
5E
330
1F
100
AcDbEntity
  8
0
  6
Continuous
 62
     7
370
    15
100
AcDbLine
 10
2.3038086043
 20
6.5388548946
 30
0.0
 11
2.2568006318
 21
6.5939660066
 31
0.0
  0
LINE
  5
5F
330
1F
100
AcDbEntity
  8
0
  6
Continuous
 62
     7
370
    15
100
AcDbLine
 10
2.4111019827
 20
6.619105265
 30
0.0
 11
2.3038086043
 21
6.5388548946
 31
0.0
  0
LINE
  5
60
330
1F
100
AcDbEntity
  8
0
  6
Continuous
 62
     7
370
    15
100
AcDbLine
 10
2.2514333076
 20
6.8737661669
 30
0.0
 11
2.06247395
 21
6.680511169
 31
0.0
  0
LINE
  5
61
330
1F
100
AcDbEntity
  8
0
  6
Continuous
 62
     7
370
    15
100
AcDbLine
 10
2.2058409439
 20
6.9279498112
 30
0.0
 11
2.2514333076
 21
6.8737661669
 31
0.0
  0
LINE
  5
62
330
1F
100
AcDbEntity
  8
0
  6
Continuous
 62
     7
370
    15
100
AcDbLine
 10
2.0130252729
 20
6.7384534985
 30
0.0
 11
2.2058409439
 21
6.9279498112
 31
0.0
  0
LINE
  5
63
330
1F
100
AcDbEntity
  8
0
  6
Continuous
 62
     7
370
    15
100
AcDbLine
 10
2.2617381974
 20
7.1882403433
 30
0.0
 11
1.7617381974
 21
7.1882403433
 31
0.0
  0
LINE
  5
64
330
1F
100
AcDbEntity
  8
0
  6
Continuous
 62
     7
370
    15
100
AcDbLine
 10
2.2617381974
 20
7.0632403433
 30
0.0
 11
2.2617381974
 21
7.1882403433
 31
0.0
  0
LINE
  5
65
330
1F
100
AcDbEntity
  8
0
  6
Continuous
 62
     7
370
    15
100
AcDbLine
 10
2.5117381974
 20
7.0632403433
 30
0.0
 11
2.2617381974
 21
7.0632403433
 31
0.0
  0
LINE
  5
66
330
1F
100
AcDbEntity
  8
0
  6
Continuous
 62
     7
370
    15
100
AcDbLine
 10
2.5117381974
 20
7.1882403433
 30
0.0
 11
2.5117381974
 21
7.0632403433
 31
0.0
  0
LINE
  5
67
330
1F
100
AcDbEntity
  8
0
  6
Continuous
 62
     7
370
    15
100
AcDbLine
 10
3.0117381974
 20
7.1882403433
 30
0.0
 11
2.5117381974
 21
7.1882403433
 31
0.0
  0
LINE
  5
68
330
1F
100
AcDbEntity
  8
0
  6
Continuous
 62
     7
370
    15
100
AcDbLine
 10
3.0117381974
 20
6.6882403433
 30
0.0
 11
3.0117381974
 21
7.1882403433
 31
0.0
  0
LINE
  5
69
330
1F
100
AcDbEntity
  8
0
  6
Continuous
 62
     7
370
    15
100
AcDbLine
 10
2.8867381974
 20
6.6882403433
 30
0.0
 11
3.0117381974
 21
6.6882403433
 31
0.0
  0
LINE
  5
6A
330
1F
100
AcDbEntity
  8
0
  6
Continuous
 62
     7
370
    15
100
AcDbLine
 10
2.8867381974
 20
6.4382403433
 30
0.0
 11
2.8867381974
 21
6.6882403433
 31
0.0
  0
LINE
  5
6B
330
1F
100
AcDbEntity
  8
0
  6
Continuous
 62
     7
370
    15
100
AcDbLine
 10
3.0117381974
 20
6.4382403433
 30
0.0
 11
2.8867381974
 21
6.4382403433
 31
0.0
  0
LINE
  5
6C
330
1F
100
AcDbEntity
  8
0
  6
Continuous
 62
     7
370
    15
100
AcDbLine
 10
3.0117381974
 20
5.9382403433
 30
0.0
 11
3.0117381974
 21
6.4382403433
 31
0.0
  0
LINE
  5
6D
330
1F
100
AcDbEntity
  8
0
  6
Continuous
 62
     7
370
    15
100
AcDbLine
 10
1.7617381974
 20
5.9382403433
 30
0.0
 11
3.0117381974
 21
5.9382403433
 31
0.0
  0
LINE
  5
6E
330
1F
100
AcDbEntity
  8
0
  6
Continuous
 62
     7
370
    15
100
AcDbLine
 10
1.7617381974
 20
6.4382403433
 30
0.0
 11
1.7617381974
 21
5.9382403433
 31
0.0
  0
LINE
  5
6F
330
1F
100
AcDbEntity
  8
0
  6
Continuous
 62
     7
370
    15
100
AcDbLine
 10
1.8867381974
 20
6.4382403433
 30
0.0
 11
1.7617381974
 21
6.4382403433
 31
0.0
  0
LINE
  5
70
330
1F
100
AcDbEntity
  8
0
  6
Continuous
 62
     7
370
    15
100
AcDbLine
 10
1.8867381974
 20
6.6882403433
 30
0.0
 11
1.8867381974
 21
6.4382403433
 31
0.0
  0
LINE
  5
71
330
1F
100
AcDbEntity
  8
0
  6
Continuous
 62
     7
370
    15
100
AcDbLine
 10
1.7617381974
 20
6.6882403433
 30
0.0
 11
1.8867381974
 21
6.6882403433
 31
0.0
  0
LINE
  5
72
330
1F
100
AcDbEntity
  8
0
  6
Continuous
 62
     7
370
    15
100
AcDbLine
 10
1.7617381974
 20
7.1882403433
 30
0.0
 11
1.7617381974
 21
6.6882403433
 31
0.0
  0
SPLINE
  5
73
330
1F
100
AcDbEntity
  8
0
  6
Continuous
 62
     7
370
    15
100
AcDbSpline
210
0.0
220
0.0
230
1.0
 70
     8
 71
     3
 72
    23
 73
    19
 74
     0
 42
0.00000001
 43
0.00000001
 40
0.0
 40
0.0
 40
0.0
 40
0.0
 40
0.0622177747891723
 40
0.1232499884962947
 40
0.1832047973747148
 40
0.2426371654525858
 40
0.3017354750949818
 40
0.3598856519782658
 40
0.4179876014621003
 40
0.4766656636884954
 40
0.5359504504800576
 40
0.5958986838842111
 40
0.6574233861817246
 40
0.7210962029859478
 40
0.7868862838017168
 40
0.8547159604113584
 40
0.9256367977281391
 40
1.0
 40
1.0
 40
1.0
 40
1.0
 10
2.189886286136885
 20
6.65277721273996
 30
0.0
 10
2.187526702052332
 20
6.655256505525441
 30
0.0
 10
2.182852495810423
 20
6.660167848117245
 30
0.0
 10
2.176762864388194
 20
6.668216722325846
 30
0.0
 10
2.171503433153827
 20
6.676640462567397
 30
0.0
 10
2.16713985939921
 20
6.685448614332826
 30
0.0
 10
2.163731488621242
 20
6.694561208854412
 30
0.0
 10
2.1612622409289
 20
6.703897130670251
 30
0.0
 10
2.159797882409077
 20
6.713419272396838
 30
0.0
 10
2.159301818722816
 20
6.723103092214261
 30
0.0
 10
2.159846373079671
 20
6.732887159084393
 30
0.0
 10
2.161428100111769
 20
6.742715271748225
 30
0.0
 10
2.164048305184197
 20
6.752566623931222
 30
0.0
 10
2.167656732101364
 20
6.762441096841933
 30
0.0
 10
2.172371962810249
 20
6.772235796732227
 30
0.0
 10
2.178430164196882
 20
6.781730505459018
 30
0.0
 10
2.185546816130619
 20
6.791063795484058
 30
0.0
 10
2.191064719473379
 20
6.796845774794085
 30
0.0
 10
2.193889041839112
 20
6.799805263655909
 30
0.0
  0
SPLINE
  5
74
330
1F
100
AcDbEntity
  8
0
  6
Continuous
 62
     7
370
    15
100
AcDbSpline
210
0.0
220
0.0
230
1.0
 70
     8
 71
     3
 72
    23
 73
    19
 74
     0
 42
0.00000001
 43
0.00000001
 40
0.0
 40
0.0
 40
0.0
 40
0.0
 40
0.0634958845685501
 40
0.1257255999592703
 40
0.1867534085915088
 40
0.2474569573664784
 40
0.3080748157921085
 40
0.3685303340112673
 40
0.4295501569751011
 40
0.4910512466030559
 40
0.552558938956847
 40
0.6142538537177543
 40
0.6757747493973081
 40
0.7379587676396951
 40
0.8012047305139269
 40
0.8659545693029242
 40
0.9318581708190732
 40
1.0
 40
1.0
 40
1.0
 40
1.0
 10
2.301475304859946
 20
6.630029844968768
 30
0.0
 10
2.299077361478373
 20
6.629122399917272
 30
0.0
 10
2.294329292018989
 20
6.627325605143808
 30
0.0
 10
2.287097956097721
 20
6.62515965675751
 30
0.0
 10
2.279827872649721
 20
6.623613645790699
 30
0.0
 10
2.272542751803086
 20
6.622516814078633
 30
0.0
 10
2.265215971794976
 20
6.62198482103795
 30
0.0
 10
2.257858472099783
 20
6.621984700431466
 30
0.0
 10
2.250483810056605
 20
6.62252246960869
 30
0.0
 10
2.243128409955598
 20
6.623602562994357
 30
0.0
 10
2.235828854106725
 20
6.625176107103377
 30
0.0
 10
2.228726487327347
 20
6.627473899249423
 30
0.0
 10
2.221733206101543
 20
6.630165789698647
 30
0.0
 10
2.215002120174103
 20
6.633599722838147
 30
0.0
 10
2.208364542404121
 20
6.637474641929878
 30
0.0
 10
2.202015488829113
 20
6.642065744900534
 30
0.0
 10
2.1957325061551
 20
6.647073232831064
 30
0.0
 10
2.191856598836487
 20
6.650854838279581
 30
0.0
 10
2.189886286136885
 20
6.65277721273996
 30
0.0
  0
LINE
  5
75
330
1F
100
AcDbEntity
  8
0
  6
Continuous
 62
     7
370
    15
100
AcDbLine
 10
2.283902231
 20
6.7544081563
 30
0.0
 11
2.3014753049
 21
6.630029845
 31
0.0
  0
SPLINE
  5
76
330
1F
100
AcDbEntity
  8
0
  6
Continuous
 62
     7
370
    15
100
AcDbSpline
210
0.0
220
0.0
230
1.0
 70
     8
 71
     3
 72
    11
 73
     7
 74
     0
 42
0.00000001
 43
0.00000001
 40
0.0
 40
0.0
 40
0.0
 40
0.0
 40
0.2490329127016092
 40
0.5235715842276377
 40
0.7846105172135307
 40
1.0
 40
1.0
 40
1.0
 40
1.0
 10
2.30098716392065
 20
6.742107004631124
 30
0.0
 10
2.299717619257321
 20
6.743330286877301
 30
0.0
 10
2.297048504145524
 20
6.745902138993714
 30
0.0
 10
2.292732812980398
 20
6.749374684194981
 30
0.0
 10
2.288502894956034
 20
6.75266997869295
 30
0.0
 10
2.285334594420499
 20
6.753866994852898
 30
0.0
 10
2.28390223104529
 20
6.754408156301383
 30
0.0
  0
SPLINE
  5
77
330
1F
100
AcDbEntity
  8
0
  6
Continuous
 62
     7
370
    15
100
AcDbSpline
210
0.0
220
0.0
230
1.0
 70
     8
 71
     3
 72
    13
 73
     9
 74
     0
 42
0.00000001
 43
0.00000001
 40
0.0
 40
0.0
 40
0.0
 40
0.0
 40
0.232420015330857
 40
0.4663553125331935
 40
0.5869687688839194
 40
0.7158678049806156
 40
0.8517823460486027
 40
1.0
 40
1.0
 40
1.0
 40
1.0
 10
2.319731775989615
 20
6.696709897276598
 30
0.0
 10
2.319358370541783
 20
6.700597706133121
 30
0.0
 10
2.318609125197841
 20
6.708398670743557
 30
0.0
 10
2.316169232298365
 20
6.717985759317185
 30
0.0
 10
2.313338907091078
 20
6.72561102897821
 30
0.0
 10
2.310104640860463
 20
6.731242320796065
 30
0.0
 10
2.30600067827053
 20
6.736850338401546
 30
0.0
 10
2.302705890865414
 20
6.740304920652124
 30
0.0
 10
2.30098716392065
 20
6.742107004631124
 30
0.0
  0
LINE
  5
78
330
1F
100
AcDbEntity
  8
0
  6
Continuous
 62
     7
370
    15
100
AcDbLine
 10
2.3819209317
 20
6.7119398946
 30
0.0
 11
2.319731776
 21
6.6967098973
 31
0.0
  0
SPLINE
  5
79
330
1F
100
AcDbEntity
  8
0
  6
Continuous
 62
     7
370
    15
100
AcDbSpline
210
0.0
220
0.0
230
1.0
 70
     8
 71
     3
 72
    15
 73
    11
 74
     0
 42
0.00000001
 43
0.00000001
 40
0.0
 40
0.0
 40
0.0
 40
0.0
 40
0.1392088733661578
 40
0.2711636733169927
 40
0.3958122060655343
 40
0.5141885701981838
 40
0.630494739740692
 40
0.7499402186542515
 40
0.8726080072129491
 40
1.0
 40
1.0
 40
1.0
 40
1.0
 10
2.337060779334622
 20
6.796241834799048
 30
0.0
 10
2.340198676116971
 20
6.792997196378418
 30
0.0
 10
2.346310956156428
 20
6.786676995291743
 30
0.0
 10
2.354463018104594
 20
6.776750736486481
 30
0.0
 10
2.361489255537697
 20
6.76681982976667
 30
0.0
 10
2.36744128506031
 20
6.756792724792716
 30
0.0
 10
2.372417167231468
 20
6.746428333294172
 30
0.0
 10
2.376415610545901
 20
6.735508869803673
 30
0.0
 10
2.379777954640751
 20
6.723993807447559
 30
0.0
 10
2.381197665450361
 20
6.71600815465181
 30
0.0
 10
2.381920931655923
 20
6.711939894582633
 30
0.0
  0
SPLINE
  5
7A
330
1F
100
AcDbEntity
  8
0
  6
Continuous
 62
     7
370
    15
100
AcDbSpline
210
0.0
220
0.0
230
1.0
 70
     8
 71
     3
 72
    23
 73
    19
 74
     0
 42
0.00000001
 43
0.00000001
 40
0.0
 40
0.0
 40
0.0
 40
0.0
 40
0.0624051986935108
 40
0.1236833211093332
 40
0.1844702528177287
 40
0.2454172557228312
 40
0.3059129788480707
 40
0.3660452397328116
 40
0.4253484074600055
 40
0.4853777554693438
 40
0.5457866952290794
 40
0.6065720857452861
 40
0.6682646454591834
 40
0.7317828225929633
 40
0.7965396404591906
 40
0.8623120292472587
 40
0.9300180424484098
 40
1.0
 40
1.0
 40
1.0
 40
1.0
 10
2.193889041839112
 20
6.799805263655909
 30
0.0
 10
2.196300172870769
 20
6.802087904840029
 30
0.0
 10
2.201078888424417
 20
6.806611961304291
 30
0.0
 10
2.209011977464214
 20
6.812419785294289
 30
0.0
 10
2.217393622438177
 20
6.817387013774386
 30
0.0
 10
2.226219467621781
 20
6.821427822979231
 30
0.0
 10
2.235371427370811
 20
6.824537744888805
 30
0.0
 10
2.244678286407355
 20
6.826810547894012
 30
0.0
 10
2.254151643319571
 20
6.828081549496719
 30
0.0
 10
2.263714762537734
 20
6.82841390949616
 30
0.0
 10
2.273348443693903
 20
6.827844546633745
 30
0.0
 10
2.282955991728172
 20
6.826251875137297
 30
0.0
 10
2.292534511504811
 20
6.823746062383151
 30
0.0
 10
2.302038747242311
 20
6.820286068988266
 30
0.0
 10
2.311363691451038
 20
6.815839362576241
 30
0.0
 10
2.320416209446071
 20
6.810408287183847
 30
0.0
 10
2.329029386916929
 20
6.803823535327134
 30
0.0
 10
2.334354308697085
 20
6.798796765350899
 30
0.0
 10
2.337060779334622
 20
6.796241834799048
 30
0.0
  0
SPLINE
  5
7B
330
1F
100
AcDbEntity
  8
0
  6
Continuous
 62
     7
370
    15
100
AcDbSpline
210
0.0
220
0.0
230
1.0
 70
     8
 71
     3
 72
    23
 73
    19
 74
     0
 42
0.00000001
 43
0.00000001
 40
0.0
 40
0.0
 40
0.0
 40
0.0
 40
0.0622177747891722
 40
0.1232499884962946
 40
0.1832047973747148
 40
0.2426371654525859
 40
0.3017354750949816
 40
0.3598856519782659
 40
0.4179876014621005
 40
0.4766656636884956
 40
0.5359504504800575
 40
0.5958986838842112
 40
0.6574233861817246
 40
0.7210962029859479
 40
0.7868862838017169
 40
0.8547159604113586
 40
0.9256367977281391
 40
1.0
 40
1.0
 40
1.0
 40
1.0
 10
2.448347911078081
 20
6.394315587798764
 30
0.0
 10
2.445988326993528
 20
6.396794880584245
 30
0.0
 10
2.441314120751619
 20
6.401706223176049
 30
0.0
 10
2.43522448932939
 20
6.40975509738465
 30
0.0
 10
2.429965058095023
 20
6.418178837626201
 30
0.0
 10
2.425601484340406
 20
6.426986989391629
 30
0.0
 10
2.422193113562438
 20
6.436099583913216
 30
0.0
 10
2.419723865870096
 20
6.445435505729055
 30
0.0
 10
2.418259507350273
 20
6.454957647455641
 30
0.0
 10
2.417763443664012
 20
6.464641467273065
 30
0.0
 10
2.418307998020867
 20
6.474425534143196
 30
0.0
 10
2.419889725052965
 20
6.484253646807029
 30
0.0
 10
2.422509930125393
 20
6.494104998990026
 30
0.0
 10
2.42611835704256
 20
6.503979471900736
 30
0.0
 10
2.430833587751446
 20
6.513774171791031
 30
0.0
 10
2.436891789138077
 20
6.523268880517822
 30
0.0
 10
2.444008441071815
 20
6.532602170542862
 30
0.0
 10
2.449526344414576
 20
6.538384149852889
 30
0.0
 10
2.452350666780308
 20
6.541343638714713
 30
0.0
  0
SPLINE
  5
7C
330
1F
100
AcDbEntity
  8
0
  6
Continuous
 62
     7
370
    15
100
AcDbSpline
210
0.0
220
0.0
230
1.0
 70
     8
 71
     3
 72
    23
 73
    19
 74
     0
 42
0.00000001
 43
0.00000001
 40
0.0
 40
0.0
 40
0.0
 40
0.0
 40
0.0634958845685502
 40
0.1257255999592702
 40
0.186753408591509
 40
0.2474569573664788
 40
0.3080748157921087
 40
0.3685303340112677
 40
0.4295501569751013
 40
0.491051246603056
 40
0.5525589389568474
 40
0.6142538537177545
 40
0.675774749397308
 40
0.7379587676396956
 40
0.8012047305139269
 40
0.8659545693029246
 40
0.9318581708190732
 40
1.0
 40
1.0
 40
1.0
 40
1.0
 10
2.559936929801141
 20
6.371568220027571
 30
0.0
 10
2.55753898641957
 20
6.370660774976076
 30
0.0
 10
2.552790916960185
 20
6.368863980202612
 30
0.0
 10
2.545559581038918
 20
6.366698031816314
 30
0.0
 10
2.538289497590918
 20
6.365152020849503
 30
0.0
 10
2.531004376744282
 20
6.364055189137438
 30
0.0
 10
2.523677596736172
 20
6.363523196096755
 30
0.0
 10
2.516320097040979
 20
6.36352307549027
 30
0.0
 10
2.508945434997801
 20
6.364060844667494
 30
0.0
 10
2.501590034896794
 20
6.365140938053161
 30
0.0
 10
2.494290479047921
 20
6.36671448216218
 30
0.0
 10
2.487188112268543
 20
6.369012274308226
 30
0.0
 10
2.480194831042739
 20
6.371704164757451
 30
0.0
 10
2.473463745115299
 20
6.375138097896951
 30
0.0
 10
2.466826167345317
 20
6.379013016988682
 30
0.0
 10
2.46047711377031
 20
6.383604119959338
 30
0.0
 10
2.454194131096296
 20
6.388611607889867
 30
0.0
 10
2.450318223777683
 20
6.392393213338385
 30
0.0
 10
2.448347911078081
 20
6.394315587798764
 30
0.0
  0
LINE
  5
7D
330
1F
100
AcDbEntity
  8
0
  6
Continuous
 62
     7
370
    15
100
AcDbLine
 10
2.542363856
 20
6.4959465314
 30
0.0
 11
2.5599369298
 21
6.37156822
 31
0.0
  0
SPLINE
  5
7E
330
1F
100
AcDbEntity
  8
0
  6
Continuous
 62
     7
370
    15
100
AcDbSpline
210
0.0
220
0.0
230
1.0
 70
     8
 71
     3
 72
    11
 73
     7
 74
     0
 42
0.00000001
 43
0.00000001
 40
0.0
 40
0.0
 40
0.0
 40
0.0
 40
0.2490329127016077
 40
0.5235715842276375
 40
0.7846105172135303
 40
1.0
 40
1.0
 40
1.0
 40
1.0
 10
2.559448788861845
 20
6.483645379689928
 30
0.0
 10
2.558179244198517
 20
6.484868661936105
 30
0.0
 10
2.55551012908672
 20
6.487440514052517
 30
0.0
 10
2.551194437921594
 20
6.490913059253786
 30
0.0
 10
2.54696451989723
 20
6.494208353751754
 30
0.0
 10
2.543796219361695
 20
6.495405369911702
 30
0.0
 10
2.542363855986487
 20
6.495946531360187
 30
0.0
  0
SPLINE
  5
7F
330
1F
100
AcDbEntity
  8
0
  6
Continuous
 62
     7
370
    15
100
AcDbSpline
210
0.0
220
0.0
230
1.0
 70
     8
 71
     3
 72
    13
 73
     9
 74
     0
 42
0.00000001
 43
0.00000001
 40
0.0
 40
0.0
 40
0.0
 40
0.0
 40
0.232420015330857
 40
0.4663553125331943
 40
0.586968768883919
 40
0.7158678049806155
 40
0.8517823460486031
 40
1.0
 40
1.0
 40
1.0
 40
1.0
 10
2.578193400930811
 20
6.438248272335402
 30
0.0
 10
2.577819995482979
 20
6.442136081191925
 30
0.0
 10
2.577070750139038
 20
6.449937045802361
 30
0.0
 10
2.574630857239562
 20
6.459524134375989
 30
0.0
 10
2.571800532032274
 20
6.467149404037014
 30
0.0
 10
2.568566265801659
 20
6.472780695854869
 30
0.0
 10
2.564462303211727
 20
6.47838871346035
 30
0.0
 10
2.561167515806611
 20
6.481843295710928
 30
0.0
 10
2.559448788861845
 20
6.483645379689928
 30
0.0
  0
LINE
  5
80
330
1F
100
AcDbEntity
  8
0
  6
Continuous
 62
     7
370
    15
100
AcDbLine
 10
2.6403825566
 20
6.4534782696
 30
0.0
 11
2.5781934009
 21
6.4382482723
 31
0.0
  0
SPLINE
  5
81
330
1F
100
AcDbEntity
  8
0
  6
Continuous
 62
     7
370
    15
100
AcDbSpline
210
0.0
220
0.0
230
1.0
 70
     8
 71
     3
 72
    15
 73
    11
 74
     0
 42
0.00000001
 43
0.00000001
 40
0.0
 40
0.0
 40
0.0
 40
0.0
 40
0.1392088733661578
 40
0.2711636733169926
 40
0.3958122060655344
 40
0.5141885701981836
 40
0.6304947397406918
 40
0.7499402186542518
 40
0.8726080072129492
 40
1.0
 40
1.0
 40
1.0
 40
1.0
 10
2.595522404275818
 20
6.537780209857852
 30
0.0
 10
2.598660301058167
 20
6.534535571437222
 30
0.0
 10
2.604772581097624
 20
6.528215370350547
 30
0.0
 10
2.61292464304579
 20
6.518289111545284
 30
0.0
 10
2.619950880478893
 20
6.508358204825474
 30
0.0
 10
2.625902910001506
 20
6.49833109985152
 30
0.0
 10
2.630878792172664
 20
6.487966708352976
 30
0.0
 10
2.634877235487097
 20
6.477047244862476
 30
0.0
 10
2.638239579581946
 20
6.465532182506363
 30
0.0
 10
2.639659290391557
 20
6.457546529710614
 30
0.0
 10
2.640382556597119
 20
6.453478269641437
 30
0.0
  0
SPLINE
  5
82
330
1F
100
AcDbEntity
  8
0
  6
Continuous
 62
     7
370
    15
100
AcDbSpline
210
0.0
220
0.0
230
1.0
 70
     8
 71
     3
 72
    23
 73
    19
 74
     0
 42
0.00000001
 43
0.00000001
 40
0.0
 40
0.0
 40
0.0
 40
0.0
 40
0.0624051986935111
 40
0.1236833211093333
 40
0.1844702528177288
 40
0.2454172557228312
 40
0.3059129788480707
 40
0.3660452397328114
 40
0.4253484074600054
 40
0.4853777554693438
 40
0.5457866952290793
 40
0.6065720857452862
 40
0.6682646454591832
 40
0.7317828225929632
 40
0.7965396404591906
 40
0.8623120292472587
 40
0.9300180424484098
 40
1.0
 40
1.0
 40
1.0
 40
1.0
 10
2.452350666780308
 20
6.541343638714713
 30
0.0
 10
2.454761797811965
 20
6.543626279898833
 30
0.0
 10
2.459540513365612
 20
6.548150336363095
 30
0.0
 10
2.46747360240541
 20
6.553958160353093
 30
0.0
 10
2.475855247379372
 20
6.55892538883319
 30
0.0
 10
2.484681092562977
 20
6.562966198038035
 30
0.0
 10
2.493833052312007
 20
6.56607611994761
 30
0.0
 10
2.503139911348551
 20
6.568348922952816
 30
0.0
 10
2.512613268260766
 20
6.569619924555523
 30
0.0
 10
2.522176387478929
 20
6.569952284554963
 30
0.0
 10
2.531810068635099
 20
6.569382921692549
 30
0.0
 10
2.541417616669368
 20
6.567790250196102
 30
0.0
 10
2.550996136446007
 20
6.565284437441956
 30
0.0
 10
2.560500372183507
 20
6.56182444404707
 30
0.0
 10
2.569825316392234
 20
6.557377737635044
 30
0.0
 10
2.578877834387267
 20
6.551946662242651
 30
0.0
 10
2.587491011858125
 20
6.545361910385938
 30
0.0
 10
2.592815933638281
 20
6.540335140409703
 30
0.0
 10
2.595522404275818
 20
6.537780209857852
 30
0.0
  0
LINE
  5
83
330
1F
100
AcDbEntity
  8
0
  6
Continuous
 62
     7
370
    15
100
AcDbLine
 10
2.06247395
 20
6.680511169
 30
0.0
 11
2.0130252729
 21
6.7384534985
 31
0.0
  0
ENDSEC
  0
SECTION
  2
OBJECTS
  0
DICTIONARY
  5
C
330
0
100
AcDbDictionary
281
     1
  3
ACAD_GROUP
350
D
  3
ACAD_LAYOUT
350
1A
  3
ACAD_MLINESTYLE
350
17
  3
ACAD_PLOTSETTINGS
350
19
  3
ACAD_PLOTSTYLENAME
350
E
  0
DICTIONARY
  5
D
102
{ACAD_REACTORS
330
C
102
}
330
C
100
AcDbDictionary
281
     1
  0
DICTIONARY
  5
1A
102
{ACAD_REACTORS
330
C
102
}
330
C
100
AcDbDictionary
281
     1
  3
Layout1
350
1E
  3
Layout2
350
26
  3
Model
350
22
  0
DICTIONARY
  5
17
102
{ACAD_REACTORS
330
C
102
}
330
C
100
AcDbDictionary
281
     1
  3
Standard
350
18
  0
DICTIONARY
  5
19
102
{ACAD_REACTORS
330
C
102
}
330
C
100
AcDbDictionary
281
     1
  0
ACDBDICTIONARYWDFLT
  5
E
102
{ACAD_REACTORS
330
C
102
}
330
C
100
AcDbDictionary
281
     1
  3
Normal
350
F
100
AcDbDictionaryWithDefault
340
F
  0
LAYOUT
  5
1E
102
{ACAD_REACTORS
330
1A
102
}
330
1A
100
AcDbPlotSettings
  1

  2
none_device
  4

  6

 40
0.0
 41
0.0
 42
0.0
 43
0.0
 44
0.0
 45
0.0
 46
0.0
 47
0.0
 48
0.0
 49
0.0
140
0.0
141
0.0
142
1.0
143
1.0
 70
   688
 72
     0
 73
     0
 74
     5
  7

 75
    16
147
1.0
148
0.0
149
0.0
100
AcDbLayout
  1
Layout1
 70
     1
 71
     1
 10
0.0
 20
0.0
 11
12.0
 21
9.0
 12
0.0
 22
0.0
 32
0.0
 14
1.0000000000E+20
 24
1.0000000000E+20
 34
1.0000000000E+20
 15
-1.0000000000E+20
 25
-1.0000000000E+20
 35
-1.0000000000E+20
146
0.0
 13
0.0
 23
0.0
 33
0.0
 16
1.0
 26
0.0
 36
0.0
 17
0.0
 27
1.0
 37
0.0
 76
     0
330
1B
  0
LAYOUT
  5
26
102
{ACAD_REACTORS
330
1A
102
}
330
1A
100
AcDbPlotSettings
  1

  2
none_device
  4

  6

 40
0.0
 41
0.0
 42
0.0
 43
0.0
 44
0.0
 45
0.0
 46
0.0
 47
0.0
 48
0.0
 49
0.0
140
0.0
141
0.0
142
1.0
143
1.0
 70
   688
 72
     0
 73
     0
 74
     5
  7

 75
    16
147
1.0
148
0.0
149
0.0
100
AcDbLayout
  1
Layout2
 70
     1
 71
     2
 10
0.0
 20
0.0
 11
0.0
 21
0.0
 12
0.0
 22
0.0
 32
0.0
 14
0.0
 24
0.0
 34
0.0
 15
0.0
 25
0.0
 35
0.0
146
0.0
 13
0.0
 23
0.0
 33
0.0
 16
1.0
 26
0.0
 36
0.0
 17
0.0
 27
1.0
 37
0.0
 76
     0
330
23
  0
LAYOUT
  5
22
102
{ACAD_REACTORS
330
1A
102
}
330
1A
100
AcDbPlotSettings
  1

  2
none_device
  4

  6

 40
0.0
 41
0.0
 42
0.0
 43
0.0
 44
0.0
 45
0.0
 46
0.0
 47
0.0
 48
0.0
 49
0.0
140
0.0
141
0.0
142
1.0
143
1.0
 70
  1712
 72
     0
 73
     0
 74
     0
  7

 75
     0
147
1.0
148
0.0
149
0.0
100
AcDbLayout
  1
Model
 70
     1
 71
     0
 10
0.0
 20
0.0
 11
11.0
 21
8.5
 12
0.0
 22
0.0
 32
0.0
 14
0.0
 24
0.0
 34
0.0
 15
11.0
 25
8.5
 35
0.0
146
0.0
 13
0.0
 23
0.0
 33
0.0
 16
1.0
 26
0.0
 36
0.0
 17
0.0
 27
1.0
 37
0.0
 76
     0
330
1F
331
29
  0
MLINESTYLE
  5
18
102
{ACAD_REACTORS
330
17
102
}
330
17
100
AcDbMlineStyle
  2
Standard
 70
     0
  3

 62
   256
 51
90.0
 52
90.0
 71
     2
 49
0.5
 62
   256
  6
BYLAYER
 49
-0.5
 62
   256
  6
BYLAYER
  0
ACDBPLACEHOLDER
  5
F
102
{ACAD_REACTORS
330
E
102
}
330
E
  0
ENDSEC
  0
EOF
